<?xml version="1.0" encoding="UTF-8"?>
<!-- Generator: visioncortex VTracer 0.6.12 -->
<svg version="1.1" xmlns="http://www.w3.org/2000/svg" width="32" height="32">
<path d="M0 0 C7.260000000000002 0 14.520000000000003 0 22 0 C22 7.260000000000002 22 14.520000000000003 22 22 C14.739999999999998 22 7.479999999999999 22 0 22 C0 14.739999999999998 0 7.479999999999999 0 0 Z M2 2 C2 7.940000000000001 2 13.880000000000003 2 20 C7.940000000000001 20 13.880000000000003 20 20 20 C20 14.059999999999999 20 8.12 20 2 C14.059999999999999 2 8.12 2 2 2 Z " fill="#000000" transform="translate(5,5)"/>
<path d="M0 0 C0.9900000000000002 0 1.9800000000000004 0 3 0 C3 3.3000000000000007 3 6.600000000000001 3 10 C2.34 10 1.6799999999999997 10 1 10 C1 8.350000000000001 1 6.699999999999999 1 5 C0.009999999999999787 5 -0.9800000000000004 5 -2 5 C-1.125 1.1249999999999982 -1.125 1.1249999999999982 0 0 Z " fill="#000000" transform="translate(15,11)"/>
</svg>
