<?xml version="1.0" encoding="UTF-8"?>
<!-- Generator: visioncortex VTracer 0.6.12 -->
<svg version="1.1" xmlns="http://www.w3.org/2000/svg" width="32" height="32">
<path d="M0 0 C7.260000000000002 0 14.520000000000003 0 22 0 C22 7.260000000000002 22 14.520000000000003 22 22 C14.739999999999998 22 7.479999999999999 22 0 22 C0 14.739999999999998 0 7.479999999999999 0 0 Z M2 2 C2 7.940000000000001 2 13.880000000000003 2 20 C7.940000000000001 20 13.880000000000003 20 20 20 C20 14.059999999999999 20 8.12 20 2 C14.059999999999999 2 8.12 2 2 2 Z " fill="#000000" transform="translate(5,5)"/>
<path d="M0 0 C1.9995474601141296 -0.042543562981151695 4.000416363073107 -0.040807829325038014 6 0 C7 1 7 1 7.0625 3.3125 C7.041874999999997 4.199375 7.021250000000002 5.08625 7 6 C7 7.32 7 8.64 7 10 C4.359999999999999 10 1.7199999999999989 10 -1 10 C-0.6875 8.125 -0.6875 8.125 0 6 C0.9900000000000002 5.34 1.9800000000000004 4.68 3 4 C1.3499999999999996 4 -0.3000000000000007 4 -2 4 C-1.3399999999999999 2.6799999999999997 -0.6799999999999997 1.3599999999999994 0 0 Z " fill="#000000" transform="translate(13,11)"/>
</svg>
