<?xml version="1.0" encoding="UTF-8"?>
<!-- Generator: visioncortex VTracer 0.6.12 -->
<svg version="1.1" xmlns="http://www.w3.org/2000/svg" width="32" height="32">
<path d="M0 0 C7.260000000000002 0 14.520000000000003 0 22 0 C22 7.260000000000002 22 14.520000000000003 22 22 C14.739999999999998 22 7.479999999999999 22 0 22 C0 14.739999999999998 0 7.479999999999999 0 0 Z M2 2 C2 7.940000000000001 2 13.880000000000003 2 20 C7.940000000000001 20 13.880000000000003 20 20 20 C20 14.059999999999999 20 8.12 20 2 C14.059999999999999 2 8.12 2 2 2 Z " fill="#000000" transform="translate(5,5)"/>
<path d="M0 0 C2.6400000000000006 0 5.280000000000001 0 8 0 C8 3.3000000000000007 8 6.600000000000001 8 10 C5.359999999999999 10 2.719999999999999 10 0 10 C0 8.68 0 7.359999999999999 0 6 C0.8249999999999993 6.329999999999998 0.8249999999999993 6.329999999999998 5 8 C5 7.34 5 6.68 5 6 C4.34 6 3.6799999999999997 6 3 6 C3 5.34 3 4.68 3 4 C3.66 4 4.32 4 5 4 C5 3.34 5 2.6799999999999997 5 2 C3.3499999999999996 2.66 1.6999999999999993 3.3200000000000003 0 4 C0 2.6799999999999997 0 1.3599999999999994 0 0 Z " fill="#000000" transform="translate(12,11)"/>
</svg>
