<?xml version="1.0" encoding="UTF-8"?>
<!-- Generator: visioncortex VTracer 0.6.12 -->
<svg version="1.1" xmlns="http://www.w3.org/2000/svg" width="32" height="32">
<path d="M0 0 C7.260000000000002 0 14.520000000000003 0 22 0 C22 7.260000000000002 22 14.520000000000003 22 22 C14.739999999999998 22 7.479999999999999 22 0 22 C0 14.739999999999998 0 7.479999999999999 0 0 Z M2 2 C2 7.940000000000001 2 13.880000000000003 2 20 C7.940000000000001 20 13.880000000000003 20 20 20 C20 14.059999999999999 20 8.12 20 2 C14.059999999999999 2 8.12 2 2 2 Z " fill="#000000" transform="translate(5,5)"/>
<path d="M0 0 C1.3200000000000003 0 2.6400000000000006 0 4 0 C5.125 7.75 5.125 7.75 4 10 C3.34 10 2.6799999999999997 10 2 10 C2 9.34 2 8.68 2 8 C0.34999999999999964 8 -1.3000000000000007 8 -3 8 C-2.4527631652248925 4.625372852220167 -1.945100003085491 2.9176500046282356 0 0 Z M1 4 C2 6 2 6 2 6 Z " fill="#000000" transform="translate(15,11)"/>
</svg>
