<?xml version="1.0" encoding="UTF-8"?>
<!-- Generator: visioncortex VTracer 0.6.12 -->
<svg version="1.1" xmlns="http://www.w3.org/2000/svg" width="32" height="32">
<path d="M0 0 C7.260000000000002 0 14.520000000000003 0 22 0 C22 7.260000000000002 22 14.520000000000003 22 22 C14.739999999999998 22 7.479999999999999 22 0 22 C0 14.739999999999998 0 7.479999999999999 0 0 Z M2 2 C2 7.940000000000001 2 13.880000000000003 2 20 C7.940000000000001 20 13.880000000000003 20 20 20 C20 14.059999999999999 20 8.12 20 2 C14.059999999999999 2 8.12 2 2 2 Z " fill="#000000" transform="translate(5,5)"/>
<path d="M0 0 C1.9800000000000004 0 3.960000000000001 0 6 0 C6.194121805887455 1.4783122140660172 6.3801213095847515 2.9576931575167666 6.5625 4.4375 C6.666914062499998 5.2612109375 6.771328125 6.084921874999999 6.87890625 6.93359375 C6.918867187499998 7.615507812499999 6.958828125 8.297421874999998 7 9 C6 10 6 10 2.9375 10.0625 C1.9681250000000006 10.041874999999997 0.9987499999999994 10.021250000000002 0 10 C-0.33000000000000007 8.68 -0.6600000000000001 7.359999999999999 -1 6 C0.3200000000000003 6 1.6400000000000006 6 3 6 C1.6799999999999997 5.670000000000002 0.35999999999999943 5.34 -1 5 C-0.6699999999999999 3.3499999999999996 -0.33999999999999986 1.6999999999999993 0 0 Z " fill="#000000" transform="translate(13,11)"/>
</svg>
