<?xml version="1.0" encoding="UTF-8"?>
<!-- Generator: visioncortex VTracer 0.6.12 -->
<svg version="1.1" xmlns="http://www.w3.org/2000/svg" width="64" height="64">
<path d="M0 0 C3.960000000000001 0 7.920000000000002 0 12 0 C12.07866166098475 5.191669624993537 11.942517286343701 9.879236790731078 11 15 C11.409921875000002 14.813730468750002 11.409921875000002 14.813730468750002 13.484375 13.87109375 C14.562031250000004 13.398007812499998 15.6396875 12.924921875000003 16.75 12.4375 C17.81734375 11.961835937499998 18.8846875 11.486171875 19.984375 10.99609375 C23 10 23 10 25.28125 10.03125 C27 11 27 11 28.046875 13.28515625 C28.162890625000003 13.743417968750002 28.162890625000003 13.743417968750002 28.75 16.0625 C28.992343750000003 16.9816015625 29.2346875 17.900703125 29.484375 18.84765625 C29.654531249999998 19.5579296875 29.824687500000003 20.268203125 30 21 C20.589977220956726 24.25968109339408 20.589977220956726 24.25968109339408 16 25 C16.398320312499997 25.5194921875 16.796640625000002 26.038984375 17.20703125 26.57421875 C20.021773233748206 30.27926841717221 22.713859740361535 33.93575064953161 25 38 C23.73608512231648 39.0087301636619 22.463591170313407 40.00671822418848 21.1875 41 C20.4798046875 41.556875 19.772109375 42.11375 19.04296875 42.6875 C17 44 17 44 14 44 C12.175781250000007 41.59375000000001 12.175781250000007 41.59375000000001 10.3125 38.5 C9.689882812500002 37.4790625 9.067265625000005 36.458125 8.42578125 35.40625 C7.955273437499997 34.6121875 7.484765625000001 33.818125 7 33 C4.668470038910634 35.83604169636711 2.518051571977292 38.59212035104136 0.75 41.8125 C0.17249999999999943 42.864375 -0.40500000000000114 43.91625 -1 45 C-4.578630395504618 43.348324432844024 -7.748201878718437 41.217135082691975 -11 39 C-10.418272748579403 35.047948196698165 -8.4484225894494 32.77904947298658 -5.9375 29.75 C-5.204023437499998 28.857968749999998 -4.470546875 27.965937499999995 -3.71484375 27.046875 C-3.1489453125000004 26.37140625 -2.583046875000001 25.6959375 -2 25 C-3.175625 24.87625 -4.35125 24.752499999999998 -5.5625 24.625 C-9.541204256900578 24.13564065289458 -13.177665586570207 23.194479504196806 -17 22 C-16.689502739002286 20.562066082563973 -16.376522397666246 19.124668199538224 -16.0625 17.6875 C-15.8884765625 16.8869921875 -15.714453125 16.086484375 -15.53515625 15.26171875 C-15 12.999999999999996 -15 12.999999999999996 -14 10 C-12.603522002240464 10.456365358744947 -11.20784920026184 10.915194880174727 -9.8125 11.375 C-9.0351953125 11.630234375 -8.257890625000002 11.885468750000001 -7.45703125 12.1484375 C-4.942550323989419 13.019911016486972 -2.470878738217124 14.01164850471315 0 15 C0 10.05 0 5.1 0 0 Z " fill="#000000" transform="translate(26,9)"/>
</svg>
