<?xml version="1.0" encoding="UTF-8"?>
<!-- Generator: visioncortex VTracer 0.6.12 -->
<svg version="1.1" xmlns="http://www.w3.org/2000/svg" width="80" height="80">
<path d="M0 0 C1.875 0.12109375 1.875 0.12109375 4.875 -0.87890625 C12.281932621794489 -1.539466030598632 17.9023049281325 -1.5531893497223876 23.875 3.12109375 C25.3125 5.371093749999989 25.3125 5.371093749999989 25.875 7.12109375 C25.256249999999994 7.34796875 24.637500000000003 7.574843749999999 24 7.80859375 C21.06213133180345 9.623159692121398 20.71525409903549 10.760077353858051 19.875 14.12109375 C19.03271812080537 24.789997553131982 19.03271812080537 24.789997553131982 21.875 29.12109375 C23.51863133574963 29.842687994963256 25.185503860783825 30.514607956435228 26.875 31.12109375 C27.875 34.12109375 27.875 34.12109375 26.87109375 36.609375 C20.85736092265944 47.506439747286294 20.85736092265944 47.506439747286294 15.875 51.12109375 C11.5952606697727 51.8564441503827 7.976135373177058 51.48813887439235 3.875 50.12109375 C2.3563824540342893 50.02905632297177 0.8338957441650479 49.99108091394015 -0.6875 49.99609375 C-1.0800195312500023 49.99480468749999 -1.0800195312500023 49.99480468749999 -3.06640625 49.98828125 C-5.125 50.12109375 -5.125 50.12109375 -7.125 51.12109375 C-11.019685210074634 51.81912287115391 -14.573726264009387 52.034343610704155 -18.0625 49.98046875 C-24.56734299503208 43.998336352783 -29.85563216296087 34.16138039305912 -30.328125 25.3203125 C-30.349361892816013 23.816475027465955 -30.36477772182206 22.312546426929337 -30.375 20.80859375 C-30.395625000000003 20.061582031249998 -30.416249999999998 19.314570312499995 -30.4375 18.544921875 C-30.481937907953444 12.218074730128684 -28.957566525100653 8.188604701395612 -24.6875 3.37109375 C-17.561207123056725 -2.886139019998975 -8.866565974393104 -1.3202055954519132 0 0 Z M4.9296875 2.56640625 C0.833059493176961 3.6723400465187694 -4.275259342297801 4.0459640788510995 -8.125 2.12109375 C-13.929376403710883 1.293585912403742 -17.899164052523183 1.9541715279519174 -22.6171875 5.44140625 C-27.739105418842975 11.147169734721452 -27.640076854814012 17.067612682503352 -27.46875 24.36328125 C-26.629325444638624 33.53971786656413 -22.31149273242481 40.43175801223032 -16.125 47.12109375 C-13.385946545182236 48.49062047740888 -11.1541266775405 48.2473073615642 -8.125 48.12109375 C-7.795000000000002 47.95609375000001 -7.795000000000002 47.95609375000001 -6.125 47.12109375 C-4.4398294399451075 47.0231522131763 -2.7505076466371747 46.99134548657767 -1.0625 46.99609375 C-0.07894531249999659 46.99738281250001 0.9046093749999997 46.998671875 1.91796875 47 C4.610876446140743 47.11027759389745 7.101438971899377 47.46620062739402 9.75 47.93359375 C13.205928020980487 48.35174874186241 13.602584017429983 48.313023192265234 16.625 46.18359375 C23.875 36.31553819444445 23.875 36.31553819444445 23.875 33.12109375 C23.483125 32.81171875 23.483125 32.81171875 21.5 31.24609375 C18.10546796905991 28.498139248762783 17.058688893401907 26.6546824181694 16.5390625 22.31640625 C16.455438135533143 15.743531202904848 16.79005431002522 12.260218972871499 20.875 7.12109375 C19.875 4.12109375 19.875 4.12109375 18.08984375 3.1015625 C13.078394524761421 1.3565810373526048 9.974706362505394 0.9252555356910186 4.9296875 2.56640625 Z " fill="#000000" transform="translate(41.125,22.87890625)"/>
<path d="M0 0 C0.4554338670834852 5.692923338543562 -0.31753614109975103 8.601501501869151 -4 13 C-7.2145726579826785 15.35735328252063 -10.096608468542762 15.177426887793509 -14 15 C-14.455433867083485 9.307076661456438 -13.682463858900249 6.398498498130849 -10 2 C-6.7854273420173215 -0.3573532825206289 -3.9033915314572383 -0.17742688779351123 0 0 Z M-10 7 C-10.8125 9.75 -10.8125 9.75 -11 12 C-7.119801414321273 10.741557215455547 -5.058815803654809 9.575837974768879 -3 6 C-3 5.01 -3 4.02 -3 3 C-6.255430281877537 3 -7.709764482249298 4.827212457518566 -10 7 Z " fill="#000000" transform="translate(54,6)"/>
<path d="M0 0 C0.9899999999999984 0 1.9800000000000004 0 3 0 C3 0.990000000000002 3 1.9799999999999969 3 3 C2.009999999999998 3 1.0199999999999996 3 0 3 C0 2.009999999999998 0 1.0200000000000031 0 0 Z " fill="#000000" transform="translate(18,53)"/>
<path d="M0 0 C0.6600000000000001 0 1.3200000000000003 0 2 0 C2 0.990000000000002 2 1.9799999999999969 2 3 C1.009999999999998 3 0.019999999999999574 3 -1 3 C-0.6700000000000017 2.009999999999998 -0.33999999999999986 1.0200000000000031 0 0 Z " fill="#000000" transform="translate(23,60)"/>
<path d="M0 0 C0.9899999999999984 0.3299999999999983 1.9800000000000004 0.6599999999999966 3 1 C3 1.6599999999999966 3 2.3200000000000003 3 3 C2.009999999999998 3 1.0199999999999996 3 0 3 C0 2.009999999999998 0 1.0200000000000031 0 0 Z " fill="#000000" transform="translate(16,45)"/>
<path d="M0 0 C0.9899999999999984 0 1.9800000000000004 0 3 0 C2.6700000000000017 0.990000000000002 2.34 1.9799999999999969 2 3 C1.3399999999999999 2.6700000000000017 0.6799999999999997 2.3400000000000034 0 2 C0 1.3400000000000034 0 0.6799999999999997 0 0 Z " fill="#000000" transform="translate(20,57)"/>
<path d="M0 0 C0.9899999999999984 0.3299999999999983 1.9800000000000004 0.6599999999999966 3 1 C2.6700000000000017 1.6599999999999966 2.34 2.3200000000000003 2 3 C1.3399999999999999 3 0.6799999999999997 3 0 3 C0 2.009999999999998 0 1.0200000000000031 0 0 Z " fill="#000000" transform="translate(17,49)"/>
<path d="M0 0 C0.9899999999999984 0 1.9800000000000004 0 3 0 C2.6700000000000017 0.990000000000002 2.34 1.9799999999999969 2 3 C1.3399999999999999 2.6700000000000017 0.6799999999999997 2.3400000000000034 0 2 C0 1.3400000000000034 0 0.6799999999999997 0 0 Z " fill="#000000" transform="translate(16,37)"/>
<path d="M0 0 C0.9899999999999984 0 1.9800000000000004 0 3 0 C2.6700000000000017 0.9899999999999984 2.34 1.9800000000000004 2 3 C1.3399999999999999 2.6700000000000017 0.6799999999999997 2.3400000000000034 0 2 C0 1.3399999999999999 0 0.6799999999999997 0 0 Z " fill="#000000" transform="translate(20,30)"/>
<path d="M0 0 C0.9899999999999984 0 1.9800000000000004 0 3 0 C3 0.6599999999999966 3 1.3199999999999932 3 2 C2.009999999999998 2 1.0199999999999996 2 0 2 C0 1.3400000000000034 0 0.6800000000000068 0 0 Z " fill="#000000" transform="translate(25,64)"/>
<path d="M0 0 C0.6600000000000001 0 1.3200000000000003 0 2 0 C2 0.990000000000002 2 1.9799999999999969 2 3 C1.3399999999999999 3 0.6799999999999997 3 0 3 C0 2.009999999999998 0 1.0200000000000031 0 0 Z " fill="#000000" transform="translate(16,41)"/>
<path d="M0 0 C0.6600000000000001 0 1.3200000000000003 0 2 0 C2 0.990000000000002 2 1.9799999999999969 2 3 C1.3399999999999999 3 0.6799999999999997 3 0 3 C0 2.009999999999998 0 1.0200000000000031 0 0 Z " fill="#000000" transform="translate(18,33)"/>
<path d="M0 0 C0.6600000000000001 0 1.3200000000000003 0 2 0 C2 0.9899999999999984 2 1.9800000000000004 2 3 C1.3399999999999999 3 0.6799999999999997 3 0 3 C0 2.009999999999998 0 1.0199999999999996 0 0 Z " fill="#000000" transform="translate(24,27)"/>
<path d="M0 0 C0.6600000000000001 0 1.3200000000000003 0 2 0 C2 0.6599999999999966 2 1.3199999999999932 2 2 C1.3399999999999999 2 0.6799999999999997 2 0 2 C0 1.3400000000000034 0 0.6800000000000068 0 0 Z " fill="#000000" transform="translate(28,67)"/>
<path d="M0 0 C0.6600000000000001 0 1.3200000000000003 0 2 0 C2 0.6600000000000001 2 1.3200000000000003 2 2 C1.3399999999999999 2 0.6799999999999997 2 0 2 C0 1.3399999999999999 0 0.6799999999999997 0 0 Z " fill="#000000" transform="translate(28,27)"/>
</svg>
