<?xml version="1.0" encoding="UTF-8"?>
<!-- Generator: visioncortex VTracer 0.6.12 -->
<svg version="1.1" xmlns="http://www.w3.org/2000/svg" width="96" height="96">
<path d="M0 0 C0.774444580078125 -0.007009277343749787 1.54888916015625 -0.014018554687500018 2.3468017578125 -0.021240234375 C4.903442317309995 -0.03882686464026186 7.458973441180294 -0.027195761866757984 10.015625 -0.013671875 C11.793947472103397 -0.01636661347754753 13.572268508216858 -0.020248882267389412 15.3505859375 -0.0252685546875 C19.076314676629707 -0.03116448485441925 22.80165964144682 -0.022597740601817407 26.52734375 -0.00390625 C31.302617868816128 0.01888353614740934 36.07699276025415 0.005760937108379771 40.85223388671875 -0.01819610595703125 C44.52399468207122 -0.032651622433311545 48.195542348724736 -0.028049266508495485 51.8673095703125 -0.0176849365234375 C53.62797146015315 -0.015016959587345724 55.388652712787135 -0.018289918463352706 57.1492919921875 -0.0276031494140625 C59.610465870952424 -0.0377649516438856 62.07018450101704 -0.022274402955684725 64.53125 0 C65.25864379882813 -0.008096923828125213 65.98603759765625 -0.016193847656249982 66.7354736328125 -0.0245361328125 C69.93805021923596 0.029150117813050436 71.98954025208016 0.34310532424524354 74.7166748046875 2.0665283203125 C76.83636634529446 5.420715919323246 76.82601839507343 8.405608191089751 76.783203125 12.251953125 C76.79021240234376 13.026397705078125 76.7972216796875 13.80084228515625 76.804443359375 14.5987548828125 C76.82202998964026 17.155395442309995 76.81039888686676 19.710926566180294 76.796875 22.267578125 C76.79956973847754 24.045900597103397 76.8034520072674 25.824221633216858 76.8084716796875 27.6025390625 C76.81436760985441 31.328267801629707 76.80580086560181 35.05361276644682 76.787109375 38.779296875 C76.76431958885259 43.55457099381613 76.77744218789162 48.32894588525415 76.80139923095703 53.10418701171875 C76.8158547474333 56.77594780707122 76.81125239150849 60.447495473724736 76.80088806152344 64.1192626953125 C76.79822008458734 65.87992458515315 76.80149304346335 67.64060583778713 76.81080627441406 69.4012451171875 C76.82096807664388 71.86241899595242 76.80547752795569 74.32213762601704 76.783203125 76.783203125 C76.79130004882812 77.51059692382813 76.79939697265625 78.23799072265625 76.8077392578125 78.9874267578125 C76.75405300718695 82.19000334423596 76.44009780075476 84.24149337708016 74.7166748046875 86.9686279296875 C71.36248720567674 89.08831947029448 68.37759493391027 89.07797152007343 64.53125 89.03515625 C63.756805419921875 89.04216552734376 62.98236083984375 89.0491748046875 62.1844482421875 89.056396484375 C59.62780768269005 89.07398311464026 57.07227655881967 89.06235201186676 54.515625 89.048828125 C52.7373025278966 89.05152286347754 50.958981491783135 89.0554051322674 49.1806640625 89.0604248046875 C45.4549353233703 89.06632073485441 41.72959035855318 89.05775399060181 38.00390625 89.0390625 C33.228632131183915 89.01627271385259 28.454257239745836 89.02939531289162 23.67901611328125 89.05335235595703 C20.00725531792881 89.0678078724333 16.335707651275243 89.06320551650849 12.6639404296875 89.05284118652344 C10.903278539846855 89.05017320958734 9.142597287212858 89.05344616846335 7.3819580078125 89.06275939941406 C4.920784129047551 89.07292120164388 2.4610654989829754 89.05743065295569 0 89.03515625 C-0.7273937988281247 89.04325317382812 -1.4547875976562494 89.05135009765625 -2.2042236328125 89.0596923828125 C-5.406800219235965 89.00600613218695 -7.458290252080165 88.69205092575476 -10.1854248046875 86.9686279296875 C-12.305116345294476 83.61444033067674 -12.294768395073433 80.62954805891027 -12.251953125 76.783203125 C-12.25896240234375 76.00875854492188 -12.2659716796875 75.23431396484375 -12.273193359375 74.4364013671875 C-12.290779989640262 71.87976080769005 -12.279148886866757 69.32422968381967 -12.265625 66.767578125 C-12.268319738477548 64.9892556528966 -12.272202007267389 63.210934616783135 -12.2772216796875 61.4326171875 C-12.283117609854418 57.7068884483703 -12.274550865601817 53.98154348355318 -12.255859375 50.255859375 C-12.23306958885259 45.480585256183915 -12.246192187891621 40.706210364745836 -12.270149230957031 35.93096923828125 C-12.284604747433312 32.25920844292881 -12.280002391508496 28.587660776275243 -12.269638061523438 24.9158935546875 C-12.266970084587346 23.155231664846855 -12.270243043463353 21.39455041221286 -12.279556274414063 19.6339111328125 C-12.289718076643886 17.17273725404755 -12.274227527955684 14.713018623982975 -12.251953125 12.251953125 C-12.260050048828125 11.524559326171875 -12.26814697265625 10.79716552734375 -12.2764892578125 10.0477294921875 C-12.22280300718695 6.845152905764037 -11.908847800754756 4.793662872919835 -10.1854248046875 2.0665283203125 C-6.831237205676759 -0.05316322029446674 -3.8463449339102453 -0.04281527007343211 0 0 Z M-3.734375 10.517578125 C-3.1788194444444446 15.073133680555557 -3.1788194444444446 15.073133680555557 -1.734375 16.517578125 C0.9238515718237146 16.64416034270589 3.5444992359858993 16.70278026349264 6.203125 16.705078125 C6.94498046875 16.71732421875 7.6868359375 16.7295703125 8.451171875 16.7421875 C10.390761294478501 16.747462901866214 12.329862097949167 16.6394671444461 14.265625 16.517578125 C14.925625 15.857578125 15.585625 15.197578125 16.265625 14.517578125 C15.71006944444444 9.962022569444441 15.71006944444444 9.962022569444441 14.265625 8.517578125 C11.607398428176289 8.390995907294108 8.986750764014097 8.332375986507358 6.328125 8.330078125 C5.58626953125 8.31783203125 4.8444140625 8.3055859375 4.080078125 8.29296875 C-1.494603300180831 8.277806425180831 -1.494603300180831 8.277806425180831 -3.734375 10.517578125 Z M20.265625 10.517578125 C20.821180555555557 15.073133680555557 20.821180555555557 15.073133680555557 22.265625 16.517578125 C24.923851571823718 16.64416034270589 27.544499235985903 16.70278026349264 30.203125 16.705078125 C30.944980468750003 16.71732421875 31.6868359375 16.7295703125 32.451171875 16.7421875 C34.3907612944785 16.747462901866214 36.32986209794917 16.6394671444461 38.265625 16.517578125 C38.925625 15.857578125 39.585625 15.197578125 40.265625 14.517578125 C39.71006944444444 9.962022569444441 39.71006944444444 9.962022569444441 38.265625 8.517578125 C35.60739842817629 8.390995907294108 32.9867507640141 8.332375986507358 30.328125 8.330078125 C29.586269531249997 8.31783203125 28.8444140625 8.3055859375 28.080078125 8.29296875 C22.505396699819165 8.277806425180831 22.505396699819165 8.277806425180831 20.265625 10.517578125 Z M44.265625 10.517578125 C44.82118055555556 15.073133680555557 44.82118055555556 15.073133680555557 46.265625 16.517578125 C48.92385157182372 16.64416034270589 51.54449923598591 16.70278026349264 54.203125 16.705078125 C54.94498046875 16.71732421875 55.68683593750001 16.7295703125 56.451171875 16.7421875 C58.390761294478494 16.747462901866214 60.32986209794916 16.6394671444461 62.265625 16.517578125 C62.925625 15.857578125 63.58562499999999 15.197578125 64.265625 14.517578125 C63.71006944444444 9.962022569444441 63.71006944444444 9.962022569444441 62.265625 8.517578125 C59.607398428176296 8.390995907294108 56.98675076401409 8.332375986507358 54.328125 8.330078125 C53.58626953125 8.31783203125 52.84441406249999 8.3055859375 52.080078125 8.29296875 C46.505396699819165 8.277806425180831 46.505396699819165 8.277806425180831 44.265625 10.517578125 Z M-3.734375 22.517578125 C-3.1788194444444446 27.073133680555557 -3.1788194444444446 27.073133680555557 -1.734375 28.517578125 C0.9238515718237146 28.644160342705888 3.5444992359858993 28.70278026349264 6.203125 28.705078125 C6.94498046875 28.71732421875 7.6868359375 28.7295703125 8.451171875 28.7421875 C10.390761294478501 28.747462901866214 12.329862097949167 28.6394671444461 14.265625 28.517578125 C14.925625 27.857578125 15.585625 27.197578125 16.265625 26.517578125 C15.71006944444444 21.962022569444443 15.71006944444444 21.962022569444443 14.265625 20.517578125 C11.607398428176289 20.39099590729411 8.986750764014097 20.33237598650736 6.328125 20.330078125 C5.58626953125 20.31783203125 4.8444140625 20.3055859375 4.080078125 20.29296875 C-1.494603300180831 20.27780642518083 -1.494603300180831 20.27780642518083 -3.734375 22.517578125 Z M20.265625 22.517578125 C20.821180555555557 27.073133680555557 20.821180555555557 27.073133680555557 22.265625 28.517578125 C24.923851571823718 28.644160342705888 27.544499235985903 28.70278026349264 30.203125 28.705078125 C30.944980468750003 28.71732421875 31.6868359375 28.7295703125 32.451171875 28.7421875 C34.3907612944785 28.747462901866214 36.32986209794917 28.6394671444461 38.265625 28.517578125 C38.925625 27.857578125 39.585625 27.197578125 40.265625 26.517578125 C39.71006944444444 21.962022569444443 39.71006944444444 21.962022569444443 38.265625 20.517578125 C35.60739842817629 20.39099590729411 32.9867507640141 20.33237598650736 30.328125 20.330078125 C29.586269531249997 20.31783203125 28.8444140625 20.3055859375 28.080078125 20.29296875 C22.505396699819165 20.27780642518083 22.505396699819165 20.27780642518083 20.265625 22.517578125 Z M-3.734375 34.517578125 C-3.1788194444444446 39.07313368055556 -3.1788194444444446 39.07313368055556 -1.734375 40.517578125 C0.9238515718237146 40.64416034270589 3.5444992359858993 40.70278026349264 6.203125 40.705078125 C6.94498046875 40.71732421875 7.6868359375 40.7295703125 8.451171875 40.7421875 C10.390761294478501 40.747462901866214 12.329862097949167 40.6394671444461 14.265625 40.517578125 C14.925625 39.857578125 15.585625 39.197578125 16.265625 38.517578125 C15.71006944444444 33.96202256944444 15.71006944444444 33.96202256944444 14.265625 32.517578125 C11.607398428176289 32.39099590729411 8.986750764014097 32.33237598650736 6.328125 32.330078125 C5.58626953125 32.31783203125 4.8444140625 32.3055859375 4.080078125 32.29296875 C-1.494603300180831 32.27780642518083 -1.494603300180831 32.27780642518083 -3.734375 34.517578125 Z M41.265625 43.517578125 C41.015625 46.517578125 41.015625 46.517578125 41.265625 49.517578125 C43.265625 51.517578125 43.265625 51.517578125 46.265625 51.767578125 C49.265625 51.517578125 49.265625 51.517578125 51.265625 49.517578125 C51.515625 46.517578125 51.515625 46.517578125 51.265625 43.517578125 C49.265625 41.517578125 49.265625 41.517578125 46.265625 41.267578125 C43.265625 41.517578125 43.265625 41.517578125 41.265625 43.517578125 Z M13.265625 71.517578125 C12.640625 74.517578125 12.640625 74.517578125 13.265625 77.517578125 C17.049455208882335 80.4618061554489 19.97961172170629 80.90168126389536 24.703125 80.916015625 C25.927734375 80.91988281249999 27.15234375 80.92375 28.4140625 80.927734375 C29.685078125000004 80.9161328125 30.95609375 80.90453125 32.265625 80.892578125 C33.536640625000004 80.9041796875 34.80765625 80.91578125 36.1171875 80.927734375 C36.7294921875 80.92580078125 36.7294921875 80.92580078125 39.828125 80.916015625 C40.9431640625 80.9126318359375 42.058203125 80.909248046875 43.20703125 80.90576171875 C46.640104463021935 80.47005079851493 48.54376761672444 79.6354767516118 51.265625 77.517578125 C51.890625 74.517578125 51.890625 74.517578125 51.265625 71.517578125 C47.481794791117665 68.5733500945511 44.55163827829371 68.13347498610464 39.828125 68.119140625 C38.603515625 68.1152734375 37.37890625 68.11140625 36.1171875 68.107421875 C34.846171874999996 68.1190234375 33.57515625 68.130625 32.265625 68.142578125 C30.994609374999996 68.1309765625 29.72359375 68.119375 28.4140625 68.107421875 C27.8017578125 68.10935546875 27.8017578125 68.10935546875 24.703125 68.119140625 C23.588085937499997 68.1225244140625 22.473046875 68.125908203125 21.32421875 68.12939453125 C17.891145536978044 68.56510545148507 15.98748238327557 69.39967949838818 13.265625 71.517578125 Z " fill="#000000" transform="translate(15.734375,3.482421875)"/>
</svg>
