<?xml version="1.0" encoding="UTF-8"?>
<!-- Generator: visioncortex VTracer 0.6.12 -->
<svg version="1.1" xmlns="http://www.w3.org/2000/svg" width="80" height="80">
<path d="M0 0 C3.8632862719633394 1.5847357972747567 6.288769227717474 4.059568869900236 9.203125 7.0078125 C9.68577819824219 7.493295593261719 10.168431396484372 7.978778686523437 10.66571044921875 8.478973388671875 C12.198585617660797 10.022998660154624 13.724340036629314 11.573848240267829 15.25 13.125 C16.291203610136847 14.176240087722121 17.33286541030644 15.227026570877314 18.375 16.27734375 C20.921994641939406 18.84633003638344 23.46265176697517 21.421481613418848 26 24 C24.413085072654084 27.846980710422926 21.821610600380353 30.533465246945255 18.94921875 33.45703125 C18.453397979736337 33.96425216674805 17.957577209472646 34.47147308349609 17.446731567382813 34.99406433105469 C16.399686337257208 36.05994245625053 15.349749889431308 37.122987219261475 14.297119140625 38.183349609375 C12.689092731203488 39.810887942466124 11.103624426740012 41.45849376231908 9.517578125 43.107421875 C8.496116931427387 44.14193522285252 7.473372639744021 45.175183564058905 6.44921875 46.20703125 C5.97820236206055 46.70274124145508 5.507185974121093 47.19845123291016 5.0218963623046875 47.70918273925781 C3.647216796875 49.065673828125 3.647216796875 49.065673828125 1 51 C-1.673339843749993 50.8330078125 -1.673339843749993 50.8330078125 -4 50 C-4.883007812499997 49.8233984375 -5.766015625000001 49.646796875 -6.67578125 49.46484375 C-9.117187500000014 48.9765625 -11.558593749999986 48.48828125 -14 48 C-14.247500000000002 48.86625 -14.495000000000005 49.7325 -14.75 50.625 C-17.26220757439691 57.40796045087166 -21.457939407840037 62.728969703920015 -28 66 C-29.663455820094526 66.1208253382839 -31.332205912315125 66.17537940343253 -33 66.1875 C-33.886875 66.2016796875 -34.77375 66.215859375 -35.6875 66.23046875 C-38 66 -38 66 -40 64 C-40.757525478209885 59.10250969901513 -40.533443046955085 55.06688609391018 -38.3125 50.625 C-34.153686924526454 45.904185157570566 -29.51197036510149 42.9119843438272 -24 40 C-23.34 40 -22.68 40 -22 40 C-22.2281640625 39.18015625 -22.456328125 38.3603125 -22.69140625 37.515625 C-22.9788671875 36.43796875 -23.266328125 35.3603125 -23.5625 34.25 C-23.8525390625 33.18265625 -24.142578125 32.1153125 -24.44140625 31.015625 C-25.01973855349154 27.893439417514216 -25.15572915899218 26.87763574868166 -24 24 C-22.266242677178347 22.011358973380666 -20.53938987473532 20.190210617876325 -18.65234375 18.359375 C-18.121053619384767 17.832329711914063 -17.58976348876953 17.305284423828127 -17.042373657226563 16.76226806640625 C-15.347671751923194 15.08432812927241 -13.64282783351669 13.417132717932923 -11.9375 11.75 C-10.785122547226479 10.612672554684414 -9.633421478558809 9.474659337911405 -8.482421875 8.3359375 C-5.662728156528118 5.549280083514384 -2.8338941170976355 2.772212081955984 0 0 Z M-1.7265625 6.4609375 C-2.039804687500002 6.7767578125 -2.039804687500002 6.7767578125 -3.625 8.375 C-4.256640625000003 9.001484375 -4.888281249999999 9.62796875 -5.5390625 10.2734375 C-7 12 -7 12 -7 14 C-5 13.666666666666664 -3 13.333333333333336 -1 13 C1 12.666666666666668 3 12.333333333333332 5 12 C4.670000000000002 15.630000000000003 4.340000000000003 19.26 4 23 C6.640000000000001 23.33 9.280000000000001 23.66 12 24 C12.329999999999998 26.64 12.659999999999997 29.28 13 32 C16.05795199767175 30.26440562294306 18.633799885041185 28.615273811270256 21 26 C19.547582640608823 22.667654258980416 17.714991397116762 20.457743941447823 15.15625 17.890625 C14.404726562500002 17.1365234375 13.653203125000005 16.382421875 12.87890625 15.60546875 C12.093867187499995 14.8281640625 11.308828125000005 14.050859375000002 10.5 13.25 C9.714960937499995 12.4572265625 8.929921874999998 11.664453125000001 8.12109375 10.84765625 C7.745332031250001 10.47318359375 7.745332031250001 10.47318359375 5.84375 8.578125 C5.154746093749999 7.891376953125 4.465742187499998 7.204628906250001 3.755859375 6.4970703125 C1.3764863035082158 4.4683834834694665 0.6632816825451044 4.438761653231069 -1.7265625 6.4609375 Z M0.2265625 15.00390625 C-2.9321095660876253 16.416996384828675 -5.585138854775764 16.00832110789733 -8.9765625 15.77734375 C-9.310429687500005 15.814082031249999 -9.310429687500005 15.814082031249999 -11 16 C-11.329999999999998 16.495 -11.329999999999998 16.495 -13 19 C-6.399999999999999 25.6 0.20000000000000284 32.2 7 39 C8.649999999999999 37.35 10.299999999999997 35.7 12 34 C11.340000000000003 34 10.68 34 10 34 C10 31.36 10 28.72 10 26 C7.359999999999999 26 4.719999999999999 26 2 26 C2.3299999999999983 22.04 2.6599999999999966 18.08 3 14 C2 14 2 14 0.2265625 15.00390625 Z M-18.625 23.0625 C-21 26 -21 26 -20.8125 29.3125 C-20.544375 30.529375 -20.27625 31.746250000000003 -20 33 C-19.640031635264975 35.86900159355976 -19.710766603346585 38.05946046735693 -20 41 C-22.616249648054065 43.94328085406082 -25.553554487454882 45.26154094189514 -29.0625 46.875 C-33.09355654722704 48.833377188350376 -35.0522220184816 50.86097178927339 -37 55 C-37.3125 58.8125 -37.3125 58.8125 -37 62 C-36 63 -36 63 -32.875 63.375 C-28.078153279394495 62.91078902703818 -25.224910925107448 61.475819326603215 -22 58 C-20.212288647241646 55.175817795530065 -18.658552074759747 52.317104149519494 -17.1640625 49.328125 C-16 47 -16 47 -15 46 C-13.14453125 45.8671875 -13.14453125 45.8671875 -10.8125 45.875 C-9.999101562500002 45.875 -9.185703125000003 45.875 -8.34765625 45.875 C-5.999999999999993 46 -5.999999999999993 46 -2.75 46.875 C-1.8425000000000011 46.916250000000005 -0.9350000000000023 46.957499999999996 0 47 C1.3623046875 45.69970703125 1.3623046875 45.69970703125 2.671875 44.0078125 C3.440156250000001 43.015234375 4.208437500000002 42.02265625 5 41 C2.17317491016059 38.14852787718412 -0.6568696320665097 35.30029574098188 -3.489990234375 32.455078125 C-4.454106646335717 31.48592079403595 -5.417325287906479 30.515869524983472 -6.379638671875 29.544921875 C-7.759863586221456 28.152620880600075 -9.143549781650819 26.763753803361183 -10.52734375 25.375 C-11.359997558593747 24.537109375 -12.192651367187501 23.69921875 -13.050537109375 22.8359375 C-15.454832612691916 20.571654195686506 -15.454832612691916 20.571654195686506 -18.625 23.0625 Z " fill="#000000" transform="translate(49,5)"/>
<path d="M0 0 C1.6499999999999986 0.3299999999999983 3.3000000000000007 0.6599999999999966 5 1 C4.670000000000002 2.6499999999999986 4.34 4.299999999999997 4 6 C2.3500000000000014 5.670000000000002 0.6999999999999993 5.340000000000003 -1 5 C-0.6699999999999999 3.3500000000000014 -0.33999999999999986 1.7000000000000028 0 0 Z " fill="#000000" transform="translate(16,59)"/>
<path d="M0 0 C0.990000000000002 0 1.9799999999999969 0 3 0 C3 0.990000000000002 3 1.9799999999999969 3 3 C2.009999999999998 2.6700000000000017 1.0200000000000031 2.3400000000000034 0 2 C0 1.3400000000000034 0 0.6799999999999997 0 0 Z " fill="#000000" transform="translate(38,34)"/>
<path d="M0 0 C0.990000000000002 0 1.9799999999999969 0 3 0 C3 0.9899999999999984 3 1.9799999999999969 3 3 C2.009999999999998 2.6700000000000017 1.0200000000000031 2.3400000000000034 0 2 C0 1.3400000000000034 0 0.6799999999999997 0 0 Z " fill="#000000" transform="translate(35,31)"/>
<path d="M0 0 C0.6599999999999966 0 1.3200000000000003 0 2 0 C2 0.990000000000002 2 1.9799999999999969 2 3 C1.009999999999998 2.6700000000000017 0.020000000000003126 2.3400000000000034 -1 2 C-0.6700000000000017 1.3400000000000034 -0.3400000000000034 0.6799999999999997 0 0 Z " fill="#000000" transform="translate(50,45)"/>
<path d="M0 0 C0.990000000000002 0.3299999999999983 1.9799999999999969 0.6599999999999966 3 1 C2.6700000000000017 1.6599999999999966 2.3400000000000034 2.3200000000000003 2 3 C1.3400000000000034 3 0.6799999999999997 3 0 3 C0 2.009999999999998 0 1.0200000000000031 0 0 Z " fill="#000000" transform="translate(47,42)"/>
<path d="M0 0 C0.6599999999999966 0.3299999999999983 1.3200000000000003 0.6599999999999966 2 1 C2 1.6599999999999966 2 2.3200000000000003 2 3 C1.009999999999998 3 0.020000000000003126 3 -1 3 C-0.6700000000000017 2.009999999999998 -0.3400000000000034 1.0200000000000031 0 0 Z " fill="#000000" transform="translate(45,39)"/>
<path d="M0 0 C0.990000000000002 0 1.9799999999999969 0 3 0 C2.6700000000000017 0.990000000000002 2.3400000000000034 1.9799999999999969 2 3 C1.3400000000000034 2.6700000000000017 0.6799999999999997 2.3400000000000034 0 2 C0 1.3400000000000034 0 0.6799999999999997 0 0 Z " fill="#000000" transform="translate(41,37)"/>
<path d="M0 0 C0.6599999999999966 0 1.3200000000000003 0 2 0 C2 0.9899999999999984 2 1.9800000000000004 2 3 C1.3400000000000034 3 0.6799999999999997 3 0 3 C0 2.009999999999998 0 1.0199999999999996 0 0 Z " fill="#000000" transform="translate(33,28)"/>
</svg>
