<?xml version="1.0" encoding="UTF-8"?>
<!-- Generator: visioncortex VTracer 0.6.12 -->
<svg version="1.1" xmlns="http://www.w3.org/2000/svg" width="80" height="80">
<path d="M0 0 C2.9700000000000006 0 5.940000000000001 0 9 0 C8.670000000000002 1.3200000000000003 8.34 2.6400000000000006 8 4 C9.649999999999999 4 11.3 4 13 4 C12.670000000000002 2.6799999999999997 12.34 1.3599999999999994 12 0 C16.29 0 20.58 0 25 0 C24.67 1.3200000000000003 24.340000000000003 2.6400000000000006 24 4 C24.57032958984375 3.9947631835937507 24.57032958984375 3.9947631835937507 27.45654296875 3.96826171875 C31.67949294302018 3.9321228333447795 35.90242919232528 3.909121879192927 40.12548828125 3.89013671875 C41.95493872798114 3.880065157064923 43.784373029006105 3.86640724361966 45.61376953125 3.84912109375 C48.23994933886629 3.8249232310239965 50.86591674855005 3.8135286793456107 53.4921875 3.8046875 C54.313068542480465 3.7943649291992188 55.13394958496093 3.7840423583984375 55.979705810546875 3.773406982421875 C57.987891423139956 3.7730081583385573 59.99555381926676 3.8775046032276315 62 4 C64.47565035199277 6.475650351992762 64.25234961567902 7.193057332073877 64.2587890625 10.6015625 C64.26509338378906 11.555952148437498 64.27139770507813 12.510341796875 64.27789306640625 13.49365234375 C64.27384460449218 14.5269970703125 64.26979614257813 15.560341796875 64.265625 16.625 C64.26753845214844 17.6828369140625 64.26945190429687 18.740673828125 64.27142333984375 19.83056640625 C64.27278602162984 22.06998939484233 64.26908382138946 24.309420257754397 64.2607421875 26.548828125 C64.25004402249127 29.985856774170706 64.2606348753806 33.422362698329614 64.2734375 36.859375 C64.27211592024538 39.03125115916193 64.26955355932556 41.20312699180393 64.265625 43.375 C64.26967346191407 44.4083447265625 64.27372192382812 45.441689453125 64.27789306640625 46.50634765625 C64.27474090576172 46.98354248046875 64.27474090576172 46.98354248046875 64.2587890625 49.3984375 C64.25719787597656 50.2406787109375 64.25560668945313 51.082919921875 64.25396728515625 51.95068359375 C64 54 64 54 62 56 C59.267333984375014 56.25396728515625 59.267333984375014 56.25396728515625 55.74609375 56.2587890625 C54.431330566406245 56.265093383789065 53.11656738281249 56.27139770507813 51.761962890625 56.27789306640625 C50.32047390459681 56.274313397257615 48.878986134242844 56.270211464587874 47.4375 56.265625 C45.96541275861012 56.266971677279656 44.49332594999601 56.26891223109479 43.021240234375 56.27142333984375 C39.93436452478387 56.27437449370487 36.847604468843514 56.27007731581713 33.7607421875 56.2607421875 C29.79927871198067 56.2493475624741 25.83808621808717 56.255907093814926 21.876632690429688 56.267887115478516 C18.836364232499644 56.27510600416008 15.796160268155987 56.27281767546668 12.755889892578125 56.26763153076172 C11.295013103784058 56.2662951088945 9.834130503509527 56.26794249777066 8.373260498046875 56.27259063720703 C6.33347685020529 56.27765605960349 4.293672738064956 56.268569792182646 2.25390625 56.2587890625 C1.6729016113281254 56.257993469238286 1.6729016113281254 56.257993469238286 -1.267333984375 56.25396728515625 C-3.999999999999999 56 -3.999999999999999 56 -6 54 C-6.25396728515625 51.95068359375 -6.25396728515625 51.95068359375 -6.2587890625 49.3984375 C-6.265093383789062 48.4440478515625 -6.271397705078125 47.489658203125 -6.27789306640625 46.50634765625 C-6.273844604492187 45.4730029296875 -6.269796142578125 44.439658203125 -6.265625 43.375 C-6.267538452148438 42.3171630859375 -6.269451904296875 41.259326171875 -6.27142333984375 40.16943359375 C-6.272786021629845 37.93001060515767 -6.2690838213894535 35.6905797422456 -6.2607421875 33.451171875 C-6.250044022491263 30.0141432258293 -6.260634875380598 26.57763730167038 -6.2734375 23.140625 C-6.272115920245384 20.96874884083807 -6.269553559325564 18.796873008196073 -6.265625 16.625 C-6.267649230957031 16.108327636718748 -6.267649230957031 16.108327636718748 -6.27789306640625 13.49365234375 C-6.271588745117188 12.539262695312502 -6.265284423828125 11.584873046875 -6.2587890625 10.6015625 C-6.257197875976562 9.759321289062498 -6.255606689453125 8.917080078125 -6.25396728515625 8.04931640625 C-6 6 -6 6 -4 4 C-1.375 3.875 -1.375 3.875 1 4 C0.6699999999999999 2.6799999999999997 0.33999999999999986 1.3599999999999994 0 0 Z M3 2 C3 2.66 3 3.3200000000000003 3 4 C3.99 4 4.98 4 6 4 C6 3.34 6 2.6799999999999997 6 2 C5.009999999999998 2 4.02 2 3 2 Z M15 2 C15 2.66 15 3.3200000000000003 15 4 C17.31 4 19.62 4 22 4 C22 3.34 22 2.6799999999999997 22 2 C19.689999999999998 2 17.38 2 15 2 Z M-2.838287353515625 7.264984130859375 C-4.262331654040114 9.391791880819149 -4.379855482308491 10.59982456063377 -4.38818359375 13.1484375 C-4.397640075683594 13.979399414062499 -4.407096557617187 14.810361328124998 -4.416839599609375 15.66650390625 C-4.4107669067382815 16.560307617187497 -4.404694213867188 17.454111328125002 -4.3984375 18.375 C-4.401307678222656 19.2958740234375 -4.404177856445313 20.216748046875 -4.407135009765625 21.16552734375 C-4.409176311836163 23.112310942658212 -4.403641834028932 25.059115020119933 -4.39111328125 27.005859375 C-4.375060559224789 29.988746994957353 -4.390959720273836 32.97027961178067 -4.41015625 35.953125 C-4.408173829948225 37.843752996043854 -4.404330179985699 39.73438014774607 -4.3984375 41.625 C-4.4045101928710935 42.5188037109375 -4.410582885742187 43.412607421875 -4.416839599609375 44.33349609375 C-4.407383117675781 45.1644580078125 -4.397926635742188 45.995419921875 -4.38818359375 46.8515625 C-4.385796813964844 47.5819775390625 -4.383410034179688 48.312392578125 -4.380950927734375 49.06494140625 C-3.8694037863205235 51.663369760232975 -3.1810727437063715 52.4991343144683 -1 54 C1.6184082031250089 54.380950927734375 1.6184082031250089 54.380950927734375 4.80078125 54.38818359375 C5.992116699218748 54.3976400756836 7.1834521484375 54.407096557617194 8.410888671875 54.416839599609375 C9.698420410156253 54.410766906738274 10.985952148437498 54.40469421386719 12.3125 54.3984375 C13.646241854077548 54.40045855385816 14.979982631162642 54.40337025545054 16.313720703125 54.407135009765625 C19.108017257472273 54.411556957390815 21.902025981085124 54.405131899201365 24.6962890625 54.39111328125 C28.277744651612096 54.37402094163944 31.858525820190614 54.38386289091872 35.43995666503906 54.40183067321777 C38.19377726155337 54.412672310574976 40.94743801154358 54.40922054363136 43.701263427734375 54.40144729614258 C45.66388384777723 54.398473286172134 47.62651048441309 54.40758291738706 49.589111328125 54.416839599609375 C50.78044677734375 54.40738311767578 51.9717822265625 54.39792663574218 53.19921875 54.38818359375 C54.24940185546875 54.385796813964845 55.299584960937494 54.38341003417969 56.381591796875 54.380950927734375 C59 54 59 54 60.838287353515625 52.735015869140625 C62.26233165404011 50.608208119180865 62.379855482308486 49.400175439366215 62.38818359375 46.8515625 C62.3929118347168 46.43608154296875 62.3929118347168 46.43608154296875 62.416839599609375 44.33349609375 C62.410766906738274 43.4396923828125 62.40469421386719 42.545888671875 62.3984375 41.625 C62.40130767822265 40.7041259765625 62.404177856445315 39.783251953125 62.407135009765625 38.83447265625 C62.40917631183616 36.88768905734179 62.40364183402893 34.94088497988007 62.39111328125 32.994140625 C62.37506055922479 30.011253005042605 62.39095972027384 27.029720388219346 62.41015625 24.046875 C62.408173829948225 22.156247003956146 62.404330179985706 20.265619852253923 62.3984375 18.375 C62.4045101928711 17.481196289062503 62.41058288574219 16.587392578124998 62.416839599609375 15.66650390625 C62.40738311767578 14.835541992187501 62.39792663574218 14.004580078125002 62.38818359375 13.1484375 C62.38699020385742 12.78322998046875 62.38699020385742 12.78322998046875 62.380950927734375 10.93505859375 C61.86940378632053 8.33663023976704 61.181072743706366 7.500865685531693 59 6 C56.381591796875 5.619049072265625 56.381591796875 5.619049072265625 53.19921875 5.61181640625 C52.00788330078125 5.602359924316406 50.8165478515625 5.592903442382813 49.589111328125 5.583160400390625 C48.30157958984375 5.5892330932617185 47.0140478515625 5.595305786132812 45.6875 5.6015625 C44.35375814592245 5.5995414461418385 43.02001736883736 5.596629744549457 41.686279296875 5.592864990234375 C38.89198274252771 5.588443042609185 36.09797401891488 5.594868100798635 33.3037109375 5.60888671875 C29.722255348387918 5.6259790583605565 26.141474179809393 5.616137109081286 22.560043334960938 5.598169326782227 C19.806222738446596 5.587327689425017 17.05256198845644 5.5907794563686295 14.298736572265625 5.598552703857422 C12.336116152222775 5.601526713827873 10.373489515586911 5.59241708261294 8.410888671875 5.583160400390625 C7.815220947265626 5.587888641357424 7.815220947265626 5.587888641357424 4.80078125 5.61181640625 C4.275689697265625 5.613009796142578 4.275689697265625 5.613009796142578 1.618408203125 5.619049072265625 C-1 6 -1 6 -2.838287353515625 7.264984130859375 Z " fill="#000000" transform="translate(11,11)"/>
<path d="M0 0 C5.017916843743265 2.419352763947643 8.499586551150713 5.999173102301427 11 11 C11.507296498623994 16.555312476734898 11.762604221269157 21.41830235588619 9.3125 26.5 C2.594121734864899 33.7631116379839 2.594121734864899 33.7631116379839 -2.609375 34.23828125 C-13.148813425986617 34.48734758096238 -13.148813425986617 34.48734758096238 -18 30 C-22.83106776595591 24.516085238644642 -23.350247425924984 21.19460600916088 -23.28125 13.984375 C-22.779380243185376 8.658979247133697 -20.246146238373676 6.097795495710141 -16.375 2.6875 C-11.25527798174209 -0.9501972234990426 -6.1300239442427795 -0.5776985916040331 0 0 Z M-18.875 9.125 C-20.564842513861812 13.44348642431352 -20.659609827345943 17.42670519706813 -20 22 C-17.83701162636354 26.406087427777976 -15.603195211122333 29.19874969999561 -11 31 C-5.956746162544803 31.684260570911007 -2.169231156653744 31.573986204175476 2.4375 29.3125 C5.796560117494288 26.281153064700277 7.693556306589429 24.258603518100173 8.31640625 19.66796875 C8.582136523019969 13.950481907925145 7.9684715178876075 10.39749546576735 4 6 C0.16286804229455498 2.6142953314363737 -3.634014620005672 2.487088276250187 -8.5625 2.6484375 C-13.225261455859588 3.3209511715182103 -15.851902924462003 5.698823314390268 -18.875 9.125 Z " fill="#000000" transform="translate(52,23)"/>
<path d="M0 0 C3.1257814291584936 1.6720746966356828 5.392811748320085 3.78562349664017 7 7 C7.515126166179726 11.091573548513281 7.9436726900877375 15.235895456216582 5.953125 18.95703125 C3.5550122571676397 21.85592635971794 1.603517116224225 23.79811834867681 -2.171875 24.2734375 C-9.988763686480695 24.581375539164384 -9.988763686480695 24.581375539164384 -13.5625 21.625 C-17.30577229896948 17.59378367803287 -17.390370184690802 14.905199405336539 -17.359375 9.55078125 C-16.780399657130324 5.4413149576750115 -15.000850705813825 3.786504226827123 -12 1 C-8.275331507086833 -0.8623342464565873 -4.055046865490638 -0.5713082873279305 0 0 Z M-14 8 C-14.698471250606637 10.839686395908949 -14.698471250606637 13.160313604091051 -14 16 C-12.01078113505637 18.98382829741545 -10.614974320691033 20.602768413055834 -7.0625 21.4765625 C-3.1393650767965653 21.758909331594182 -1.3288762915962025 21.21925086106414 2 19 C4.21925086106414 15.671123708403798 4.758909331594182 13.860634923203428 4.4765625 9.9375 C3.602768413055834 6.38502567930896 1.9838282974154566 4.989218864943638 -1 3 C-6.816632034839053 1.5692961527210372 -10.60814906015166 2.9122235902274873 -14 8 Z " fill="#000000" transform="translate(51,28)"/>
<path d="M0 0 C2.969999999999999 0 5.939999999999998 0 9 0 C9 0.9899999999999984 9 1.9800000000000004 9 3 C6.030000000000001 3 3.0600000000000023 3 0 3 C0 2.009999999999998 0 1.0199999999999996 0 0 Z " fill="#000000" transform="translate(61,21)"/>
<path d="M0 0 C1.3200000000000003 0 2.6400000000000006 0 4 0 C4 1.3200000000000003 4 2.6400000000000006 4 4 C2.6799999999999997 4 1.3599999999999994 4 0 4 C0 2.6799999999999997 0 1.3599999999999994 0 0 Z " fill="#000000" transform="translate(23,38)"/>
<path d="M0 0 C0.6599999999999966 0 1.3199999999999932 0 2 0 C2 0.6599999999999966 2 1.3200000000000003 2 2 C1.3400000000000034 2 0.6800000000000068 2 0 2 C0 1.3400000000000034 0 0.6799999999999997 0 0 Z " fill="#000000" transform="translate(69,60)"/>
<path d="M0 0 C0.6599999999999966 0 1.3199999999999932 0 2 0 C2 0.6599999999999966 2 1.3200000000000003 2 2 C1.3400000000000034 2 0.6800000000000068 2 0 2 C0 1.3400000000000034 0 0.6799999999999997 0 0 Z " fill="#000000" transform="translate(65,60)"/>
<path d="M0 0 C0.6599999999999966 0 1.3200000000000003 0 2 0 C2 0.6599999999999966 2 1.3200000000000003 2 2 C1.3400000000000034 2 0.6799999999999997 2 0 2 C0 1.3400000000000034 0 0.6799999999999997 0 0 Z " fill="#000000" transform="translate(61,60)"/>
<path d="M0 0 C0.6599999999999966 0 1.3200000000000003 0 2 0 C2 0.6599999999999966 2 1.3200000000000003 2 2 C1.3400000000000034 2 0.6799999999999997 2 0 2 C0 1.3400000000000034 0 0.6799999999999997 0 0 Z " fill="#000000" transform="translate(57,60)"/>
<path d="M0 0 C0.6599999999999966 0 1.3200000000000003 0 2 0 C2 0.6599999999999966 2 1.3200000000000003 2 2 C1.3400000000000034 2 0.6799999999999997 2 0 2 C0 1.3400000000000034 0 0.6799999999999997 0 0 Z " fill="#000000" transform="translate(53,60)"/>
<path d="M0 0 C0.6599999999999966 0 1.3200000000000003 0 2 0 C2 0.6599999999999966 2 1.3200000000000003 2 2 C1.3400000000000034 2 0.6799999999999997 2 0 2 C0 1.3400000000000034 0 0.6799999999999997 0 0 Z " fill="#000000" transform="translate(49,60)"/>
<path d="M0 0 C0.6599999999999966 0 1.3200000000000003 0 2 0 C2 0.6599999999999966 2 1.3200000000000003 2 2 C1.3400000000000034 2 0.6799999999999997 2 0 2 C0 1.3400000000000034 0 0.6799999999999997 0 0 Z " fill="#000000" transform="translate(45,60)"/>
<path d="M0 0 C0.6599999999999966 0 1.3200000000000003 0 2 0 C2 0.6599999999999966 2 1.3200000000000003 2 2 C1.3400000000000034 2 0.6799999999999997 2 0 2 C0 1.3400000000000034 0 0.6799999999999997 0 0 Z " fill="#000000" transform="translate(41,60)"/>
<path d="M0 0 C0.6599999999999966 0 1.3200000000000003 0 2 0 C2 0.6599999999999966 2 1.3200000000000003 2 2 C1.3400000000000034 2 0.6799999999999997 2 0 2 C0 1.3400000000000034 0 0.6799999999999997 0 0 Z " fill="#000000" transform="translate(37,60)"/>
<path d="M0 0 C0.6599999999999966 0 1.3200000000000003 0 2 0 C2 0.6599999999999966 2 1.3200000000000003 2 2 C1.3400000000000034 2 0.6799999999999997 2 0 2 C0 1.3400000000000034 0 0.6799999999999997 0 0 Z " fill="#000000" transform="translate(33,60)"/>
<path d="M0 0 C0.6600000000000001 0 1.3200000000000003 0 2 0 C2 0.6599999999999966 2 1.3200000000000003 2 2 C1.3399999999999999 2 0.6799999999999997 2 0 2 C0 1.3400000000000034 0 0.6799999999999997 0 0 Z " fill="#000000" transform="translate(29,60)"/>
<path d="M0 0 C0.6600000000000001 0 1.3200000000000003 0 2 0 C2 0.6599999999999966 2 1.3200000000000003 2 2 C1.3399999999999999 2 0.6799999999999997 2 0 2 C0 1.3400000000000034 0 0.6799999999999997 0 0 Z " fill="#000000" transform="translate(25,60)"/>
<path d="M0 0 C0.6600000000000001 0 1.3200000000000003 0 2 0 C2 0.6599999999999966 2 1.3200000000000003 2 2 C1.3399999999999999 2 0.6799999999999997 2 0 2 C0 1.3400000000000034 0 0.6799999999999997 0 0 Z " fill="#000000" transform="translate(21,60)"/>
<path d="M0 0 C0.6600000000000001 0 1.3200000000000003 0 2 0 C2 0.6599999999999966 2 1.3200000000000003 2 2 C1.3399999999999999 2 0.6799999999999997 2 0 2 C0 1.3400000000000034 0 0.6799999999999997 0 0 Z " fill="#000000" transform="translate(17,60)"/>
<path d="M0 0 C0.6600000000000001 0 1.3200000000000003 0 2 0 C2 0.6599999999999966 2 1.3200000000000003 2 2 C1.3399999999999999 2 0.6799999999999997 2 0 2 C0 1.3400000000000034 0 0.6799999999999997 0 0 Z " fill="#000000" transform="translate(13,60)"/>
<path d="M0 0 C0.6600000000000001 0 1.3200000000000003 0 2 0 C2 0.6599999999999966 2 1.3200000000000003 2 2 C1.3399999999999999 2 0.6799999999999997 2 0 2 C0 1.3400000000000034 0 0.6799999999999997 0 0 Z " fill="#000000" transform="translate(9,60)"/>
<path d="M0 0 C0.6599999999999966 0 1.3199999999999932 0 2 0 C2 0.6600000000000001 2 1.3200000000000003 2 2 C1.3400000000000034 2 0.6800000000000068 2 0 2 C0 1.3399999999999999 0 0.6799999999999997 0 0 Z " fill="#000000" transform="translate(69,28)"/>
<path d="M0 0 C0.6599999999999966 0 1.3199999999999932 0 2 0 C2 0.6600000000000001 2 1.3200000000000003 2 2 C1.3400000000000034 2 0.6800000000000068 2 0 2 C0 1.3399999999999999 0 0.6799999999999997 0 0 Z " fill="#000000" transform="translate(65,28)"/>
<path d="M0 0 C0.6599999999999966 0 1.3200000000000003 0 2 0 C2 0.6600000000000001 2 1.3200000000000003 2 2 C1.3400000000000034 2 0.6799999999999997 2 0 2 C0 1.3399999999999999 0 0.6799999999999997 0 0 Z " fill="#000000" transform="translate(61,28)"/>
<path d="M0 0 C0.6600000000000001 0 1.3200000000000003 0 2 0 C2 0.6600000000000001 2 1.3200000000000003 2 2 C1.3399999999999999 2 0.6799999999999997 2 0 2 C0 1.3399999999999999 0 0.6799999999999997 0 0 Z " fill="#000000" transform="translate(29,28)"/>
<path d="M0 0 C0.6600000000000001 0 1.3200000000000003 0 2 0 C2 0.6600000000000001 2 1.3200000000000003 2 2 C1.3399999999999999 2 0.6799999999999997 2 0 2 C0 1.3399999999999999 0 0.6799999999999997 0 0 Z " fill="#000000" transform="translate(25,28)"/>
<path d="M0 0 C0.6600000000000001 0 1.3200000000000003 0 2 0 C2 0.6600000000000001 2 1.3200000000000003 2 2 C1.3399999999999999 2 0.6799999999999997 2 0 2 C0 1.3399999999999999 0 0.6799999999999997 0 0 Z " fill="#000000" transform="translate(21,28)"/>
<path d="M0 0 C0.6600000000000001 0 1.3200000000000003 0 2 0 C2 0.6600000000000001 2 1.3200000000000003 2 2 C1.3399999999999999 2 0.6799999999999997 2 0 2 C0 1.3399999999999999 0 0.6799999999999997 0 0 Z " fill="#000000" transform="translate(17,28)"/>
<path d="M0 0 C0.6600000000000001 0 1.3200000000000003 0 2 0 C2 0.6600000000000001 2 1.3200000000000003 2 2 C1.3399999999999999 2 0.6799999999999997 2 0 2 C0 1.3399999999999999 0 0.6799999999999997 0 0 Z " fill="#000000" transform="translate(13,28)"/>
<path d="M0 0 C0.6600000000000001 0 1.3200000000000003 0 2 0 C2 0.6600000000000001 2 1.3200000000000003 2 2 C1.3399999999999999 2 0.6799999999999997 2 0 2 C0 1.3399999999999999 0 0.6799999999999997 0 0 Z " fill="#000000" transform="translate(9,28)"/>
</svg>
