<?xml version="1.0" encoding="UTF-8"?>
<svg version="1.1" xmlns="http://www.w3.org/2000/svg" width="68" height="68">
<path d="M0 0 C0.99 0 1.98 0 3 0 C3.33 16.17 3.66 32.34 4 49 C6.64 48.01 9.28 47.02 12 46 C12.28875 45.071875 12.5775 44.14375 12.875 43.1875 C14.47658334 38.64968054 17.42693462 37.70501849 21.58984375 35.58984375 C24.97948179 33.35389127 26.22655344 30.54689313 28 27 C28.99 27 29.98 27 31 27 C31.33 25.35 31.66 23.7 32 22 C32.99 21.67 33.98 21.34 35 21 C35.66 20.01 36.32 19.02 37 18 C37.969375 17.7525 38.93875 17.505 39.9375 17.25 C40.948125 16.8375 41.95875 16.425 43 16 C43.474375 14.865625 43.94875 13.73125 44.4375 12.5625 C46 9 46 9 49.5625 7.1875 C50.696875 6.795625 51.83125 6.40375 53 6 C53.66 5.34 54.32 4.68 55 4 C55.99 4 56.98 4 58 4 C57.42655063 6.86724686 57.1385485 7.8614515 55 10 C54.28591666 11.98356483 53.61382258 13.98315437 53 16 C52.278125 16.0825 51.55625 16.165 50.8125 16.25 C46.59655872 17.37425101 43.88832892 19.47715043 41.6875 23.25 C41.460625 23.8275 41.23375 24.405 41 25 C40.34 25 39.68 25 39 25 C38.505 27.475 38.505 27.475 38 30 C36.68 30 35.36 30 34 30 C33.505 31.485 33.505 31.485 33 33 C32.278125 33.37125 31.55625 33.7425 30.8125 34.125 C27.26538634 36.48974244 25.64304044 39.25452902 23.4296875 42.84375 C21.19083337 46.22038245 19.91364097 47.75760546 15.9375 48.8125 C14.4834375 49.4003125 14.4834375 49.4003125 13 50 C12.34 51.98 11.68 53.96 11 56 C35.255 56.495 35.255 56.495 60 57 C60 57.99 60 58.98 60 60 C57.03 60.66 54.06 61.32 51 62 C51 61.34 51 60.68 51 60 C49.02 60 47.04 60 45 60 C45 60.66 45 61.32 45 62 C44.01 62 43.02 62 42 62 C42 61.34 42 60.68 42 60 C40.02 60 38.04 60 36 60 C36 60.66 36 61.32 36 62 C35.01 62 34.02 62 33 62 C33 61.34 33 60.68 33 60 C31.02 60 29.04 60 27 60 C27 60.66 27 61.32 27 62 C24.36 61.34 21.72 60.68 19 60 C19 60.66 19 61.32 19 62 C18.01 62 17.02 62 16 62 C16 61.34 16 60.68 16 60 C14.02 60 12.04 60 10 60 C10 60.66 10 61.32 10 62 C9.01 62 8.02 62 7 62 C7 61.34 7 60.68 7 60 C4.69 60 2.38 60 0 60 C0 57.69 0 55.38 0 53 C-0.66 53 -1.32 53 -2 53 C-2 52.01 -2 51.02 -2 50 C-1.34 50 -0.68 50 0 50 C0 48.02 0 46.04 0 44 C-0.66 44 -1.32 44 -2 44 C-2 43.01 -2 42.02 -2 41 C-1.34 41 -0.68 41 0 41 C0 39.35 0 37.7 0 36 C-0.66 36 -1.32 36 -2 36 C-2 35.01 -2 34.02 -2 33 C-1.34 33 -0.68 33 0 33 C0 31.02 0 29.04 0 27 C-0.66 27 -1.32 27 -2 27 C-2 26.01 -2 25.02 -2 24 C-1.34 24 -0.68 24 0 24 C0 22.02 0 20.04 0 18 C-0.66 18 -1.32 18 -2 18 C-2 17.01 -2 16.02 -2 15 C-1.34 15 -0.68 15 0 15 C0 13.35 0 11.7 0 10 C-0.66 10 -1.32 10 -2 10 C-2 9.01 -2 8.02 -2 7 C-1.34 7 -0.68 7 0 7 C0 4.69 0 2.38 0 0 Z M49 11 C49 11.99 49 12.98 49 14 C49.66 13.34 50.32 12.68 51 12 C50.34 11.67 49.68 11.34 49 11 Z M34 25 C34 25.66 34 26.32 34 27 C34.66 27 35.32 27 36 27 C36 26.34 36 25.68 36 25 C35.34 25 34.68 25 34 25 Z M17 42 C16.67 42.99 16.34 43.98 16 45 C16.99 44.67 17.98 44.34 19 44 C18.34 43.34 17.68 42.68 17 42 Z M7 51 C7 51.66 7 52.32 7 53 C7.66 53 8.32 53 9 53 C9 52.34 9 51.68 9 51 C8.34 51 7.68 51 7 51 Z " fill="#000000" transform="translate(5,3)"/>
<path d="M0 0 C2.375 -0.125 2.375 -0.125 5 0 C7 2 7 2 7.125 4.625 C7.08375 5.40875 7.0425 6.1925 7 7 C5.35 7.66 3.7 8.32 2 9 C0.68 7.68 -0.64 6.36 -2 5 C-1.34 3.35 -0.68 1.7 0 0 Z M2 3 C2 3.66 2 4.32 2 5 C2.66 5 3.32 5 4 5 C4 4.34 4 3.68 4 3 C3.34 3 2.68 3 2 3 Z " fill="#000000" transform="translate(48,50)"/>
<path d="M0 0 C1.4540625 0.0309375 1.4540625 0.0309375 2.9375 0.0625 C3.5625 2.9375 3.5625 2.9375 3.9375 6.0625 C1.9375 8.0625 1.9375 8.0625 -0.5625 8.3125 C-3.0625 8.0625 -3.0625 8.0625 -5.0625 6.0625 C-4.33395709 0.0884481 -4.33395709 0.0884481 0 0 Z M-2.0625 3.0625 C-1.7325 3.7225 -1.4025 4.3825 -1.0625 5.0625 C-0.4025 5.0625 0.2575 5.0625 0.9375 5.0625 C0.9375 4.4025 0.9375 3.7425 0.9375 3.0625 C-0.0525 3.0625 -1.0425 3.0625 -2.0625 3.0625 Z " fill="#000000" transform="translate(39.0625,43.9375)"/>
<path d="M0 0 C2.375 -0.125 2.375 -0.125 5 0 C7 2 7 2 7.125 4.625 C7.08375 5.40875 7.0425 6.1925 7 7 C5.35 7.66 3.7 8.32 2 9 C0.68 7.68 -0.64 6.36 -2 5 C-1.34 3.35 -0.68 1.7 0 0 Z M2 3 C1.67 3.66 1.34 4.32 1 5 C1.99 5 2.98 5 4 5 C4 4.34 4 3.68 4 3 C3.34 3 2.68 3 2 3 Z " fill="#000000" transform="translate(58,29)"/>
<path d="M0 0 C3 0.125 3 0.125 4 1.125 C4.125 4.125 4.125 4.125 4 7.125 C3 8.125 3 8.125 0 8.25 C-3 8.125 -3 8.125 -4 7.125 C-4.125 4.125 -4.125 4.125 -4 1.125 C-3 0.125 -3 0.125 0 0 Z M-1 3.125 C-1 3.785 -1 4.445 -1 5.125 C-0.34 5.125 0.32 5.125 1 5.125 C1 4.465 1 3.805 1 3.125 C0.34 3.125 -0.32 3.125 -1 3.125 Z " fill="#000000" transform="translate(46,5.875)"/>
<path d="M0 0 C3 0.125 3 0.125 4 1.125 C4.125 4.125 4.125 4.125 4 7.125 C3 8.125 3 8.125 0 8.25 C-3 8.125 -3 8.125 -4 7.125 C-4.125 4.125 -4.125 4.125 -4 1.125 C-3 0.125 -3 0.125 0 0 Z M-1 3.125 C-1 3.785 -1 4.445 -1 5.125 C-0.34 5.125 0.32 5.125 1 5.125 C1 4.465 1 3.805 1 3.125 C0.34 3.125 -0.32 3.125 -1 3.125 Z " fill="#000000" transform="translate(27,3.875)"/>
<path d="M0 0 C2.875 -0.125 2.875 -0.125 6 0 C6.66 0.66 7.32 1.32 8 2 C7.44444444 6.55555556 7.44444444 6.55555556 6 8 C3.5625 8.1875 3.5625 8.1875 1 8 C0.34 7.34 -0.32 6.68 -1 6 C-0.625 2.875 -0.625 2.875 0 0 Z M2 3 C2 3.66 2 4.32 2 5 C2.99 4.67 3.98 4.34 5 4 C4.01 3.67 3.02 3.34 2 3 Z " fill="#000000" transform="translate(11,26)"/>
<path d="M0 0 C1.67542976 0.28604898 3.34385343 0.61781233 5 1 C5 2.65 5 4.3 5 6 C2.625 6.625 2.625 6.625 0 7 C-0.66 6.34 -1.32 5.68 -2 5 C-1.46428571 1.46428571 -1.46428571 1.46428571 0 0 Z " fill="#000000" transform="translate(59,43)"/>
<path d="M0 0 C1.65 0.33 3.3 0.66 5 1 C5 2.65 5 4.3 5 6 C3.35 6.33 1.7 6.66 0 7 C-0.66 5.68 -1.32 4.36 -2 3 C-1.34 2.01 -0.68 1.02 0 0 Z " fill="#000000" transform="translate(48,33)"/>
<path d="M0 0 C1.67542976 0.28604898 3.34385343 0.61781233 5 1 C5.625 2.875 5.625 2.875 6 5 C5.34 5.66 4.68 6.32 4 7 C1.875 6.625 1.875 6.625 0 6 C-0.38218767 4.34385343 -0.71395102 2.67542976 -1 1 C-0.67 0.67 -0.34 0.34 0 0 Z " fill="#000000" transform="translate(31,14)"/>
<path d="M0 0 C1.32 0.66 2.64 1.32 4 2 C3.67 3.65 3.34 5.3 3 7 C1.35 6.67 -0.3 6.34 -2 6 C-2.33 5.01 -2.66 4.02 -3 3 C-2.01 2.01 -1.02 1.02 0 0 Z " fill="#000000" transform="translate(26,25)"/>
<path d="M0 0 C1.65 0 3.3 0 5 0 C5.38218767 1.65614657 5.71395102 3.32457024 6 5 C5 6 5 6 2.4375 6.0625 C1.2309375 6.0315625 1.2309375 6.0315625 0 6 C-1.125 2.25 -1.125 2.25 0 0 Z " fill="#000000" transform="translate(13,12)"/>
</svg>
