<?xml version="1.0" encoding="UTF-8"?>
<svg version="1.1" xmlns="http://www.w3.org/2000/svg" width="64" height="64">
<path d="M0 0 C5.92917648 4.26764142 10.2170743 9.34328371 12.03515625 16.46484375 C12.8564187 24.61062127 12.96493776 32.61573397 8.03515625 39.46484375 C2.63928404 45.3726583 -2.16463601 48.98088377 -10.296875 49.80078125 C-19.06268974 49.89916301 -25.58508747 49.46507176 -32.21875 43.40625 C-39.38733133 35.80165477 -40.45744266 29.42161652 -40.265625 19.09375 C-39.56857788 10.68392175 -35.5355701 6.58941023 -29.37890625 1.12890625 C-21.26693239 -4.46284272 -8.64838875 -4.54242474 0 0 Z M-29.75 8.40625 C-35.04340956 15.20133603 -35.71221498 20.94047909 -34.96484375 29.46484375 C-33.21815448 36.17346559 -28.78752477 40.00949506 -22.96484375 43.46484375 C-16.88940809 45.48998897 -9.51248844 45.56530864 -3.58984375 42.96484375 C1.55353962 39.96901085 5.1705407 35.0586904 7.03515625 29.46484375 C7.69622578 22.14973013 7.80355332 15.39562017 3.03515625 9.46484375 C-3.30686696 3.63324495 -8.32045949 2.08159498 -16.890625 2.1953125 C-22.3575481 2.67462342 -26.03054205 4.36123774 -29.75 8.40625 Z " fill="#000000" transform="translate(45.96484375,8.53515625)"/>
<path d="M0 0 C3.54813789 1.94787975 6.18410919 4.36821838 8 8 C8.58646923 12.89219273 9.16131527 17.88461957 6.73046875 22.3125 C3.94223164 25.56883531 1.80747965 27.78332186 -2.57421875 28.30859375 C-12.01300734 28.69940934 -12.01300734 28.69940934 -16.1875 25.125 C-20.47452172 20.80668615 -20.44722308 17.00903379 -20.42578125 11.0625 C-19.78309618 6.43988442 -17.57552792 3.86227494 -14 1 C-9.76844833 -1.11577584 -4.58223826 -0.63707139 0 0 Z M-15 10 C-15.69847125 12.8396864 -15.69847125 15.1603136 -15 18 C-13.01078114 20.9838283 -11.61497432 22.60276841 -8.0625 23.4765625 C-4.13936508 23.75890933 -2.32887629 23.21925086 1 21 C3.21925086 17.67112371 3.75890933 15.86063492 3.4765625 11.9375 C2.60276841 8.38502568 0.9838283 6.98921886 -2 5 C-7.81663203 3.56929615 -11.60814906 4.91222359 -15 10 Z " fill="#000000" transform="translate(38,18)"/>
<path d="M0 0 C1.32 0 2.64 0 4 0 C4 1.32 4 2.64 4 4 C2.68 4 1.36 4 0 4 C0 2.68 0 1.36 0 0 Z " fill="#000000" transform="translate(30,30)"/>
<path d="M0 0 C1.32 0 2.64 0 4 0 C4 1.32 4 2.64 4 4 C2.68 4 1.36 4 0 4 C0 2.68 0 1.36 0 0 Z " fill="#000000" transform="translate(12,30)"/>
<path d="M0 0 C1.32 0 2.64 0 4 0 C4 1.32 4 2.64 4 4 C2.68 4 1.36 4 0 4 C0 2.68 0 1.36 0 0 Z " fill="#000000" transform="translate(30,24)"/>
<path d="M0 0 C1.32 0 2.64 0 4 0 C4 1.32 4 2.64 4 4 C2.68 4 1.36 4 0 4 C0 2.68 0 1.36 0 0 Z " fill="#000000" transform="translate(30,12)"/>
<path d="M0 0 C1.32 0 2.64 0 4 0 C4 1.32 4 2.64 4 4 C2.68 4 1.36 4 0 4 C0 2.68 0 1.36 0 0 Z " fill="#000000" transform="translate(52,10)"/>
<path d="M0 0 C1.32 0 2.64 0 4 0 C4 1.32 4 2.64 4 4 C2.68 4 1.36 4 0 4 C0 2.68 0 1.36 0 0 Z " fill="#000000" transform="translate(8,10)"/>
<path d="M0 0 C1.32 0 2.64 0 4 0 C4 1.32 4 2.64 4 4 C2.68 4 1.36 4 0 4 C0 2.68 0 1.36 0 0 Z " fill="#000000" transform="translate(56,4)"/>
<path d="M0 0 C1.32 0 2.64 0 4 0 C4 1.32 4 2.64 4 4 C2.68 4 1.36 4 0 4 C0 2.68 0 1.36 0 0 Z " fill="#000000" transform="translate(48,4)"/>
<path d="M0 0 C1.32 0 2.64 0 4 0 C4 1.32 4 2.64 4 4 C2.68 4 1.36 4 0 4 C0 2.68 0 1.36 0 0 Z " fill="#000000" transform="translate(12,4)"/>
<path d="M0 0 C1.32 0 2.64 0 4 0 C4 1.32 4 2.64 4 4 C2.68 4 1.36 4 0 4 C0 2.68 0 1.36 0 0 Z " fill="#000000" transform="translate(4,4)"/>
<path d="M0 0 C0.66 0 1.32 0 2 0 C2.33 1.32 2.66 2.64 3 4 C1.68 4 0.36 4 -1 4 C-0.67 2.68 -0.34 1.36 0 0 Z " fill="#000000" transform="translate(57,56)"/>
<path d="M0 0 C0.66 0 1.32 0 2 0 C2.33 1.32 2.66 2.64 3 4 C1.68 4 0.36 4 -1 4 C-0.67 2.68 -0.34 1.36 0 0 Z " fill="#000000" transform="translate(49,56)"/>
<path d="M0 0 C0.66 0 1.32 0 2 0 C2.33 1.32 2.66 2.64 3 4 C1.68 4 0.36 4 -1 4 C-0.67 2.68 -0.34 1.36 0 0 Z " fill="#000000" transform="translate(13,56)"/>
<path d="M0 0 C0.66 0 1.32 0 2 0 C2.33 1.32 2.66 2.64 3 4 C1.68 4 0.36 4 -1 4 C-0.67 2.68 -0.34 1.36 0 0 Z " fill="#000000" transform="translate(5,56)"/>
<path d="M0 0 C0.66 0 1.32 0 2 0 C2.33 1.32 2.66 2.64 3 4 C1.68 4 0.36 4 -1 4 C-0.67 2.68 -0.34 1.36 0 0 Z " fill="#000000" transform="translate(53,50)"/>
<path d="M0 0 C0.66 0 1.32 0 2 0 C2.33 1.32 2.66 2.64 3 4 C1.68 4 0.36 4 -1 4 C-0.67 2.68 -0.34 1.36 0 0 Z " fill="#000000" transform="translate(9,50)"/>
<path d="M0 0 C0.66 0 1.32 0 2 0 C2.33 1.32 2.66 2.64 3 4 C1.68 4 0.36 4 -1 4 C-0.67 2.68 -0.34 1.36 0 0 Z " fill="#000000" transform="translate(31,48)"/>
<path d="M0 0 C0.66 0 1.32 0 2 0 C2.33 1.32 2.66 2.64 3 4 C1.68 4 0.36 4 -1 4 C-0.67 2.68 -0.34 1.36 0 0 Z " fill="#000000" transform="translate(31,36)"/>
<path d="M0 0 C0.66 0 1.32 0 2 0 C2.33 1.32 2.66 2.64 3 4 C1.68 4 0.36 4 -1 4 C-0.67 2.68 -0.34 1.36 0 0 Z " fill="#000000" transform="translate(49,30)"/>
</svg>
