<?xml version="1.0" encoding="UTF-8"?>
<!-- Generator: visioncortex VTracer 0.6.12 -->
<svg version="1.1" xmlns="http://www.w3.org/2000/svg" width="96" height="96">
<path d="M0 0 C3 0.125 3 0.125 4 1.125 C4.0624370759157316 2.4947017041931048 4.059523604715302 3.8675348825530875 4.02734375 5.23828125 C4.021220703124996 5.656259765625 4.021220703124996 5.656259765625 3.990234375 7.771484375 C3.9553082102054944 9.537196039611183 3.9163003278623734 11.302832071799415 3.873046875 13.068359375 C3.8675683593749994 13.488271484375 3.8675683593749994 13.488271484375 3.83984375 15.61328125 C3.8314245605468784 15.997623291015625 3.8314245605468784 15.997623291015625 3.788818359375 17.942626953125 C4.026543354663509 20.399301788829007 4.775942127997723 22.00078415652774 6 24.125 C9.367216428850611 18.93617468341054 12.313188399188448 13.697646283164715 15 8.125 C16.99954746011413 8.082456437018848 19.000416363073114 8.08419217067496 21 8.125 C22 9.125000000000007 22 9.125000000000007 22.4375 11.9375 C22.406438195310457 16.938450555016566 19.821744210432172 20.95412308687736 17.5078125 25.2578125 C16.14164922012911 27.855646301619778 14.907882874792321 30.33338153472949 14 33.125 C15.1875 34.93749999999999 15.1875 34.93749999999999 17 37.125 C18.134792591345445 39.75427390584057 19.052964845155202 42.41918527187201 20 45.125 C24.220433968838535 38.42385293497392 25.70908500002193 32.33462201608996 26.36669921875 24.572265625 C26.68212906915882 20.982831205389353 26.95348657595197 19.19477013607204 29 16.125 C32.0625 15.875 32.0625 15.875 35 16.125 C37.20086195073503 18.325861950735035 36.31078196247712 23.582299099723812 36.31689453125 26.625 C36.137973826974275 36.60921707810182 33.22830277406162 45.97737024797031 26 53.125 C23.139027222262484 55.376898494976984 20.116198175454542 57.248527724068396 17 59.125 C14.977127352327585 60.41347056240633 12.956303589129789 61.70516325067383 10.9375 63 C9.292286605546977 64.04264552570274 7.646677885646156 65.08466892458243 6 66.125 C12.00920585436397 66.44127399233494 15.621070446771412 65.81446477661429 21 63.125 C23.732473483082188 61.758763258458906 25.98198902412956 61.99657400102679 29 62.125 C30 63.125 30 63.125 30.5 65.875 C29.945723044926055 69.47780020798064 29.69325271684123 69.80356171619988 26.9375 71.875 C21.254873104597394 75.74073258190654 14.768425156675278 76.39393317752166 8.0625 76.75 C7.378652343750005 76.788671875 6.69480468750001 76.82734375 5.990234375 76.8671875 C4.327204873816591 76.96022411545081 2.663641528928565 77.04363786602408 1 77.125 C1.3506250000000009 78.300625 1.7012500000000017 79.47625 2.0625 80.6875 C3.260928849092352 84.705761435192 2.710468073540632 88.02614572957329 2 92.125 C-1.9791515897982634 92.15386983517546 -5.958276532463813 92.17175406202784 -9.9375 92.1875 C-10.505654296875 92.19168945312501 -10.505654296875 92.19168945312501 -13.380859375 92.212890625 C-14.46044921875 92.21611328125 -15.5400390625 92.2193359375 -16.65234375 92.22265625 C-17.152459716796876 92.22527465820312 -17.152459716796876 92.22527465820312 -19.683349609375 92.238525390625 C-22 92.125 -22 92.125 -23 91.125 C-22.77590666665222 88.8722722805565 -22.520461961185525 86.62263216019697 -22.25 84.375 C-21.745451859684046 77.5463210598333 -21.745451859684046 77.5463210598333 -23.8125 74.125 C-24.864375000000003 73.465 -25.916250000000005 72.805 -27 72.125 C-27.7412109375 71.650625 -28.482421875 71.17625 -29.24609375 70.6875 C-32.57399969279207 68.6108036238427 -35.94438863458234 66.66464747687218 -39.4375 64.87890625 C-48.114831941118354 60.40832138168733 -52.21032650700431 55.16991572964659 -55.25390625 45.875 C-56.32528220184337 41.92605408325793 -56.85089889716626 38.209073686315534 -57 34.125 C-57.0399609375 33.044765625 -57.079921875 31.96453125 -57.12109375 30.8515625 C-57.308280883294216 21.051765521655643 -57.308280883294216 21.051765521655643 -55 16.125 C-53.00045253988587 16.08245643701885 -50.99958363692689 16.08419217067496 -49 16.125 C-47.461639894891995 17.663360105108005 -47.819999662895825 19.139556378082915 -47.75390625 21.28125 C-47.72103515625 22.139765625 -47.6881640625 22.99828125 -47.654296875 23.8828125 C-47.59414820208966 25.679594133321526 -47.53675494480458 27.4764706059755 -47.482421875 29.2734375 C-47.18553223714977 36.82451734570015 -46.79233034806801 44.934906633745484 -42 51.125 C-41.34 51.125 -40.68 51.125 -40 51.125 C-39.010000000000005 48.815 -38.019999999999996 46.505 -37 44.125 C-35.00045253988587 44.08245643701885 -32.99958363692689 44.08419217067496 -31 44.125 C-30 45.125 -30 45.125 -29.8125 48.875 C-29.84384750769127 52.360842855269254 -30.422395416591392 54.969790833182785 -32 58.125 C-31.3051953125 58.369921875 -30.610390625 58.61484375 -29.89453125 58.8671875 C-26.533997863327777 60.32750025372261 -23.714251326339316 62.18781777765892 -20.6875 64.25 C-19.6188671875 64.974453125 -18.550234375000002 65.69890625 -17.44921875 66.4453125 C-16.6409765625 66.999609375 -15.832734375000001 67.55390625 -15 68.125 C-15.884096440132545 54.95501165043929 -20.606336863087165 48.771870778587925 -29.7109375 39.35546875 C-35.341955705895934 33.23285371660521 -40.375 25.3965999606256 -40.375 16.875 C-40.25125 15.6375 -40.1275 14.399999999999999 -40 13.125 C-38.35 12.465 -36.7 11.805 -35 11.125 C-31.051878130286383 14.256269069083213 -29.98144881169533 17.52910489415728 -28.61328125 22.19921875 C-28.000000000000004 24.125 -28.000000000000004 24.125 -27 25.125 C-25.163301975682096 20.616741213037873 -23.853423143341807 16.568799255953497 -23.125 11.75 C-22.32037991643201 7.355016350258879 -22.32037991643201 7.355016350258879 -19.5625 5.375 C-17 5.125 -17 5.125 -14 7.125 C-12.191486259534635 17.422123279046026 -15.828848401040958 25.506414001734925 -21 34.125 C-18.03 37.095 -15.060000000000002 40.065 -12 43.125 C-11.009999999999998 41.475 -10.020000000000003 39.825 -9 38.125 C-5.875 37.75 -5.875 37.75 -3 38.125 C-2 39.125 -2 39.125 -1.6875 42.1875 C-1.9777373020510467 45.84449000584314 -2.2951041369636087 46.993840863409325 -4 50 C-6.462741538494463 54.42252881912738 -6.332088306321133 58.186820736319255 -6 63.125 C-5.084765625000003 62.41472656249999 -4.169531249999999 61.704453125 -3.2265625 60.97265625 C-2.026110584020053 60.04418172123426 -0.8255859716021945 59.115801178464565 0.375 58.1875 C0.978281250000002 57.71892578125 1.5815624999999969 57.2503515625 2.203125 56.767578125 C6.773437499999972 53.238281250000014 6.773437499999972 53.238281250000014 9 52.125 C9.420074120985007 46.138943775963625 8.930095170111272 41.92590342937792 5 37.125 C3.8552501886604063 36.16086036771167 2.687149205568865 35.22392422879158 1.5 34.3125 C-2.9075317409636767 30.720124667042505 -4.7144252112588845 26.60601347056093 -6 21.125 C-6.709205611411093 14.158625892974584 -6.134765936291835 7.78044674255689 -4 1.125 C-3 0.125 -3 0.125 0 0 Z " fill="#000000" transform="translate(58,1.875)"/>
</svg>
