<?xml version="1.0" encoding="UTF-8"?>
<!-- Generator: visioncortex VTracer 0.6.12 -->
<svg version="1.1" xmlns="http://www.w3.org/2000/svg" width="87" height="87">
<path d="M0 0 C28.71 0 57.42 0 87 0 C87 28.71 87 57.42 87 87 C58.29 87 29.58 87 0 87 C0 58.29 0 29.58 0 0 Z " fill="#0E0914" transform="translate(0,0)"/>
<path d="M0 0 C28.71 0 57.42 0 87 0 C87 28.71 87 57.42 87 87 C58.29 87 29.58 87 0 87 C0 58.29 0 29.58 0 0 Z M12.912109375 12.32080078125 C12.464703979492187 12.349205474853516 12.464703979492187 12.349205474853516 10.2005615234375 12.492950439453125 C8 13 8 13 6 16 C4.890504077633267 20.03652712848388 4.870967585607066 23.931048050946632 4.8671875 28.1015625 C4.866230773925781 28.778672790527345 4.865274047851562 29.455783081054687 4.864288330078125 30.153411865234375 C4.86361005993521 31.583883596641996 4.86543966208392 33.01435846080959 4.86962890625 34.44482421875 C4.874932014756153 36.59740417147499 4.869698000779876 38.749770661458484 4.86328125 40.90234375 C4.857774289447682 47.04864465805308 4.912236337385574 53.19842401543852 5.2578125 59.3359375 C5.28045166015625 59.75512451171875 5.28045166015625 59.75512451171875 5.39501953125 61.87646484375 C5.999999999999998 63.99999999999999 5.999999999999998 63.99999999999999 7.48388671875 65.72900390625 C14.208713255844359 69.12600050552355 22.89345418619911 68.14778588465686 30.24609375 68.1328125 C31.29724868774414 68.13376922607422 32.34840362548828 68.13472595214844 33.43141174316406 68.13571166992188 C35.64250753031607 68.13638863959697 37.85360535840694 68.13456824565097 40.064697265625 68.13037109375 C43.424036933379256 68.12502143955597 46.783242591914956 68.13032984473628 50.142578125 68.13671875 C52.3020836247281 68.13605777805702 54.461589041962284 68.13477622165867 56.62109375 68.1328125 C57.61306259155273 68.13483673095703 58.60503143310547 68.13686096191407 59.62705993652344 68.13894653320313 C64.2690721214991 68.12356367077072 68.89285809434514 68.01343257288137 73.523681640625 67.67919921875 C74.31432510375977 67.62238983154296 75.10496856689453 67.56558044433594 75.91957092285156 67.50704956054688 C78.44583680786646 66.89133907039303 79.40575481276184 66.0244809052146 81 64 C82.93312787011253 55.88837023822684 82.21794335689371 46.78311925379028 82.240234375 38.45556640625 C82.25004630656035 36.23954166334431 82.2812294341772 34.02440650009953 82.3125 31.80859375 C82.3190232100999 30.3776095564903 82.32427635106818 28.94661888616654 82.328125 27.515625 C82.337470703125 26.239775390625 82.34681640625 24.963925781249998 82.3564453125 23.6494140625 C81.94652991322113 19.45255420741734 80.83722645902255 16.762979341483152 79 13 C71.51044651685078 12.200413683504417 64.12350715893723 11.8516429333332 56.59375 11.8671875 C55.547796630859374 11.866230773925782 54.50184326171875 11.865274047851562 53.4241943359375 11.864288330078125 C51.22924742894697 11.863612722422912 49.034298450878595 11.865423414906202 46.83935546875 11.86962890625 C43.508742748132896 11.87498593796908 40.178264852652944 11.86966266662999 36.84765625 11.86328125 C34.700520540235004 11.86394214130342 32.55338491326261 11.86522353103447 30.40625 11.8671875 C29.425716552734375 11.865163269042968 28.44518310546875 11.863139038085938 27.4349365234375 11.861053466796875 C22.58533056798464 11.877235363774155 17.752106644750796 12.00686405290268 12.912109375 12.32080078125 Z " fill="#6ECDCA" transform="translate(0,0)"/>
<path d="M0 0 C28.71 0 57.42 0 87 0 C87 28.71 87 57.42 87 87 C58.29 87 29.58 87 0 87 C0 58.29 0 29.58 0 0 Z M2 3 C1.9050329223875515 5.403482857422423 1.8744113845338977 7.778109815670035 1.886474609375 10.181884765625 C1.8863285827636718 10.933055725097656 1.8861825561523438 11.684226684570312 1.8860321044921875 12.458160400390625 C1.886731367002843 14.952604591525912 1.894524355372029 17.44697502976016 1.90234375 19.94140625 C1.9042078829118676 21.666335644404153 1.905631807691113 23.39126556669283 1.9066314697265625 25.116195678710938 C1.9104570253164734 29.66512503492407 1.920287624886115 34.21402266664972 1.93133544921875 38.762939453125 C1.9415487639774602 43.401200060575704 1.9461289175226117 48.03946577383404 1.951171875 52.677734375 C1.9619098624682725 61.78517021961703 1.9789867312210785 70.89258247605633 2 80 C3.3200000000000003 80 4.640000000000001 80 6 80 C6 77.69 6 75.38 6 73 C6.99 73 7.98 73 9 73 C9 75.31 9 77.62 9 80 C8.34 80 7.68 80 7 80 C7 80.66 7 81.32 7 82 C11.29 82 15.58 82 20 82 C20 78.37 20 74.74 20 71 C15.05 71 10.1 71 5 71 C5 70.34 5 69.68 5 69 C25.46 69.33 45.92 69.66 67 70 C65.515 70.16499999999999 65.515 70.16499999999999 58 71 C58 71.66 58 72.32 58 73 C57.34 73 56.68 73 56 73 C55.875 79.75 55.875 79.75 57 82 C58.603793408282634 82.05416187870372 60.20811406271149 82.0928663760772 61.8125 82.125 C62.7058203125 82.148203125 63.599140625 82.17140625 64.51953125 82.1953125 C67 82 67 82 70 80 C70.66 80 71.32 80 72 80 C72.33 80.99 72.66 81.98 73 83 C76.96 83.33 80.92 83.66 85 84 C86.48436362362379 81.0312727527524 86.14734694195998 78.00730677340528 86.145263671875 74.752197265625 C86.14862228393555 74.00569915771484 86.15198089599609 73.25920104980469 86.15544128417969 72.49008178710938 C86.16496199405987 70.0155064786016 86.16689492711359 67.54099874767613 86.16796875 65.06640625 C86.17118045512183 63.35009228212362 86.1745444599499 61.633778593006966 86.17805480957031 59.91746520996094 C86.18404881272431 56.316959280218335 86.18589442186725 52.71647736586334 86.185302734375 49.115966796875 C86.18520107367344 44.49772444619688 86.1988560781644 39.87963570915019 86.21607494354248 35.26142978668213 C86.22718206041063 31.715869036742184 86.22922234331465 28.170345580682536 86.22869300842285 24.62476921081543 C86.22987496527129 22.921889320389376 86.23430877257847 21.219008522812572 86.24202537536621 19.516145706176758 C86.25179974805536 17.136386102775177 86.24895749516543 14.756962029051198 86.242919921875 12.377197265625 C86.24853942871094 11.671118316650391 86.25415893554687 10.96503936767578 86.25994873046875 10.237564086914063 C86.23638827485311 6.591435090126766 86.08318841741259 5.124782626118872 84 2 C81.37301028743573 1.7082374360158559 78.98182845349652 1.6112009323563505 76.353271484375 1.6435546875 C75.56454650878906 1.6415103149414063 74.77582153320313 1.6394659423828126 73.96319580078125 1.637359619140625 C71.34892809140109 1.6343446638766645 68.73528676619439 1.6528482875442796 66.12109375 1.671875 C64.31030941123514 1.6749312171399162 62.49952272741066 1.676808382134774 60.68873596191406 1.67755126953125 C56.89143904050067 1.6821586681762903 53.09435367987627 1.6966022481893228 49.297119140625 1.71875 C44.41863953676754 1.7470528784563708 39.540326629598766 1.7579629436743842 34.66177272796631 1.7624320983886719 C30.922412282671942 1.7665797868721511 27.183085874907526 1.7763914612390406 23.443742752075195 1.7883071899414063 C21.64432105394397 1.7940222045015068 19.8448960508998 1.7987768074834904 18.045469284057617 1.8025741577148438 C15.536031698556048 1.8094145808719446 13.026728888196146 1.8230357521040153 10.517333984375 1.8388671875 C9.766661529541015 1.8399850463867187 9.015989074707031 1.8411029052734376 8.242568969726563 1.842254638671875 C3.114687101135738 1.885312898864263 3.114687101135738 1.885312898864263 2 3 Z " fill="#71D2D0" transform="translate(0,0)"/>
<path d="M0 0 C0.6599999999999966 0 1.3200000000000003 0 2 0 C2 1.9800000000000004 2 3.960000000000001 2 6 C2.989999999999995 6.329999999999998 3.980000000000004 6.66 5 7 C4.670000000000002 10.630000000000003 4.340000000000003 14.260000000000005 4 18 C4.659999999999997 18 5.32 18 6 18 C6.329999999999998 16.68 6.659999999999997 15.36 7 14 C8.32 13.670000000000002 9.64 13.340000000000003 11 13 C11 13.990000000000002 11 14.980000000000004 11 16 C10.340000000000003 16 9.68 16 9 16 C8.340000000000003 17.32 7.68 18.64 7 20 C6.340000000000003 20 5.68 20 5 20 C4.670000000000002 22.97 4.340000000000003 25.939999999999998 4 29 C4.659999999999997 29 5.32 29 6 29 C6.659999999999997 29.989999999999995 7.32 30.980000000000004 8 32 C8.494999999999997 32.165 8.494999999999997 32.165 11 33 C11 30.03 11 27.060000000000002 11 24 C10.340000000000003 24 9.68 24 9 24 C9 22.68 9 21.36 9 20 C9.659999999999997 20 10.32 20 11 20 C11 20.659999999999997 11 21.32 11 22 C11.659999999999997 22 12.32 22 13 22 C13 22.989999999999995 13 23.980000000000004 13 25 C13.659999999999997 24.67 14.32 24.340000000000003 15 24 C15.4140625 22.152343750000014 15.4140625 22.152343750000014 15.625 19.9375 C15.686875 19.2878125 15.686875 19.2878125 16 16 C15.340000000000003 16 14.68 16 14 16 C13.835 15.174999999999997 13.835 15.174999999999997 13 11 C12.340000000000003 11 11.68 11 11 11 C11 9.02 11 7.039999999999999 11 5 C11.659999999999997 5 12.32 5 13 5 C13 6.32 13 7.640000000000001 13 9 C13.659999999999997 9 14.32 9 15 9 C15.329999999999998 7.350000000000001 15.659999999999997 5.699999999999999 16 4 C16.659999999999997 4 17.32 4 18 4 C18 2.6799999999999997 18 1.3599999999999994 18 0 C19.32 0 20.64 0 22 0 C22 1.3200000000000003 22 2.6400000000000006 22 4 C21.340000000000003 4 20.68 4 20 4 C20 4.990000000000002 20 5.98 20 7 C19.340000000000003 7 18.68 7 18 7 C18 9.969999999999999 18 12.939999999999998 18 16 C18.659999999999997 16 19.32 16 20 16 C20.33 13.030000000000001 20.659999999999997 10.059999999999999 21 7 C22.65 7 24.299999999999997 7 26 7 C26.165 7.329999999999998 26.165 7.329999999999998 27 9 C27.659999999999997 9 28.32 9 29 9 C29 8.34 29 7.68 29 7 C30.319999999999993 7 31.64 7 33 7 C33 8.32 33 9.64 33 11 C31.25 12.75 31.25 12.75 29 14 C27.68 14 26.36 14 25 14 C24.855625000000003 14.309375000000003 24.855625000000003 14.309375000000003 24.125 15.875 C23.000000000000007 17.999999999999993 23.000000000000007 17.999999999999993 21 20 C20.375000000000007 22.12499999999998 20.375000000000007 22.12499999999998 20 24 C19.340000000000003 24 18.68 24 18 24 C18 24.989999999999995 18 25.980000000000004 18 27 C19.32 27 20.64 27 22 27 C22.165 26.505000000000003 22.165 26.505000000000003 23 24 C23.659999999999997 24 24.32 24 25 24 C25 22.019999999999996 25 20.04 25 18 C26.32 18 27.64 18 29 18 C29 18.659999999999997 29 19.32 29 20 C28.340000000000003 20 27.68 20 27 20 C27 21.32 27 22.64 27 24 C28.32 24 29.64 24 31 24 C31.33 22.68 31.659999999999997 21.36 32 20 C33.31999999999999 20 34.64 20 36 20 C36 20.659999999999997 36 21.32 36 22 C35.34 22 34.68000000000001 22 34 22 C33.67 23.32 33.34 24.64 33 26 C30.689999999999998 26 28.380000000000003 26 26 26 C26 26.659999999999997 26 27.32 26 28 C25.340000000000003 28 24.68 28 24 28 C24.165 28.825000000000003 24.165 28.825000000000003 25 33 C22.03 32.34 19.060000000000002 31.68 16 31 C15.670000000000002 32.32 15.340000000000003 33.64 15 35 C14.340000000000003 35 13.68 35 13 35 C13 36.65 13 38.3 13 40 C10.030000000000001 40 7.060000000000002 40 4 40 C3.6700000000000017 38.845 3.6700000000000017 38.845 2 33 C-0.9699999999999989 33 -3.9400000000000013 33 -7 33 C-7 33.66 -7 34.32 -7 35 C-8.32 35 -9.64 35 -11 35 C-11 34.34 -11 33.68 -11 33 C-10.34 33 -9.68 33 -9 33 C-9 31.68 -9 30.36 -9 29 C-9.763125000000002 29.103125 -10.526250000000001 29.206249999999997 -11.3125 29.3125 C-12.199375 29.209375 -13.08625 29.106250000000003 -14 29 C-15.8125 26.5 -15.8125 26.5 -17 24 C-14.689999999999998 24.33 -12.379999999999999 24.659999999999997 -10 25 C-10 25.659999999999997 -10 26.32 -10 27 C-7.689999999999998 27 -5.379999999999999 27 -3 27 C-3 27.659999999999997 -3 28.32 -3 29 C-2.010000000000005 29 -1.019999999999996 29 0 29 C0 28.010000000000005 0 27.019999999999996 0 26 C-0.6599999999999966 26 -1.3200000000000003 26 -2 26 C-2.6599999999999966 25.010000000000005 -3.3200000000000003 24.019999999999996 -4 23 C-4.990000000000002 22.67 -5.98 22.340000000000003 -7 22 C-7 21.340000000000003 -7 20.68 -7 20 C-9.310000000000002 20 -11.620000000000001 20 -14 20 C-14 19.340000000000003 -14 18.68 -14 18 C-14.66 18 -15.32 18 -16 18 C-16 17.340000000000003 -16 16.68 -16 16 C-16.990000000000002 16 -17.98 16 -19 16 C-19 15.009999999999998 -19 14.019999999999996 -19 13 C-18.01 13 -17.02 13 -16 13 C-16 13.659999999999997 -16 14.32 -16 15 C-14.68 15.659999999999997 -13.36 16.32 -12 17 C-12.66 15.019999999999996 -13.32 13.04 -14 11 C-14.66 11 -15.32 11 -16 11 C-16 9.68 -16 8.36 -16 7 C-14.68 7 -13.36 7 -12 7 C-11.34 8.649999999999999 -10.68 10.3 -10 12 C-9.670000000000002 11.009999999999998 -9.34 10.02 -9 9 C-8.34 9 -7.68 9 -7 9 C-7 11.310000000000002 -7 13.620000000000005 -7 16 C-6.34 16 -5.68 16 -5 16 C-4.360624999999999 16.804375 -3.7212499999999977 17.60875 -3.0625 18.4375 C-1 21 -1 21 2 22 C2 19.03 2 16.060000000000002 2 13 C1.3400000000000034 13 0.6799999999999997 13 0 13 C0 12.340000000000003 0 11.68 0 11 C-0.9899999999999949 11 -1.980000000000004 11 -3 11 C-3 10.34 -3 9.68 -3 9 C-3.66 9 -4.32 9 -5 9 C-5 8.009999999999998 -5 7.02 -5 6 C-4.009999999999998 6.329999999999998 -3.0199999999999996 6.66 -2 7 C-2 7.66 -2 8.32 -2 9 C-1.3400000000000034 9 -0.6799999999999997 9 0 9 C0 6.030000000000001 0 3.0599999999999987 0 0 Z " fill="#0FD5DA" transform="translate(35,20)"/>
<path d="M0 0 C28.71 0 57.42 0 87 0 C87 28.71 87 57.42 87 87 C58.95 87 30.9 87 2 87 C1.67 86.01 1.3399999999999999 85.02 1 84 C28.39 84 55.78 84 84 84 C85.48681462584665 81.02637074830669 85.13869315417115 77.99632817136184 85.12939453125 74.736328125 C85.13114685058594 73.98822372436524 85.13289916992187 73.24011932373047 85.13470458984375 72.46934509277344 C85.13911532496384 69.98995664690237 85.13618784569995 67.51063920521881 85.1328125 65.03125 C85.13348576283055 63.31254055028217 85.13445597587244 61.59383119319067 85.13571166992188 59.8751220703125 C85.1371875869764 56.27041722356257 85.13503747943822 52.665737130019004 85.13037109375 49.06103515625 C85.1246738689594 44.43376952855873 85.12795343807849 39.806561899211836 85.13394355773926 35.179298400878906 C85.13755202236293 31.62949178771053 85.13640926505786 28.079698990476402 85.13381576538086 24.529891967773438 C85.13314728837186 22.82339979242682 85.13397216735386 21.116906374366593 85.13629531860352 19.410415649414063 C85.13882649946518 17.02813377817107 85.1349746430286 14.645946664756428 85.12939453125 12.263671875 C85.13040664672852 11.908834762573242 85.13040664672852 11.908834762573242 85.13552856445313 10.113143920898438 C85.11426452847799 5.2285290569559635 85.11426452847799 5.2285290569559635 84 3 C57.269999999999996 3 30.54 3 3 3 C1.5002150914589985 5.999569817082003 1.8209129618121858 9.09534014709751 1.794677734375 12.38720703125 C1.7847781372070313 13.148277587890625 1.7748785400390625 13.90934814453125 1.764678955078125 14.6934814453125 C1.733033217804317 17.214893236099904 1.708294431530469 19.7363238848405 1.68359375 22.2578125 C1.6630268720556605 24.003738364795222 1.6420304723879662 25.74965921876815 1.6206207275390625 27.495574951171875 C1.5653725403970817 32.09539742104221 1.515975396389196 36.69526502972793 1.4677734375 41.295166015625 C1.41757845064329 45.98718289188408 1.3618819458361022 50.679134053156055 1.306640625 55.37109375 C1.1990254639883582 64.58067305565311 1.097587957064385 73.79030936902197 1 83 C0.6699999999999999 83 0.33999999999999997 83 0 83 C0 55.61 0 28.22 0 0 Z " fill="#1A2E2E" transform="translate(0,0)"/>
<path d="M0 0 C0.6599999999999966 0 1.3200000000000003 0 2 0 C2 1.9800000000000004 2 3.960000000000001 2 6 C2.989999999999995 6.329999999999998 3.980000000000004 6.66 5 7 C4.670000000000002 10.630000000000003 4.340000000000003 14.260000000000005 4 18 C4.659999999999997 18 5.32 18 6 18 C6.329999999999998 16.68 6.659999999999997 15.36 7 14 C8.32 13.670000000000002 9.64 13.340000000000003 11 13 C11 13.990000000000002 11 14.980000000000004 11 16 C10.340000000000003 16 9.68 16 9 16 C8.340000000000003 17.32 7.68 18.64 7 20 C6.340000000000003 20 5.68 20 5 20 C4.832116265921599 21.624874711973106 4.665732127004539 23.2499044213166 4.5 24.875 C4.453593749999996 25.3274609375 4.453593749999996 25.3274609375 4.21875 27.6171875 C4 30.000000000000014 4 30.000000000000014 4 32 C6.310000000000002 32.66 8.620000000000005 33.32 11 34 C11 34.66 11 35.32 11 36 C10.340000000000003 36 9.68 36 9 36 C9 36.66 9 37.32 9 38 C8.010000000000005 38 7.019999999999996 38 6 38 C5.4637500000000045 37.360625 4.927499999999995 36.72125 4.375 36.0625 C0.9195152418425323 33.061684288968515 -2.5500438811467703 33.19016906490826 -7 33 C-7 33.66 -7 34.32 -7 35 C-8.32 35 -9.64 35 -11 35 C-11 34.34 -11 33.68 -11 33 C-10.34 33 -9.68 33 -9 33 C-9 31.68 -9 30.36 -9 29 C-9.763125000000002 29.103125 -10.526250000000001 29.206249999999997 -11.3125 29.3125 C-12.199375 29.209375 -13.08625 29.106250000000003 -14 29 C-15.8125 26.5 -15.8125 26.5 -17 24 C-14.689999999999998 24.33 -12.379999999999999 24.659999999999997 -10 25 C-10 25.659999999999997 -10 26.32 -10 27 C-7.689999999999998 27 -5.379999999999999 27 -3 27 C-3 27.659999999999997 -3 28.32 -3 29 C-2.010000000000005 29 -1.019999999999996 29 0 29 C0 28.010000000000005 0 27.019999999999996 0 26 C-0.6599999999999966 26 -1.3200000000000003 26 -2 26 C-2.6599999999999966 25.010000000000005 -3.3200000000000003 24.019999999999996 -4 23 C-4.990000000000002 22.67 -5.98 22.340000000000003 -7 22 C-7 21.340000000000003 -7 20.68 -7 20 C-9.310000000000002 20 -11.620000000000001 20 -14 20 C-14 19.340000000000003 -14 18.68 -14 18 C-14.66 18 -15.32 18 -16 18 C-16 17.340000000000003 -16 16.68 -16 16 C-16.990000000000002 16 -17.98 16 -19 16 C-19 15.009999999999998 -19 14.019999999999996 -19 13 C-18.01 13 -17.02 13 -16 13 C-16 13.659999999999997 -16 14.32 -16 15 C-14.68 15.659999999999997 -13.36 16.32 -12 17 C-12.66 15.019999999999996 -13.32 13.04 -14 11 C-14.66 11 -15.32 11 -16 11 C-16 9.68 -16 8.36 -16 7 C-14.68 7 -13.36 7 -12 7 C-11.34 8.649999999999999 -10.68 10.3 -10 12 C-9.670000000000002 11.009999999999998 -9.34 10.02 -9 9 C-8.34 9 -7.68 9 -7 9 C-7 11.310000000000002 -7 13.620000000000005 -7 16 C-6.34 16 -5.68 16 -5 16 C-4.360624999999999 16.804375 -3.7212499999999977 17.60875 -3.0625 18.4375 C-1 21 -1 21 2 22 C2 19.03 2 16.060000000000002 2 13 C1.3400000000000034 13 0.6799999999999997 13 0 13 C0 12.340000000000003 0 11.68 0 11 C-0.9899999999999949 11 -1.980000000000004 11 -3 11 C-3 10.34 -3 9.68 -3 9 C-3.66 9 -4.32 9 -5 9 C-5 8.009999999999998 -5 7.02 -5 6 C-4.009999999999998 6.329999999999998 -3.0199999999999996 6.66 -2 7 C-2 7.66 -2 8.32 -2 9 C-1.3400000000000034 9 -0.6799999999999997 9 0 9 C0 6.030000000000001 0 3.0599999999999987 0 0 Z " fill="#0EDCE0" transform="translate(35,20)"/>
<path d="M0 0 C10.230000000000004 0 20.46 0 31 0 C31 3.6299999999999955 31 7.260000000000005 31 11 C20.769999999999996 11 10.54 11 0 11 C0 7.3700000000000045 0 3.739999999999995 0 0 Z " fill="#1E363D" transform="translate(22,71)"/>
<path d="M0 0 C0.33000000000000007 0 0.6600000000000001 0 1 0 C1.33 13.86 1.6600000000000001 27.72 2 42 C9.601803990930723 45.80090199546535 18.231553378470505 45.18004638617472 26.59765625 45.31640625 C27.672527923583985 45.33718734741211 28.74739959716797 45.35796844482422 29.854843139648438 45.37937927246094 C33.25733619254886 45.44428168387958 36.65990031919178 45.50348145686385 40.0625 45.5625 C42.38216853646776 45.605741743994756 44.70183012817343 45.649357753647735 47.021484375 45.693359375 C52.68091646689088 45.79990146339051 58.340417801798274 45.90177318908525 64 46 C64 46.33 64 46.66 64 47 C43.209999999999994 47 22.419999999999995 47 1 47 C1 47.66 1 48.31999999999999 1 49 C5.949999999999999 49 10.9 49 16 49 C16 52.629999999999995 16 56.25999999999999 16 60 C11.71 60 7.42 60 3 60 C3 59.34 3 58.68000000000001 3 58 C3.66 58 4.32 58 5 58 C5 55.69 5 53.379999999999995 5 51 C4.01 51 3.0199999999999996 51 2 51 C2 53.31 2 55.620000000000005 2 58 C1.67 58 1.3399999999999999 58 1 58 C0.7721354166666661 55.94921875 0.5442708333333339 53.8984375 0.31640625 51.84765625 C0 50 0 50 -1 49 C-1.1076205970672732 46.61335499444928 -1.1397792455311748 44.262375983482286 -1.125 41.875 C-1.12306640625 41.1139697265625 -1.1211328125 40.352939453125 -1.119140625 39.56884765625 C-1.02775527077385 26.37635638088051 -0.4727145484128168 13.183204134725528 0 0 Z " fill="#529B9E" transform="translate(4,22)"/>
<path d="M0 0 C1 1 1 1 1.09765625 2.84765625 C1.0651041666666714 4.8984375 1.0325520833333286 6.94921875 1 9 C0.15695312500000114 8.976796875000005 -0.6860937499999977 8.953593749999996 -1.5546875 8.9296875 C-2.650390625 8.911640625000004 -3.74609375 8.893593750000008 -4.875 8.875 C-5.965546875000001 8.851796875000005 -7.056093750000002 8.828593749999996 -8.1796875 8.8046875 C-11 9 -11 9 -13 11 C-15.3828125 11.1953125 -15.3828125 11.1953125 -18.125 11.125 C-18.5800390625 11.115976562499995 -18.5800390625 11.115976562499995 -20.8828125 11.0703125 C-21.581484375000002 11.047109375000005 -22.280156249999997 11.023906249999996 -23 11 C-24.478322596285636 8.043354807428727 -24.060327826488134 5.257702630359148 -24 2 C-23.340000000000003 2 -22.68 2 -22 2 C-22 1.3400000000000034 -22 0.6800000000000068 -22 0 C-14.558520949530816 -1.1351408721054668 -7.469674872276968 -1.000402884679957 0 0 Z " fill="#47A8B1" transform="translate(80,71)"/>
<path d="M0 0 C0.3299999999999983 0 0.6599999999999966 0 1 0 C1.6599999999999966 21.120000000000005 2.319999999999993 42.24 3 64 C-0.960000000000008 63.67 -4.920000000000002 63.34 -9 63 C-9.165000000000006 62.504999999999995 -9.165000000000006 62.504999999999995 -10 60 C-7.030000000000001 60 -4.060000000000002 60 -1 60 C-1.3299999999999983 57.36 -1.6599999999999966 54.72 -2 52 C-5.960000000000008 51.34 -9.920000000000002 50.68000000000001 -14 50 C-14 49.00999999999999 -14 48.02000000000001 -14 47 C-13.301328124999998 46.951015625 -12.602656249999995 46.90203124999999 -11.8828125 46.8515625 C-10.972734375000002 46.776796875 -10.062656250000003 46.702031250000005 -9.125 46.625 C-8.220078125 46.555390625 -7.315156250000001 46.48578125 -6.3828125 46.4140625 C-4 46 -4 46 -2 44 C-0.20160787916583445 34.890002513594865 -0.6831330733553784 25.087404333104445 -0.4375 15.8125 C-0.3941937871041006 14.272777606663666 -0.35057618536987434 12.733063938593858 -0.306640625 11.193359375 C-0.20084263556080373 7.462333162019785 -0.09923932357708054 3.7312071079961235 0 0 Z " fill="#5AB4B6" transform="translate(82,20)"/>
<path d="M0 0 C20.790000000000003 0 41.580000000000005 0 63 0 C63 0.3299999999999983 63 0.6599999999999966 63 1 C52.6772828669925 1.905304537964966 42.477412969252995 2.124892300133098 32.125 2.0625 C30.647136961439877 2.057466627752646 29.169272231128588 2.05290702205545 27.69140625 2.048828125 C24.127568051700937 2.0379871839756447 20.563795525299888 2.0208277925862745 17 2 C17 5.6299999999999955 17 9.260000000000005 17 13 C16.34 13 15.68 13 15 13 C15 9.370000000000005 15 5.739999999999995 15 2 C10.05 2 5.1 2 0 2 C0 1.3400000000000034 0 0.6800000000000068 0 0 Z " fill="#75DAD6" transform="translate(5,69)"/>
<path d="M0 0 C0.3299999999999983 1.6499999999999986 0.6599999999999966 3.299999999999997 1 5 C1.6599999999999966 5 2.3200000000000003 5 3 5 C3 7.640000000000001 3 10.280000000000001 3 13 C2.009999999999998 13.329999999999998 1.019999999999996 13.659999999999997 0 14 C0 13.009999999999998 0 12.019999999999996 0 11 C-0.6599999999999966 11 -1.3200000000000003 11 -2 11 C-2 10.340000000000003 -2 9.68 -2 9 C-2.6599999999999966 9 -3.3200000000000003 9 -4 9 C-4 10.32 -4 11.64 -4 13 C-3.3400000000000034 13 -2.6799999999999997 13 -2 13 C-1.1554564384685904 16.378174246125624 -0.8915508116004247 18.67465243480129 -2 22 C-3.937500000000007 21.6875 -3.937500000000007 21.6875 -6 21 C-6.329999999999998 20.010000000000005 -6.659999999999997 19.019999999999996 -7 18 C-7.659999999999997 18 -8.32 18 -9 18 C-8.652250146113381 9.862653419053188 -8.652250146113381 9.862653419053188 -6.0625 6.4375 C-4 5 -4 5 -2 5 C-2 4.009999999999998 -2 3.020000000000003 -2 2 C-2.6599999999999966 1.6700000000000017 -3.3200000000000003 1.3400000000000034 -4 1 C-2 0 -2 0 0 0 Z " fill="#0B1418" transform="translate(48,31)"/>
<path d="M0 0 C24.75 0 49.5 0 75 0 C76.47832259628564 2.956645192571271 76.06032782648813 5.742297369640845 76 9 C74.79371992466766 6.667858521024133 73.83452620497665 4.503578614929985 73 2 C49.57 2 26.14 2 2 2 C1.3399999999999999 4.640000000000001 0.6799999999999997 7.280000000000001 0 10 C-0.33000000000000007 10 -0.6600000000000001 10 -1 10 C-1.125 2.25 -1.125 2.25 0 0 Z " fill="#2B414A" transform="translate(6,11)"/>
<path d="M0 0 C0.33000000000000007 0 0.6600000000000001 0 1 0 C1 24.75 1 49.5 1 75 C1.6600000000000001 75 2.3200000000000003 75 3 75 C3 72.36 3 69.72 3 67 C4.65 67.33 6.300000000000001 67.66 8 68 C8 70.31 8 72.62 8 75 C7.34 75 6.68 75 6 75 C5.835 75.33 5.835 75.33 5 77 C4.34 76.67 3.6799999999999997 76.34 3 76 C2.67 76.99 2.34 77.98 2 79 C1.3399999999999999 79 0.6799999999999999 79 0 79 C0.33000000000000007 79.99 0.6600000000000001 80.98 1 82 C0.33999999999999986 82 -0.32000000000000006 82 -1 82 C-0.835 68.47 -0.835 68.47 0 0 Z " fill="#5DA8A7" transform="translate(1,5)"/>
<path d="M0 0 C2.969999999999999 0 5.939999999999998 0 9 0 C9 2.969999999999999 9 5.939999999999998 9 9 C-0.8999999999999986 9 -10.799999999999997 9 -21 9 C-21 8.670000000000002 -21 8.340000000000003 -21 8 C-17.04 8 -13.079999999999998 8 -9 8 C-9 7.010000000000005 -9 6.019999999999996 -9 5 C-6.195 4.834999999999994 -6.195 4.834999999999994 8 4 C7.670000000000002 3.3400000000000034 7.340000000000003 2.680000000000007 7 2 C4.678434028984221 1.592707724383203 2.3431213009060627 1.2556132328261214 0 1 C0 0.6700000000000017 0 0.3400000000000034 0 0 Z " fill="#090308" transform="translate(44,72)"/>
<path d="M0 0 C0.6599999999999966 0 1.3200000000000003 0 2 0 C2 0.6599999999999966 2 1.3200000000000003 2 2 C2.6599999999999966 2 3.3200000000000003 2 4 2 C4 2.990000000000002 4 3.979999999999997 4 5 C4.659999999999997 5.329999999999998 5.32 5.659999999999997 6 6 C5.670000000000002 6.164999999999999 5.670000000000002 6.164999999999999 4 7 C4 8.649999999999999 4 10.299999999999997 4 12 C4.990000000000002 12.329999999999998 5.980000000000004 12.659999999999997 7 13 C6.670000000000002 13.659999999999997 6.340000000000003 14.32 6 15 C5.340000000000003 15 4.68 15 4 15 C4 16.65 4 18.299999999999997 4 20 C1.0300000000000011 20 -1.9399999999999977 20 -5 20 C-5.659999999999997 18.019999999999996 -6.32 16.04 -7 14 C-6.340000000000003 14.329999999999998 -6.340000000000003 14.329999999999998 -3 16 C-3 16.659999999999997 -3 17.32 -3 18 C-2.009999999999998 18 -1.019999999999996 18 0 18 C0 17.340000000000003 0 16.68 0 16 C0.6599999999999966 16 1.3200000000000003 16 2 16 C2 15.340000000000003 2 14.68 2 14 C1.2368749999999977 13.896875000000001 0.47375000000000256 13.793750000000003 -0.3125 13.6875 C-3.2664498926804555 12.931838399546862 -4.337266644002661 12.537856174943308 -6 10 C-6.1875 6.8125 -6.1875 6.8125 -6 4 C-5.670000000000002 4 -5.340000000000003 4 -5 4 C-5 5.649999999999999 -5 7.299999999999997 -5 9 C-4.340000000000003 9 -3.6799999999999997 9 -3 9 C-2.6700000000000017 9.495000000000005 -2.6700000000000017 9.495000000000005 -1 12 C-0.00999999999999801 12.329999999999998 0.980000000000004 12.659999999999997 2 13 C2 10.030000000000001 2 7.060000000000002 2 4 C1.3400000000000034 4 0.6799999999999997 4 0 4 C0 2.6799999999999997 0 1.3599999999999994 0 0 Z " fill="#1A9AAB" transform="translate(44,40)"/>
<path d="M0 0 C2.3099999999999987 0.3299999999999983 4.620000000000001 0.6599999999999966 7 1 C7 1.6599999999999966 7 2.3200000000000003 7 3 C9.310000000000002 3 11.620000000000001 3 14 3 C14 3.6599999999999966 14 4.32 14 5 C14.990000000000002 5 15.980000000000004 5 17 5 C17.33 4.009999999999998 17.659999999999997 3.020000000000003 18 2 C18.33 4.310000000000002 18.659999999999997 6.619999999999997 19 9 C16.03 9 13.059999999999999 9 10 9 C10 9.659999999999997 10 10.32 10 11 C8.68 11 7.359999999999999 11 6 11 C6 10.340000000000003 6 9.68 6 9 C6.66 9 7.32 9 8 9 C8 7.68 8 6.359999999999999 8 5 C7.618437499999999 5.051562500000003 7.618437499999999 5.051562500000003 5.6875 5.3125 C4.800625 5.209375000000001 3.9137500000000003 5.106250000000003 3 5 C1.1875 2.5 1.1875 2.5 0 0 Z " fill="#17CAD5" transform="translate(18,44)"/>
<path d="M0 0 C0.9899999999999984 0.3299999999999983 1.9800000000000004 0.6600000000000001 3 1 C2.34 1 1.6799999999999997 1 1 1 C1 1.9899999999999984 1 2.9800000000000004 1 4 C1.6600000000000001 4 2.3200000000000003 4 3 4 C3 4.66 3 5.32 3 6 C3.990000000000002 6 4.980000000000004 6 6 6 C6 6.66 6 7.32 6 8 C6.659999999999997 8 7.32 8 8 8 C8 10.969999999999999 8 13.939999999999998 8 17 C3.25 15.8125 3.25 15.8125 1 13 C1 12.340000000000003 1 11.68 1 11 C0.33999999999999986 11 -0.3200000000000003 11 -1 11 C-1.1428571428571423 3.571428571428573 -1.1428571428571423 3.571428571428573 0 0 Z " fill="#0D181E" transform="translate(29,25)"/>
<path d="M0 0 C0.5048492431640625 0.16076522827148665 1.009698486328125 0.3215304565429733 1.52984619140625 0.4871673583984375 C4.857158222184442 1.1779560097934194 8.138896547021014 1.1777240974682002 11.5224609375 1.205322265625 C12.27406997680664 1.2152218627929727 13.025679016113282 1.2251214599609312 13.800064086914063 1.235321044921875 C16.27813595832386 1.266844656184361 18.75622698236246 1.2916572275579767 21.234375 1.31640625 C22.955022085643943 1.336983674576203 24.675664204341384 1.3579803558530017 26.39630126953125 1.3793792724609375 C30.920470918023824 1.4345185142622086 35.44468557261859 1.483963667569327 39.96893310546875 1.5322265625 C44.587402299254705 1.582501131140802 49.20580630344553 1.6381560895537888 53.82421875 1.693359375 C62.88275678173164 1.8008412713064246 71.9413514666968 1.902308317979518 81 2 C81 2.3299999999999983 81 2.6599999999999966 81 3 C54.599999999999994 3 28.199999999999996 3 1 3 C0.6699999999999999 2.010000000000005 0.33999999999999986 1.019999999999996 0 0 Z " fill="#000C0C" transform="translate(1,84)"/>
<path d="M0 0 C1.3200000000000003 0 2.6400000000000006 0 4 0 C4 0.6599999999999966 4 1.3200000000000003 4 2 C3.3400000000000034 2 2.6799999999999997 2 2 2 C2 3.3200000000000003 2 4.640000000000001 2 6 C3.3200000000000003 6 4.640000000000001 6 6 6 C6.329999999999998 4.68 6.659999999999997 3.3599999999999994 7 2 C8.319999999999993 2 9.64 2 11 2 C11 2.6599999999999966 11 3.3200000000000003 11 4 C10.340000000000003 4 9.680000000000007 4 9 4 C8.670000000000002 5.32 8.340000000000003 6.640000000000001 8 8 C5.689999999999998 8 3.3799999999999955 8 1 8 C1 8.659999999999997 1 9.32 1 10 C0.3400000000000034 10 -0.3200000000000003 10 -1 10 C-0.6700000000000017 11.649999999999999 -0.3400000000000034 13.299999999999997 0 15 C-1.4849999999999994 14.670000000000002 -1.4849999999999994 14.670000000000002 -9 13 C-9 12.670000000000002 -9 12.340000000000003 -9 12 C-7.020000000000003 12 -5.039999999999999 12 -3 12 C-3 11.340000000000003 -3 10.68 -3 10 C-4.32 9.670000000000002 -5.640000000000001 9.340000000000003 -7 9 C-5.68 9 -4.359999999999999 9 -3 9 C-2.6700000000000017 8.009999999999998 -2.3400000000000034 7.019999999999996 -2 6 C-1.3400000000000034 6 -0.6799999999999997 6 0 6 C0 4.019999999999996 0 2.039999999999999 0 0 Z " fill="#119DA1" transform="translate(60,38)"/>
<path d="M0 0 C4.620000000000001 0 9.24 0 14 0 C14 2.969999999999999 14 5.939999999999998 14 9 C12.350000000000001 8.670000000000002 10.7 8.340000000000003 9 8 C9 5.689999999999998 9 3.3799999999999955 9 1 C7.68 1 6.359999999999999 1 5 1 C5 3.3100000000000023 5 5.6200000000000045 5 8 C5.66 8.329999999999998 6.32 8.659999999999997 7 9 C5.35 9 3.6999999999999993 9 2 9 C2.66 8.670000000000002 3.3200000000000003 8.340000000000003 4 8 C4 5.689999999999998 4 3.3799999999999955 4 1 C3.01 1 2.0199999999999996 1 1 1 C1 3.3100000000000023 1 5.6200000000000045 1 8 C0.6699999999999999 8 0.33999999999999986 8 0 8 C0 5.359999999999999 0 2.719999999999999 0 0 Z " fill="#0C070D" transform="translate(5,72)"/>
<path d="M0 0 C4.949999999999999 0 9.9 0 15 0 C15 3.6299999999999955 15 7.260000000000005 15 11 C10.71 11 6.42 11 2 11 C2.99 10.340000000000003 3.9800000000000004 9.680000000000007 5 9 C5.1875 5.375 5.1875 5.375 5 2 C6.32 2 7.640000000000001 2 9 2 C9.33 4.310000000000002 9.66 6.6200000000000045 10 9 C11.32 9.329999999999998 12.64 9.659999999999997 14 10 C14 7.030000000000001 14 4.060000000000002 14 1 C9.379999999999999 1 4.76 1 0 1 C0 0.6700000000000017 0 0.3400000000000034 0 0 Z " fill="#35585B" transform="translate(5,71)"/>
<path d="M0 0 C2.9375000000000036 1.375 2.9375000000000036 1.375 5 3 C5 3.6599999999999966 5 4.32 5 5 C5.659999999999997 5 6.32 5 7 5 C7 5.990000000000002 7 6.980000000000004 7 8 C6.010000000000005 8 5.019999999999996 8 4 8 C4 7.340000000000003 4 6.68 4 6 C1.6899999999999977 6 -0.620000000000001 6 -3 6 C-3 5.340000000000003 -3 4.68 -3 4 C-3.66 4 -4.32 4 -5 4 C-5 3.3400000000000034 -5 2.6799999999999997 -5 2 C-6.98 2 -8.96 2 -11 2 C-7.343879559069258 -0.33991708219567585 -4.267926237585915 -0.3743794945250798 0 0 Z " fill="#0C080C" transform="translate(28,41)"/>
<path d="M0 0 C2.969999999999999 0 5.939999999999998 0 9 0 C9 2.3100000000000023 9 4.6200000000000045 9 7 C6.030000000000001 7 3.0600000000000023 7 0 7 C0 4.689999999999998 0 2.3799999999999955 0 0 Z " fill="#23424D" transform="translate(72,73)"/>
<path d="M0 0 C6.600000000000001 0 13.200000000000003 0 20 0 C20 0.9899999999999949 20 1.980000000000004 20 3 C13.399999999999999 3 6.799999999999997 3 0 3 C0 2.010000000000005 0 1.019999999999996 0 0 Z " fill="#0ECFD0" transform="translate(24,73)"/>
<path d="M0 0 C0.6599999999999966 0 1.3200000000000003 0 2 0 C2 0.990000000000002 2 1.9799999999999969 2 3 C2.990000000000002 3 3.980000000000004 3 5 3 C5.84454356153141 6.378174246125631 6.108449188399575 8.674652434801274 5 12 C3.0625 11.6875 3.0625 11.6875 1 11 C0.6700000000000017 10.009999999999998 0.3400000000000034 9.019999999999996 0 8 C-0.6599999999999966 8 -1.3200000000000003 8 -2 8 C-2 6.350000000000001 -2 4.700000000000003 -2 3 C-1.3400000000000034 3 -0.6799999999999997 3 0 3 C0 2.009999999999998 0 1.0200000000000031 0 0 Z " fill="#0D0E14" transform="translate(41,41)"/>
<path d="M0 0 C1.6499999999999986 0 3.299999999999997 0 5 0 C5.329999999999998 0.6600000000000001 5.659999999999997 1.3200000000000003 6 2 C6.659999999999997 2 7.32 2 8 2 C8 1.3399999999999999 8 0.6799999999999997 8 0 C9.319999999999993 0 10.64 0 12 0 C12 4 12 4 10.375 5.8125 C7.2287370655087955 7.385631467245602 5.344316167766756 6.836079041941687 2 6 C2 5.340000000000003 2 4.68 2 4 C2.6599999999999966 4 3.3200000000000003 4 4 4 C4 3.009999999999998 4 2.0199999999999996 4 1 C3.009999999999998 1 2.020000000000003 1 1 1 C1 3.3099999999999987 1 5.619999999999997 1 8 C0.3400000000000034 7.670000000000002 -0.3200000000000003 7.340000000000003 -1 7 C-0.6700000000000017 4.689999999999998 -0.3400000000000034 2.379999999999999 0 0 Z " fill="#0EACAF" transform="translate(56,27)"/>
<path d="M0 0 C1.3200000000000003 0 2.6400000000000006 0 4 0 C4.329999999999998 1.9800000000000004 4.659999999999997 3.960000000000001 5 6 C4.340000000000003 6 3.6799999999999997 6 3 6 C3 6.659999999999997 3 7.32 3 8 C2.3400000000000034 8 1.6799999999999997 8 1 8 C0.6700000000000017 9.32 0.3400000000000034 10.64 0 12 C-0.6599999999999966 12 -1.3200000000000003 12 -2 12 C-2 8.700000000000003 -2 5.399999999999999 -2 2 C-1.3400000000000034 2 -0.6799999999999997 2 0 2 C0 1.3399999999999999 0 0.6799999999999997 0 0 Z " fill="#0B070C" transform="translate(41,26)"/>
<path d="M0 0 C0.990000000000002 0 1.980000000000004 0 3 0 C3 0.9899999999999984 3 1.9800000000000004 3 3 C2.3400000000000034 3 1.6799999999999997 3 1 3 C1 3.66 1 4.32 1 5 C1.6599999999999966 5 2.3200000000000003 5 3 5 C2.4925953781431502 9.397506722759339 -0.08293313553731707 11.869489218625418 -3 15 C-3.6599999999999966 15 -4.32 15 -5 15 C-5 12.689999999999998 -5 10.379999999999995 -5 8 C-3.3500000000000014 7.670000000000002 -1.7000000000000028 7.340000000000003 0 7 C0 4.689999999999998 0 2.379999999999999 0 0 Z " fill="#0DEBED" transform="translate(57,28)"/>
<path d="M0 0 C1.3200000000000003 0.3299999999999983 2.6400000000000006 0.6599999999999966 4 1 C3.009999999999998 1 2.019999999999996 1 1 1 C0.9626171875000011 1.6148828124999994 0.9252343750000023 2.229765624999999 0.88671875 2.86328125 C0.8209765625000003 3.6715234374999994 0.7552343750000006 4.479765624999999 0.6875 5.3125 C0.6294921874999986 6.113007812500001 0.5714843749999972 6.913515625000002 0.51171875 7.73828125 C-0.09855752103779025 10.435609196037255 -0.7503501167152535 11.409286466967991 -3 13 C-4.32 13 -5.640000000000001 13 -7 13 C-7 12.009999999999998 -7 11.019999999999996 -7 10 C-6.340000000000003 10 -5.68 10 -5 10 C-4.917499999999997 9.278125000000003 -4.835000000000001 8.556249999999999 -4.75 7.8125 C-3.852497990311349 4.446867463667566 -2.2885722041953827 2.5838718434464027 0 0 Z " fill="#0E262B" transform="translate(60,34)"/>
<path d="M0 0 C0.990000000000002 0 1.9799999999999969 0 3 0 C3.6599999999999966 2.969999999999999 4.32 5.939999999999998 5 9 C7.310000000000002 9.659999999999997 9.620000000000005 10.32 12 11 C12 11.659999999999997 12 12.32 12 13 C11.340000000000003 13 10.68 13 10 13 C10 13.659999999999997 10 14.32 10 15 C7 15 7 15 4.921875 13.359375 C2.725493051637237 10.663003665018067 2.0512870497274136 8.615405608855127 1.25 5.25 C1.0076562499999966 4.265156250000004 0.7653125000000003 3.280312500000001 0.515625 2.265625 C0.345468750000002 1.5179687500000014 0.17531249999999687 0.7703125000000028 0 0 Z " fill="#0FF0F3" transform="translate(34,43)"/>
<path d="M0 0 C0.6599999999999966 0 1.3199999999999932 0 2 0 C2.29296875 6.0546875 2.29296875 6.0546875 2 8 C-1.0888852201926937 10.059256813461786 -1.709359270058215 10.239037400981701 -5.1875 10.125 C-5.816562500000003 10.104375000000005 -5.816562500000003 10.104375000000005 -9 10 C-9 9.340000000000003 -9 8.68 -9 8 C-8.071875000000006 7.793750000000003 -7.143749999999997 7.587499999999999 -6.1875 7.375 C-3 6 -3 6 -1.125 2.875 C-0.7537499999999966 1.9262500000000031 -0.3824999999999932 0.9774999999999991 0 0 Z " fill="#0F364B" transform="translate(77,55)"/>
<path d="M0 0 C0.5981249999999996 0.8043750000000003 1.1962499999999991 1.6087500000000006 1.8125 2.4375 C4 5 4 5 7 6 C7 6.990000000000002 7 7.980000000000004 7 9 C7.990000000000002 9.329999999999998 8.98 9.659999999999997 10 10 C8.54257537468947 10.08096803473947 7.083871934282794 10.139177743501676 5.625 10.1875 C4.812890625 10.2223046875 4.000781249999999 10.257109374999999 3.1640625 10.29296875 C2.4499218749999994 10.1962890625 1.7357812499999987 10.099609375 1 10 C-1.5668736680793813 6.149689497880928 -0.8328872393764559 4.414302368695218 0 0 Z " fill="#121824" transform="translate(9,57)"/>
<path d="M0 0 C2.6400000000000006 0 5.280000000000001 0 8 0 C8 2.3100000000000023 8 4.6200000000000045 8 7 C5.359999999999999 7 2.719999999999999 7 0 7 C0 6.340000000000003 0 5.680000000000007 0 5 C1.9799999999999969 4.670000000000002 3.960000000000001 4.340000000000003 6 4 C6 3.3400000000000034 6 2.680000000000007 6 2 C4.019999999999996 2.3299999999999983 2.039999999999999 2.6599999999999966 0 3 C0 2.010000000000005 0 1.019999999999996 0 0 Z " fill="#131723" transform="translate(58,73)"/>
<path d="M0 0 C1.3200000000000003 0 2.6400000000000006 0 4 0 C4 0.6599999999999966 4 1.3200000000000003 4 2 C3.3400000000000034 2 2.6799999999999997 2 2 2 C2 3.3200000000000003 2 4.640000000000001 2 6 C3.3200000000000003 6 4.640000000000001 6 6 6 C6.329999999999998 4.68 6.659999999999997 3.3599999999999994 7 2 C8.319999999999993 2 9.64 2 11 2 C11 2.6599999999999966 11 3.3200000000000003 11 4 C10.340000000000003 4 9.680000000000007 4 9 4 C9 4.659999999999997 9 5.32 9 6 C6.043354807428727 7.478322596285636 3.257702630359148 7.060327826488134 0 7 C-0.3299999999999983 7.659999999999997 -0.6599999999999966 8.32 -1 9 C-0.6700000000000017 6.030000000000001 -0.3400000000000034 3.0600000000000023 0 0 Z " fill="#10D8DA" transform="translate(60,38)"/>
<path d="M0 0 C0.4582617187500002 0.005800781250000497 0.4582617187500002 0.005800781250000497 2.77734375 0.03515625 C3.6964453125 0.04417968749999979 4.615546875 0.053203124999999574 5.5625 0.0625 C6.2727734375 0.07410156249999922 6.983046874999999 0.08570312500000021 7.71484375 0.09765625 C7.71484375 0.7576562500000001 7.71484375 1.4176562500000003 7.71484375 2.09765625 C7.157968750000002 2.24203125 7.157968750000002 2.24203125 4.33984375 2.97265625 C0.5254585209087281 4.156430976269704 -0.5788563401814777 4.7635341981205706 -2.41015625 8.22265625 C-2.6989062500000003 8.841406249999999 -2.9876562500000006 9.46015625 -3.28515625 10.09765625 C-3.3120484121637457 8.618587330993954 -3.3315024649655367 7.1393814224415095 -3.34765625 5.66015625 C-3.359257812499999 4.8364453125 -3.370859375 4.012734375000001 -3.3828125 3.1640625 C-3.2438120354107536 0.22281266929154953 -2.9444484016949097 0.12583112827756082 0 0 Z " fill="#0F4B62" transform="translate(12.28515625,14.90234375)"/>
<path d="M0 0 C4.289999999999999 0 8.58 0 13 0 C13 0.6600000000000001 13 1.3200000000000003 13 2 C9.37 2 5.739999999999998 2 2 2 C1.3399999999999999 4.640000000000001 0.6799999999999997 7.280000000000001 0 10 C-0.33000000000000007 10 -0.6600000000000001 10 -1 10 C-1.125 2.25 -1.125 2.25 0 0 Z " fill="#3191A1" transform="translate(6,11)"/>
<path d="M0 0 C0.6599999999999966 0 1.3200000000000003 0 2 0 C2.3299999999999983 0.990000000000002 2.6599999999999966 1.9799999999999969 3 3 C5.0625 3.6875 5.0625 3.6875 7 4 C7 4.659999999999997 7 5.32 7 6 C5.019999999999996 6 3.039999999999999 6 1 6 C1 6.659999999999997 1 7.32 1 8 C0.00999999999999801 8 -0.9799999999999969 8 -2 8 C-2.3299999999999983 6.019999999999996 -2.6599999999999966 4.039999999999999 -3 2 C-2.009999999999998 2 -1.0200000000000031 2 0 2 C0 1.3400000000000034 0 0.6799999999999997 0 0 Z " fill="#0CF4F8" transform="translate(50,44)"/>
<path d="M0 0 C4.290000000000006 0 8.579999999999998 0 13 0 C14.478322596285636 2.956645192571271 14.060327826488134 5.742297369640845 14 9 C12.793719924667656 6.667858521024144 11.834526204976655 4.503578614929982 11 2 C7.3700000000000045 2 3.739999999999995 2 0 2 C0 1.3399999999999999 0 0.6799999999999997 0 0 Z " fill="#2D8E9E" transform="translate(68,11)"/>
<path d="M0 0 C1.4579288414903289 -0.053997364499641876 2.9164271180754326 -0.09279176601428318 4.375 -0.125 C5.187109375000006 -0.1482031250000002 5.999218749999997 -0.17140625000000043 6.8359375 -0.1953125 C9 0 9 0 11 2 C11.397642626135152 3.988213130675746 11.737753485817748 5.989443391269383 12 8 C11.340000000000003 8 10.680000000000007 8 10 8 C9.4225 7.195625 8.844999999999999 6.391249999999999 8.25 5.5625 C5.540574000397498 2.4767648337860386 4.005926659788969 2.2731313631674297 0 2 C0 1.3399999999999999 0 0.6799999999999997 0 0 Z " fill="#0F4459" transform="translate(67,15)"/>
<path d="M0 0 C0.33000000000000007 0 0.6600000000000001 0 1 0 C1 3.6300000000000026 1 7.259999999999998 1 11 C4.473690662631881 12.736845331315948 6.07619937399947 13.300841121235251 9.75 13.625 C10.54921875 13.699765624999998 11.3484375 13.774531249999995 12.171875 13.8515625 C12.775156250000002 13.900546875000003 13.3784375 13.949531250000007 14 14 C14 14.329999999999998 14 14.659999999999997 14 15 C12.041741270980257 15.026948514619534 10.083377738270057 15.046372183331897 8.125 15.0625 C7.034453124999999 15.074101562500005 5.9439062499999995 15.085703124999995 4.8203125 15.09765625 C2 15 2 15 0 14 C0 9.379999999999995 0 4.759999999999998 0 0 Z " fill="#278B9F" transform="translate(5,53)"/>
<path d="M0 0 C2.3099999999999987 0.3299999999999983 4.620000000000001 0.6599999999999966 7 1 C7 1.6599999999999966 7 2.3200000000000003 7 3 C9.310000000000002 3 11.620000000000001 3 14 3 C13.670000000000002 3.6599999999999966 13.34 4.32 13 5 C9.621143884383159 5.285269278053953 6.367080092042549 5.460872476366532 3 5 C0.875 2.5 0.875 2.5 0 0 Z " fill="#10C0C6" transform="translate(18,44)"/>
<path d="M0 0 C0.3299999999999983 0 0.6599999999999966 0 1 0 C1.0268541177813546 2.3124379200609795 1.046328410499214 4.624962701388192 1.0625 6.9375 C1.0741015625000045 8.2252734375 1.0857031249999949 9.513046875 1.09765625 10.83984375 C1 14 1 14 0 15 C-2.186394531664348 15.072589459882607 -4.375003889715174 15.083737826313438 -6.5625 15.0625 C-7.161269531249999 15.057988281250005 -7.161269531249999 15.057988281250005 -10.19140625 15.03515625 C-11.118242187500002 15.023554687499995 -12.045078125000003 15.011953125000005 -13 15 C-13 14.670000000000002 -13 14.340000000000003 -13 14 C-12.650664062499999 13.975507812499998 -12.650664062499999 13.975507812499998 -10.8828125 13.8515625 C-9.972734375000002 13.776796875000002 -9.062656250000003 13.702031250000005 -8.125 13.625 C-7.220078125000001 13.555390625000001 -6.315156250000001 13.485781250000002 -5.3828125 13.4140625 C-3 13 -3 13 -1 11 C-0.5859375 8.398437499999993 -0.5859375 8.398437499999993 -0.375 5.375 C-0.3002343750000023 4.372109375000001 -0.22546875000000455 3.3692187500000017 -0.1484375 2.3359375 C-0.09945312499999659 1.5650781249999994 -0.05046874999999318 0.7942187499999989 0 0 Z " fill="#278B9D" transform="translate(81,53)"/>
<path d="M0 0 C1.3200000000000003 0 2.6400000000000006 0 4 0 C4.309374999999999 0.7837500000000013 4.618749999999999 1.567499999999999 4.9375 2.375 C6 4.9999999999999964 6 4.9999999999999964 7 7 C6.0625 9.125 6.0625 9.125 5 11 C2 6.25 2 6.25 2 4 C1.3399999999999999 4 0.6799999999999997 4 0 4 C0 2.6799999999999997 0 1.3599999999999994 0 0 Z " fill="#0EC4C8" transform="translate(19,27)"/>
<path d="M0 0 C1.3200000000000003 0 2.6400000000000006 0 4 0 C4.33 2.6400000000000006 4.66 5.280000000000001 5 8 C3.3499999999999996 7.670000000000002 1.6999999999999993 7.340000000000003 0 7 C0 4.689999999999998 0 2.3799999999999955 0 0 Z " fill="#106369" transform="translate(10,73)"/>
<path d="M0 0 C0.5974804687499997 0.005800781250002274 0.5974804687499997 0.005800781250002274 3.62109375 0.03515625 C4.219863281249999 0.03966796874999545 4.219863281249999 0.03966796874999545 7.25 0.0625 C8.176835937500002 0.07410156250000455 9.103671875000003 0.08570312499999488 10.05859375 0.09765625 C10.05859375 0.4276562499999983 10.05859375 0.7576562499999966 10.05859375 1.09765625 C7.088593750000001 1.09765625 4.118593750000002 1.09765625 1.05859375 1.09765625 C1.05859375 1.7576562499999966 1.05859375 2.417656249999993 1.05859375 3.09765625 C0.06859374999999801 3.09765625 -0.9214062499999969 3.09765625 -1.94140625 3.09765625 C-2.2714062499999983 6.067656249999999 -2.6014062499999966 9.037656249999998 -2.94140625 12.09765625 C-3.2714062499999983 12.09765625 -3.6014062499999966 12.09765625 -3.94140625 12.09765625 C-3.9682790418516944 10.285235732891493 -3.9877434045739406 8.472703915636828 -4.00390625 6.66015625 C-4.015507812499997 5.650820312500002 -4.027109375000002 4.6414843750000045 -4.0390625 3.6015625 C-3.897492993695245 -0.028279641653895737 -3.6777311784201316 0.12210262876560307 0 0 Z " fill="#66BBB9" transform="translate(56.94140625,69.90234375)"/>
<path d="M0 0 C0.6599999999999966 0.3299999999999983 1.3200000000000003 0.6600000000000001 2 1 C2 4.960000000000001 2 8.920000000000002 2 13 C1.3400000000000034 13 0.6799999999999997 13 0 13 C0 12.340000000000003 0 11.68 0 11 C-0.990000000000002 11 -1.9799999999999969 11 -3 11 C-3 10.34 -3 9.68 -3 9 C-3.66 9 -4.32 9 -5 9 C-5 8.009999999999998 -5 7.02 -5 6 C-4.010000000000002 6.329999999999998 -3.0199999999999996 6.66 -2 7 C-2 7.66 -2 8.32 -2 9 C-1.3400000000000034 9 -0.6799999999999997 9 0 9 C0 6.030000000000001 0 3.0599999999999987 0 0 Z " fill="#11D0D6" transform="translate(35,20)"/>
<path d="M0 0 C0.6600000000000001 0.6600000000000001 1.3200000000000003 1.3200000000000003 2 2 C1.6700000000000017 2.99 1.3399999999999999 3.9800000000000004 1 5 C1 4.34 1 3.6799999999999997 1 3 C-1.1449999999999996 3.164999999999999 -1.1449999999999996 3.164999999999999 -12 4 C-11.67 3.01 -11.34 2.0199999999999996 -11 1 C-9.209915334884002 0.7784845063234389 -7.417818383171079 0.5731778675484733 -5.625 0.375 C-4.627265625 0.2589843750000007 -3.6295312499999994 0.14296874999999964 -2.6015625 0.0234375 C-1.7430468749999974 0.01570312499999993 -0.884531250000002 0.007968749999999858 0 0 Z " fill="#0F141F" transform="translate(19,12)"/>
<path d="M0 0 C0.9899999999999949 0.6599999999999966 1.980000000000004 1.3199999999999932 3 2 C0.41073669068759955 4.5892633093124005 -1.0270527920899042 4.373980427355107 -4.625 4.625 C-5.627890625000006 4.699765624999998 -6.630781249999998 4.7745312499999955 -7.6640625 4.8515625 C-8.049492187499993 4.876054687500002 -8.049492187499993 4.876054687500002 -10 5 C-9.670000000000002 3.680000000000007 -9.340000000000003 2.3599999999999994 -9 1 C-7.700625000000002 1.0206249999999955 -6.4012500000000045 1.0412500000000051 -5.0625 1.0625 C-3.70834366728738 1.0839945449636872 -2.3524391722322378 1.0714819858473703 -1 1 C-0.6700000000000017 0.6700000000000017 -0.3400000000000034 0.3400000000000034 0 0 Z " fill="#121724" transform="translate(77,63)"/>
<path d="M0 0 C0.6599999999999966 0 1.3200000000000003 0 2 0 C2 0.9899999999999949 2 1.980000000000004 2 3 C3.979999999999997 2.6700000000000017 5.960000000000001 2.3400000000000034 8 2 C8 2.6599999999999966 8 3.319999999999993 8 4 C6.019999999999996 4.329999999999998 4.039999999999999 4.659999999999997 2 5 C2 5.659999999999997 2 6.319999999999993 2 7 C1.3400000000000034 7 0.6799999999999997 7 0 7 C0 4.689999999999998 0 2.3799999999999955 0 0 Z " fill="#23A4B3" transform="translate(56,73)"/>
<path d="M0 0 C0.6600000000000001 0 1.3200000000000003 0 2 0 C2.3299999999999983 3.299999999999997 2.66 6.600000000000001 3 10 C1.6799999999999997 10 0.35999999999999943 10 -1 10 C-0.6700000000000017 6.700000000000003 -0.33999999999999986 3.3999999999999986 0 0 Z " fill="#09EBED" transform="translate(26,29)"/>
<path d="M0 0 C0.6599999999999966 0 1.3200000000000003 0 2 0 C2 0.6599999999999966 2 1.3200000000000003 2 2 C2.6599999999999966 2 3.3200000000000003 2 4 2 C4 2.990000000000002 4 3.979999999999997 4 5 C4.659999999999997 5.329999999999998 5.32 5.659999999999997 6 6 C5.670000000000002 6.164999999999999 5.670000000000002 6.164999999999999 4 7 C4 7.990000000000002 4 8.980000000000004 4 10 C3.3400000000000034 9.670000000000002 2.6799999999999997 9.340000000000003 2 9 C2 7.350000000000001 2 5.700000000000003 2 4 C1.3400000000000034 4 0.6799999999999997 4 0 4 C0 2.6799999999999997 0 1.3599999999999994 0 0 Z " fill="#13BABE" transform="translate(44,40)"/>
<path d="M0 0 C0.6599999999999966 0 1.3200000000000003 0 2 0 C2 1.3200000000000003 2 2.6400000000000006 2 4 C2.6599999999999966 4 3.3200000000000003 4 4 4 C5 7 5 7 4.0625 9.1875 C3.887187500000003 9.486562499999998 3.887187500000003 9.486562499999998 3 11 C2.6700000000000017 9.350000000000001 2.3400000000000034 7.700000000000003 2 6 C1.3400000000000034 6 0.6799999999999997 6 0 6 C0 4.02 0 2.039999999999999 0 0 Z " fill="#11B9BD" transform="translate(46,25)"/>
<path d="M0 0 C0.9900000000000002 0 1.9800000000000004 0 3 0 C3 2.3100000000000023 3 4.6200000000000045 3 7 C2.34 7 1.6799999999999997 7 1 7 C0.6699999999999999 7.659999999999997 0.33999999999999986 8.319999999999993 0 9 C0 6.030000000000001 0 3.0600000000000023 0 0 Z " fill="#17A8AF" transform="translate(6,73)"/>
<path d="M0 0 C2.3100000000000023 0 4.619999999999997 0 7 0 C7.329999999999998 0.9899999999999949 7.659999999999997 1.980000000000004 8 3 C5.359999999999999 3 2.719999999999999 3 0 3 C0 2.010000000000005 0 1.019999999999996 0 0 Z " fill="#0D374A" transform="translate(44,73)"/>
<path d="M0 0 C0.6599999999999966 0 1.3199999999999932 0 2 0 C2 2.6400000000000006 2 5.280000000000001 2 8 C0.3499999999999943 8.329999999999998 -1.2999999999999972 8.659999999999997 -3 9 C-2.3400000000000034 8.009999999999998 -1.6800000000000068 7.019999999999996 -1 6 C-0.6098628426795614 4.0103004976657814 -0.26797350814482 2.0098013110861643 0 0 Z " fill="#0F465D" transform="translate(77,55)"/>
<path d="M0 0 C0.5981249999999996 0.8043750000000003 1.1962499999999991 1.6087500000000006 1.8125 2.4375 C4 5 4 5 7 6 C7 6.659999999999997 7 7.319999999999993 7 8 C1.125 7.125 1.125 7.125 0 6 C-0.040807829325038014 4.000416363073107 -0.042543562981151695 1.9995474601141296 0 0 Z " fill="#104057" transform="translate(9,57)"/>
<path d="M0 0 C0.8250000000000028 0.16499999999999915 0.8250000000000028 0.16499999999999915 5 1 C4 3 3 5 2 7 C1.3400000000000034 7 0.6799999999999997 7 0 7 C0 4.689999999999998 0 2.3800000000000026 0 0 Z " fill="#0AF6F8" transform="translate(52,36)"/>
<path d="M0 0 C5.61 0.33 11.22 0.66 17 1 C17 1.33 17 1.6600000000000001 17 2 C14.542031473889736 2.194364907782442 12.08390705524878 2.380774204858439 9.625 2.5625 C8.926328125 2.61857421875 8.227656249999999 2.6746484375 7.5078125 2.732421875 C2.226562499999999 3.1132812499999996 2.226562499999999 3.1132812499999996 0 2 C0 1.3399999999999999 0 0.6799999999999999 0 0 Z " fill="#466465" transform="translate(0,0)"/>
<path d="M0 0 C0.3299999999999983 0.6599999999999966 0.6600000000000001 1.3200000000000003 1 2 C4.300000000000001 2 7.600000000000001 2 11 2 C11 2.3299999999999983 11 2.6599999999999966 11 3 C8.030000000000001 3 5.059999999999999 3 2 3 C2 3.6599999999999966 2 4.32 2 5 C0.6799999999999997 5 -0.6400000000000006 5 -2 5 C-2 4.340000000000003 -2 3.6799999999999997 -2 3 C-1.3399999999999999 3 -0.6799999999999997 3 0 3 C0 2.009999999999998 0 1.0200000000000031 0 0 Z " fill="#1B98A5" transform="translate(26,50)"/>
<path d="M0 0 C0 0.990000000000002 0 1.9799999999999969 0 3 C-0.6599999999999966 3 -1.3200000000000003 3 -2 3 C-2.6599999999999966 4.32 -3.3200000000000003 5.640000000000001 -4 7 C-4.990000000000002 6.340000000000003 -5.979999999999997 5.68 -7 5 C-6.340000000000003 5 -5.68 5 -5 5 C-4.876249999999999 4.360624999999999 -4.752499999999998 3.7212499999999977 -4.625 3.0625 C-4.418750000000003 2.381875000000001 -4.212499999999999 1.7012500000000017 -4 1 C-2 0 -2 0 0 0 Z " fill="#10CFD2" transform="translate(46,33)"/>
<path d="M0 0 C2.475 0.3299999999999983 2.475 0.3299999999999983 15 2 C15 2.3299999999999983 15 2.6599999999999966 15 3 C10.379999999999999 3 5.76 3 1 3 C0.6699999999999999 2.010000000000005 0.33999999999999986 1.019999999999996 0 0 Z " fill="#051719" transform="translate(1,84)"/>
<path d="M0 0 C1.980000000000004 0.990000000000002 3.960000000000001 1.9799999999999969 6 3 C5.009999999999998 3.3299999999999983 4.019999999999996 3.6599999999999966 3 4 C3.3299999999999983 4.990000000000002 3.6599999999999966 5.980000000000004 4 7 C3.3400000000000034 7 2.6799999999999997 7 2 7 C1.3400000000000034 6.009999999999998 0.6799999999999997 5.019999999999996 0 4 C-0.990000000000002 3.3400000000000034 -1.9800000000000004 2.6799999999999997 -3 2 C-2.0100000000000016 2 -1.0199999999999996 2 0 2 C0 1.3400000000000034 0 0.6799999999999997 0 0 Z " fill="#11BDC1" transform="translate(31,39)"/>
<path d="M0 0 C0.6599999999999966 0.3299999999999983 1.3200000000000003 0.6599999999999966 2 1 C2 1.990000000000002 2 2.979999999999997 2 4 C1.3400000000000034 4 0.6799999999999997 4 0 4 C-0.3299999999999983 5.32 -0.6599999999999966 6.640000000000001 -1 8 C-1 7.009999999999998 -1 6.019999999999996 -1 5 C-1.6599999999999966 5 -2.3200000000000003 5 -3 5 C-3 5.990000000000002 -3 6.980000000000004 -3 8 C-3.6599999999999966 7.670000000000002 -4.32 7.340000000000003 -5 7 C-3.8882083693947393 3.664625108184218 -2.5258870150310955 2.3629265624484432 0 0 Z " fill="#0E4249" transform="translate(44,36)"/>
<path d="M0 0 C1.6875 1.8125 1.6875 1.8125 3 4 C2.6700000000000017 4.990000000000002 2.34 5.980000000000004 2 7 C0 5.625 0 5.625 -2 4 C-2 3.3400000000000034 -2 2.6799999999999997 -2 2 C-2.990000000000002 1.6700000000000017 -3.9800000000000004 1.3400000000000034 -5 1 C-2 0 -2 0 0 0 Z " fill="#122D33" transform="translate(21,31)"/>
<path d="M0 0 C0.3299999999999983 0 0.6599999999999966 0 1 0 C1 1.6499999999999986 1 3.3000000000000007 1 5 C1.990000000000002 5.329999999999998 2.979999999999997 5.66 4 6 C3.3400000000000034 7.98 2.6799999999999997 9.96 2 12 C-0.13586678165169985 8.796199827522457 -0.2313217486664243 7.9806003289916205 -0.125 4.3125 C-0.10695312499999687 3.5042578125000006 -0.08890625000000085 2.696015625000001 -0.0703125 1.86328125 C-0.04710937499999801 1.2483984375000006 -0.023906250000003126 0.6335156250000011 0 0 Z " fill="#0BF8F9" transform="translate(36,21)"/>
<path d="M0 0 C1.3200000000000003 0 2.6400000000000006 0 4 0 C4 1.3200000000000003 4 2.6400000000000006 4 4 C3.3400000000000034 4 2.6799999999999997 4 2 4 C1.6700000000000017 4.990000000000002 1.3400000000000034 5.98 1 7 C0.6700000000000017 4.689999999999998 0.3400000000000034 2.379999999999999 0 0 Z " fill="#0FCBCE" transform="translate(53,20)"/>
<path d="M0 0 C2 3 2 3 2 5 C0.5150000000000006 4.670000000000002 0.5150000000000006 4.670000000000002 -7 3 C-7 2.6700000000000017 -7 2.3400000000000034 -7 2 C-4.689999999999998 1.3400000000000034 -2.3800000000000026 0.6799999999999997 0 0 Z " fill="#19A6B4" transform="translate(58,48)"/>
<path d="M0 0 C0.9899999999999984 0 1.9800000000000004 0 3 0 C3 0.6599999999999966 3 1.3200000000000003 3 2 C3.990000000000002 2.3299999999999983 4.98 2.6599999999999966 6 3 C5.670000000000002 3.990000000000002 5.34 4.980000000000004 5 6 C4.34 5.670000000000002 3.6799999999999997 5.340000000000003 3 5 C3 4.340000000000003 3 3.6799999999999997 3 3 C2.009999999999998 3 1.0199999999999996 3 0 3 C0 2.009999999999998 0 1.0200000000000031 0 0 Z " fill="#0CEDEF" transform="translate(16,33)"/>
<path d="M0 0 C5.415384615384614 -0.3692307692307679 5.415384615384614 -0.3692307692307679 8.375 1.5 C8.911250000000003 1.9949999999999974 9.447499999999998 2.490000000000002 10 3 C7.689999999999998 3 5.379999999999999 3 3 3 C3 2.3400000000000034 3 1.6799999999999997 3 1 C2.009999999999998 0.6700000000000017 1.0199999999999996 0.3400000000000034 0 0 Z " fill="#0BF7F9" transform="translate(25,48)"/>
<path d="M0 0 C2 3 2 3 2 6 C0.6800000000000068 6 -0.6400000000000006 6 -2 6 C-2 4.68 -2 3.3599999999999994 -2 2 C-1.3400000000000034 2 -0.6799999999999997 2 0 2 C0 1.3400000000000034 0 0.6799999999999997 0 0 Z " fill="#0C3438" transform="translate(64,38)"/>
</svg>
