<?xml version="1.0" standalone="no"?>
<!DOCTYPE svg PUBLIC "-//W3C//DTD SVG 20010904//EN"
 "http://www.w3.org/TR/2001/REC-SVG-20010904/DTD/svg10.dtd">
<svg version="1.0" xmlns="http://www.w3.org/2000/svg"
 width="80.000000pt" height="80.000000pt" viewBox="0 0 80.000000 80.000000"
 preserveAspectRatio="xMidYMid meet">

<g transform="translate(0.000000,80.000000) scale(0.100000,-0.100000)"
fill="#000000" stroke="none">
<path d="M198 678 c-16 -18 -40 -44 -54 -58 -13 -14 -31 -43 -40 -65 -22 -54
-29 -194 -14 -296 12 -86 45 -179 62 -179 6 0 7 8 3 18 -37 86 -55 180 -55
289 0 104 17 170 54 211 70 78 85 92 101 92 10 0 44 -18 77 -40 58 -39 98 -51
98 -30 0 6 -8 10 -18 10 -10 0 -27 7 -38 15 -17 13 -8 14 91 9 61 -3 125 -10
142 -16 64 -19 104 -108 67 -150 -50 -56 -154 -72 -264 -41 -57 16 -61 15
-116 -5 -30 -12 -67 -22 -80 -22 -59 0 -3 -47 68 -56 29 -4 71 -21 110 -45 53
-33 91 -48 187 -75 11 -3 11 -7 1 -19 -15 -18 -87 -20 -127 -3 -15 6 -65 11
-110 12 -96 1 -126 17 -159 84 -11 24 -23 40 -26 37 -9 -10 9 -65 29 -88 26
-29 92 -57 138 -57 34 0 43 -5 63 -34 13 -19 43 -44 68 -57 24 -13 44 -27 44
-31 0 -5 11 -8 25 -8 40 0 29 13 -37 45 -56 27 -109 77 -97 90 3 3 26 -2 51
-11 68 -23 136 -16 161 18 16 22 17 28 6 41 -7 7 -21 12 -31 9 -12 -3 -18 1
-18 14 0 14 -3 15 -12 6 -18 -18 -28 -15 -28 10 0 20 -1 21 -20 3 -17 -15 -20
-16 -20 -2 0 10 -6 13 -20 10 -12 -3 -20 0 -20 6 0 7 -4 10 -9 6 -6 -3 -14 3
-20 12 -6 10 -11 15 -11 11 0 -4 -17 1 -37 11 -21 11 -60 22 -87 26 -26 4 -44
10 -40 14 20 16 126 44 132 35 4 -5 21 -10 37 -12 17 -2 36 -10 43 -19 7 -10
12 -12 12 -5 0 23 30 12 31 -10 l0 -23 11 23 c15 29 31 23 39 -14 l5 -29 19
40 18 40 7 -30 7 -30 13 33 c13 35 26 41 33 15 3 -14 7 -11 16 12 7 17 22 40
33 52 45 48 -5 163 -80 182 -20 5 -91 12 -157 16 -70 4 -132 13 -149 21 -46
22 -75 17 -108 -18z"/>
<path d="M230 620 c0 -5 4 -10 9 -10 5 0 11 -10 13 -22 4 -28 45 -38 54 -14 4
11 13 14 30 10 48 -12 23 13 -29 29 -62 20 -77 21 -77 7z"/>
<path d="M594 599 c-10 -17 13 -36 27 -22 12 12 4 33 -11 33 -5 0 -12 -5 -16
-11z"/>
<path d="M180 90 c0 -5 5 -10 10 -10 6 0 10 5 10 10 0 6 -4 10 -10 10 -5 0
-10 -4 -10 -10z"/>
<path d="M220 90 c0 -5 5 -10 10 -10 6 0 10 5 10 10 0 6 -4 10 -10 10 -5 0
-10 -4 -10 -10z"/>
<path d="M260 90 c0 -5 5 -10 10 -10 6 0 10 5 10 10 0 6 -4 10 -10 10 -5 0
-10 -4 -10 -10z"/>
<path d="M300 90 c0 -5 5 -10 10 -10 6 0 10 5 10 10 0 6 -4 10 -10 10 -5 0
-10 -4 -10 -10z"/>
<path d="M340 90 c0 -5 5 -10 10 -10 6 0 10 5 10 10 0 6 -4 10 -10 10 -5 0
-10 -4 -10 -10z"/>
<path d="M380 90 c0 -5 5 -10 10 -10 6 0 10 5 10 10 0 6 -4 10 -10 10 -5 0
-10 -4 -10 -10z"/>
<path d="M420 90 c0 -5 5 -10 10 -10 6 0 10 5 10 10 0 6 -4 10 -10 10 -5 0
-10 -4 -10 -10z"/>
<path d="M460 90 c0 -5 5 -10 10 -10 6 0 10 5 10 10 0 6 -4 10 -10 10 -5 0
-10 -4 -10 -10z"/>
</g>
</svg>
