<?xml version="1.0" encoding="UTF-8"?>
<svg version="1.1" xmlns="http://www.w3.org/2000/svg" width="100" height="100">
<path d="M0 0 C3.79123467 1.3932078 6.13819845 3.93079323 8.88305664 6.7800293 C9.73809029 7.64355263 9.73809029 7.64355263 10.61039734 8.52452087 C12.42315102 10.35960796 14.22147791 12.20812821 16.01977539 14.05737305 C17.24866617 15.30633263 18.47847403 16.55439059 19.70922852 17.80151367 C22.71930653 20.85561874 25.71652372 23.92184485 28.70727539 26.99487305 C32.80721328 25.39007325 35.43051647 22.42501147 38.39086914 19.2956543 C39.493796 18.15771356 40.5973301 17.02036112 41.70141602 15.88354492 C43.43065929 14.09223509 45.15481907 12.29678885 46.86865234 10.49072266 C48.52933521 8.74552184 50.20822796 7.0196568 51.89086914 5.2956543 C52.39935898 4.74992264 52.90784882 4.20419098 53.43174744 3.641922 C54.90820312 2.14453125 54.90820312 2.14453125 57.70727539 -0.00512695 C62.62984816 0.03746749 65.28560113 2.90459198 68.58227539 6.24487305 C69.09274414 6.72311523 69.60321289 7.20135742 70.12915039 7.6940918 C71.57446289 9.13549805 71.57446289 9.13549805 73.70727539 11.99487305 C73.47588332 16.30128796 71.87782213 18.33517453 68.90942383 21.34204102 C68.10478699 22.16574188 67.30015015 22.98944275 66.47113037 23.83810425 C65.59515198 24.71225983 64.71917358 25.58641541 63.81665039 26.48706055 C62.91988586 27.39239532 62.02312134 28.2977301 61.09918213 29.23049927 C59.20083039 31.14033506 57.2987174 33.04532467 55.3894043 34.9440918 C52.94316295 37.37871786 50.5204644 39.83537514 48.1033287 42.29885674 C45.79244786 44.6462594 43.45964088 46.97165005 41.12915039 49.29956055 C40.26126892 50.18586151 39.39338745 51.07216248 38.49920654 51.98532104 C37.68196106 52.79010895 36.86471558 53.59489685 36.02270508 54.42407227 C35.30846375 55.13957245 34.59422241 55.85507263 33.8583374 56.59225464 C31.70727539 57.99487305 31.70727539 57.99487305 29.20925903 57.95541382 C26.23094695 56.81200499 24.62939277 55.43727486 22.36010742 53.19702148 C21.53640656 52.39238464 20.71270569 51.5877478 19.86404419 50.75872803 C18.98988861 49.88274963 18.11573303 49.00677124 17.21508789 48.10424805 C16.30975311 47.20748352 15.40441833 46.31071899 14.47164917 45.38677979 C12.56181338 43.48842804 10.65682377 41.58631506 8.75805664 39.67700195 C6.32343058 37.2307606 3.8667733 34.80806205 1.4032917 32.39092636 C-0.94411096 30.08004552 -3.26950161 27.74723854 -5.59741211 25.41674805 C-6.48371307 24.54886658 -7.37001404 23.68098511 -8.28317261 22.7868042 C-9.08796051 21.96955872 -9.89274841 21.15231323 -10.72192383 20.31030273 C-11.43742401 19.5960614 -12.15292419 18.88182007 -12.8901062 18.14593506 C-14.29272461 15.99487305 -14.29272461 15.99487305 -14.16140747 13.40826416 C-12.90937879 9.92985446 -10.62122556 7.6647121 -8.04272461 5.11987305 C-7.56448242 4.6094043 -7.08624023 4.09893555 -6.59350586 3.57299805 C-3.02342191 -0.00676093 -3.02342191 -0.00676093 0 0 Z " fill="#000000" transform="translate(20.292724609375,22.005126953125)"/>
</svg>
