<?xml version="1.0" encoding="UTF-8"?>
<!-- Generator: visioncortex VTracer 0.6.12 -->
<svg version="1.1" xmlns="http://www.w3.org/2000/svg" width="80" height="80">
<path d="M0 0 C2 1 2 1 3 3 C3.7229482357441555 7.265394590890509 3.9629197418068287 9.556904280278829 1.53515625 13.1953125 C-0.7379332514217793 15.799994338838488 -3.131673555436187 18.2043706531206 -5.6796875 20.5390625 C-7 21.999999999999996 -7 21.999999999999996 -7.8125 25.0625 C-8.204374999999999 26.031875 -8.596249999999998 27.00125 -9 28 C-9.445451660156252 28.135714111328127 -9.445451660156252 28.135714111328127 -11.69970703125 28.822509765625 C-15.789632971762366 30.281728053174277 -18.09968345807409 32.679855751070896 -20.9921875 35.77734375 C-22.121006965644746 36.94214140170277 -23.24991601252315 38.106852244620306 -24.37890625 39.271484375 C-26.12909754188253 41.10234433247924 -27.874816361718658 42.93730635397259 -29.61767578125 44.775146484375 C-31.315001058017415 46.55750569753141 -33.02776758605379 48.32394459584555 -34.7421875 50.08984375 C-35.25079315185547 50.63680404663086 -35.75939880371094 51.18376434326172 -36.283416748046875 51.74729919433594 C-40.173855790751844 55.74101626373539 -43.69297782315265 57.30176666821802 -49 59 C-50.3465266015217 59.639600135722816 -51.68922892716954 60.28999900221683 -53 61 C-54.65 59.349999999999994 -56.3 57.7 -58 56 C-57.6969091796875 55.42096923828126 -57.393818359375004 54.84193847656249 -57.08154296875 54.245361328125 C-56 52 -56 52 -55.39111328125 50.104248046875 C-52.442429294052474 41.50133318598118 -45.29627936823512 35.89957042065104 -38.875 29.8125 C-37.06097281389213 28.08702668158321 -35.25134553179709 26.35788619393047 -33.453643798828125 24.615402221679688 C-32.341544233311936 23.53779735479968 -31.2201161949274 22.46970786900721 -30.088104248046875 21.413040161132813 C-26.705713278711343 18.14022735570433 -25.338351963114242 15.458603098464572 -24 11 C-22 10.333333333333336 -20 9.666666666666664 -18 9 C-15.773607336344682 7.0343187449139855 -13.75996639588552 4.948181040551729 -11.734375 2.77734375 C-8.34819748607677 -0.6927255491780855 -4.608608301544322 -0.4900769564014418 0 0 Z M-12.5625 8.5 C-14.31475410416175 10.461946135883991 -16.052464849896715 12.212098878593707 -18 14 C-19.32 14 -20.64 14 -22 14 C-20.602499524347394 17.15835107497489 -18.948017659432757 19.322728252935317 -16.5 21.75 C-15.8915625 22.36359375 -15.283124999999998 22.9771875 -14.65625 23.609375 C-13 25 -13 25 -11 25 C-10.9394140625 24.278125000000003 -10.878828124999998 23.55625 -10.81640625 22.8125 C-9.456401377256839 18.12731574940155 -5.696404008861151 15.681204159426557 -2.15234375 12.5 C0 10 0 10 0.43359375 7.3125 C0 5 0 5 -2 3 C-7.180263476274192 1.9337365057411606 -9.379047676543365 4.905922064779892 -12.5625 8.5 Z M-30.03125 25.58984375 C-30.622969970703124 26.167791900634768 -31.21468994140625 26.745740051269536 -31.8243408203125 27.341201782226563 C-33.078039692871855 28.571580301754942 -34.328730334043186 29.805030287243135 -35.57666015625 31.041259765625 C-37.4769157129242 32.914740967540276 -39.3997669952775 34.762757013573136 -41.32421875 36.611328125 C-42.5405525256564 37.810991142852316 -43.7554428914709 39.01211972903849 -44.96875 40.21484375 C-45.54274536132812 40.75898422241211 -46.116740722656246 41.30312469482422 -46.7081298828125 41.86375427246094 C-50.9444954715683 46.14714176142388 -52.22685070924341 50.06685359852597 -53 56 C-45.914640845466316 55.08682841950106 -42.064245374033874 53.06982219550554 -37.21484375 47.8984375 C-36.628285064697266 47.3019741821289 -36.04172637939453 46.70551086425782 -35.43739318847656 46.090972900390625 C-33.58685321397709 44.20157364304609 -31.76229631695184 42.28924002597405 -29.9375 40.375 C-28.679380325078114 39.0817300779482 -27.41962850592794 37.79004581936465 -26.158203125 36.5 C-23.086297949494245 33.351348144583184 -20.03743971751731 30.18189828043885 -17 27 C-18.3623921817818 24.157768034558664 -19.552331687234485 22.03972359397126 -22 20 C-25.497111196534185 20 -27.643734201200175 23.250730900626678 -30.03125 25.58984375 Z " fill="#000000" transform="translate(67,10)"/>
<path d="M0 0 C0.6600000000000001 0 1.3200000000000003 0 2 0 C2 0.6599999999999966 2 1.3200000000000003 2 2 C1.3399999999999999 2 0.6799999999999997 2 0 2 C0 1.3400000000000034 0 0.6799999999999997 0 0 Z " fill="#000000" transform="translate(22,59)"/>
<path d="M0 0 C0.6600000000000001 0 1.3200000000000003 0 2 0 C2 0.6599999999999966 2 1.3200000000000003 2 2 C1.3399999999999999 2 0.6799999999999997 2 0 2 C0 1.3400000000000034 0 0.6799999999999997 0 0 Z " fill="#000000" transform="translate(25,56)"/>
<path d="M0 0 C0.6600000000000001 0 1.3200000000000003 0 2 0 C2 0.6599999999999966 2 1.3200000000000003 2 2 C1.3399999999999999 2 0.6799999999999997 2 0 2 C0 1.3400000000000034 0 0.6799999999999997 0 0 Z " fill="#000000" transform="translate(28,53)"/>
<path d="M0 0 C0.6600000000000001 0 1.3200000000000003 0 2 0 C2 0.6599999999999966 2 1.3200000000000003 2 2 C1.3400000000000034 2 0.6799999999999997 2 0 2 C0 1.3400000000000034 0 0.6799999999999997 0 0 Z " fill="#000000" transform="translate(31,50)"/>
<path d="M0 0 C0.6599999999999966 0 1.3200000000000003 0 2 0 C2 0.6599999999999966 2 1.3200000000000003 2 2 C1.3400000000000034 2 0.6799999999999997 2 0 2 C0 1.3400000000000034 0 0.6799999999999997 0 0 Z " fill="#000000" transform="translate(34,47)"/>
<path d="M0 0 C0.6599999999999966 0 1.3200000000000003 0 2 0 C2 0.6599999999999966 2 1.3200000000000003 2 2 C1.3400000000000034 2 0.6799999999999997 2 0 2 C0 1.3400000000000034 0 0.6799999999999997 0 0 Z " fill="#000000" transform="translate(37,44)"/>
<path d="M0 0 C0.6599999999999966 0 1.3200000000000003 0 2 0 C2 0.6599999999999966 2 1.3200000000000003 2 2 C1.3400000000000034 2 0.6799999999999997 2 0 2 C0 1.3400000000000034 0 0.6799999999999997 0 0 Z " fill="#000000" transform="translate(40,41)"/>
<path d="M0 0 C0.6599999999999966 0 1.3200000000000003 0 2 0 C2 0.6599999999999966 2 1.3200000000000003 2 2 C1.3400000000000034 2 0.6799999999999997 2 0 2 C0 1.3400000000000034 0 0.6799999999999997 0 0 Z " fill="#000000" transform="translate(43,38)"/>
<path d="M0 0 C0.6599999999999966 0 1.3200000000000003 0 2 0 C2 0.6599999999999966 2 1.3200000000000003 2 2 C1.3400000000000034 2 0.6799999999999997 2 0 2 C0 1.3400000000000034 0 0.6799999999999997 0 0 Z " fill="#000000" transform="translate(46,35)"/>
<path d="M0 0 C0.6599999999999966 0 1.3200000000000003 0 2 0 C2 0.6600000000000001 2 1.3200000000000003 2 2 C1.3400000000000034 2 0.6799999999999997 2 0 2 C0 1.3399999999999999 0 0.6799999999999997 0 0 Z " fill="#000000" transform="translate(53,28)"/>
<path d="M0 0 C0.6599999999999966 0 1.3200000000000003 0 2 0 C2 0.6600000000000001 2 1.3200000000000003 2 2 C1.3400000000000034 2 0.6799999999999997 2 0 2 C0 1.3399999999999999 0 0.6799999999999997 0 0 Z " fill="#000000" transform="translate(50,25)"/>
</svg>
