<?xml version="1.0" encoding="UTF-8"?>
<!-- Generator: visioncortex VTracer 0.6.12 -->
<svg version="1.1" xmlns="http://www.w3.org/2000/svg" width="80" height="80">
<path d="M0 0 C5.881549962085288 2.8723848652044417 7.708822467462724 9.227995062261876 10 15 C10.329999999999998 15.990000000000002 10.659999999999997 16.98 11 18 C11.659999999999997 18.33 12.32 18.66 13 19 C13 20.32 13 21.64 13 23 C13.533609333046662 25.730490310589843 14.107472469468668 28.420476072637072 14.75 31.125 C14.929743652343753 31.882565917968748 15.109487304687498 32.6401318359375 15.294677734375 33.420654296875 C17.105699464385665 40.804293174345574 19.05572355517441 48.06170453101887 24 54 C25.875000000000007 54.9375 25.875000000000007 54.9375 28 55 C32.01407071707713 53.66197642764095 33.622502127601095 51.32649914512805 35.5625 47.75 C38.66680984907276 41.12878215735745 40.309147713033354 34.084576621368605 42 27 C42.99000000000001 27 43.980000000000004 27 45 27 C44.46264293905284 37.38890317831172 41.268923771200434 47.62122567524274 35 56 C31.45376775982502 58.36415482678332 29.454006341899237 58.602713152498524 25.28515625 58.5078125 C21.762817094299074 57.725070465399796 20.294703976425616 55.85462238993841 18.21875 53.01171875 C15.866140110957502 49.12840434981767 14 45.64340122486105 14 41 C13.009999999999998 41 12.020000000000003 41 11 41 C11 40.34 11 39.68 11 39 C11.659999999999997 39 12.32 39 13 39 C13 38.34 13 37.68 13 37 C12.340000000000003 37 11.68 37 11 37 C10.913632812499998 36.3799609375 10.827265624999995 35.759921875 10.73828125 35.12109375 C9.102259763901344 24.809655576148863 6.619263108549234 11.619263108549234 -1 4 C-3.8125 3.6875 -3.8125 3.6875 -7 4 C-14.052966307313081 9.645080518521219 -16.164455408741308 20.489747804164246 -18 29 C-18.990000000000002 29 -19.98 29 -21 29 C-20.48024207092537 18.7780940615323 -17.49047288400261 8.288027670921458 -10 1 C-6.777762295519118 -0.6111188522404412 -3.4938238440016036 -0.4451590225947992 0 0 Z " fill="#000000" transform="translate(28,12)"/>
<path d="M0 0 C0.6599999999999966 0 1.3200000000000003 0 2 0 C2 0.6599999999999966 2 1.3199999999999932 2 2 C1.3400000000000034 2 0.6799999999999997 2 0 2 C0 1.3400000000000034 0 0.6800000000000068 0 0 Z " fill="#000000" transform="translate(39,67)"/>
<path d="M0 0 C0.6599999999999966 0 1.3200000000000003 0 2 0 C2 0.6599999999999966 2 1.3199999999999932 2 2 C1.3400000000000034 2 0.6799999999999997 2 0 2 C0 1.3400000000000034 0 0.6799999999999997 0 0 Z " fill="#000000" transform="translate(39,63)"/>
<path d="M0 0 C0.6599999999999966 0 1.3200000000000003 0 2 0 C2 0.6599999999999966 2 1.3200000000000003 2 2 C1.3400000000000034 2 0.6799999999999997 2 0 2 C0 1.3400000000000034 0 0.6799999999999997 0 0 Z " fill="#000000" transform="translate(39,59)"/>
<path d="M0 0 C0.6599999999999966 0 1.3200000000000003 0 2 0 C2 0.6599999999999966 2 1.3200000000000003 2 2 C1.3400000000000034 2 0.6799999999999997 2 0 2 C0 1.3400000000000034 0 0.6799999999999997 0 0 Z " fill="#000000" transform="translate(39,55)"/>
<path d="M0 0 C0.6599999999999966 0 1.3199999999999932 0 2 0 C2 0.6599999999999966 2 1.3200000000000003 2 2 C1.3400000000000034 2 0.6800000000000068 2 0 2 C0 1.3400000000000034 0 0.6799999999999997 0 0 Z " fill="#000000" transform="translate(67,39)"/>
<path d="M0 0 C0.6599999999999966 0 1.3199999999999932 0 2 0 C2 0.6599999999999966 2 1.3200000000000003 2 2 C1.3400000000000034 2 0.6799999999999997 2 0 2 C0 1.3400000000000034 0 0.6799999999999997 0 0 Z " fill="#000000" transform="translate(63,39)"/>
<path d="M0 0 C0.6599999999999966 0 1.3200000000000003 0 2 0 C2 0.6599999999999966 2 1.3200000000000003 2 2 C1.3400000000000034 2 0.6799999999999997 2 0 2 C0 1.3400000000000034 0 0.6799999999999997 0 0 Z " fill="#000000" transform="translate(59,39)"/>
<path d="M0 0 C0.6599999999999966 0 1.3200000000000003 0 2 0 C2 0.6599999999999966 2 1.3200000000000003 2 2 C1.3400000000000034 2 0.6799999999999997 2 0 2 C0 1.3400000000000034 0 0.6799999999999997 0 0 Z " fill="#000000" transform="translate(55,39)"/>
<path d="M0 0 C0.6599999999999966 0 1.3200000000000003 0 2 0 C2 0.6599999999999966 2 1.3200000000000003 2 2 C1.3400000000000034 2 0.6799999999999997 2 0 2 C0 1.3400000000000034 0 0.6799999999999997 0 0 Z " fill="#000000" transform="translate(51,39)"/>
<path d="M0 0 C0.6599999999999966 0 1.3200000000000003 0 2 0 C2 0.6599999999999966 2 1.3200000000000003 2 2 C1.3400000000000034 2 0.6799999999999997 2 0 2 C0 1.3400000000000034 0 0.6799999999999997 0 0 Z " fill="#000000" transform="translate(47,39)"/>
<path d="M0 0 C0.6599999999999966 0 1.3200000000000003 0 2 0 C2 0.6599999999999966 2 1.3200000000000003 2 2 C1.3400000000000034 2 0.6799999999999997 2 0 2 C0 1.3400000000000034 0 0.6799999999999997 0 0 Z " fill="#000000" transform="translate(43,39)"/>
<path d="M0 0 C0.6599999999999966 0 1.3200000000000003 0 2 0 C2 0.6599999999999966 2 1.3200000000000003 2 2 C1.3400000000000034 2 0.6799999999999997 2 0 2 C0 1.3400000000000034 0 0.6799999999999997 0 0 Z " fill="#000000" transform="translate(35,39)"/>
<path d="M0 0 C0.6600000000000001 0 1.3200000000000003 0 2 0 C2 0.6599999999999966 2 1.3200000000000003 2 2 C1.3400000000000034 2 0.6799999999999997 2 0 2 C0 1.3400000000000034 0 0.6799999999999997 0 0 Z " fill="#000000" transform="translate(31,39)"/>
<path d="M0 0 C0.6600000000000001 0 1.3200000000000003 0 2 0 C2 0.6599999999999966 2 1.3200000000000003 2 2 C1.3399999999999999 2 0.6799999999999997 2 0 2 C0 1.3400000000000034 0 0.6799999999999997 0 0 Z " fill="#000000" transform="translate(27,39)"/>
<path d="M0 0 C0.6600000000000001 0 1.3200000000000003 0 2 0 C2 0.6599999999999966 2 1.3200000000000003 2 2 C1.3399999999999999 2 0.6799999999999997 2 0 2 C0 1.3400000000000034 0 0.6799999999999997 0 0 Z " fill="#000000" transform="translate(23,39)"/>
<path d="M0 0 C0.6600000000000001 0 1.3200000000000003 0 2 0 C2 0.6599999999999966 2 1.3200000000000003 2 2 C1.3399999999999999 2 0.6799999999999997 2 0 2 C0 1.3400000000000034 0 0.6799999999999997 0 0 Z " fill="#000000" transform="translate(19,39)"/>
<path d="M0 0 C0.6600000000000001 0 1.3200000000000003 0 2 0 C2 0.6599999999999966 2 1.3200000000000003 2 2 C1.3399999999999999 2 0.6799999999999997 2 0 2 C0 1.3400000000000034 0 0.6799999999999997 0 0 Z " fill="#000000" transform="translate(15,39)"/>
<path d="M0 0 C0.6600000000000001 0 1.3200000000000003 0 2 0 C2 0.6599999999999966 2 1.3200000000000003 2 2 C1.3399999999999999 2 0.6799999999999997 2 0 2 C0 1.3400000000000034 0 0.6799999999999997 0 0 Z " fill="#000000" transform="translate(11,39)"/>
<path d="M0 0 C0.6599999999999966 0 1.3200000000000003 0 2 0 C2 0.6600000000000001 2 1.3200000000000003 2 2 C1.3400000000000034 2 0.6799999999999997 2 0 2 C0 1.3399999999999999 0 0.6799999999999997 0 0 Z " fill="#000000" transform="translate(39,27)"/>
<path d="M0 0 C0.6599999999999966 0 1.3200000000000003 0 2 0 C2 0.6600000000000001 2 1.3200000000000003 2 2 C1.3400000000000034 2 0.6799999999999997 2 0 2 C0 1.3399999999999999 0 0.6799999999999997 0 0 Z " fill="#000000" transform="translate(39,23)"/>
<path d="M0 0 C0.6599999999999966 0 1.3200000000000003 0 2 0 C2 0.6600000000000001 2 1.3200000000000003 2 2 C1.3400000000000034 2 0.6799999999999997 2 0 2 C0 1.3399999999999999 0 0.6799999999999997 0 0 Z " fill="#000000" transform="translate(39,19)"/>
<path d="M0 0 C0.6599999999999966 0 1.3200000000000003 0 2 0 C2 0.6600000000000001 2 1.3200000000000003 2 2 C1.3400000000000034 2 0.6799999999999997 2 0 2 C0 1.3399999999999999 0 0.6799999999999997 0 0 Z " fill="#000000" transform="translate(39,15)"/>
<path d="M0 0 C0.6599999999999966 0 1.3200000000000003 0 2 0 C2 0.6600000000000001 2 1.3200000000000003 2 2 C1.3400000000000034 2 0.6799999999999997 2 0 2 C0 1.3399999999999999 0 0.6799999999999997 0 0 Z " fill="#000000" transform="translate(39,11)"/>
</svg>
