<?xml version="1.0" encoding="UTF-8"?>
<!-- Generator: visioncortex VTracer 0.6.12 -->
<svg version="1.1" xmlns="http://www.w3.org/2000/svg" width="80" height="80">
<path d="M0 0 C1.1704687499999977 0.018046874999999574 2.3409375000000026 0.036093750000000036 3.546875 0.0546875 C3.992890625000001 0.0662890625000001 3.992890625000001 0.0662890625000001 6.25 0.125 C6.25 4.125 6.25 4.125 4.5 6.08984375 C3.0012901743291067 7.403816774242708 1.5012909447821698 8.71632058120585 0 10.02734375 C-1.75 12.125 -1.75 12.125 -2 14.87890625 C-1.9174999999999969 15.6201171875 -1.8350000000000009 16.361328125 -1.75 17.125 C0.4492187500000071 17.40625 0.4492187500000071 17.40625 3.25 17.125 C5.70703125 15.15625 5.70703125 15.15625 8.0625 12.625 C8.852695312500003 11.7896875 9.642890625000007 10.954374999999999 10.45703125 10.09375 C11.048710937500005 9.444062500000001 11.640390625000009 8.794375000000002 12.25 8.125 C13.240000000000009 8.454999999999998 14.22999999999999 8.785 15.25 9.125 C15.87400000000001 20.80766666666666 15.87400000000001 20.80766666666666 13.5625 25.6875 C12.799374999999998 26.491875 12.036249999999995 27.29625 11.25 28.125 C10.569375000000008 28.908749999999998 9.888750000000002 29.692499999999995 9.1875 30.5 C4.693649089814777 32.9859600779748 0.2762189382396656 32.44188946020425 -4.75 32.125 C-4.75 35.125 -4.75 35.125 -3.297119140625 36.902587890625 C-2.6331713867187503 37.54446044921875 -1.9692236328125006 38.1863330078125 -1.28515625 38.84765625 C-0.5677929687499983 39.55083984375 0.1495703125000034 40.2540234375 0.888671875 40.978515625 C1.6472851562499997 41.70748046875 2.4058984374999994 42.4364453125 3.1875 43.1875 C4.677856762895111 44.63458423519363 6.166239311635358 46.083705368045656 7.65234375 47.53515625 C8.317419433593756 48.17590087890625 8.982495117187497 48.8166455078125 9.667724609375 49.476806640625 C12.238154584463956 52.154321339255695 12.25363039915024 53.1821787866163 12.5 57.0625 C12.446203957310885 59.53263496014179 12.363520316280358 60.897959367439285 11.25 63.125 C7.863235894623045 64.81838205268848 4.8570866414579115 65.00398320685346 1.25 64.125 C-1.8401395901639859 62.214158579959815 -4.2234640589192125 59.71790728804439 -6.75 57.125 C-7.731430581598303 56.15198649028504 -8.714611445657212 55.18073631048547 -9.69921875 54.2109375 C-12.404583920753822 51.53665359497049 -15.082300580823961 48.836834152213875 -17.75 46.125 C-22.804061666841093 50.28056181495823 -27.45185182755319 54.747479908430826 -32.016845703125 59.428955078125 C-35.455252022564174 62.93073092746346 -36.674429862419125 64.05670983253455 -41.6875 64.375 C-44.15763496014176 64.32120395731089 -45.5229593674393 64.23852031628036 -47.75 63.125 C-49.445029130180615 59.73494173963877 -49.61525875806793 56.73679981587446 -48.75 53.125 C-46.890235888454086 50.00517832012407 -44.33776981400422 47.65183331916895 -41.75 45.125 C-40.55440207967915 43.92084498033531 -39.36053810816715 42.714967015553 -38.16796875 41.5078125 C-34.71670797447712 38.02491297023245 -31.238812875555045 34.57026320027072 -27.75 31.125 C-28.706739525623068 30.00626086972329 -29.66384065113234 28.88783097109895 -30.62109375 27.76953125 C-31.15404052734375 27.146672363281255 -31.6869873046875 26.523813476562495 -32.236083984375 25.882080078125 C-36.962071790689976 20.397007631414965 -36.962071790689976 20.397007631414965 -40.16015625 19.29296875 C-43.242980671768805 17.902675383319952 -44.288195649739315 16.556487865119117 -46.125 13.75 C-46.648359375 12.979140625 -47.17171875 12.208281249999999 -47.7109375 11.4140625 C-48.75 9.125 -48.75 9.125 -48.5390625 6.9609375 C-47.75 5.125 -47.75 5.125 -45.75 3.125 C-40.62141553756636 3.125 -36.25025972648612 6.632467116177207 -32.75 10.125 C-32.436757812500005 10.9177734375 -32.123515624999996 11.710546874999999 -31.80078125 12.52734375 C-30.484897062833312 15.780365997084939 -28.64949526381398 17.521197390349478 -26.125 19.9375 C-25.307734375 20.7276953125 -24.490468750000005 21.517890625 -23.6484375 22.33203125 C-23.021953124999996 22.9237109375 -22.39546875 23.515390625 -21.75 24.125 C-19.551010856655914 22.475758142491934 -18.179542467895686 21.420466041638946 -16.75 19.125 C-16.62890625 16.812500000000004 -16.62890625 16.812500000000004 -16.8125 14.25 C-17.036882647701248 10.186854757842255 -16.642452273904794 8.25922378889948 -14 5.125 C-9.683135932453574 0.5901124946987046 -6.214929048191536 -0.1242985809638304 0 0 Z M-12.75 8.125 C-14.304766896197094 11.234533792394192 -14.036444366235791 13.687667605170496 -13.75 17.125 C-11.036983793433357 22.342338858782 -7.0507615580828755 26.47461922095856 -1.75 29.125 C1.562499999999993 29.5 1.562499999999993 29.5 5.25 29.125 C8.422166994227155 26.587266404618283 10.952360778328085 24.017917665015762 12.25 20.125 C12.375 16.87499999999997 12.375 16.87499999999997 12.25 14.125 C11.767890625000007 14.5465234375 11.28578125 14.968046874999999 10.7890625 15.40234375 C10.157421874999997 15.9501953125 9.525781249999994 16.498046875 8.875 17.0625 C8.248515624999996 17.6077734375 7.622031249999992 18.153046875 6.9765625 18.71484375 C5.249999999999993 20.125000000000004 5.249999999999993 20.125000000000004 3.25 21.125 C0.9005946981666639 20.517395180560342 -1.4352908789369252 19.853704723297636 -3.75 19.125 C-5.775950915696598 14.10416512196931 -5.775950915696598 14.10416512196931 -5.75 11.125 C-3.79585306426398 8.308886881651652 -1.3568687717251748 6.318584698158984 1.25 4.125 C1.25 3.795 1.25 3.465 1.25 3.125 C-4.974930864290002 2.489802973031633 -8.30371301531882 3.980156200720934 -12.75 8.125 Z M-44.75 7.125 C-43.35865581667728 11.55200421966321 -41.27115858159981 14.119132918146498 -37.75 17.125 C-36.76 17.125 -35.769999999999996 17.125 -34.75 17.125 C-35.68257834312551 13.02165529024774 -36.391290260502664 11.408978543768722 -39.75 8.75 C-42.75 7.125 -42.75 7.125 -44.75 7.125 Z M-17.709228515625 25.891357421875 C-18.01951240539551 26.19360984802246 -18.01951240539551 26.19360984802246 -19.589736938476563 27.723190307617188 C-22.42055591069527 30.509737685077354 -25.249804588861842 33.297734574564615 -28.070068359375 36.094970703125 C-29.56146218498985 37.56980250694206 -31.058201354178202 39.03924902259595 -32.560302734375 40.503173828125 C-34.72038918303939 42.608598610688304 -36.86365959683198 44.729901450717435 -39.00390625 46.85546875 C-39.67885635375977 47.507749481201174 -40.35380645751953 48.16003021240235 -41.04920959472656 48.83207702636719 C-45.61324987395508 53.41718525648298 -45.61324987395508 53.41718525648298 -46.296630859375 56.954345703125 C-45.75 59.125 -45.75 59.125 -43.75 61.125 C-41.579345703125 61.673828125 -41.579345703125 61.673828125 -38.75 61.125 C-36.05391517034111 59.136887279695614 -33.79841562161683 56.75340267231806 -31.48046875 54.34375 C-30.799466094970704 53.65567260742188 -30.118463439941408 52.967595214843755 -29.416824340820313 52.2586669921875 C-27.245038543736555 50.05889928689609 -25.091279294741256 47.84238695250415 -22.9375 45.625 C-21.467951702930783 44.13037408693984 -19.99726160394799 42.63686989747269 -18.525390625 41.14453125 C-14.920216895845833 37.48423729971398 -11.331114770202909 33.80882964976481 -7.75 30.125 C-8.72566111666714 28.95540012925529 -9.705625001247327 27.789388233814933 -10.6875 26.625 C-11.2327734375 25.9753125 -11.778046875000001 25.325625000000002 -12.33984375 24.65625 C-12.805195312499997 24.150937499999998 -13.270546875 23.645625 -13.75 23.125 C-15.519957904659194 23.125 -16.495215754456467 24.70580949120785 -17.709228515625 25.891357421875 Z M-9.75 36.125 C-10.800160129064594 37.265340084746036 -11.815901962683263 38.437564040643885 -12.8125 39.625 C-13.08642578125 39.94984375 -13.08642578125 39.94984375 -14.47265625 41.59375 C-14.8941796875 42.0990625 -15.315703124999999 42.604375 -15.75 43.125 C-12.874729987674634 46.14530536138726 -9.971651308189038 49.137344223201396 -7.0625 52.125 C-6.245878906249999 52.983515624999995 -5.429257812499998 53.842031250000005 -4.587890625 54.7265625 C-3.7918945312500014 55.538671875 -2.995898437500003 56.35078125 -2.17578125 57.1875 C-1.4478637695312528 57.9416015625 -0.7199462890624986 58.695703124999994 0.030029296875 59.47265625 C2.25 61.125 2.25 61.125 4.901611328125 61.49609375 C7.25 61.125 7.25 61.125 9.25 59.125 C9.618896484375 56.776611328125 9.618896484375 56.776611328125 9.25 54.125 C7.613525390625 51.905029296875 7.613525390625 51.905029296875 5.34765625 49.69921875 C4.540058593750004 48.90322265625 3.732460937500001 48.1072265625 2.900390625 47.287109375 C2.04638671875 46.47048828125 1.1923828125 45.6538671875 0.3125 44.8125 C-0.5376367187500009 43.976542968749996 -1.3877734375000017 43.1405859375 -2.263671875 42.279296875 C-8.568686224489795 36.125 -8.568686224489795 36.125 -9.75 36.125 Z " fill="#000000" transform="translate(56.75,7.875)"/>
<path d="M0 0 C0.6599999999999966 0 1.3200000000000003 0 2 0 C2 0.6599999999999966 2 1.3199999999999932 2 2 C1.3400000000000034 2 0.6799999999999997 2 0 2 C0 1.3400000000000034 0 0.6800000000000068 0 0 Z " fill="#000000" transform="translate(59,65)"/>
<path d="M0 0 C0.6600000000000001 0 1.3200000000000003 0 2 0 C2 0.6599999999999966 2 1.3199999999999932 2 2 C1.3399999999999999 2 0.6799999999999997 2 0 2 C0 1.3400000000000034 0 0.6800000000000068 0 0 Z " fill="#000000" transform="translate(16,65)"/>
<path d="M0 0 C0.6599999999999966 0 1.3200000000000003 0 2 0 C2 0.6599999999999966 2 1.3200000000000003 2 2 C1.3400000000000034 2 0.6799999999999997 2 0 2 C0 1.3400000000000034 0 0.6799999999999997 0 0 Z " fill="#000000" transform="translate(56,62)"/>
<path d="M0 0 C0.6600000000000001 0 1.3200000000000003 0 2 0 C2 0.6599999999999966 2 1.3200000000000003 2 2 C1.3399999999999999 2 0.6799999999999997 2 0 2 C0 1.3400000000000034 0 0.6799999999999997 0 0 Z " fill="#000000" transform="translate(19,62)"/>
<path d="M0 0 C0.6599999999999966 0 1.3200000000000003 0 2 0 C2 0.6599999999999966 2 1.3200000000000003 2 2 C1.3400000000000034 2 0.6799999999999997 2 0 2 C0 1.3400000000000034 0 0.6799999999999997 0 0 Z " fill="#000000" transform="translate(53,59)"/>
<path d="M0 0 C0.6600000000000001 0 1.3200000000000003 0 2 0 C2 0.6599999999999966 2 1.3200000000000003 2 2 C1.3399999999999999 2 0.6799999999999997 2 0 2 C0 1.3400000000000034 0 0.6799999999999997 0 0 Z " fill="#000000" transform="translate(22,59)"/>
<path d="M0 0 C0.6599999999999966 0 1.3200000000000003 0 2 0 C2 0.6599999999999966 2 1.3200000000000003 2 2 C1.3400000000000034 2 0.6799999999999997 2 0 2 C0 1.3400000000000034 0 0.6799999999999997 0 0 Z " fill="#000000" transform="translate(50,56)"/>
<path d="M0 0 C0.6600000000000001 0 1.3200000000000003 0 2 0 C2 0.6599999999999966 2 1.3200000000000003 2 2 C1.3399999999999999 2 0.6799999999999997 2 0 2 C0 1.3400000000000034 0 0.6799999999999997 0 0 Z " fill="#000000" transform="translate(25,56)"/>
<path d="M0 0 C0.6599999999999966 0 1.3200000000000003 0 2 0 C2 0.6599999999999966 2 1.3200000000000003 2 2 C1.3400000000000034 2 0.6799999999999997 2 0 2 C0 1.3400000000000034 0 0.6799999999999997 0 0 Z " fill="#000000" transform="translate(47,53)"/>
<path d="M0 0 C0.6600000000000001 0 1.3200000000000003 0 2 0 C2 0.6599999999999966 2 1.3200000000000003 2 2 C1.3399999999999999 2 0.6799999999999997 2 0 2 C0 1.3400000000000034 0 0.6799999999999997 0 0 Z " fill="#000000" transform="translate(28,53)"/>
<path d="M0 0 C0.6599999999999966 0 1.3200000000000003 0 2 0 C2 0.6599999999999966 2 1.3200000000000003 2 2 C1.3400000000000034 2 0.6799999999999997 2 0 2 C0 1.3400000000000034 0 0.6799999999999997 0 0 Z " fill="#000000" transform="translate(44,50)"/>
<path d="M0 0 C0.6600000000000001 0 1.3200000000000003 0 2 0 C2 0.6599999999999966 2 1.3200000000000003 2 2 C1.3400000000000034 2 0.6799999999999997 2 0 2 C0 1.3400000000000034 0 0.6799999999999997 0 0 Z " fill="#000000" transform="translate(31,50)"/>
<path d="M0 0 C0.6599999999999966 0 1.3200000000000003 0 2 0 C2 0.6599999999999966 2 1.3200000000000003 2 2 C1.3400000000000034 2 0.6799999999999997 2 0 2 C0 1.3400000000000034 0 0.6799999999999997 0 0 Z " fill="#000000" transform="translate(34,47)"/>
<path d="M0 0 C0.6599999999999966 0 1.3200000000000003 0 2 0 C2 0.6599999999999966 2 1.3200000000000003 2 2 C1.3400000000000034 2 0.6799999999999997 2 0 2 C0 1.3400000000000034 0 0.6799999999999997 0 0 Z " fill="#000000" transform="translate(37,44)"/>
<path d="M0 0 C0.6599999999999966 0 1.3200000000000003 0 2 0 C2 0.6599999999999966 2 1.3200000000000003 2 2 C1.3400000000000034 2 0.6799999999999997 2 0 2 C0 1.3400000000000034 0 0.6799999999999997 0 0 Z " fill="#000000" transform="translate(40,41)"/>
<path d="M0 0 C0.6599999999999966 0 1.3200000000000003 0 2 0 C2 0.6599999999999966 2 1.3200000000000003 2 2 C1.3400000000000034 2 0.6799999999999997 2 0 2 C0 1.3400000000000034 0 0.6799999999999997 0 0 Z " fill="#000000" transform="translate(43,38)"/>
</svg>
