<?xml version="1.0" encoding="UTF-8"?>
<!-- Generator: visioncortex VTracer 0.6.12 -->
<svg version="1.1" xmlns="http://www.w3.org/2000/svg" width="80" height="80">
<path d="M0 0 C5.74011932458464 3.7909565035746056 10.0513996610442 8.569248472935719 14.375 13.875 C10.50994554625909 22.772677440382722 1.7189637549355723 28.592372737326365 -6.625 32.875 C-7.358476562500002 33.2887890625 -8.091953125000003 33.702578125 -8.84765625 34.12890625 C-17.6413261498235 38.457865531731294 -28.775630661863296 38.40403425412917 -38.13671875 35.95703125 C-41.114834167917046 34.77874998990222 -43.84026643905027 33.45371361274894 -46.625 31.875 C-47.410039062500005 31.440585937500003 -48.195078124999995 31.006171875 -49.00390625 30.55859375 C-55.42744601492662 26.637441650018708 -60.47871834969769 21.311364332052136 -65.625 15.875 C-60.70498981392991 5.258135914269818 -50.99840691027178 -0.993784993198993 -40.5625 -5.5625 C-26.47126481031198 -10.232622422981251 -12.478520658622386 -7.280571363582439 0 0 Z M-61.625 13.875 C-55.91971016769491 24.534883634043723 -44.69474536812667 30.18508487729111 -33.625 33.875 C-19.378730771417302 35.03054906836708 -8.743893342531564 32.25656625776101 2.375 22.875 C2.9525000000000006 22.428984375 3.530000000000001 21.982968749999998 4.125 21.5234375 C7.0865825502496875 19.202581943794712 8.837714754604676 17.280014982791513 10.375 13.875 C0.9913530341700607 3.6753837327935486 -9.184607161588652 -3.9290908550064785 -23.401611328125 -4.52734375 C-39.65543097455868 -4.799659052976899 -50.81632986657662 2.271141600629946 -61.625 13.875 Z " fill="#000000" transform="translate(65.625,25.125)"/>
<path d="M0 0 C4.840400099763308 2.6096070103071725 8.06650638984415 6.090144169532444 9.796875 11.28125 C10.46163179077449 18.735244178520475 10.44121145158121 24.25616487362437 5.796875 30.28125 C0.39692227378471756 35.28608423405319 -4.052342481321666 35.63143871998723 -11.1875 35.5625 C-16.73027206536093 35.04555752758292 -19.78938644539941 32.806599493121695 -23.578125 28.71875 C-27.13749656751229 23.379692648731563 -26.781512788202534 17.48285239572718 -26.203125 11.28125 C-24.603920003084756 6.379339031194576 -21.455752918205548 3.1163352788036995 -17.203125 0.28125 C-11.84906913232318 -1.5034352892256067 -5.406723064623854 -1.7638954678914693 0 0 Z M-21.578125 8.90625 C-23.782203930417033 13.48395239394307 -24.00028890450101 17.286774108534487 -23.203125 22.28125 C-20.873435693150554 27.119835483456548 -18.041710483456548 29.951560693150554 -13.203125 32.28125 C-8.208649108534487 33.07841390450101 -4.4058273939430705 32.86032893041703 0.171875 30.65625 C3.7559521321134426 27.41351354713545 6.3922274079108234 24.816491036150538 7.1796875 19.8828125 C7.435714186510893 14.199020059458093 6.73314431552145 10.63186345399739 2.796875 6.28125 C-1.55373845399739 2.34498068447855 -5.1208950594580855 1.6424108134891036 -10.8046875 1.8984375 C-15.738366036150524 2.685897592089173 -18.33538854713546 5.3221728678865645 -21.578125 8.90625 Z " fill="#000000" transform="translate(48.203125,22.71875)"/>
<path d="M0 0 C0.7837499999999977 0.04124999999999801 1.5675000000000026 0.08250000000000313 2.375 0.125 C2.375 1.115000000000002 2.375 2.104999999999997 2.375 3.125 C3.365000000000002 3.125 4.355000000000004 3.125 5.375 3.125 C5.5 5.499999999999993 5.5 5.499999999999993 5.375 8.125 C3.375 10.125 3.375 10.125 0.375 10.375 C-2.625 10.125 -2.625 10.125 -4.625 8.125 C-4.875 5.125 -4.875 5.125 -4.625 2.125 C-2.625 0.125 -2.625 0.125 0 0 Z " fill="#000000" transform="translate(39.625,34.875)"/>
<path d="M0 0 C0.990000000000002 0 1.9799999999999969 0 3 0 C2.6700000000000017 0.990000000000002 2.3400000000000034 1.9799999999999969 2 3 C1.3400000000000034 3 0.6799999999999997 3 0 3 C0 2.009999999999998 0 1.0200000000000031 0 0 Z " fill="#000000" transform="translate(48,48)"/>
<path d="M0 0 C0.9899999999999984 0 1.9800000000000004 0 3 0 C3 0.990000000000002 3 1.9799999999999969 3 3 C2.009999999999998 2.6700000000000017 1.0199999999999996 2.3400000000000034 0 2 C0 1.3400000000000034 0 0.6799999999999997 0 0 Z " fill="#000000" transform="translate(29,48)"/>
<path d="M0 0 C0.990000000000002 0.3299999999999983 1.9799999999999969 0.6600000000000001 3 1 C3 1.6600000000000001 3 2.3200000000000003 3 3 C2.009999999999998 3 1.0200000000000031 3 0 3 C0 2.009999999999998 0 1.0199999999999996 0 0 Z " fill="#000000" transform="translate(48,29)"/>
<path d="M0 0 C0.6600000000000001 0 1.3200000000000003 0 2 0 C2 0.9899999999999984 2 1.9800000000000004 2 3 C1.009999999999998 3 0.019999999999999574 3 -1 3 C-0.6700000000000017 2.009999999999998 -0.33999999999999986 1.0199999999999996 0 0 Z " fill="#000000" transform="translate(30,29)"/>
<path d="M0 0 C0.990000000000002 0 1.9799999999999969 0 3 0 C3 0.6600000000000001 3 1.3200000000000003 3 2 C2.009999999999998 1.6700000000000017 1.0200000000000031 1.3399999999999999 0 1 C0 0.6700000000000017 0 0.33999999999999986 0 0 Z " fill="#000000" transform="translate(43,27)"/>
<path d="M0 0 C0.6599999999999966 0 1.3200000000000003 0 2 0 C2 0.6599999999999966 2 1.3200000000000003 2 2 C1.3400000000000034 2 0.6799999999999997 2 0 2 C0 1.3400000000000034 0 0.6799999999999997 0 0 Z " fill="#000000" transform="translate(39,52)"/>
<path d="M0 0 C0.6599999999999966 0 1.3200000000000003 0 2 0 C2 0.6599999999999966 2 1.3200000000000003 2 2 C1.3400000000000034 2 0.6799999999999997 2 0 2 C0 1.3400000000000034 0 0.6799999999999997 0 0 Z " fill="#000000" transform="translate(44,51)"/>
<path d="M0 0 C0.6599999999999966 0 1.3200000000000003 0 2 0 C2 0.6599999999999966 2 1.3200000000000003 2 2 C1.3400000000000034 2 0.6799999999999997 2 0 2 C0 1.3400000000000034 0 0.6799999999999997 0 0 Z " fill="#000000" transform="translate(34,51)"/>
<path d="M0 0 C0.6599999999999966 0 1.3200000000000003 0 2 0 C2 0.6599999999999966 2 1.3200000000000003 2 2 C1.3400000000000034 2 0.6799999999999997 2 0 2 C0 1.3400000000000034 0 0.6799999999999997 0 0 Z " fill="#000000" transform="translate(51,44)"/>
<path d="M0 0 C0.6600000000000001 0 1.3200000000000003 0 2 0 C2 0.6599999999999966 2 1.3200000000000003 2 2 C1.3399999999999999 2 0.6799999999999997 2 0 2 C0 1.3400000000000034 0 0.6799999999999997 0 0 Z " fill="#000000" transform="translate(27,44)"/>
<path d="M0 0 C0.6599999999999966 0 1.3200000000000003 0 2 0 C2 0.6599999999999966 2 1.3200000000000003 2 2 C1.3400000000000034 2 0.6799999999999997 2 0 2 C0 1.3400000000000034 0 0.6799999999999997 0 0 Z " fill="#000000" transform="translate(52,39)"/>
<path d="M0 0 C0.6600000000000001 0 1.3200000000000003 0 2 0 C2 0.6599999999999966 2 1.3200000000000003 2 2 C1.3399999999999999 2 0.6799999999999997 2 0 2 C0 1.3400000000000034 0 0.6799999999999997 0 0 Z " fill="#000000" transform="translate(26,39)"/>
<path d="M0 0 C0.6599999999999966 0 1.3200000000000003 0 2 0 C2 0.6599999999999966 2 1.3200000000000003 2 2 C1.3400000000000034 2 0.6799999999999997 2 0 2 C0 1.3400000000000034 0 0.6799999999999997 0 0 Z " fill="#000000" transform="translate(51,34)"/>
<path d="M0 0 C0.6600000000000001 0 1.3200000000000003 0 2 0 C2 0.6599999999999966 2 1.3200000000000003 2 2 C1.3399999999999999 2 0.6799999999999997 2 0 2 C0 1.3400000000000034 0 0.6799999999999997 0 0 Z " fill="#000000" transform="translate(27,34)"/>
<path d="M0 0 C0.6599999999999966 0 1.3200000000000003 0 2 0 C2 0.6600000000000001 2 1.3200000000000003 2 2 C1.3400000000000034 2 0.6799999999999997 2 0 2 C0 1.3399999999999999 0 0.6799999999999997 0 0 Z " fill="#000000" transform="translate(34,27)"/>
<path d="M0 0 C0.6599999999999966 0 1.3200000000000003 0 2 0 C2 0.6600000000000001 2 1.3200000000000003 2 2 C1.3400000000000034 2 0.6799999999999997 2 0 2 C0 1.3399999999999999 0 0.6799999999999997 0 0 Z " fill="#000000" transform="translate(39,26)"/>
</svg>
