<?xml version="1.0" encoding="UTF-8"?>
<svg version="1.1" xmlns="http://www.w3.org/2000/svg" width="64" height="64">
<path d="M0 0 C4.22682968 0.51961027 6.86851627 2.41163457 10.1796875 4.90625 C11.06914063 5.55013672 11.06914063 5.55013672 11.9765625 6.20703125 C13.42849069 7.2608501 14.86791095 8.33186516 16.3046875 9.40625 C16.4284375 8.2925 16.5521875 7.17875 16.6796875 6.03125 C17.3046875 2.40625 17.3046875 2.40625 19.3046875 0.40625 C26.34397909 -0.34960183 30.50245872 3.19629438 36.1171875 6.96875 C37.08333984 7.57783203 38.04949219 8.18691406 39.04492188 8.81445312 C45.8894896 13.35986177 45.8894896 13.35986177 47.75390625 18.05859375 C46.97025294 23.89851451 42.70990318 26.13160655 38.30859375 29.51953125 C36.83192865 30.59119826 35.35136806 31.65751577 33.8671875 32.71875 C33.12919922 33.26853516 32.39121094 33.81832031 31.63085938 34.38476562 C28.26611103 36.79243 26.0454486 38.3018816 21.89453125 38.88671875 C19.3046875 38.40625 19.3046875 38.40625 17.3046875 36.40625 C17.03476844 33.71785615 17.21731393 31.11483064 17.3046875 28.40625 C16.36367188 29.128125 15.42265625 29.85 14.453125 30.59375 C13.19587119 31.53199911 11.93802726 32.46945782 10.6796875 33.40625 C9.75349609 34.12167969 9.75349609 34.12167969 8.80859375 34.8515625 C5.7165118 37.12993868 3.84743968 38.33506939 -0.03125 38.84375 C-2.6953125 38.40625 -2.6953125 38.40625 -4.6953125 36.40625 C-4.8948822 33.84874547 -4.97518076 31.40186859 -4.9609375 28.84375 C-4.96285095 28.09665771 -4.9647644 27.34956543 -4.96673584 26.57983398 C-4.96809748 24.99950829 -4.9644025 23.41917142 -4.95605469 21.83886719 C-4.9453545 19.41576078 -4.95595029 16.99339577 -4.96875 14.5703125 C-4.9674284 13.03645669 -4.964866 11.50260135 -4.9609375 9.96875 C-4.96498596 9.24163818 -4.96903442 8.51452637 -4.97320557 7.76538086 C-4.9074997 0.73968111 -4.9074997 0.73968111 0 0 Z " fill="#000000" transform="translate(10.6953125,12.59375)"/>
</svg>
