<?xml version="1.0" encoding="UTF-8"?>
<!-- Generator: visioncortex VTracer 0.6.12 -->
<svg version="1.1" xmlns="http://www.w3.org/2000/svg" width="80" height="80">
<path d="M0 0 C3.0458148634719393 1.3611301346144682 5.138390262268992 2.893300956594137 7.4833984375 5.25634765625 C8.143781127929685 5.916881408691406 8.80416381835937 6.577415161132812 9.48455810546875 7.257965087890625 C10.185747680664065 7.969477233886719 10.88693725585938 8.680989379882813 11.609375 9.4140625 C12.336184692382815 10.143702087402346 13.062994384765624 10.873341674804688 13.81182861328125 11.625091552734375 C16.12929197637149 13.953738802736154 18.439699504182457 16.28924826197121 20.75 18.625 C22.32115443778268 20.206186525850914 23.892763706935476 21.786921245505226 25.46484375 23.3671875 C29.31518652575744 27.239566900494125 33.159761166441506 31.117601710987202 37 35 C34.41779256595382 40.492879429302164 30.100102870272067 44.423302079243555 25.88916015625 48.701171875 C24.881350736611694 49.73205593791284 23.88254627789604 50.77182246137935 22.89306640625 51.8203125 C21.455884290303914 53.343103800223744 19.993730014954025 54.837358192246086 18.5234375 56.328125 C17.656381835937502 57.22434570312501 16.789326171874997 58.12056640624999 15.89599609375 59.0439453125 C12.630587876718707 61.24951356699796 10.840890187413478 61.732540273776436 6.975738525390625 61.48211669921875 C3.4518039605317874 60.62221156559957 1.1928456598980617 58.333594580637424 -1.25 55.8125 C-1.7935815429687487 55.276572265625 -2.337163085937501 54.74064453125 -2.897216796875 54.1884765625 C-4.036217767913744 53.054897058653566 -5.165268287959087 51.91124052738296 -6.28466796875 50.75830078125 C-7.995940858980774 49.00416082175071 -9.74575459366297 47.2968491763345 -11.50390625 45.58984375 C-12.609344813965823 44.47911830594565 -13.712298909601687 43.365913523288846 -14.8125 42.25 C-15.334248046875 41.74444580078125 -15.85599609375 41.2388916015625 -16.3935546875 40.718017578125 C-19.027823582054253 37.943808737203554 -20.37120648452328 35.71884296107169 -20.611328125 31.9453125 C-19.888308121712882 27.279177015527225 -18.78859191523955 25.846278014513857 -15.40625 22.625 C-14.940133056640626 22.17020263671875 -14.47401611328125 21.7154052734375 -13.9937744140625 21.246826171875 C-12.513674494115541 19.81119489961914 -11.008203418025225 18.40601769587075 -9.5 17 C-8.486463297304446 16.026629021540383 -7.4747228879622725 15.051383954111863 -6.46484375 14.07421875 C-3.9936034254980726 11.69712091405053 -1.5056868277595044 9.340671991078281 1 7 C0.33999999999999986 5.02 -0.3200000000000003 3.039999999999999 -1 1 C-0.6700000000000017 0.6699999999999999 -0.33999999999999986 0.33999999999999986 0 0 Z M-5.177978515625 17.697509765625 C-6.678405919766398 19.178523585368644 -8.198758451942162 20.63685445782116 -9.720703125 22.095703125 C-10.673188581176635 23.035128350108042 -11.624404241654638 23.97584312274323 -12.57421875 24.91796875 C-13.44651123046875 25.77156982421875 -14.3188037109375 26.625170898437503 -15.217529296875 27.504638671875 C-17 30 -17 30 -16.776611328125 32.817626953125 C-16.52032958984375 33.53781005859375 -16.264047851562502 34.2579931640625 -16 35 C-15.34 35 -14.68 35 -14 35 C-13.67 35.989999999999995 -13.34 36.980000000000004 -13 38 C-12.34 38 -11.68 38 -11 38 C-10.670000000000002 38.989999999999995 -10.34 39.980000000000004 -10 41 C-9.34 41 -8.68 41 -8 41 C-7.670000000000002 41.99 -7.34 42.98 -7 44 C-6.34 44 -5.68 44 -5 44 C-4.670000000000002 44.99 -4.34 45.98 -4 47 C-3.34 47 -2.6799999999999997 47 -2 47 C-1.6700000000000017 47.99 -1.3399999999999999 48.98 -1 50 C-0.33999999999999986 50 0.3200000000000003 50 1 50 C1.3299999999999983 50.99 1.6600000000000001 51.98 2 53 C2.66 53 3.3200000000000003 53 4 53 C4.329999999999998 53.99 4.66 54.98 5 56 C5.659999999999997 56 6.32 56 7 56 C7 56.66 7 57.31999999999999 7 58 C8.32 58 9.64 58 11 58 C11 57.34 11 56.68 11 56 C11.494999999999997 55.835 11.494999999999997 55.835 14 55 C14 54.34 14 53.68 14 53 C14.494999999999997 52.835 14.494999999999997 52.835 17 52 C17 51.34 17 50.68 17 50 C17.990000000000002 49.67 18.979999999999997 49.34 20 49 C20 48.34 20 47.68 20 47 C20.990000000000002 46.67 21.979999999999997 46.34 23 46 C23 45.34 23 44.68 23 44 C23.990000000000002 43.67 24.979999999999997 43.34 26 43 C26 42.34 26 41.68 26 41 C26.990000000000002 40.67 27.979999999999997 40.34 29 40 C29 39.34 29 38.68 29 38 C29.990000000000002 37.67 30.979999999999997 37.34 32 37 C30.395770006379138 33.02009411876707 27.61753302891018 30.328076842744927 24.625 27.359375 C24.0998681640625 26.832329711914063 23.574736328125 26.305284423828127 23.03369140625 25.76226806640625 C21.926611174890198 24.65383071589211 20.81701669501429 23.54789953566598 19.705078125 22.4443359375 C17.998930249248595 20.748936988800864 16.3037595255904 19.04308390208674 14.609375 17.3359375 C13.531891079425684 16.259774417812718 12.45378732902492 15.184231491488198 11.375 14.109375 C10.866625976562503 13.596952514648436 10.358251953124999 13.084530029296875 9.83447265625 12.55657958984375 C3.2467952845828982 6.056540054683442 0.1329054173580424 12.428436957585895 -5.177978515625 17.697509765625 Z " fill="#000000" transform="translate(27,7)"/>
<path d="M0 0 C3.584144203691295 1.1947147345637674 4.450798035597984 2.6963553610322677 6.20703125 5.953125 C7.56695671056427 9.46347446470778 7.379737043990161 12.265919067430119 7 16 C5 18 5 18 3.125 18.265625 C2.4237499999999983 18.26046875 1.7224999999999966 18.255312500000002 1 18.25 C0.6493750000000063 18.252578125 0.6493750000000063 18.252578125 -1.125 18.265625 C-3 18 -3 18 -5 16 C-5.828996242351742 9.131173991942681 -4.073355973967452 5.46993516504201 0 0 Z M0 6 C-1.619490105911261 8.572131344682596 -2.044087510848371 9.676691587111975 -1.625 12.75 C-1.4187500000000028 13.492500000000007 -1.2124999999999986 14.235 -1 15 C0.6500000000000057 14.670000000000002 2.299999999999997 14.340000000000003 4 14 C3.125 8.25 3.125 8.25 2 6 C1.3400000000000034 6 0.6800000000000068 6 0 6 Z " fill="#000000" transform="translate(65,54)"/>
<path d="M0 0 C0.6599999999999966 0 1.3200000000000003 0 2 0 C2 0.6599999999999966 2 1.3200000000000003 2 2 C1.3400000000000034 2 0.6799999999999997 2 0 2 C0 1.3400000000000034 0 0.6799999999999997 0 0 Z " fill="#000000" transform="translate(35,60)"/>
<path d="M0 0 C0.6599999999999966 0 1.3200000000000003 0 2 0 C2 0.6599999999999966 2 1.3200000000000003 2 2 C1.3400000000000034 2 0.6799999999999997 2 0 2 C0 1.3400000000000034 0 0.6799999999999997 0 0 Z " fill="#000000" transform="translate(38,57)"/>
<path d="M0 0 C0.6599999999999966 0 1.3200000000000003 0 2 0 C2 0.6599999999999966 2 1.3200000000000003 2 2 C1.3400000000000034 2 0.6799999999999997 2 0 2 C0 1.3400000000000034 0 0.6799999999999997 0 0 Z " fill="#000000" transform="translate(32,57)"/>
<path d="M0 0 C0.6599999999999966 0 1.3200000000000003 0 2 0 C2 0.6599999999999966 2 1.3200000000000003 2 2 C1.3400000000000034 2 0.6799999999999997 2 0 2 C0 1.3400000000000034 0 0.6799999999999997 0 0 Z " fill="#000000" transform="translate(41,54)"/>
<path d="M0 0 C0.6599999999999966 0 1.3200000000000003 0 2 0 C2 0.6599999999999966 2 1.3200000000000003 2 2 C1.3400000000000034 2 0.6799999999999997 2 0 2 C0 1.3400000000000034 0 0.6799999999999997 0 0 Z " fill="#000000" transform="translate(35,54)"/>
<path d="M0 0 C0.6600000000000001 0 1.3200000000000003 0 2 0 C2 0.6599999999999966 2 1.3200000000000003 2 2 C1.3399999999999999 2 0.6799999999999997 2 0 2 C0 1.3400000000000034 0 0.6799999999999997 0 0 Z " fill="#000000" transform="translate(29,54)"/>
<path d="M0 0 C0.6599999999999966 0 1.3200000000000003 0 2 0 C2 0.6599999999999966 2 1.3200000000000003 2 2 C1.3400000000000034 2 0.6799999999999997 2 0 2 C0 1.3400000000000034 0 0.6799999999999997 0 0 Z " fill="#000000" transform="translate(44,51)"/>
<path d="M0 0 C0.6599999999999966 0 1.3200000000000003 0 2 0 C2 0.6599999999999966 2 1.3200000000000003 2 2 C1.3400000000000034 2 0.6799999999999997 2 0 2 C0 1.3400000000000034 0 0.6799999999999997 0 0 Z " fill="#000000" transform="translate(38,51)"/>
<path d="M0 0 C0.6599999999999966 0 1.3200000000000003 0 2 0 C2 0.6599999999999966 2 1.3200000000000003 2 2 C1.3400000000000034 2 0.6799999999999997 2 0 2 C0 1.3400000000000034 0 0.6799999999999997 0 0 Z " fill="#000000" transform="translate(32,51)"/>
<path d="M0 0 C0.6600000000000001 0 1.3200000000000003 0 2 0 C2 0.6599999999999966 2 1.3200000000000003 2 2 C1.3399999999999999 2 0.6799999999999997 2 0 2 C0 1.3400000000000034 0 0.6799999999999997 0 0 Z " fill="#000000" transform="translate(26,51)"/>
<path d="M0 0 C0.6599999999999966 0 1.3200000000000003 0 2 0 C2 0.6599999999999966 2 1.3200000000000003 2 2 C1.3400000000000034 2 0.6799999999999997 2 0 2 C0 1.3400000000000034 0 0.6799999999999997 0 0 Z " fill="#000000" transform="translate(47,48)"/>
<path d="M0 0 C0.6599999999999966 0 1.3200000000000003 0 2 0 C2 0.6599999999999966 2 1.3200000000000003 2 2 C1.3400000000000034 2 0.6799999999999997 2 0 2 C0 1.3400000000000034 0 0.6799999999999997 0 0 Z " fill="#000000" transform="translate(41,48)"/>
<path d="M0 0 C0.6599999999999966 0 1.3200000000000003 0 2 0 C2 0.6599999999999966 2 1.3200000000000003 2 2 C1.3400000000000034 2 0.6799999999999997 2 0 2 C0 1.3400000000000034 0 0.6799999999999997 0 0 Z " fill="#000000" transform="translate(35,48)"/>
<path d="M0 0 C0.6600000000000001 0 1.3200000000000003 0 2 0 C2 0.6599999999999966 2 1.3200000000000003 2 2 C1.3399999999999999 2 0.6799999999999997 2 0 2 C0 1.3400000000000034 0 0.6799999999999997 0 0 Z " fill="#000000" transform="translate(29,48)"/>
<path d="M0 0 C0.6600000000000001 0 1.3200000000000003 0 2 0 C2 0.6599999999999966 2 1.3200000000000003 2 2 C1.3399999999999999 2 0.6799999999999997 2 0 2 C0 1.3400000000000034 0 0.6799999999999997 0 0 Z " fill="#000000" transform="translate(23,48)"/>
<path d="M0 0 C0.6599999999999966 0 1.3200000000000003 0 2 0 C2 0.6599999999999966 2 1.3200000000000003 2 2 C1.3400000000000034 2 0.6799999999999997 2 0 2 C0 1.3400000000000034 0 0.6799999999999997 0 0 Z " fill="#000000" transform="translate(50,45)"/>
<path d="M0 0 C0.6599999999999966 0 1.3200000000000003 0 2 0 C2 0.6599999999999966 2 1.3200000000000003 2 2 C1.3400000000000034 2 0.6799999999999997 2 0 2 C0 1.3400000000000034 0 0.6799999999999997 0 0 Z " fill="#000000" transform="translate(44,45)"/>
<path d="M0 0 C0.6599999999999966 0 1.3200000000000003 0 2 0 C2 0.6599999999999966 2 1.3200000000000003 2 2 C1.3400000000000034 2 0.6799999999999997 2 0 2 C0 1.3400000000000034 0 0.6799999999999997 0 0 Z " fill="#000000" transform="translate(38,45)"/>
<path d="M0 0 C0.6599999999999966 0 1.3200000000000003 0 2 0 C2 0.6599999999999966 2 1.3200000000000003 2 2 C1.3400000000000034 2 0.6799999999999997 2 0 2 C0 1.3400000000000034 0 0.6799999999999997 0 0 Z " fill="#000000" transform="translate(32,45)"/>
<path d="M0 0 C0.6600000000000001 0 1.3200000000000003 0 2 0 C2 0.6599999999999966 2 1.3200000000000003 2 2 C1.3399999999999999 2 0.6799999999999997 2 0 2 C0 1.3400000000000034 0 0.6799999999999997 0 0 Z " fill="#000000" transform="translate(26,45)"/>
<path d="M0 0 C0.6600000000000001 0 1.3200000000000003 0 2 0 C2 0.6599999999999966 2 1.3200000000000003 2 2 C1.3399999999999999 2 0.6799999999999997 2 0 2 C0 1.3400000000000034 0 0.6799999999999997 0 0 Z " fill="#000000" transform="translate(20,45)"/>
<path d="M0 0 C0.6599999999999966 0 1.3200000000000003 0 2 0 C2 0.6599999999999966 2 1.3200000000000003 2 2 C1.3400000000000034 2 0.6799999999999997 2 0 2 C0 1.3400000000000034 0 0.6799999999999997 0 0 Z " fill="#000000" transform="translate(53,42)"/>
<path d="M0 0 C0.6599999999999966 0 1.3200000000000003 0 2 0 C2 0.6599999999999966 2 1.3200000000000003 2 2 C1.3400000000000034 2 0.6799999999999997 2 0 2 C0 1.3400000000000034 0 0.6799999999999997 0 0 Z " fill="#000000" transform="translate(47,42)"/>
<path d="M0 0 C0.6599999999999966 0 1.3200000000000003 0 2 0 C2 0.6599999999999966 2 1.3200000000000003 2 2 C1.3400000000000034 2 0.6799999999999997 2 0 2 C0 1.3400000000000034 0 0.6799999999999997 0 0 Z " fill="#000000" transform="translate(41,42)"/>
<path d="M0 0 C0.6599999999999966 0 1.3200000000000003 0 2 0 C2 0.6599999999999966 2 1.3200000000000003 2 2 C1.3400000000000034 2 0.6799999999999997 2 0 2 C0 1.3400000000000034 0 0.6799999999999997 0 0 Z " fill="#000000" transform="translate(35,42)"/>
<path d="M0 0 C0.6600000000000001 0 1.3200000000000003 0 2 0 C2 0.6599999999999966 2 1.3200000000000003 2 2 C1.3399999999999999 2 0.6799999999999997 2 0 2 C0 1.3400000000000034 0 0.6799999999999997 0 0 Z " fill="#000000" transform="translate(29,42)"/>
<path d="M0 0 C0.6600000000000001 0 1.3200000000000003 0 2 0 C2 0.6599999999999966 2 1.3200000000000003 2 2 C1.3399999999999999 2 0.6799999999999997 2 0 2 C0 1.3400000000000034 0 0.6799999999999997 0 0 Z " fill="#000000" transform="translate(23,42)"/>
<path d="M0 0 C0.6600000000000001 0 1.3200000000000003 0 2 0 C2 0.6599999999999966 2 1.3200000000000003 2 2 C1.3399999999999999 2 0.6799999999999997 2 0 2 C0 1.3400000000000034 0 0.6799999999999997 0 0 Z " fill="#000000" transform="translate(17,42)"/>
</svg>
