<?xml version="1.0" encoding="UTF-8"?>
<!-- Generator: visioncortex VTracer 0.6.12 -->
<svg version="1.1" xmlns="http://www.w3.org/2000/svg" width="48" height="48">
<path d="M0 0 C4.832988058697023 4.027480534970881 9.381100043296819 8.243794134041632 13.80859375 12.7109375 C14.11438606262207 13.017437286376953 14.11438606262207 13.017437286376953 15.661880493164063 14.568511962890625 C17.589475589296693 16.50164563773124 19.51353927665474 18.438249872623974 21.4375 20.375 C22.754324037951147 21.69684699170733 24.07137926094161 23.01846371936578 25.388671875 24.33984375 C28.595123729523067 27.557242994391174 31.79841628662681 30.777756806693397 35 34 C33.68 35.32 32.36 36.64 31 38 C30.4225 37.319375 29.845 36.63875 29.25 35.9375 C28.878749999999997 35.6178125 28.878749999999997 35.6178125 27 34 C25.65485244203174 34.281898804858955 24.323349919152236 34.629009595314585 23 35 C8.593381333427338 36.07040650263208 8.593381333427338 36.07040650263208 3.6015625 32.4609375 C3.0730468749999993 31.978828125 2.5445312500000004 31.49671875 2 31 C1.2652343750000004 30.332265625000005 0.5304687500000007 29.664531249999996 -0.2265625 28.9765625 C-5.892205011462049 23.27198086474783 -5.892205011462049 23.27198086474783 -6.3125 18.3125 C-4.739897725503363 14.343551402460868 -2.9307203327751807 12.081013683173907 0 9 C-0.33000000000000007 8.401875 -0.6600000000000001 7.803750000000001 -1 7.1875 C-2 5 -2 5 -2 2 C-1.3399999999999999 1.3399999999999999 -0.6799999999999997 0.6799999999999997 0 0 Z M7 15 C6.398496240601503 22.097744360902254 6.398496240601503 22.097744360902254 9 26 C13.029794650698978 28.686529767132654 15.239340307714563 28.40344573663436 20 28 C19.67 27.009999999999998 19.34 26.02 19 25 C17.865625 24.855625 16.73125 24.71125 15.5625 24.5625 C12 24 12 24 11 23 C10.632392688953097 20.67182036336961 10.297584191037494 18.338161501008884 10 16 C9.009999999999998 15.670000000000002 8.02 15.34 7 15 Z " fill="#000000" transform="translate(8,5)"/>
<path d="M0 0 C14.86078580892704 -0.7420087227758305 14.86078580892704 -0.7420087227758305 19.3984375 2.5390625 C19.926953124999997 3.0211718750000003 20.45546875 3.5032812500000006 21 4 C21.734765625 4.667734375 22.469531250000003 5.33546875 23.2265625 6.0234375 C28.894166145670525 11.729993748046262 28.894166145670525 11.729993748046262 29.3125 16.75 C27.81412448086091 20.460263190249176 26.035899183067457 22.43116222971215 23 25 C17.483007054126745 20.279578228129836 15.439072153549645 17.075438088285754 14 10 C11 8 11 8 7.5625 7.125 C3.884160792020367 5.963419197480116 2.345018672532376 5.001623900841441 0 2 C0 1.3399999999999999 0 0.6799999999999997 0 0 Z " fill="#000000" transform="translate(17,8)"/>
</svg>
