<?xml version="1.0" encoding="UTF-8"?>
<!-- Generator: visioncortex VTracer 0.6.12 -->
<svg version="1.1" xmlns="http://www.w3.org/2000/svg" width="80" height="80">
<path d="M0 0 C2.8976182630622134 1.376808025963025 5.547552168915402 2.9384664687022806 8.259521484375 4.652587890625 C9.303662109374997 5.309365234375001 10.347802734375001 5.966142578125 11.423583984375 6.642822265625 C12.503818359375003 7.327958984375 13.584052734375 8.013095703125 14.697021484375 8.718994140625 C16.842654331921175 10.072176670372198 18.98848074505073 11.425052338248406 21.134521484375 12.777587890625 C22.081982421874997 13.377565917968752 23.029443359374994 13.977543945312501 24.005615234375 14.595703125 C25.810397721641394 15.726147888658783 27.648423674154486 16.805058046084728 29.51416015625 17.831787109375 C30.234504394531257 18.3101904296875 30.9548486328125 18.78859375 31.697021484375 19.281494140625 C32.185302734375 21.98071289062503 32.185302734375 21.98071289062503 32.009521484375 24.968994140625 C31.964404296875003 25.962861328125 31.919287109375006 26.956728515625002 31.872802734375 27.980712890625 C31.814794921875006 28.739970703124996 31.756787109374997 29.499228515625 31.697021484375 30.281494140625 C31.037021484375003 30.281494140625 30.377021484375007 30.281494140625 29.697021484375 30.281494140625 C29.697021484375 41.831494140625 29.697021484375 53.381494140625 29.697021484375 65.281494140625 C9.237021484375 65.281494140625 -11.222978515625002 65.281494140625 -32.302978515625 65.281494140625 C-32.302978515625 53.731494140625 -32.302978515625 42.181494140625 -32.302978515625 30.281494140625 C-32.962978515625 30.281494140625 -33.622978515625 30.281494140625 -34.302978515625 30.281494140625 C-34.86826577034361 26.476839306877004 -35.06667446633986 23.06804462663527 -34.302978515625 19.281494140625 C-31.701929585299666 16.33681069714693 -28.544275176232066 14.820244654119222 -25.052978515625 13.093994140625 C-23.211556888297004 12.100820352402692 -21.371706464046056 11.104727856790923 -19.533447265625 10.105712890625 C-18.6354541015625 9.6318212890625 -17.7374609375 9.1579296875 -16.812255859375 8.669677734375 C-12.508867627863978 6.2889552704353555 -8.642448534915019 3.365632152168315 -4.713134765625 0.414306640625 C-2.302978515625 -0.718505859375 -2.302978515625 -0.718505859375 0 0 Z M-6.267822265625 5.660400390625 C-7.06341552734375 6.166437988281249 -7.8590087890625 6.6724755859375 -8.6787109375 7.19384765625 C-9.101402587890625 7.466121826171875 -9.101402587890625 7.466121826171875 -11.240478515625 8.843994140625 C-12.964322507010156 9.948339311399302 -14.688280389386904 11.052506723019697 -16.412353515625 12.156494140625 C-17.249599609375 12.694033203125002 -18.086845703125 13.231572265625001 -18.949462890625 13.785400390625 C-20.954392959222616 15.059903654148464 -22.970890626528778 16.306236324641482 -25.006103515625 17.531494140625 C-25.990947265625 18.129619140625 -26.975791015625 18.727744140625 -27.990478515625 19.343994140625 C-28.839970703125 19.850595703125 -29.689462890625002 20.357197265625 -30.564697265625 20.879150390625 C-31.138330078125 21.341923828125 -31.711962890625 21.804697265625 -32.302978515625 22.281494140625 C-32.302978515625 23.271494140625 -32.302978515625 24.261494140625 -32.302978515625 25.281494140625 C-28.607067844464638 23.923677496202284 -25.472995648992253 22.243132181343643 -22.177978515625 20.093994140625 C-21.701025390625 19.785908203125 -21.701025390625 19.785908203125 -19.287353515625 18.226806640625 C-18.302509765625 17.584853515625 -17.317666015625 16.942900390625 -16.302978515625 16.281494140625 C-14.347235816931352 15.006677564774954 -12.38898515696621 13.73569843057243 -10.427978515625 12.468994140625 C-9.996142578125 12.187333984375002 -9.996142578125 12.187333984375002 -7.810791015625 10.761962890625 C-5.293880293560868 9.276123071836363 -3.12946899323768 8.045974261826313 -0.302978515625 7.281494140625 C1.850097656249993 8.060791015624996 1.850097656249993 8.060791015624996 3.989990234375 9.500244140625 C4.781071777343747 10.018125000000001 5.572153320312502 10.536005859374999 6.38720703125 11.069580078125 C7.211320800781252 11.634511718749998 8.035434570312503 12.199443359375 8.884521484375 12.781494140625 C10.581967237566111 13.901999517075296 12.27987986349197 15.021797969610901 13.978271484375 16.140869140625 C14.384326171875003 16.4125390625 14.384326171875003 16.4125390625 16.439208984375 17.787353515625 C19.209683188353182 19.620755562375265 22.025864740392073 21.339300780681082 24.884521484375 23.031494140625 C25.641201171874997 23.480087890625 26.397880859374993 23.928681640625 27.177490234375 24.390869140625 C27.67893554687501 24.684775390625 28.180380859374992 24.978681640625 28.697021484375 25.281494140625 C28.862021484374992 24.786494140625003 28.862021484374992 24.786494140625003 29.697021484375 22.281494140625 C29.17906005859375 21.95463623046875 28.661098632812497 21.6277783203125 28.12744140625 21.291015625 C26.58405576932401 20.31695790474719 25.040770143441506 19.34274170842606 23.49755859375 18.368408203125 C21.75261830709237 17.2669584622431 20.007337060765295 16.166048695527266 18.26171875 15.065673828125 C14.515600452938813 12.702505998960852 10.770674016052347 10.339020569076283 7.056396484375 7.926025390625 C6.092177734374999 7.300830078124999 5.127958984374999 6.675634765625 4.134521484375 6.031494140625 C3.3082324218749974 5.490087890625 2.481943359375002 4.948681640625001 1.630615234375 4.390869140625 C-1.7757638189308338 2.4365021686273085 -3.179067753594879 3.6824984753096857 -6.267822265625 5.660400390625 Z M-6.338134765625 12.695556640625 C-7.1483105468749955 13.209892578125 -7.958486328125005 13.724228515625 -8.793212890625 14.254150390625 C-9.642060546875001 14.799423828125 -10.490908203124999 15.344697265625001 -11.365478515625 15.906494140625 C-12.187255859375 16.428564453125 -13.009033203125 16.950634765625 -13.855712890625 17.488525390625 C-15.520975426340591 18.549786329987413 -17.173632655959928 19.63107115389635 -18.8134765625 20.731201171875 C-21.302978515625 22.281494140625 -21.302978515625 22.281494140625 -23.91162109375 23.390380859375 C-26.78997811239686 24.752544100090702 -28.367142218150565 25.731066783439342 -30.302978515625 28.281494140625 C-31.42722335199772 34.27356703542321 -31.151535877510383 40.09231794904221 -30.865478515625 46.156494140625 C-30.82030181210302 47.81524020112383 -30.77924272332696 49.47410384685665 -30.742431640625 51.133056640625 C-30.651200047873537 55.18779409624555 -30.475318861262366 59.2261768716766 -30.302978515625 63.281494140625 C-23.702978515625 63.281494140625 -17.102978515624997 63.281494140625 -10.302978515625 63.281494140625 C-10.302978515625 55.031494140625 -10.302978515625 46.781494140625 -10.302978515625 38.281494140625 C-4.362978515625002 38.281494140625 1.5770214843750026 38.281494140625 7.697021484375 38.281494140625 C7.697021484375 46.531494140625 7.697021484375 54.781494140625 7.697021484375 63.281494140625 C14.297021484375001 63.281494140625 20.897021484375003 63.281494140625 27.697021484375 63.281494140625 C30.66449797812072 32.89783204077308 30.66449797812072 32.89783204077308 25.863037109375 25.428466796875 C21.30050060974252 21.154662243647834 15.999451457346254 18.620725508149725 10.224365234375 16.348876953125 C6.985143152484447 14.980843825031346 4.178554862229483 13.177288511976034 1.273193359375 11.212646484375 C-1.87496690059902 9.352813270071886 -3.5198457325461305 10.897763238176413 -6.338134765625 12.695556640625 Z M-8.302978515625 40.281494140625 C-8.302978515625 47.871494140625 -8.302978515625 55.461494140625 -8.302978515625 63.281494140625 C-3.6829785156249955 63.281494140625 0.937021484375002 63.281494140625 5.697021484375 63.281494140625 C5.697021484375 55.691494140625 5.697021484375 48.101494140625 5.697021484375 40.281494140625 C1.0770214843749955 40.281494140625 -3.542978515625002 40.281494140625 -8.302978515625 40.281494140625 Z " fill="#000000" transform="translate(41.302978515625,5.718505859375)"/>
<path d="M0 0 C5.939999999999998 0 11.880000000000003 0 18 0 C18 3.960000000000001 18 7.920000000000002 18 12 C12.060000000000002 12 6.119999999999997 12 0 12 C0 8.04 0 4.079999999999998 0 0 Z M2 2 C2 4.640000000000001 2 7.280000000000001 2 10 C3.979999999999997 10 5.960000000000001 10 8 10 C8 7.359999999999999 8 4.719999999999999 8 2 C6.019999999999996 2 4.039999999999999 2 2 2 Z M10 2 C10 4.640000000000001 10 7.280000000000001 10 10 C11.980000000000004 10 13.96 10 16 10 C16 7.359999999999999 16 4.719999999999999 16 2 C14.019999999999996 2 12.04 2 10 2 Z " fill="#000000" transform="translate(31,25)"/>
<path d="M0 0 C0.990000000000002 0 1.9799999999999969 0 3 0 C3 0.990000000000002 3 1.9799999999999969 3 3 C2.009999999999998 3 1.0200000000000031 3 0 3 C0 2.009999999999998 0 1.0200000000000031 0 0 Z " fill="#000000" transform="translate(42,57)"/>
<path d="M0 0 C0.6599999999999966 0 1.3199999999999932 0 2 0 C2 0.6599999999999966 2 1.3200000000000003 2 2 C1.3400000000000034 2 0.6800000000000068 2 0 2 C0 1.3400000000000034 0 0.6799999999999997 0 0 Z " fill="#000000" transform="translate(64,62)"/>
<path d="M0 0 C0.6599999999999966 0 1.3200000000000003 0 2 0 C2 0.6599999999999966 2 1.3200000000000003 2 2 C1.3400000000000034 2 0.6799999999999997 2 0 2 C0 1.3400000000000034 0 0.6799999999999997 0 0 Z " fill="#000000" transform="translate(60,62)"/>
<path d="M0 0 C0.6599999999999966 0 1.3200000000000003 0 2 0 C2 0.6599999999999966 2 1.3200000000000003 2 2 C1.3400000000000034 2 0.6799999999999997 2 0 2 C0 1.3400000000000034 0 0.6799999999999997 0 0 Z " fill="#000000" transform="translate(56,62)"/>
<path d="M0 0 C0.6599999999999966 0 1.3200000000000003 0 2 0 C2 0.6599999999999966 2 1.3200000000000003 2 2 C1.3400000000000034 2 0.6799999999999997 2 0 2 C0 1.3400000000000034 0 0.6799999999999997 0 0 Z " fill="#000000" transform="translate(52,62)"/>
<path d="M0 0 C0.6600000000000001 0 1.3200000000000003 0 2 0 C2 0.6599999999999966 2 1.3200000000000003 2 2 C1.3399999999999999 2 0.6799999999999997 2 0 2 C0 1.3400000000000034 0 0.6799999999999997 0 0 Z " fill="#000000" transform="translate(26,62)"/>
<path d="M0 0 C0.6600000000000001 0 1.3200000000000003 0 2 0 C2 0.6599999999999966 2 1.3200000000000003 2 2 C1.3399999999999999 2 0.6799999999999997 2 0 2 C0 1.3400000000000034 0 0.6799999999999997 0 0 Z " fill="#000000" transform="translate(22,62)"/>
<path d="M0 0 C0.6600000000000001 0 1.3200000000000003 0 2 0 C2 0.6599999999999966 2 1.3200000000000003 2 2 C1.3399999999999999 2 0.6799999999999997 2 0 2 C0 1.3400000000000034 0 0.6799999999999997 0 0 Z " fill="#000000" transform="translate(18,62)"/>
<path d="M0 0 C0.6600000000000001 0 1.3200000000000003 0 2 0 C2 0.6599999999999966 2 1.3200000000000003 2 2 C1.3399999999999999 2 0.6799999999999997 2 0 2 C0 1.3400000000000034 0 0.6799999999999997 0 0 Z " fill="#000000" transform="translate(14,62)"/>
</svg>
