<?xml version="1.0" encoding="UTF-8"?>
<svg version="1.1" xmlns="http://www.w3.org/2000/svg" width="100" height="100">
<path d="M0 0 C2.48234067 0.84968506 3.64865101 1.64344658 5.44789124 3.52177429 C6.23583069 4.32904968 6.23583069 4.32904968 7.03968811 5.15263367 C7.57013733 5.71659851 8.10058655 6.28056335 8.64710999 6.86161804 C9.19689514 7.42945007 9.7466803 7.9972821 10.31312561 8.58232117 C11.66288363 9.97902729 13.00002523 11.38790641 14.33460999 12.79911804 C12.93474848 17.10915476 10.92724389 19.57038463 7.72132874 22.74052429 C6.8028717 23.65382507 5.88441467 24.56712585 4.93812561 25.50810242 C4.45899719 25.97691833 3.97986877 26.44573425 3.48622131 26.92875671 C2.03010405 28.3537946 0.58485531 29.78915103 -0.85874939 31.22685242 C-4.98768756 35.30962497 -9.0759838 39.23242644 -13.66539001 42.79911804 C-12.06059022 46.89905593 -9.09552844 49.52235912 -5.96617126 52.48271179 C-4.82823053 53.58563865 -3.69087808 54.68917275 -2.55406189 55.79325867 C-0.76275206 57.52250194 1.03269418 59.24666172 2.83876038 60.960495 C4.5839612 62.62117786 6.30982623 64.30007061 8.03382874 65.98271179 C8.57956039 66.49120163 9.12529205 66.99969147 9.68756104 67.52359009 C11.18495178 69.00004578 11.18495178 69.00004578 13.33460999 71.79911804 C13.33622686 74.74505519 12.83818898 76.10734195 11.11952209 78.4683075 C10.62202454 78.94485779 10.12452698 79.42140808 9.61195374 79.91239929 C9.07377014 80.43769226 8.53558655 80.96298523 7.98109436 81.50419617 C7.41712952 82.03464539 6.85316467 82.5650946 6.27210999 83.11161804 C5.70427795 83.6614032 5.13644592 84.21118835 4.55140686 84.77763367 C3.15470073 86.12739169 1.74582161 87.46453329 0.33460999 88.79911804 C-3.03478953 87.33218452 -5.28347571 85.45386082 -7.89903259 82.88774109 C-8.72280899 82.08317978 -9.54658539 81.27861847 -10.39532471 80.44967651 C-11.27464157 79.57885941 -12.15395844 78.7080423 -13.05992126 77.81083679 C-13.96667099 76.91548721 -14.87342072 76.02013763 -15.80764771 75.09765625 C-17.72103632 73.20315196 -19.63172699 71.30626447 -21.53916931 69.4058075 C-23.98505368 66.97092685 -26.44895708 64.55517156 -28.91756153 62.14335918 C-31.26974548 59.83733263 -33.60087037 57.51019315 -35.93492126 55.18583679 C-36.82435928 54.32109238 -37.7137973 53.45634796 -38.63018799 52.56539917 C-39.43820358 51.75138138 -40.24621918 50.93736359 -41.07872009 50.09867859 C-42.15649467 49.0318409 -42.15649467 49.0318409 -43.25604248 47.94345093 C-44.66539001 45.79911804 -44.66539001 45.79911804 -44.62692261 43.30209351 C-43.48272792 40.32362845 -42.10808909 38.72153654 -39.86753845 36.45195007 C-39.06290161 35.62824921 -38.25826477 34.80454834 -37.429245 33.95588684 C-36.5532666 33.08173126 -35.67728821 32.20757568 -34.77476501 31.30693054 C-33.87800049 30.40159576 -32.98123596 29.49626099 -32.05729675 28.56349182 C-30.15894501 26.65365603 -28.25683202 24.74866642 -26.34751892 22.84989929 C-23.90127757 20.41527323 -21.47857902 17.95861595 -19.06144333 15.49513435 C-16.75056249 13.14773169 -14.41775551 10.82234104 -12.08726501 8.49443054 C-11.21938354 7.60812958 -10.35150208 6.72182861 -9.45732117 5.80867004 C-8.64007568 5.00388214 -7.8228302 4.19909424 -6.9808197 3.36991882 C-6.26657837 2.65441864 -5.55233704 1.93891846 -4.81645203 1.20173645 C-2.66539001 -0.20088196 -2.66539001 -0.20088196 0 0 Z " fill="#000000" transform="translate(64.66539001464844,6.2008819580078125)"/>
</svg>
