<?xml version="1.0" encoding="UTF-8"?>
<svg version="1.1" xmlns="http://www.w3.org/2000/svg" width="64" height="64">
<path d="M0 0 C0.93359375 2.5390625 0.93359375 2.5390625 1 6 C-0.93720184 8.84697149 -3.40349344 11.0608167 -5.9375 13.375 C-6.94586914 14.33599609 -6.94586914 14.33599609 -7.97460938 15.31640625 C-9.63512508 16.89448501 -11.30967306 18.45399634 -13 20 C-11.72493738 22.83204101 -10.4614149 24.74348838 -8.14453125 26.8046875 C-7.60505859 27.30613281 -7.06558594 27.80757812 -6.50976562 28.32421875 C-5.37571387 29.36039492 -4.232353 30.3864712 -3.08007812 31.40234375 C-1.45703125 32.9296875 -1.45703125 32.9296875 1 36 C0.86328125 39.3828125 0.86328125 39.3828125 0 42 C-3.5742949 42.32916462 -5.42735126 42.39052823 -8.44116211 40.33520508 C-9.21210205 39.57103271 -9.98304199 38.80686035 -10.77734375 38.01953125 C-11.61974609 37.18486328 -12.46214844 36.35019531 -13.33007812 35.49023438 C-14.19052734 34.60658203 -15.05097656 33.72292969 -15.9375 32.8125 C-16.82501953 31.94818359 -17.71253906 31.08386719 -18.62695312 30.19335938 C-19.46033203 29.35224609 -20.29371094 28.51113281 -21.15234375 27.64453125 C-21.91538818 26.87471924 -22.67843262 26.10490723 -23.46459961 25.31176758 C-25 23 -25 23 -24.97949219 20.48632812 C-23.05667503 15.60547818 -18.9784516 12.32474407 -15.3125 8.6875 C-14.50876953 7.85154297 -13.70503906 7.01558594 -12.87695312 6.15429688 C-12.08869141 5.36474609 -11.30042969 4.57519531 -10.48828125 3.76171875 C-9.77196533 3.03944092 -9.05564941 2.31716309 -8.31762695 1.57299805 C-5.38425265 -0.41791427 -3.47270889 -0.30022611 0 0 Z " fill="#000000" transform="translate(44,11)"/>
</svg>
