<?xml version="1.0" encoding="UTF-8"?>
<!-- Generator: visioncortex VTracer 0.6.12 -->
<svg version="1.1" xmlns="http://www.w3.org/2000/svg" width="96" height="96">
<path d="M0 0 C8.518388193995662 8.131920676687734 13.06784769049986 16.78035349251224 13.537353515625 28.607666015625 C13.684820132709675 40.61194433242559 11.218232993117141 49.474407313018645 3.265625 58.75 C-0.1363369501133036 62.188217317254825 -3.6875391063930323 64.68136200724413 -7.93359375 66.97265625 C-8.646445312499992 67.38515625 -9.359296874999998 67.79765625 -10.09375 68.22265625 C-19.414946842661607 72.82729551361328 -32.14081162769915 72.59297373989386 -41.93359375 69.47265625 C-52.30776254917514 64.92202392398146 -60.24212244706386 56.94133046482524 -64.9921875 46.6875 C-69.10405779181946 35.532330356642916 -68.78202808277834 23.62253849541225 -63.80859375 12.78515625 C-58.203856458965845 2.6051232111828533 -50.45807269768342 -3.8670625919729638 -39.80859375 -8.33984375 C-25.579062066016135 -11.742557848343967 -11.386418591856149 -9.59392335736001 0 0 Z M-34.93359375 -2.02734375 C-34.93359375 0.2826562500000023 -34.93359375 2.592656250000001 -34.93359375 4.97265625 C-36.913593750000004 4.97265625 -38.89359375 4.97265625 -40.93359375 4.97265625 C-40.93359375 3.6526562499999997 -40.93359375 2.3326562499999994 -40.93359375 0.97265625 C-48.3019395553495 3.2054883122271214 -53.18574406531482 8.531918600168993 -56.9375 15.0390625 C-61.42078198501219 23.74190400031778 -61.72866980185583 32.705559179675845 -58.93359375 41.97265625 C-55.87906325038277 49.669534865775574 -51.312216913277524 55.94950904960507 -43.93359375 59.97265625 C-42.943593750000005 59.97265625 -41.953593749999996 59.97265625 -40.93359375 59.97265625 C-40.93359375 58.98265624999999 -40.93359375 57.99265625000001 -40.93359375 56.97265625 C-38.953593749999996 56.97265625 -36.97359375 56.97265625 -34.93359375 56.97265625 C-34.954218749999995 57.94203125 -34.974843750000005 58.91140625 -34.99609375 59.91015625 C-34.93359375 62.97265625 -34.93359375 62.97265625 -33.93359375 63.97265625 C-31.60199319924787 64.07174927340697 -29.267294334509515 64.10236129150103 -26.93359375 64.09765625 C-25.654843749999998 64.100234375 -24.376093750000003 64.1028125 -23.05859375 64.10546875 C-19.93359375 63.97265625 -19.93359375 63.97265625 -18.93359375 62.97265625 C-18.89278592067496 60.973072613073114 -18.89105018701885 58.97220371011413 -18.93359375 56.97265625 C-16.953593750000003 56.97265625 -14.97359375 56.97265625 -12.93359375 56.97265625 C-12.603593750000002 57.96265625000001 -12.273593750000003 58.95265624999999 -11.93359375 59.97265625 C-4.468663104615814 57.36770649353781 0.40130088569165423 51.87596550152395 4.06640625 44.97265625 C7.424928011761665 36.798355826458064 7.829150955893823 26.234750933572258 4.44140625 17.97265625 C3.324218750000014 15.925781250000036 3.324218750000014 15.925781250000036 2.06640625 13.97265625 C1.6307031249999966 13.26625 1.1949999999999932 12.559843749999999 0.74609375 11.83203125 C-2.6748705061510236 6.784706937646025 -6.5703793805323585 3.803997846064135 -11.93359375 0.97265625 C-12.263593749999998 2.2926562500000003 -12.593593749999997 3.6126562500000006 -12.93359375 4.97265625 C-13.758593750000003 4.807656250000001 -13.758593750000003 4.807656250000001 -17.93359375 3.97265625 C-18.09859375 2.982656249999998 -18.09859375 2.982656249999998 -18.93359375 -2.02734375 C-24.46327315704434 -2.7376780611815867 -29.433424105787076 -3.330015507839903 -34.93359375 -2.02734375 Z " fill="#000000" transform="translate(74.93359375,17.02734375)"/>
<path d="M0 0 C0.6875 1.8124999999999964 0.6875 1.8124999999999964 1 4 C-0.9949167258443694 6.417889575944283 -3.210872277063828 7.763700051220972 -5.9375 9.25 C-9.963008811279778 11.763162959528259 -12.643044438590906 14.36443752313663 -14 19 C-14.849116142630209 24.87103161475744 -14.909350549291155 30.235297867977593 -11.9375 35.5 C-8.434650435850614 40.17046608553252 -4.9125272805259215 42.578766715626415 0.8359375 43.41015625 C6.864696011582502 43.70627914918353 11.474561470935122 43.20657889679866 16.375 39.53125 C21.094082487597035 35.084422271302785 22.25183018415879 31.387418814818417 22.5625 25.0625 C22.3312805392639 19.282013481597517 21.192991328114147 15.106636815635824 17 11 C14.6801631057713 9.566348676571735 12.396558520247332 8.375345458185528 9.890625 7.30078125 C8 6 8 6 7.234375 3.35546875 C7.157031250000003 2.578164062500001 7.079687499999999 1.8008593750000017 7 1 C8.5625 -0.1875 8.5625 -0.1875 11 -1 C17.79067381049979 0.9588482145672472 23.303539218776137 5.200784949704197 27.39453125 10.96484375 C31.233073678512426 18.248579736258556 31.484860080016716 27.10521787782102 29.1171875 34.91015625 C25.913671815915706 41.94304002002613 21.411287088610422 45.91145688452423 14.9375 49.875 C8.471207342317925 52.292577885529795 0.6126414249803247 52.08814500752419 -5.91796875 50.12109375 C-13.008531949139918 46.87080532437308 -17.214603763142765 42.386096311280966 -20.8125 35.5625 C-23.31905844349172 28.042824669524848 -23.60071021210621 21.52647932351475 -21 14 C-17.164797213864553 6.90801845449052 -8.745078380113284 -2.713989842104123 0 0 Z " fill="#000000" transform="translate(44,23)"/>
</svg>
