<?xml version="1.0" encoding="UTF-8"?>
<!-- Generator: visioncortex VTracer 0.6.12 -->
<svg version="1.1" xmlns="http://www.w3.org/2000/svg" width="80" height="80">
<path d="M0 0 C5.577382068893087 3.375153955853758 9.504018847307236 8.249958426652444 11.5 14.4375 C11.8359375 17.417968749999975 11.8359375 17.417968749999975 11.875 20.625 C11.903359375 21.6704296875 11.931718750000002 22.715859375 11.9609375 23.79296875 C10.847636728599312 32.59559264590541 6.194029672877683 40.11624761120438 1.625 47.5625 C1.1209765624999974 48.4042578125 0.616953125000002 49.246015625 0.09765625 50.11328125 C-3.1453007393920274 55.462916181350025 -6.646316996238141 60.51020526488303 -10.5 65.4375 C-14.651076655174066 64.05380778160864 -15.984195919520602 61.151066167779845 -18.25 57.625 C-18.470510253906248 57.28682250976563 -18.470510253906248 57.28682250976563 -19.58642578125 55.575439453125 C-36.38559661985257 29.61946866087483 -36.38559661985257 29.61946866087483 -34.5 14.4375 C-32.79099304057958 8.23855759689516 -28.828179942532415 3.91577131383613 -23.5 0.4375 C-16.64843729862619 -2.9649767156482163 -7.004744524335678 -3.156877126054569 0 0 Z M-27.875 9 C-31.15650935072544 12.939566038705138 -31.62210886634704 16.058246360501656 -31.5625 21.125 C-31.553476562500002 22.1188671875 -31.544453125 23.112734375 -31.53515625 24.13671875 C-31.5235546875 24.895976562499996 -31.511953124999998 25.655234375 -31.5 26.4375 C-31.17 25.777500000000003 -30.84 25.1175 -30.5 24.4375 C-29.509999999999998 24.4375 -28.52 24.4375 -27.5 24.4375 C-27.5 25.427499999999995 -27.5 26.417500000000004 -27.5 27.4375 C-28.490000000000002 27.4375 -29.48 27.4375 -30.5 27.4375 C-28.948292091317853 32.83399528241681 -26.479761949144685 37.446049382328376 -23.75 42.3125 C-23.33234375 43.0769140625 -22.9146875 43.841328125 -22.484375 44.62890625 C-19.54908883955749 49.8998926783556 -16.2364983539954 54.70298455318419 -12.5 59.4375 C-8.940569870667353 58.00628064273883 -7.553474486052359 56.42997653541184 -5.625 53.1484375 C-5.114531249999999 52.2886328125 -4.604062499999998 51.428828125 -4.078125 50.54296875 C-3.557343750000001 49.6419140625 -3.0365625000000023 48.740859375 -2.5 47.8125 C-1.9792187500000011 46.9346484375 -1.4584375000000023 46.056796875 -0.921875 45.15234375 C7.5 30.83940972222222 7.5 30.83940972222222 7.5 27.4375 C6.509999999999998 27.4375 5.520000000000003 27.4375 4.5 27.4375 C4.5 26.447500000000005 4.5 25.457499999999996 4.5 24.4375 C5.490000000000002 24.4375 6.479999999999997 24.4375 7.5 24.4375 C7.664999999999999 24.7675 7.664999999999999 24.7675 8.5 26.4375 C9.05529621989026 19.72458569732665 9.03083009668378 14.736901298536928 5 9.16015625 C1.2741237083415626 4.881220196298516 -2.303421190747457 1.7225750107666737 -8.171875 1.19921875 C-17.125749982080528 0.9833258253051653 -21.76625483943971 2.199698783527227 -27.875 9 Z " fill="#000000" transform="translate(51.5,8.5625)"/>
<path d="M0 0 C2 1 2 1 3 3 C3.519815057452476 6.5644461082455265 3.63102777161275 9.7379444567745 2 13 C-1.2620555432255003 14.63102777161275 -4.4355538917544735 14.519815057452476 -8 14 C-10 13 -10 13 -11 11 C-11.519815057452476 7.4355538917544735 -11.63102777161275 4.262055543225504 -10 1 C-6.7379444567745 -0.6310277716127501 -3.5644461082455265 -0.5198150574524725 0 0 Z M-8 4 C-8.125 7 -8.125 7 -8 10 C-7 11 -7 11 -4 11.125 C-1 11 -1 11 0 10 C0.125 7 0.125 7 0 4 C-1 3 -1 3 -4 2.875 C-7 3 -7 3 -8 4 Z " fill="#000000" transform="translate(44,23)"/>
<path d="M0 0 C0.990000000000002 0 1.9799999999999969 0 3 0 C3 0.9899999999999984 3 1.9800000000000004 3 3 C2.009999999999998 3 1.0200000000000031 3 0 3 C0 2.009999999999998 0 1.0199999999999996 0 0 Z " fill="#000000" transform="translate(56,24)"/>
<path d="M0 0 C0.9899999999999984 0 1.9800000000000004 0 3 0 C3 0.9899999999999984 3 1.9800000000000004 3 3 C2.009999999999998 3 1.0199999999999996 3 0 3 C0 2.009999999999998 0 1.0199999999999996 0 0 Z " fill="#000000" transform="translate(21,24)"/>
<path d="M0 0 C0.990000000000002 0 1.9799999999999969 0 3 0 C3 0.9900000000000002 3 1.9800000000000004 3 3 C2.009999999999998 3 1.0200000000000031 3 0 3 C0 2.01 0 1.0199999999999996 0 0 Z " fill="#000000" transform="translate(43,11)"/>
<path d="M0 0 C0.990000000000002 0 1.9799999999999969 0 3 0 C3 0.9900000000000002 3 1.9800000000000004 3 3 C2.009999999999998 3 1.0200000000000031 3 0 3 C0 2.01 0 1.0199999999999996 0 0 Z " fill="#000000" transform="translate(34,11)"/>
<path d="M0 0 C0.990000000000002 0 1.9799999999999969 0 3 0 C3 0.9899999999999984 3 1.9800000000000004 3 3 C2.009999999999998 2.6700000000000017 1.0200000000000031 2.34 0 2 C0 1.3399999999999999 0 0.6799999999999997 0 0 Z " fill="#000000" transform="translate(51,16)"/>
<path d="M0 0 C0.9899999999999984 0 1.9800000000000004 0 3 0 C2.6700000000000017 0.9899999999999984 2.34 1.9800000000000004 2 3 C1.3399999999999999 3 0.6799999999999997 3 0 3 C0 2.009999999999998 0 1.0199999999999996 0 0 Z " fill="#000000" transform="translate(26,16)"/>
<path d="M0 0 C0.990000000000002 0 1.9799999999999969 0 3 0 C3 0.6600000000000001 3 1.3200000000000003 3 2 C2.009999999999998 2 1.0200000000000031 2 0 2 C0 1.3399999999999999 0 0.6799999999999997 0 0 Z " fill="#000000" transform="translate(54,20)"/>
<path d="M0 0 C0.9899999999999984 0 1.9800000000000004 0 3 0 C3 0.6600000000000001 3 1.3200000000000003 3 2 C2.009999999999998 2 1.0199999999999996 2 0 2 C0 1.3399999999999999 0 0.6799999999999997 0 0 Z " fill="#000000" transform="translate(23,20)"/>
<path d="M0 0 C0.6599999999999966 0 1.3200000000000003 0 2 0 C2 0.9900000000000002 2 1.9800000000000004 2 3 C1.3400000000000034 3 0.6799999999999997 3 0 3 C0 2.01 0 1.0199999999999996 0 0 Z " fill="#000000" transform="translate(48,13)"/>
<path d="M0 0 C0.6600000000000001 0 1.3200000000000003 0 2 0 C2 0.9900000000000002 2 1.9800000000000004 2 3 C1.3399999999999999 3 0.6799999999999997 3 0 3 C0 2.01 0 1.0199999999999996 0 0 Z " fill="#000000" transform="translate(30,13)"/>
<path d="M0 0 C0.6599999999999966 0 1.3200000000000003 0 2 0 C2 0.6600000000000001 2 1.3200000000000003 2 2 C1.3400000000000034 2 0.6799999999999997 2 0 2 C0 1.3399999999999999 0 0.6799999999999997 0 0 Z " fill="#000000" transform="translate(57,29)"/>
<path d="M0 0 C0.6600000000000001 0 1.3200000000000003 0 2 0 C2 0.6600000000000001 2 1.3200000000000003 2 2 C1.3399999999999999 2 0.6799999999999997 2 0 2 C0 1.3399999999999999 0 0.6799999999999997 0 0 Z " fill="#000000" transform="translate(21,29)"/>
<path d="M0 0 C0.6599999999999966 0 1.3200000000000003 0 2 0 C2 0.6600000000000001 2 1.3200000000000003 2 2 C1.3400000000000034 2 0.6799999999999997 2 0 2 C0 1.3399999999999999 0 0.6799999999999997 0 0 Z " fill="#000000" transform="translate(39,11)"/>
</svg>
