<?xml version="1.0" encoding="UTF-8"?>
<!-- Generator: visioncortex VTracer 0.6.12 -->
<svg version="1.1" xmlns="http://www.w3.org/2000/svg" width="80" height="80">
<path d="M0 0 C2 0.9999999999999998 2 0.9999999999999998 3 3 C3.5362326792493874 6.677024086281495 3.768220078426438 9.829378928112096 1.6875 13 C0 14 0 14 -3 14 C-3 15.32 -3 16.64 -3 18 C-2.329445800781251 17.97381591796875 -1.6588916015625017 17.9476318359375 -0.968017578125 17.920654296875 C2.0835812776581832 17.81642761740813 5.13480542189928 17.751593767386638 8.1875 17.6875 C9.242597656249998 17.64560546875 10.297695312499997 17.6037109375 11.384765625 17.560546875 C19.148863681414525 17.438084760545514 19.148863681414525 17.438084760545514 23.21875 20.125 C25.321161985132235 23.518366712845022 25.529830776018585 25.357079876461846 25.3125 29.3125 C25.267382812500003 30.3811328125 25.222265625000006 31.449765624999998 25.17578125 32.55078125 C25.117773437500006 33.3590234375 25.059765624999997 34.167265625 25 35 C27.64 35 30.28 35 33 35 C33 40.61 33 46.22 33 52 C30.36 52 27.72 52 25 52 C25 58.27 25 64.54 25 71 C5.530000000000001 71 -13.940000000000005 71 -34 71 C-34 64.73 -34 58.46 -34 52 C-36.64 52 -39.28 52 -42 52 C-42 46.39 -42 40.78 -42 35 C-39.36 35 -36.72 35 -34 35 C-34.02900390625 34.59587890625 -34.02900390625 34.59587890625 -34.17578125 32.55078125 C-34.2208984375 31.4821484375 -34.266015625 30.413515625 -34.3125 29.3125 C-34.34150390625 28.78462890625 -34.34150390625 28.78462890625 -34.48828125 26.11328125 C-34 22.999999999999996 -34 22.999999999999996 -32.25 20.125 C-27.249850272619742 16.855671332097522 -22.51777351298533 17.46601094193802 -16.6875 17.6875 C-15.565371093749999 17.71005859375 -14.443242187500001 17.7326171875 -13.287109375 17.755859375 C-10.5233746396191 17.81466224171023 -7.762374459726708 17.89679598811229 -5 18 C-5 16.68 -5 15.36 -5 14 C-5.618749999999999 13.87625 -6.237499999999997 13.7525 -6.875 13.625 C-9.000000000000007 12.999999999999998 -9.000000000000007 12.999999999999998 -11 11 C-11.54794520547945 4.095890410958908 -11.54794520547945 4.095890410958908 -10 1 C-6.7379444567745 -0.6310277716127506 -3.5644461082455265 -0.5198150574524728 0 0 Z M-8 4 C-8.125 7 -8.125 7 -8 10 C-7 11 -7 11 -4 11.125 C-1 11 -1 11 0 10 C0.125 7 0.125 7 0 4 C-1 3 -1 3 -4 2.875 C-7 3 -7 3 -8 4 Z M-30 23 C-31.736240261986474 25.866927087663385 -32.24712603010351 27.97707900281752 -32.22705078125 31.3095703125 C-32.22689971923828 32.15013977050781 -32.226748657226565 32.99070922851563 -32.226593017578125 33.85675048828125 C-32.216270446777344 34.754804077148435 -32.20594787597656 35.65285766601563 -32.1953125 36.578125 C-32.193897552490235 37.04141204833984 -32.193897552490235 37.04141204833984 -32.186737060546875 39.38592529296875 C-32.17555610745274 42.34074909200125 -32.15045526548171 45.2952680520096 -32.125 48.25 C-32.11496750766969 50.255203950922805 -32.10584212663153 52.26041266034054 -32.09765625 54.265625 C-32.07562357609425 59.17720050865465 -32.04110795021101 64.08854859478927 -32 69 C-28.04 69 -24.08 69 -20 69 C-20 64.05 -20 59.1 -20 54 C-9.439999999999998 54 1.1200000000000045 54 12 54 C12 58.95 12 63.900000000000006 12 69 C15.630000000000003 69 19.259999999999998 69 23 69 C23.074256391217318 63.11013536944429 23.128652677299982 57.22054433816412 23.164794921875 51.330322265625 C23.17986465349574 49.327344281065194 23.200324098211127 47.324399200097574 23.226318359375 45.321533203125 C23.262781271959383 42.439533190818395 23.27974460574731 39.55797015591892 23.29296875 36.67578125 C23.308452606201172 35.782888946533205 23.323936462402344 34.889996643066404 23.339889526367188 33.97004699707031 C23.341177188020538 29.193766548386186 23.25019194770036 25.791814234769557 20 22 C17.19969298160995 20.320795321178252 15.110731432075596 19.746594222993583 11.861572265625 19.725341796875 C11.057162017822264 19.715809783935548 10.252751770019529 19.706277770996095 9.423965454101563 19.696456909179688 C8.563470916748045 19.69736831665039 7.702976379394528 19.698279724121093 6.81640625 19.69921875 C5.9238865661621105 19.694933624267577 5.031366882324221 19.690648498535158 4.1118011474609375 19.686233520507813 C2.2264795662755006 19.680497362838274 0.3411358555661437 19.679984697816607 -1.544189453125 19.684326171875 C-4.4237251670014075 19.687484889643997 -7.302231966541598 19.664022682062246 -10.181640625 19.638671875 C-12.015623706706076 19.636398636061134 -13.849609544899241 19.635695500115222 -15.68359375 19.63671875 C-16.542064056396484 19.627509002685546 -17.400534362792968 19.618299255371095 -18.285018920898438 19.608810424804688 C-22.976423851933486 19.644995587887237 -26.263134494053904 19.840166911130797 -30 23 Z M-40 37 C-40 41.29 -40 45.58 -40 50 C-38.019999999999996 50 -36.04 50 -34 50 C-34 45.71 -34 41.42 -34 37 C-35.980000000000004 37 -37.96 37 -40 37 Z M25 37 C25 41.29 25 45.58 25 50 C26.980000000000004 50 28.959999999999994 50 31 50 C31 45.71 31 41.42 31 37 C29.019999999999996 37 27.040000000000006 37 25 37 Z M-18 56 C-18 60.29 -18 64.58 -18 69 C-15.36 69 -12.719999999999999 69 -10 69 C-10 64.71000000000001 -10 60.42 -10 56 C-12.64 56 -15.280000000000001 56 -18 56 Z M-8 56 C-8 60.29 -8 64.58 -8 69 C-5.359999999999999 69 -2.719999999999999 69 0 69 C0 64.71000000000001 0 60.42 0 56 C-2.6400000000000006 56 -5.280000000000001 56 -8 56 Z M2 56 C2 60.29 2 64.58 2 69 C4.640000000000001 69 7.280000000000001 69 10 69 C10 64.71000000000001 10 60.42 10 56 C7.359999999999999 56 4.719999999999999 56 2 56 Z " fill="#000000" transform="translate(44,1)"/>
<path d="M0 0 C2.5 1.5 2.5 1.5 4 4 C4.791013003978549 8.020982770224293 4.621533836314626 10.96411027280896 2.5 14.5 C-1.0358897271910408 16.621533836314626 -3.9790172297757067 16.79101300397855 -8 16 C-10.5 14.5 -10.5 14.5 -12 12 C-12.791013003978549 7.9790172297757 -12.621533836314626 5.035889727191041 -10.5 1.5 C-6.964110272808959 -0.6215338363146223 -4.020982770224293 -0.7910130039785486 0 0 Z M-9 5 C-9.25 8 -9.25 8 -9 11 C-7 13 -7 13 -4 13.25 C-1 13 -1 13 1 11 C1.25 8 1.25 8 1 5 C-1 3 -1 3 -4 2.75 C-7 3 -7 3 -9 5 Z " fill="#000000" transform="translate(56,31)"/>
<path d="M0 0 C2.5 1.5 2.5 1.5 4 4 C4.791013003978549 8.020982770224293 4.621533836314626 10.96411027280896 2.5 14.5 C-1.0358897271910408 16.621533836314626 -3.9790172297757067 16.79101300397855 -8 16 C-10.5 14.5 -10.5 14.5 -12 12 C-12.791013003978549 7.9790172297757 -12.621533836314626 5.035889727191041 -10.5 1.5 C-6.964110272808959 -0.6215338363146223 -4.020982770224297 -0.7910130039785486 0 0 Z M-9 5 C-9.25 8 -9.25 8 -9 11 C-7 13 -7 13 -4 13.25 C-1 13 -1 13 1 11 C1.25 8 1.25 8 1 5 C-1 3 -1 3 -4 2.75 C-7 3 -7 3 -9 5 Z " fill="#000000" transform="translate(32,31)"/>
<path d="M0 0 C0.990000000000002 0.3299999999999983 1.9799999999999969 0.6600000000000001 3 1 C3 1.6600000000000001 3 2.3200000000000003 3 3 C2.009999999999998 3 1.0200000000000031 3 0 3 C0 2.009999999999998 0 1.0199999999999996 0 0 Z " fill="#000000" transform="translate(60,25)"/>
<path d="M0 0 C0.6600000000000001 0 1.3200000000000003 0 2 0 C2 0.9899999999999984 2 1.9800000000000004 2 3 C1.009999999999998 3 0.019999999999999574 3 -1 3 C-0.6700000000000017 2.009999999999998 -0.33999999999999986 1.0199999999999996 0 0 Z " fill="#000000" transform="translate(17,25)"/>
<path d="M0 0 C0.6599999999999966 0 1.3200000000000003 0 2 0 C2 0.6599999999999966 2 1.3199999999999932 2 2 C1.3400000000000034 2 0.6799999999999997 2 0 2 C0 1.3400000000000034 0 0.6800000000000068 0 0 Z " fill="#000000" transform="translate(62,65)"/>
<path d="M0 0 C0.6600000000000001 0 1.3200000000000003 0 2 0 C2 0.6599999999999966 2 1.3199999999999932 2 2 C1.3399999999999999 2 0.6799999999999997 2 0 2 C0 1.3400000000000034 0 0.6800000000000068 0 0 Z " fill="#000000" transform="translate(15,65)"/>
<path d="M0 0 C0.6599999999999966 0 1.3200000000000003 0 2 0 C2 0.6599999999999966 2 1.3200000000000003 2 2 C1.3400000000000034 2 0.6799999999999997 2 0 2 C0 1.3400000000000034 0 0.6799999999999997 0 0 Z " fill="#000000" transform="translate(62,60)"/>
<path d="M0 0 C0.6600000000000001 0 1.3200000000000003 0 2 0 C2 0.6599999999999966 2 1.3200000000000003 2 2 C1.3399999999999999 2 0.6799999999999997 2 0 2 C0 1.3400000000000034 0 0.6799999999999997 0 0 Z " fill="#000000" transform="translate(15,60)"/>
<path d="M0 0 C0.6599999999999966 0 1.3200000000000003 0 2 0 C2 0.6599999999999966 2 1.3200000000000003 2 2 C1.3400000000000034 2 0.6799999999999997 2 0 2 C0 1.3400000000000034 0 0.6799999999999997 0 0 Z " fill="#000000" transform="translate(62,55)"/>
<path d="M0 0 C0.6600000000000001 0 1.3200000000000003 0 2 0 C2 0.6599999999999966 2 1.3200000000000003 2 2 C1.3399999999999999 2 0.6799999999999997 2 0 2 C0 1.3400000000000034 0 0.6799999999999997 0 0 Z " fill="#000000" transform="translate(15,55)"/>
<path d="M0 0 C0.6599999999999966 0 1.3200000000000003 0 2 0 C2 0.6599999999999966 2 1.3200000000000003 2 2 C1.3400000000000034 2 0.6799999999999997 2 0 2 C0 1.3400000000000034 0 0.6799999999999997 0 0 Z " fill="#000000" transform="translate(62,50)"/>
<path d="M0 0 C0.6600000000000001 0 1.3200000000000003 0 2 0 C2 0.6599999999999966 2 1.3200000000000003 2 2 C1.3399999999999999 2 0.6799999999999997 2 0 2 C0 1.3400000000000034 0 0.6799999999999997 0 0 Z " fill="#000000" transform="translate(15,50)"/>
<path d="M0 0 C0.6599999999999966 0 1.3200000000000003 0 2 0 C2 0.6599999999999966 2 1.3200000000000003 2 2 C1.3400000000000034 2 0.6799999999999997 2 0 2 C0 1.3400000000000034 0 0.6799999999999997 0 0 Z " fill="#000000" transform="translate(62,45)"/>
<path d="M0 0 C0.6600000000000001 0 1.3200000000000003 0 2 0 C2 0.6599999999999966 2 1.3200000000000003 2 2 C1.3399999999999999 2 0.6799999999999997 2 0 2 C0 1.3400000000000034 0 0.6799999999999997 0 0 Z " fill="#000000" transform="translate(15,45)"/>
<path d="M0 0 C0.6599999999999966 0 1.3200000000000003 0 2 0 C2 0.6599999999999966 2 1.3200000000000003 2 2 C1.3400000000000034 2 0.6799999999999997 2 0 2 C0 1.3400000000000034 0 0.6799999999999997 0 0 Z " fill="#000000" transform="translate(62,40)"/>
<path d="M0 0 C0.6600000000000001 0 1.3200000000000003 0 2 0 C2 0.6599999999999966 2 1.3200000000000003 2 2 C1.3399999999999999 2 0.6799999999999997 2 0 2 C0 1.3400000000000034 0 0.6799999999999997 0 0 Z " fill="#000000" transform="translate(15,40)"/>
<path d="M0 0 C0.6599999999999966 0 1.3200000000000003 0 2 0 C2 0.6599999999999966 2 1.3200000000000003 2 2 C1.3400000000000034 2 0.6799999999999997 2 0 2 C0 1.3400000000000034 0 0.6799999999999997 0 0 Z " fill="#000000" transform="translate(62,35)"/>
<path d="M0 0 C0.6600000000000001 0 1.3200000000000003 0 2 0 C2 0.6599999999999966 2 1.3200000000000003 2 2 C1.3399999999999999 2 0.6799999999999997 2 0 2 C0 1.3400000000000034 0 0.6799999999999997 0 0 Z " fill="#000000" transform="translate(15,35)"/>
<path d="M0 0 C0.6599999999999966 0 1.3200000000000003 0 2 0 C2 0.6600000000000001 2 1.3200000000000003 2 2 C1.3400000000000034 2 0.6799999999999997 2 0 2 C0 1.3399999999999999 0 0.6799999999999997 0 0 Z " fill="#000000" transform="translate(62,30)"/>
<path d="M0 0 C0.6600000000000001 0 1.3200000000000003 0 2 0 C2 0.6600000000000001 2 1.3200000000000003 2 2 C1.3399999999999999 2 0.6799999999999997 2 0 2 C0 1.3399999999999999 0 0.6799999999999997 0 0 Z " fill="#000000" transform="translate(15,30)"/>
<path d="M0 0 C0.6599999999999966 0 1.3200000000000003 0 2 0 C2 0.6600000000000001 2 1.3200000000000003 2 2 C1.3400000000000034 2 0.6799999999999997 2 0 2 C0 1.3399999999999999 0 0.6799999999999997 0 0 Z " fill="#000000" transform="translate(56,24)"/>
<path d="M0 0 C0.6599999999999966 0 1.3200000000000003 0 2 0 C2 0.6600000000000001 2 1.3200000000000003 2 2 C1.3400000000000034 2 0.6799999999999997 2 0 2 C0 1.3399999999999999 0 0.6799999999999997 0 0 Z " fill="#000000" transform="translate(51,24)"/>
<path d="M0 0 C0.6599999999999966 0 1.3200000000000003 0 2 0 C2 0.6600000000000001 2 1.3200000000000003 2 2 C1.3400000000000034 2 0.6799999999999997 2 0 2 C0 1.3399999999999999 0 0.6799999999999997 0 0 Z " fill="#000000" transform="translate(46,24)"/>
<path d="M0 0 C0.6599999999999966 0 1.3200000000000003 0 2 0 C2 0.6600000000000001 2 1.3200000000000003 2 2 C1.3400000000000034 2 0.6799999999999997 2 0 2 C0 1.3399999999999999 0 0.6799999999999997 0 0 Z " fill="#000000" transform="translate(41,24)"/>
<path d="M0 0 C0.6599999999999966 0 1.3200000000000003 0 2 0 C2 0.6600000000000001 2 1.3200000000000003 2 2 C1.3400000000000034 2 0.6799999999999997 2 0 2 C0 1.3399999999999999 0 0.6799999999999997 0 0 Z " fill="#000000" transform="translate(36,24)"/>
<path d="M0 0 C0.6600000000000001 0 1.3200000000000003 0 2 0 C2 0.6600000000000001 2 1.3200000000000003 2 2 C1.3400000000000034 2 0.6799999999999997 2 0 2 C0 1.3399999999999999 0 0.6799999999999997 0 0 Z " fill="#000000" transform="translate(31,24)"/>
<path d="M0 0 C0.6600000000000001 0 1.3200000000000003 0 2 0 C2 0.6600000000000001 2 1.3200000000000003 2 2 C1.3399999999999999 2 0.6799999999999997 2 0 2 C0 1.3399999999999999 0 0.6799999999999997 0 0 Z " fill="#000000" transform="translate(26,24)"/>
<path d="M0 0 C0.6600000000000001 0 1.3200000000000003 0 2 0 C2 0.6600000000000001 2 1.3200000000000003 2 2 C1.3399999999999999 2 0.6799999999999997 2 0 2 C0 1.3399999999999999 0 0.6799999999999997 0 0 Z " fill="#000000" transform="translate(21,24)"/>
</svg>
