<?xml version="1.0" encoding="UTF-8"?>
<!-- Generator: visioncortex VTracer 0.6.12 -->
<svg version="1.1" xmlns="http://www.w3.org/2000/svg" width="80" height="80">
<path d="M0 0 C5.471933834092077 3.8836588047134626 10.599797768071099 9.690101869729752 11.96484375 16.39453125 C12.957773276762836 25.5317141985254 12.205457399609287 32.708297897239724 6.96484375 40.39453125 C6.304843750000003 41.05453125 5.64484375 41.71453125 4.96484375 42.39453125 C4.567201123864848 44.382744380675746 4.227090264182252 46.38397464126938 3.96484375 48.39453125 C4.274218750000003 48.45640625 4.274218750000003 48.45640625 5.83984375 48.76953125 C7.96484375 49.39453125 7.96484375 49.39453125 9.96484375 51.39453125 C9.96484375 54.03453125 9.96484375 56.67453125 9.96484375 59.39453125 C-6.205156250000002 59.39453125 -22.375156250000003 59.39453125 -39.03515625 59.39453125 C-38.03515625 51.39453125 -38.03515625 51.39453125 -36.66015625 49.39453125 C-35.03515625 48.39453125 -35.03515625 48.39453125 -32.03515625 48.39453125 C-33.20606518237612 43.285110454176944 -34.98468179199511 39.5376684280488 -37.9140625 35.19140625 C-41.63978721384865 29.219861412472547 -40.90941469458765 20.387765767170627 -39.45703125 13.75390625 C-37.06670450763806 7.539056719858948 -32.49938641360575 3.0815603409766936 -27.03515625 -0.60546875 C-18.68950801789972 -4.100849387455369 -8.09965646437005 -4.2685340398821685 0 0 Z M-33.80859375 10.55078125 C-37.72991189561931 16.445246742778064 -37.765140691589316 22.530897049202892 -37.03515625 29.39453125 C-35.492766258950894 34.31586838638865 -33.02378331287404 38.10393471022014 -29.03515625 41.39453125 C-24.78851460825031 42.165588144168666 -20.55697970353919 42.09557901519639 -16.24560546875 42.080810546875 C-14.171432551045143 42.08202464949599 -12.10433939257755 42.14175699665528 -10.03125 42.205078125 C-0.3392447720861185 42.23830243283321 -0.3392447720861185 42.23830243283321 3.1767578125 39.96337890625 C4.769828584929023 38.18120956915196 5.885478613536499 36.52171431643329 6.96484375 34.39453125 C7.410859375000001 33.5450390625 7.856875000000002 32.695546875 8.31640625 31.8203125 C9.931988058822277 25.776479347719082 10.017630122725649 18.86533489086519 7.46484375 13.08203125 C4.287521351606024 7.64654043274745 -1.1219531556171702 2.659841068531552 -7.03515625 0.39453125 C-19.20990602410194 -1.0298544994331085 -26.04242355790767 1.3528590113208168 -33.80859375 10.55078125 Z M-29.03515625 43.39453125 C-29.03515625 45.04453125 -29.03515625 46.69453125 -29.03515625 48.39453125 C-19.13515625 48.39453125 -9.235156250000003 48.39453125 0.96484375 48.39453125 C0.96484375 46.74453125 0.96484375 45.09453125 0.96484375 43.39453125 C-8.935156249999999 43.39453125 -18.835156249999997 43.39453125 -29.03515625 43.39453125 Z M-35.03515625 52.39453125 C-35.36515625 54.044531250000006 -35.69515625 55.69453125 -36.03515625 57.39453125 C-21.515156249999997 57.39453125 -6.995156249999994 57.39453125 7.96484375 57.39453125 C7.304843750000003 55.414531249999996 6.64484375 53.43453124999999 5.96484375 51.39453125 C2.3822599012897925 50.200336633763264 -0.8954833683278309 50.2323616203456 -4.625 50.2265625 C-5.365933990478517 50.2232341003418 -6.106867980957034 50.2199057006836 -6.8702545166015625 50.21647644042969 C-8.43620178192846 50.21141771914174 -10.002159806333403 50.2090677894187 -11.568115234375 50.209228515625 C-13.960304783028164 50.2070425367502 -16.352032675592916 50.18887755186574 -18.744140625 50.169921875 C-20.266925508840345 50.16698760712042 -21.789712579584588 50.1650030345319 -23.3125 50.1640625 C-24.02615219116211 50.156876983642576 -24.73980438232422 50.14969146728516 -25.475082397460938 50.14228820800781 C-32.332368748763855 50.173742941535686 -32.332368748763855 50.173742941535686 -35.03515625 52.39453125 Z " fill="#000000" transform="translate(54.03515625,11.60546875)"/>
<path d="M0 0 C0.990000000000002 0 1.980000000000004 0 3 0 C4.006427504879021 1.6627932689305567 5.005854072901613 3.3298348424747104 6 5 C8.1875 6.3125 8.1875 6.3125 10 7 C10 8.32 10 9.64 10 11 C8.356664959600295 12.037895814989284 6.687561331585684 13.035679239093895 5 14 C3.6875 16.1875 3.6875 16.1875 3 18 C2.009999999999998 18 1.019999999999996 18 0 18 C-1.0064275048790208 16.337206731069443 -2.005854072901613 14.67016515752529 -3 13 C-5.187499999999993 11.6875 -5.187499999999993 11.6875 -7 11 C-7 9.68 -7 8.36 -7 7 C-5.356664959600295 5.962104185010716 -3.687561331585684 4.964320760906105 -2 4 C-0.6875 1.8125 -0.6875 1.8125 0 0 Z M1 5 C-0.5 6.375 -0.5 6.375 -2 8 C-2 8.659999999999997 -2 9.32 -2 10 C0 11.625 0 11.625 2 13 C3.5 11.625 3.5 11.625 5 10 C5 9.340000000000003 5 8.68 5 8 C3 6.375 3 6.375 1 5 Z " fill="#000000" transform="translate(49,32)"/>
<path d="M0 0 C3.7463348605769795 1.2487782868589932 5.410417970847732 3.0604744533947184 8 6 C8 6.990000000000002 8 7.980000000000004 8 9 C6.68 9.329999999999998 5.359999999999999 9.659999999999997 4 10 C3.6700000000000017 11.32 3.3400000000000034 12.64 3 14 C-0.3114019043935201 13.429068637173529 -1.7505442348831508 12.453951743763838 -4 10 C-4.66 9.670000000000002 -5.32 9.340000000000003 -6 9 C-6 6 -6 6 -3.5625 3.375 C-2.7168750000000017 2.5912499999999987 -1.8712500000000034 1.807500000000001 -1 1 C-0.6700000000000017 0.6700000000000017 -0.3400000000000034 0.33999999999999986 0 0 Z M0 6 C-0.3299999999999983 6.66 -0.6599999999999966 7.32 -1 8 C-0.00999999999999801 8.329999999999998 0.980000000000004 8.659999999999997 2 9 C2 8.009999999999998 2 7.019999999999996 2 6 C1.3400000000000034 6 0.6799999999999997 6 0 6 Z " fill="#000000" transform="translate(36,25)"/>
<path d="M0 0 C0.9900000000000002 0 1.9800000000000004 0 3 0 C2.9535937499999996 0.7386328125000006 2.907187499999999 1.4772656250000011 2.859375 2.23828125 C2.581610231095251 10.045455290287059 3.9139606869960826 15.870573411928902 7 23 C7.66985142447205 24.665389231187405 8.337451851094695 26.33169182325196 9 28 C7.16796875 27.80078125 7.16796875 27.80078125 5 27 C3.55078125 24.85546875 3.55078125 24.85546875 2.3125 22.1875 C1.8961328124999994 21.3148046875 1.4797656249999989 20.442109375 1.05078125 19.54296875 C-0.6013294836804661 15.544737940981477 -1.1380509719103546 12.26389718828252 -1.125 7.9375 C-1.1275781250000003 7.080273437499997 -1.1301562499999998 6.223046875000001 -1.1328125 5.33984375 C-1 3 -1 3 0 0 Z " fill="#000000" transform="translate(9,28)"/>
<path d="M0 0 C6.0032649987234095 1.0027431646219327 9.579448111773587 6.046741153688689 13 10.75 C14 13 14 13 13 16 C9.370609850029041 14.790203283343015 9.005920631854224 13.810766446912218 7.0625 10.625 C5.459101193702537 7.9997016878222915 4.304276059211126 6.2223764425607175 1.80859375 4.3984375 C1.2117578124999966 3.9369531250000005 0.6149218750000003 3.475468750000001 0 3 C0 2.01 0 1.0199999999999996 0 0 Z " fill="#000000" transform="translate(55,8)"/>
<path d="M0 0 C2.8620715221388195 1.2829975788898125 5.024508800822048 2.5306360010275526 7 5 C7 5.99 7 6.98 7 8 C4.245422820011001 7.620058320001517 3.1797942559330323 7.192636702785395 1.25 5.125 C0 3 0 3 0 0 Z " fill="#000000" transform="translate(62,8)"/>
<path d="M0 0 C0.9899999999999984 0 1.9800000000000004 0 3 0 C3 0.9899999999999984 3 1.9800000000000004 3 3 C2.009999999999998 3 1.0199999999999996 3 0 3 C0 2.009999999999998 0 1.0199999999999996 0 0 Z " fill="#000000" transform="translate(25,18)"/>
<path d="M0 0 C0.990000000000002 0 1.9799999999999969 0 3 0 C3 0.9900000000000002 3 1.9800000000000004 3 3 C2.009999999999998 3 1.0200000000000031 3 0 3 C0 2.01 0 1.0199999999999996 0 0 Z " fill="#000000" transform="translate(36,13)"/>
<path d="M0 0 C0.9899999999999984 0 1.9800000000000004 0 3 0 C2.6700000000000017 0.990000000000002 2.34 1.9799999999999969 2 3 C1.3399999999999999 3 0.6799999999999997 3 0 3 C0 2.009999999999998 0 1.0200000000000031 0 0 Z " fill="#000000" transform="translate(18,34)"/>
<path d="M0 0 C0.9899999999999984 0.3299999999999983 1.9800000000000004 0.6600000000000001 3 1 C2.6700000000000017 1.6600000000000001 2.34 2.3200000000000003 2 3 C1.3399999999999999 3 0.6799999999999997 3 0 3 C0 2.009999999999998 0 1.0199999999999996 0 0 Z " fill="#000000" transform="translate(19,28)"/>
<path d="M0 0 C0.6600000000000001 0.3299999999999983 1.3200000000000003 0.6600000000000001 2 1 C2 1.6600000000000001 2 2.3200000000000003 2 3 C1.009999999999998 3 0.019999999999999574 3 -1 3 C-0.6700000000000017 2.009999999999998 -0.33999999999999986 1.0199999999999996 0 0 Z " fill="#000000" transform="translate(22,22)"/>
<path d="M0 0 C0.9899999999999984 0 1.9800000000000004 0 3 0 C2.6700000000000017 0.9900000000000002 2.3400000000000034 1.9800000000000004 2 3 C1.3399999999999999 2.6700000000000017 0.6799999999999997 2.34 0 2 C0 1.3399999999999999 0 0.6799999999999997 0 0 Z " fill="#000000" transform="translate(30,15)"/>
</svg>
