<?xml version="1.0" encoding="UTF-8"?>
<svg version="1.1" xmlns="http://www.w3.org/2000/svg" width="80" height="80">
<path d="M0 0 C7.92 0 15.84 0 24 0 C24 5.94 24 11.88 24 18 C20.37 18 16.74 18 13 18 C13 18.66 13 19.32 13 20 C12.34 20 11.68 20 11 20 C11 19.34 11 18.68 11 18 C7.37 18 3.74 18 0 18 C0 12.06 0 6.12 0 0 Z M2 3 C1.90126184 4.99799572 1.87028201 6.99957158 1.875 9 C1.87242188 10.093125 1.86984375 11.18625 1.8671875 12.3125 C1.69452245 14.91830354 1.69452245 14.91830354 3 16 C4.33043625 16.0983721 5.66593344 16.13078592 7 16.1328125 C7.804375 16.13410156 8.60875 16.13539062 9.4375 16.13671875 C10.7059375 16.13091797 10.7059375 16.13091797 12 16.125 C12.845625 16.12886719 13.69125 16.13273437 14.5625 16.13671875 C15.366875 16.13542969 16.17125 16.13414063 17 16.1328125 C18.11375 16.13112061 18.11375 16.13112061 19.25 16.12939453 C21.02825811 16.18942216 21.02825811 16.18942216 22 15 C22.09873816 13.00200428 22.12971799 11.00042842 22.125 9 C22.12757812 7.906875 22.13015625 6.81375 22.1328125 5.6875 C22.30547755 3.08169646 22.30547755 3.08169646 21 2 C19.66956375 1.9016279 18.33406656 1.86921408 17 1.8671875 C16.195625 1.86589844 15.39125 1.86460938 14.5625 1.86328125 C13.716875 1.86714844 12.87125 1.87101563 12 1.875 C11.154375 1.87113281 10.30875 1.86726562 9.4375 1.86328125 C8.633125 1.86457031 7.82875 1.86585937 7 1.8671875 C5.88625 1.86887939 5.88625 1.86887939 4.75 1.87060547 C2.97174189 1.81057784 2.97174189 1.81057784 2 3 Z " fill="#000000" transform="translate(10,10)"/>
<path d="M0 0 C7.92 0 15.84 0 24 0 C24 5.94 24 11.88 24 18 C16.08 18 8.16 18 0 18 C-1 8 -1 8 0 0 Z M2 3 C1.90126184 4.99799572 1.87028201 6.99957158 1.875 9 C1.87242188 10.093125 1.86984375 11.18625 1.8671875 12.3125 C1.69452245 14.91830354 1.69452245 14.91830354 3 16 C4.33043625 16.0983721 5.66593344 16.13078592 7 16.1328125 C7.804375 16.13410156 8.60875 16.13539062 9.4375 16.13671875 C10.7059375 16.13091797 10.7059375 16.13091797 12 16.125 C12.845625 16.12886719 13.69125 16.13273437 14.5625 16.13671875 C15.366875 16.13542969 16.17125 16.13414063 17 16.1328125 C18.11375 16.13112061 18.11375 16.13112061 19.25 16.12939453 C21.02825811 16.18942216 21.02825811 16.18942216 22 15 C22.09873816 13.00200428 22.12971799 11.00042842 22.125 9 C22.12757812 7.906875 22.13015625 6.81375 22.1328125 5.6875 C22.30547755 3.08169646 22.30547755 3.08169646 21 2 C19.66956375 1.9016279 18.33406656 1.86921408 17 1.8671875 C16.195625 1.86589844 15.39125 1.86460938 14.5625 1.86328125 C13.716875 1.86714844 12.87125 1.87101562 12 1.875 C11.154375 1.87113281 10.30875 1.86726563 9.4375 1.86328125 C8.633125 1.86457031 7.82875 1.86585937 7 1.8671875 C5.88625 1.86887939 5.88625 1.86887939 4.75 1.87060547 C2.97174189 1.81057784 2.97174189 1.81057784 2 3 Z " fill="#000000" transform="translate(46,52)"/>
<path d="M0 0 C7.92 0 15.84 0 24 0 C24 5.94 24 11.88 24 18 C16.08 18 8.16 18 0 18 C-1 8 -1 8 0 0 Z M2 3 C1.90126184 4.99799572 1.87028201 6.99957158 1.875 9 C1.87242188 10.093125 1.86984375 11.18625 1.8671875 12.3125 C1.69452245 14.91830354 1.69452245 14.91830354 3 16 C4.33043625 16.0983721 5.66593344 16.13078592 7 16.1328125 C7.804375 16.13410156 8.60875 16.13539062 9.4375 16.13671875 C10.7059375 16.13091797 10.7059375 16.13091797 12 16.125 C12.845625 16.12886719 13.69125 16.13273437 14.5625 16.13671875 C15.366875 16.13542969 16.17125 16.13414063 17 16.1328125 C18.11375 16.13112061 18.11375 16.13112061 19.25 16.12939453 C21.02825811 16.18942216 21.02825811 16.18942216 22 15 C22.09873816 13.00200428 22.12971799 11.00042842 22.125 9 C22.12757812 7.906875 22.13015625 6.81375 22.1328125 5.6875 C22.30547755 3.08169646 22.30547755 3.08169646 21 2 C19.66956375 1.9016279 18.33406656 1.86921408 17 1.8671875 C16.195625 1.86589844 15.39125 1.86460938 14.5625 1.86328125 C13.716875 1.86714844 12.87125 1.87101562 12 1.875 C11.154375 1.87113281 10.30875 1.86726563 9.4375 1.86328125 C8.633125 1.86457031 7.82875 1.86585937 7 1.8671875 C5.88625 1.86887939 5.88625 1.86887939 4.75 1.87060547 C2.97174189 1.81057784 2.97174189 1.81057784 2 3 Z " fill="#000000" transform="translate(46,28)"/>
<path d="M0 0 C0.66 0 1.32 0 2 0 C2 0.66 2 1.32 2 2 C1.34 2 0.68 2 0 2 C0 1.34 0 0.68 0 0 Z " fill="#000000" transform="translate(51,64)"/>
<path d="M0 0 C0.66 0 1.32 0 2 0 C2 0.66 2 1.32 2 2 C1.34 2 0.68 2 0 2 C0 1.34 0 0.68 0 0 Z " fill="#000000" transform="translate(51,60)"/>
<path d="M0 0 C0.66 0 1.32 0 2 0 C2 0.66 2 1.32 2 2 C1.34 2 0.68 2 0 2 C0 1.34 0 0.68 0 0 Z " fill="#000000" transform="translate(41,60)"/>
<path d="M0 0 C0.66 0 1.32 0 2 0 C2 0.66 2 1.32 2 2 C1.34 2 0.68 2 0 2 C0 1.34 0 0.68 0 0 Z " fill="#000000" transform="translate(37,60)"/>
<path d="M0 0 C0.66 0 1.32 0 2 0 C2 0.66 2 1.32 2 2 C1.34 2 0.68 2 0 2 C0 1.34 0 0.68 0 0 Z " fill="#000000" transform="translate(33,60)"/>
<path d="M0 0 C0.66 0 1.32 0 2 0 C2 0.66 2 1.32 2 2 C1.34 2 0.68 2 0 2 C0 1.34 0 0.68 0 0 Z " fill="#000000" transform="translate(29,60)"/>
<path d="M0 0 C0.66 0 1.32 0 2 0 C2 0.66 2 1.32 2 2 C1.34 2 0.68 2 0 2 C0 1.34 0 0.68 0 0 Z " fill="#000000" transform="translate(25,60)"/>
<path d="M0 0 C0.66 0 1.32 0 2 0 C2 0.66 2 1.32 2 2 C1.34 2 0.68 2 0 2 C0 1.34 0 0.68 0 0 Z " fill="#000000" transform="translate(21,60)"/>
<path d="M0 0 C0.66 0 1.32 0 2 0 C2 0.66 2 1.32 2 2 C1.34 2 0.68 2 0 2 C0 1.34 0 0.68 0 0 Z " fill="#000000" transform="translate(51,56)"/>
<path d="M0 0 C0.66 0 1.32 0 2 0 C2 0.66 2 1.32 2 2 C1.34 2 0.68 2 0 2 C0 1.34 0 0.68 0 0 Z " fill="#000000" transform="translate(21,56)"/>
<path d="M0 0 C0.66 0 1.32 0 2 0 C2 0.66 2 1.32 2 2 C1.34 2 0.68 2 0 2 C0 1.34 0 0.68 0 0 Z " fill="#000000" transform="translate(21,52)"/>
<path d="M0 0 C0.66 0 1.32 0 2 0 C2 0.66 2 1.32 2 2 C1.34 2 0.68 2 0 2 C0 1.34 0 0.68 0 0 Z " fill="#000000" transform="translate(21,48)"/>
<path d="M0 0 C0.66 0 1.32 0 2 0 C2 0.66 2 1.32 2 2 C1.34 2 0.68 2 0 2 C0 1.34 0 0.68 0 0 Z " fill="#000000" transform="translate(21,44)"/>
<path d="M0 0 C0.66 0 1.32 0 2 0 C2 0.66 2 1.32 2 2 C1.34 2 0.68 2 0 2 C0 1.34 0 0.68 0 0 Z " fill="#000000" transform="translate(51,40)"/>
<path d="M0 0 C0.66 0 1.32 0 2 0 C2 0.66 2 1.32 2 2 C1.34 2 0.68 2 0 2 C0 1.34 0 0.68 0 0 Z " fill="#000000" transform="translate(21,40)"/>
<path d="M0 0 C0.66 0 1.32 0 2 0 C2 0.66 2 1.32 2 2 C1.34 2 0.68 2 0 2 C0 1.34 0 0.68 0 0 Z " fill="#000000" transform="translate(51,36)"/>
<path d="M0 0 C0.66 0 1.32 0 2 0 C2 0.66 2 1.32 2 2 C1.34 2 0.68 2 0 2 C0 1.34 0 0.68 0 0 Z " fill="#000000" transform="translate(41,36)"/>
<path d="M0 0 C0.66 0 1.32 0 2 0 C2 0.66 2 1.32 2 2 C1.34 2 0.68 2 0 2 C0 1.34 0 0.68 0 0 Z " fill="#000000" transform="translate(37,36)"/>
<path d="M0 0 C0.66 0 1.32 0 2 0 C2 0.66 2 1.32 2 2 C1.34 2 0.68 2 0 2 C0 1.34 0 0.68 0 0 Z " fill="#000000" transform="translate(33,36)"/>
<path d="M0 0 C0.66 0 1.32 0 2 0 C2 0.66 2 1.32 2 2 C1.34 2 0.68 2 0 2 C0 1.34 0 0.68 0 0 Z " fill="#000000" transform="translate(29,36)"/>
<path d="M0 0 C0.66 0 1.32 0 2 0 C2 0.66 2 1.32 2 2 C1.34 2 0.68 2 0 2 C0 1.34 0 0.68 0 0 Z " fill="#000000" transform="translate(25,36)"/>
<path d="M0 0 C0.66 0 1.32 0 2 0 C2 0.66 2 1.32 2 2 C1.34 2 0.68 2 0 2 C0 1.34 0 0.68 0 0 Z " fill="#000000" transform="translate(21,36)"/>
<path d="M0 0 C0.66 0 1.32 0 2 0 C2 0.66 2 1.32 2 2 C1.34 2 0.68 2 0 2 C0 1.34 0 0.68 0 0 Z " fill="#000000" transform="translate(51,32)"/>
<path d="M0 0 C0.66 0 1.32 0 2 0 C2 0.66 2 1.32 2 2 C1.34 2 0.68 2 0 2 C0 1.34 0 0.68 0 0 Z " fill="#000000" transform="translate(21,32)"/>
<path d="M0 0 C0.66 0 1.32 0 2 0 C2 0.66 2 1.32 2 2 C1.34 2 0.68 2 0 2 C0 1.34 0 0.68 0 0 Z " fill="#000000" transform="translate(15,22)"/>
<path d="M0 0 C0.66 0 1.32 0 2 0 C2 0.66 2 1.32 2 2 C1.34 2 0.68 2 0 2 C0 1.34 0 0.68 0 0 Z " fill="#000000" transform="translate(15,18)"/>
<path d="M0 0 C0.66 0 1.32 0 2 0 C2 0.66 2 1.32 2 2 C1.34 2 0.68 2 0 2 C0 1.34 0 0.68 0 0 Z " fill="#000000" transform="translate(15,14)"/>
</svg>
