<?xml version="1.0" encoding="UTF-8"?>
<!-- Generator: visioncortex VTracer 0.6.12 -->
<svg version="1.1" xmlns="http://www.w3.org/2000/svg" width="64" height="64">
<path d="M0 0 C0.5887985224350913 4.158945454541522 0.4721594641492146 8.331758195791934 0.446044921875 12.52880859375 C0.4376138636891227 14.597067610434305 0.46614428775198746 16.66248863707072 0.498046875 18.73046875 C0.4937764405470375 27.46777764076441 -0.03594426800769668 33.25019602714508 -5.75390625 40.1015625 C-18.98419435094395 51.245865651983024 -18.98419435094395 51.245865651983024 -26.0625 50.8125 C-27.031875 50.214375 -28.00125 49.61625 -29 49 C-29.770859375 48.5269140625 -30.54171875 48.053828125 -31.3359375 47.56640625 C-38.09883405428205 43.169508039783594 -44.923046890084976 37.69400478486131 -48 30 C-48.22705078125 26.7919921875 -48.22705078125 26.7919921875 -48.1953125 23.046875 C-48.19248260498047 22.38665344238281 -48.18965270996094 21.726431884765624 -48.186737060546875 21.04620361328125 C-48.175584146097066 18.947281033732224 -48.1504894607335 16.848792578132297 -48.125 14.75 C-48.114963840371374 13.322922850226021 -48.105839099656045 11.895838980014428 -48.09765625 10.46875 C-48.07566110847244 6.9790267218739395 -48.04116535841084 3.4895557668262054 -48 0 C-46.419254357694484 -0.8175230325664025 -44.835287766251085 -1.628819968949955 -43.25 -2.4375 C-42.368281249999995 -2.8899609374999997 -41.4865625 -3.3424218750000003 -40.578125 -3.80859375 C-28.454048385976154 -9.411386730723141 -10.840570119834965 -7.227046746556641 0 0 Z M-44 4 C-44.452089247371134 7.186726872580493 -44.32399889446815 10.409909106706458 -44.3125 13.625 C-44.32861328125 14.502851562499998 -44.3447265625 15.380703125 -44.361328125 16.28515625 C-44.36649991015938 23.24637907452817 -43.10928970978579 28.540764875951297 -39.4375 34.5625 C-35.719454926442616 38.280545073557384 -31.438314495434977 41.19472653931523 -27 44 C-26.67 44 -26.34 44 -26 44 C-26 42.02 -26 40.04 -26 38 C-24.68 38 -23.36 38 -22 38 C-22 39.98 -22 41.96 -22 44 C-15.52303552662125 41.15922610816722 -9.193730018184148 37.85533806841561 -6.150634765625 31.1201171875 C-3.9702847731183084 25.261842289260002 -3.511583403649098 19.836824754810138 -3.5625 13.625 C-3.542519531250001 12.7368359375 -3.5225390625000017 11.848671875 -3.501953125 10.93359375 C-3.5067340207293185 4.613249595850039 -3.5067340207293185 4.613249595850039 -5.58984375 2.0234375 C-11.746175480197344 -0.5907584697110266 -17.273408977086945 -1.3584604438304062 -23.875 -1.3125 C-24.271064453125 -1.3111303710937499 -24.271064453125 -1.3111303710937499 -26.275390625 -1.30419921875 C-32.729953497373145 -1.1886545747383828 -39.18867372037549 -0.8113262796245095 -44 4 Z " fill="#000000" transform="translate(56,10)"/>
<path d="M0 0 C2.9540970076519137 1.3715450392669624 5.440083759859391 2.9886372398895205 8 5 C11.875 3.125 11.875 3.125 13 2 C18.411764705882348 1.529411764705884 18.411764705882348 1.529411764705884 20.875 3.5 C21.246250000000003 3.9949999999999974 21.6175 4.490000000000002 22 5 C24.25162471767863 3.9546028096492094 26.145891609136136 2.8884358283076565 28.125 1.375 C30 0 30 0 32 0 C31.37498605148675 1.682729861381823 30.69822617494306 3.346306427766436 30 5 C29.7048046875 5.866250000000001 29.409609375000002 6.732500000000002 29.10546875 7.625 C26.573318871441458 10.481302645943586 25.76658840330375 10.442908440239698 22.0703125 10.76953125 C20.0889186991188 10.810754879414304 18.10678935504361 10.823977544527281 16.125 10.8125 C15.131132812499999 10.85697265625 14.137265624999998 10.901445312500002 13.11328125 10.947265625 C5.9938878354086285 10.971092242853388 5.9938878354086285 10.971092242853388 3.1904296875 8.23193359375 C1.4543755141520158 5.5287541039597485 0 3.2627067805237786 0 0 Z " fill="#000000" transform="translate(16,34)"/>
<path d="M0 0 C0.7734375 -0.016757812499999858 1.546875 -0.033515624999999716 2.34375 -0.05078125 C4.970158974515236 0.39171156635854487 5.835571027430461 1.2906455749876447 7.5 3.3125 C7.170000000000002 4.302500000000002 6.840000000000003 5.2925 6.5 6.3125 C5.509999999999998 5.6525 4.519999999999996 4.9925 3.5 4.3125 C0.3125 4.1875 0.3125 4.1875 -2.5 4.3125 C-3.1599999999999966 5.6325 -3.8200000000000003 6.952500000000001 -4.5 8.3125 C-5.82 8.3125 -7.140000000000001 8.3125 -8.5 8.3125 C-8.1875 5.4375 -8.1875 5.4375 -7.5 2.3125 C-4.4021905165935 0.24729367772899913 -3.5459518975355167 0.0177297594876773 0 0 Z " fill="#000000" transform="translate(42.5,13.6875)"/>
<path d="M0 0 C3.10951842940014 0.07915137820291207 3.980151351979906 0.27360594638593483 6.625 2.125 C8.125 4.375 8.125 4.375 8.125 8.375 C6.475000000000001 8.045000000000002 4.824999999999999 7.715 3.125 7.375 C2.7950000000000017 6.384999999999998 2.465 5.395 2.125 4.375 C-1.344415463189364 4.833224683817463 -4.548950486404557 5.266316828801521 -7.875 6.375 C-5.845079781742708 2.0251709608772295 -5.080986989658964 0.4917084183540936 0 0 Z " fill="#000000" transform="translate(21.875,13.625)"/>
<path d="M0 0 C2.6400000000000006 0 5.280000000000001 0 8 0 C8 1.3200000000000003 8 2.6400000000000006 8 4 C5.359999999999999 4 2.719999999999999 4 0 4 C0 2.6799999999999997 0 1.3599999999999994 0 0 Z " fill="#000000" transform="translate(39,22)"/>
<path d="M0 0 C2.6400000000000006 0 5.280000000000001 0 8 0 C8 1.3200000000000003 8 2.6400000000000006 8 4 C5.359999999999999 4 2.719999999999999 4 0 4 C0 2.6799999999999997 0 1.3599999999999994 0 0 Z " fill="#000000" transform="translate(17,22)"/>
</svg>
