<?xml version="1.0" encoding="UTF-8"?>
<!-- Generator: visioncortex VTracer 0.6.12 -->
<svg version="1.1" xmlns="http://www.w3.org/2000/svg" width="50" height="50">
<path d="M0 0 C4.775235471629664 4.536473698048178 6.7559015120074335 7.6750570572419505 7.0625 14.3125 C6.87380141803807 19.065345533166134 6.277557651266427 22.382387814430743 3.203125 26.06640625 C0.5577878638965501 28.098947398152877 -2.375185363465711 28.65820433094143 -5.55859375 29.5078125 C-6.199257812500001 29.793984375 -6.839921875000002 30.08015625 -7.5 30.375 C-8.75 33.75 -8.75 33.75 -9.5 37.375 C-12.557231748469057 40.90257509438737 -15.412824279613112 44.115985408436835 -20.20703125 44.7109375 C-30.795655014701072 44.84412773603398 -30.795655014701072 44.84412773603398 -35.5 40.375 C-39.092698789135504 36.59321180091 -39.82824743973052 33.508751372320376 -40.0625 28.4375 C-39.87357288739122 23.67889835116638 -39.27297288077873 20.366047670619736 -36.19921875 16.67578125 C-34.14650042818939 15.104389982958775 -32.37246089912574 14.631495007119888 -29.875 14 C-27.5 13.375 -27.5 13.375 -25.5 12.375 C-24.389081123970776 10.153162247941552 -23.877359418390487 8.00933111918302 -23.26953125 5.60546875 C-22.158070049001008 2.383923847612058 -20.596308207769077 0.9459824762499878 -17.7265625 -0.8125 C-11.809027327799427 -2.9718812558205596 -5.648680175212576 -2.622601509920125 0 0 Z " fill="#000000" transform="translate(41.5,3.625)"/>
</svg>
