<?xml version="1.0" encoding="UTF-8"?>
<!-- Generator: visioncortex VTracer 0.6.12 -->
<svg version="1.1" xmlns="http://www.w3.org/2000/svg" width="66" height="66">
<path d="M0 0 C0.474375000000002 0.13406249999999975 0.474375000000002 0.13406249999999975 2.875 0.8125 C4.261617407587565 3.5857348151751305 4.056232072906795 5.9277417870912785 4.12109375 9.02734375 C4.153964843750003 10.27064453125 4.1868359375 11.5139453125 4.220703125 12.794921875 C4.2818083878479385 15.4276486253632 4.339111749871499 18.060466414403933 4.392578125 20.693359375 C4.409658203124998 21.315654296875 4.409658203124998 21.315654296875 4.49609375 24.46484375 C4.521149902343751 25.60945068359375 4.546206054687502 26.7540576171875 4.572021484375 27.933349609375 C4.875 30.8125 4.875 30.8125 6.875 33.8125 C7.326612903225808 40.135080645161295 7.326612903225808 40.135080645161295 4.875 43.8125 C4.5364605199075 47.137900462680754 4.4330055229871945 50.44124501894752 4.31640625 53.78125 C3.875 56.81250000000001 3.875 56.81250000000001 2.53515625 58.73046875 C0.875 59.8125 0.875 59.8125 -2.25 59.625 C-3.1987500000000004 59.356875 -4.147500000000001 59.08875 -5.125 58.8125 C-6.938619779962892 55.18526044007422 -6.535913206234309 50.88128043447432 -6.74609375 46.87890625 C-7.125 43.8125 -7.125 43.8125 -9.125 40.8125 C-9.576612903225808 34.48991935483871 -9.576612903225808 34.48991935483871 -7.125 30.8125 C-6.853759765625 27.949218749999996 -6.853759765625 27.949218749999996 -6.81640625 24.5 C-6.791269531250002 23.259921875 -6.7661328125 22.01984375 -6.740234375 20.7421875 C-6.705078789253616 18.122445332528756 -6.673828580884646 15.502647844757501 -6.646484375 12.8828125 C-6.620058593749999 11.642734375 -6.593632812500001 10.40265625 -6.56640625 9.125 C-6.55295166015625 7.9867578125000005 -6.5394970703125 6.848515625000001 -6.525634765625 5.67578125 C-6.125 2.8125 -6.125 2.8125 -4.792724609375 0.90625 C-3.125 -0.1875 -3.125 -0.1875 0 0 Z M-2.125 2.8125 C-3.125 3.8125 -3.125 3.8125 -3.238525390625 6.220947265625 C-3.2332885742187507 7.263073730468751 -3.2280517578125014 8.3052001953125 -3.22265625 9.37890625 C-3.2194335937500007 10.50361328125 -3.2162109375000014 11.6283203125 -3.212890625 12.787109375 C-3.2045117187499983 13.971113281249998 -3.1961328125 15.1551171875 -3.1875 16.375 C-3.182988281250001 17.56287109375 -3.178476562500002 18.750742187500002 -3.173828125 19.974609375 C-3.1619967479522018 22.920622259901805 -3.1455128663669427 25.86653680714747 -3.125 28.8125 C-1.8049999999999997 28.8125 -0.48499999999999943 28.8125 0.875 28.8125 C0.875 20.5625 0.875 12.3125 0.875 3.8125 C-0.11500000000000199 3.4825 -1.105000000000004 3.1525 -2.125 2.8125 Z M-4.875 33 C-6.568161129739494 35.45508363812227 -6.563710203317722 36.88776531121518 -6.125 39.8125 C-4.9375 41.6875 -4.9375 41.6875 -3.125 42.8125 C0.21692692308668882 42.56796876172537 1.480435574440591 42.20706442555941 3.875 39.8125 C4.2446241260417 36.92943181687471 4.295039400251525 35.42155713036472 2.625 33 C-0.025860504319084043 31.201201800640618 -2.224139495680916 31.201201800640618 -4.875 33 Z M-3.125 45.8125 C-3.125 49.1125 -3.125 52.4125 -3.125 55.8125 C-1.8049999999999997 55.8125 -0.48499999999999943 55.8125 0.875 55.8125 C0.875 52.5125 0.875 49.2125 0.875 45.8125 C-0.4450000000000003 45.8125 -1.7650000000000006 45.8125 -3.125 45.8125 Z " fill="#000000" transform="translate(34.125,3.1875)"/>
<path d="M0 0 C1.9991947646104364 2.9987921469156547 2.912000248714641 5.590934112639209 4 9 C4.329999999999998 9.66 4.659999999999997 10.32 5 11 C5.258601352249627 15.051421185244273 5.304415538639873 16.543376692040187 3 20 C2.8071829376009063 22.63510507360904 2.72300018906391 25.173329256351106 2.7265625 27.80859375 C2.706275336659573 29.375658207559752 2.685424586257369 30.94271545209098 2.6640625 32.509765625 C2.6414532984098216 34.97638036805028 2.624987649942753 37.44271018039999 2.619140625 39.909423828125 C2.6096167880053542 42.293002131960975 2.5758462017771038 44.67530200842736 2.5390625 47.05859375 C2.5441079711914085 47.79411972045899 2.54915344238281 48.52964569091797 2.554351806640625 49.28746032714844 C2.487563466078555 52.76575349088532 2.2359748296427426 54.682783378052875 0.13427734375 57.508056640625 C-2 59 -2 59 -4.6875 58.8125 C-6.999999999999993 58.00000000000001 -6.999999999999993 58.00000000000001 -8 57 C-8.123144260156906 54.32132640290276 -8.186120016587346 51.664457822496715 -8.2109375 48.984375 C-8.239017334888224 47.32420908026364 -8.267681869242729 45.66405296619649 -8.296875 44.00390625 C-8.338074523824332 41.37939848828568 -8.374948953532929 38.75507156103373 -8.4013671875 36.13037109375 C-8.429039727917953 33.60215054763408 -8.474924240296176 31.074770193746176 -8.5234375 28.546875 C-8.526690368652346 27.76648864746094 -8.529943237304686 26.986102294921874 -8.533294677734375 26.18206787109375 C-8.637667429282189 21.537765945381352 -9.423223429214666 18.82505099258861 -12 15 C-11.782336331598593 11.299717637176073 -11.645089590211057 9.645089590211054 -9 7 C-8.670000000000002 5.824375 -8.340000000000003 4.64875 -8 3.4375 C-7.835000000000001 2.8703125 -7.835000000000001 2.8703125 -7 0 C-4.2758408446617935 -1.3620795776691041 -2.8722064311185065 -0.8616619293355519 0 0 Z M-4 2 C-4.329999999999998 3.3200000000000003 -4.659999999999997 4.640000000000001 -5 6 C-3.6799999999999997 6 -2.3599999999999994 6 -1 6 C-1.3299999999999983 4.68 -1.6599999999999966 3.3599999999999994 -2 2 C-2.6599999999999966 2 -3.3200000000000003 2 -4 2 Z M-4 8 C-5.649999999999999 9.65 -7.299999999999997 11.3 -9 13 C-7.125 17.875 -7.125 17.875 -6 19 C-3.2040342041367538 19.294312189038237 -1.5628718068423098 19.337723084105384 0.875 17.875 C2 16 2 16 2 12.9375 C1 10 1 10 -1.5625 8.625 C-2.3668750000000003 8.41875 -3.1712500000000006 8.2125 -4 8 Z M-5 22 C-5 32.89 -5 43.78 -5 55 C-4.009999999999998 55 -3.019999999999996 55 -2 55 C-1 54 -1 54 -0.886474609375 50.948974609375 C-0.8866336550193381 49.60008729367898 -0.8923238826085367 48.251193859537224 -0.90234375 46.90234375 C-0.9037586975097653 46.193485260009766 -0.9051736450195307 45.48462677001953 -0.9066314697265625 44.75428771972656 C-0.9122455741199929 42.48198287602797 -0.9248003703399164 40.20977524653946 -0.9375 37.9375 C-0.9425131874411008 36.40039204426888 -0.9470764079988783 34.86328254986056 -0.951171875 33.326171875 C-0.9622195758574179 29.550743581280443 -0.9794935874482746 25.77538829240744 -1 22 C-2.3200000000000003 22 -3.6400000000000006 22 -5 22 Z " fill="#000000" transform="translate(60,4)"/>
<path d="M0 0 C3.0625 1.125 3.0625 1.125 4.05078125 2.83984375 C4.565584387291429 4.257532389617932 5.0374733469672766 5.691428537753431 5.46875 7.13671875 C6.062499999999998 9.124999999999998 6.062499999999998 9.124999999999998 7.3125 11.25 C8.452287988551998 14.099469971379996 7.821359702386324 16.216037807519086 7.0625 19.125 C6.4025 19.785 5.7425 20.445 5.0625 21.125 C4.853353529724577 23.894543537976617 4.761388101045597 26.57226112044581 4.75390625 29.34375 C4.728753317586079 31.014326512383988 4.703355192352358 32.6848993478331 4.677734375 34.35546875 C4.648935667698254 36.99559639545744 4.624924401644337 39.635660349945184 4.606201171875 42.27587890625 C4.584619512786428 44.819668745634885 4.545193516600115 47.36271512220902 4.50390625 49.90625 C4.503790435791016 50.698983154296876 4.5036746215820305 51.49171630859375 4.5035552978515625 52.3084716796875 C4.463134765625 54.533203124999986 4.463134765625 54.533203124999986 4.0625 58.125 C1.0625000000000036 60.125 1.0625000000000036 60.125 -1.5 59.9375 C-3.9374999999999964 59.125 -3.9374999999999964 59.125 -5.9375 56.125 C-6.154192035747259 53.478998611113404 -6.262384688575882 50.92916206988746 -6.28125 48.28125 C-6.295872802734375 47.515748291015626 -6.31049560546875 46.75024658203125 -6.3255615234375 45.9615478515625 C-6.387794147386002 42.6879116196763 -6.427421270306102 39.41408700634231 -6.46923828125 36.14013671875 C-6.502976514675394 33.74947400940974 -6.5480868461409685 31.359209814829654 -6.59375 28.96875 C-6.5990270996093745 28.228062744140626 -6.60430419921875 27.48737548828125 -6.6097412109375 26.7242431640625 C-6.682170633517686 22.994236654069695 -6.815664063863993 21.30775390420401 -8.9375 18.125 C-9.277075626500475 14.050092481994305 -9.250824861590736 12.594987292386103 -6.9375 9.125 C-6.6075 7.949375 -6.2775 6.77375 -5.9375 5.5625 C-4.373457696827261 0.18610458284371223 -4.373457696827261 0.18610458284371223 0 0 Z M-1.9375 3.125 C-2.2675 4.445 -2.5975 5.765000000000001 -2.9375 7.125 C-1.6174999999999997 7.125 -0.29749999999999943 7.125 1.0625 7.125 C0.7324999999999999 5.805 0.40249999999999986 4.484999999999999 0.0625 3.125 C-0.5975000000000001 3.125 -1.2575000000000003 3.125 -1.9375 3.125 Z M-1.9375 9.125 C-4 10.8125 -4 10.8125 -5.9375 13.125 C-5.775997954572823 16.516542953970713 -5.354532427188337 17.70796757281166 -2.9375 20.125 C-0.4999999999999982 20.5 -0.4999999999999982 20.5 2.0625 20.125 C4 18.4375 4 18.4375 5.0625 16.125 C4.5625 13.5 4.5625 13.5 3.0625 11.125 C0.4375 9.8125 0.4375 9.8125 -1.9375 9.125 Z M-2.9375 23.125 C-2.9621885668472094 27.64566650177664 -2.9803544932094157 32.16629389814851 -2.992431640625 36.68701171875 C-2.9974655197383786 38.22543012907727 -3.0042930772541983 39.76384374541681 -3.012939453125 41.30224609375 C-3.02504638599551 43.51140525635717 -3.0307376888222564 45.72050125763019 -3.03515625 47.9296875 C-3.0403175354003906 48.619325866699214 -3.0454788208007813 49.30896423339844 -3.0507965087890625 50.019500732421875 C-3.0513717068033195 54.89725658639336 -3.0513717068033195 54.89725658639336 -1.9375 57.125 C-1.442499999999999 56.96 -1.442499999999999 56.96 1.0625 56.125 C1.0625 45.235 1.0625 34.345 1.0625 23.125 C-0.2575000000000003 23.125 -1.5775000000000006 23.125 -2.9375 23.125 Z " fill="#000000" transform="translate(9.9375,2.875)"/>
</svg>
