<?xml version="1.0" encoding="UTF-8"?>
<!-- Generator: visioncortex VTracer 0.6.12 -->
<svg version="1.1" xmlns="http://www.w3.org/2000/svg" width="80" height="80">
<path d="M0 0 C1.1579003906250023 -0.0031521606445306105 2.315800781250001 -0.006304321289062997 3.5087890625 -0.009552001953125 C4.769169921875001 -0.007527770996093253 6.029550781250002 -0.005503540039063282 7.328125 -0.00341796875 C8.611708984375 -0.0043746948242180395 9.895292968749999 -0.005331420898437855 11.2177734375 -0.006317138671875 C13.938163236040275 -0.007793777055077555 16.658520253629526 -0.005640659071371346 19.37890625 -0.0009765625 C22.872971691569163 0.0047207256646828455 26.366960328314043 0.0014415371704803448 29.86102294921875 -0.0045490264892578125 C33.183396528808856 -0.009023013567503568 36.50574923455558 -0.005894319001987114 39.828125 -0.00341796875 C41.088505859375 -0.005442199707031747 42.34888671875 -0.007466430664061718 43.6474609375 -0.009552001953125 C44.805361328125 -0.0063998413085943895 45.96326171875 -0.0032476806640620026 47.15625 0 C48.18137695312501 0.0007955932617189632 49.20650390624999 0.0015911865234379263 50.2626953125 0.002410888671875 C52.578125 0.12939453125 52.578125 0.12939453125 53.578125 1.12939453125 C53.67712061102367 2.9344882586203127 53.70611650692581 4.7434638096315656 53.70751953125 6.55126953125 C53.71067169189453 7.709169921875002 53.713823852539065 8.867070312500001 53.717071533203125 10.06005859375 C53.71504730224609 11.320439453125001 53.71302307128906 12.580820312500002 53.7109375 13.87939453125 C53.71189422607422 15.162978515625 53.71285095214844 16.4465625 53.713836669921875 17.76904296875 C53.71531330830507 20.489432767290275 53.713160190321375 23.209789784879526 53.70849609375 25.93017578125 C53.70279880558532 29.424241222819163 53.70607799407952 32.91822985956404 53.71206855773926 36.41229248046875 C53.716542544817514 39.734666060058856 53.71341385025198 43.05701876580558 53.7109375 46.37939453125 C53.71296173095703 47.639775390625 53.71498596191407 48.90015625 53.717071533203125 50.19873046875 C53.71549545288086 50.7776806640625 53.71549545288086 50.7776806640625 53.70751953125 53.70751953125 C53.70672393798827 54.73264648437501 53.70592834472657 55.75777343749999 53.705108642578125 56.81396484375 C53.578125 59.12939453125 53.578125 59.12939453125 52.578125 60.12939453125 C50.77303127262968 60.22839014227367 48.964055721618436 60.25738603817581 47.15625 60.2587890625 C45.998349609375 60.26194122314453 44.84044921875 60.265093383789065 43.6474609375 60.268341064453125 C43.0172705078125 60.26732894897461 43.0172705078125 60.26732894897461 39.828125 60.26220703125 C38.544541015625 60.26316375732422 37.26095703125 60.26412048339844 35.9384765625 60.265106201171875 C33.2180867639597 60.26658283955507 30.497729746370496 60.264429721571375 27.77734375 60.259765625 C24.283278308430837 60.25406833683532 20.789289671685957 60.25734752532952 17.29522705078125 60.26333808898926 C13.972853471191165 60.267812076067514 10.650500765444395 60.26468338150198 7.328125 60.26220703125 C6.067744140624999 60.26423126220703 4.807363281249998 60.26625549316407 3.5087890625 60.268341064453125 C2.3508886718749977 60.26518890380859 1.192988281249999 60.26203674316406 0 60.2587890625 C-1.0251269531249996 60.25799346923827 -2.050253906249999 60.25719787597657 -3.1064453125 60.256378173828125 C-5.4218749999999964 60.12939453125 -5.4218749999999964 60.12939453125 -6.421875 59.12939453125 C-6.520870611023669 57.32430080387968 -6.549866506925811 55.515325252868436 -6.55126953125 53.70751953125 C-6.554421691894531 52.549619140625 -6.557573852539063 51.39171875 -6.560821533203125 50.19873046875 C-6.558797302246093 48.938349609375 -6.556773071289063 47.67796875 -6.5546875 46.37939453125 C-6.555165863037109 45.7376025390625 -6.555165863037109 45.7376025390625 -6.557586669921875 42.48974609375 C-6.5590633083050776 39.7693562952097 -6.556910190321371 37.048999277620496 -6.55224609375 34.32861328125 C-6.546548805585317 30.834547839680837 -6.54982799407952 27.340559202935957 -6.555818557739258 23.84649658203125 C-6.560292544817504 20.524123002441165 -6.557163850251987 17.201770296694395 -6.5546875 13.87939453125 C-6.556711730957032 12.619013671874999 -6.558735961914062 11.358632812499998 -6.560821533203125 10.06005859375 C-6.557669372558594 8.902158203124998 -6.554517211914062 7.744257812499999 -6.55126953125 6.55126953125 C-6.550871734619141 6.0387060546875 -6.550871734619141 6.0387060546875 -6.548858642578125 3.44482421875 C-6.30718569212306 -0.9618592940898694 -3.8465940366446425 0.002985312489144576 0 0 Z M-4.421875 4.12939453125 C-4.67584228515625 6.33056640625 -4.67584228515625 6.33056640625 -4.6806640625 9.09814453125 C-4.686968383789063 10.1326171875 -4.693272705078126 11.167089843749999 -4.69976806640625 12.23291015625 C-4.6957196044921865 13.353749999999998 -4.691671142578125 14.47458984375 -4.6875 15.62939453125 C-4.689413452148438 16.776015625 -4.691326904296876 17.92263671875 -4.69329833984375 19.10400390625 C-4.69466121593087 21.53174050943834 -4.690957672321568 23.959484372418345 -4.6826171875 26.38720703125 C-4.671919376829518 30.113935257549265 -4.682509310023839 33.84018138741963 -4.6953125 37.56689453125 C-4.6939909238008575 39.92106226732252 -4.691428570453244 42.2752297021731 -4.6875 44.62939453125 C-4.6915484619140635 45.750234375 -4.695596923828125 46.87107421875 -4.69976806640625 48.02587890625 C-4.693463745117187 49.0603515625 -4.687159423828124 50.09482421875 -4.6806640625 51.16064453125 C-4.679072875976562 52.0739453125 -4.677481689453124 52.98724609375 -4.67584228515625 53.92822265625 C-4.421875 56.12939453125 -4.421875 56.12939453125 -2.421875 58.12939453125 C-0.22070312499999645 58.38336181640625 -0.22070312499999645 58.38336181640625 2.546875 58.38818359375 C3.0641113281250014 58.39133575439453 3.0641113281250014 58.39133575439453 5.681640625 58.40728759765625 C6.802480468749998 58.40323913574218 7.9233203125 58.399190673828116 9.078125 58.39501953125 C10.22474609375 58.39693298339844 11.371367187499999 58.39884643554687 12.552734375 58.40081787109375 C14.98047097818834 58.402180747180864 17.408214841168345 58.39847720357156 19.8359375 58.39013671875 C23.562665726299265 58.37943890807952 27.288911856169626 58.390028841273846 31.015625 58.40283203125 C33.36979273607252 58.40151045505087 35.7239601709231 58.39894810170324 38.078125 58.39501953125 C38.638544921874995 58.39704376220703 38.638544921874995 58.39704376220703 41.474609375 58.40728759765625 C41.991845703125 58.40413543701172 41.991845703125 58.40413543701172 44.609375 58.38818359375 C45.52267578125 58.38659240722657 46.4359765625 58.38500122070312 47.376953125 58.38336181640625 C49.578125 58.12939453125 49.578125 58.12939453125 51.578125 56.12939453125 C51.83209228515625 53.92822265624999 51.83209228515625 53.92822265624999 51.8369140625 51.16064453125 C51.843218383789065 50.126171875 51.84952270507813 49.09169921875 51.85601806640625 48.02587890625 C51.85196960449218 46.9050390625 51.847921142578116 45.78419921875 51.84375 44.62939453125 C51.84566345214844 43.4827734375 51.84757690429687 42.33615234375 51.84954833984375 41.15478515625 C51.850911215930864 38.727048553061664 51.84720767232156 36.299304690081655 51.8388671875 33.87158203125 C51.82816937682952 30.144853804950742 51.838759310023846 26.418607675080366 51.8515625 22.69189453125 C51.85024092380087 20.337726795177478 51.84767857045324 17.9835593603269 51.84375 15.62939453125 C51.84779846191407 14.508554687500002 51.851846923828134 13.38771484375 51.85601806640625 12.23291015625 C51.849713745117185 11.1984375 51.84340942382812 10.163964843750001 51.8369140625 9.09814453125 C51.83532287597657 8.184843749999999 51.83373168945312 7.271542968749998 51.83209228515625 6.33056640625 C51.578125 4.12939453125 51.578125 4.12939453125 49.578125 2.12939453125 C47.376953125 1.87542724609375 47.376953125 1.87542724609375 44.609375 1.87060546875 C43.57490234375 1.864301147460937 42.5404296875 1.857996826171874 41.474609375 1.85150146484375 C40.35376953125 1.8555499267578135 39.2329296875 1.8595983886718752 38.078125 1.86376953125 C36.93150390625 1.8618560791015621 35.7848828125 1.8599426269531243 34.603515625 1.85797119140625 C32.175779021811664 1.8566083153191304 29.748035158831655 1.8603118589284318 27.3203125 1.86865234375 C23.593584273700742 1.8793501544204823 19.867338143830366 1.868760221226161 16.140625 1.85595703125 C13.786457263927478 1.8572786074491425 11.4322898290769 1.859840960796756 9.078125 1.86376953125 C8.517705078125001 1.8617453002929683 8.517705078125001 1.8617453002929683 5.681640625 1.85150146484375 C4.647167968750001 1.857805786132813 3.6126953125000014 1.864110107421876 2.546875 1.87060546875 C2.0902246093749994 1.871401062011719 2.0902246093749994 1.871401062011719 -0.220703125 1.87542724609375 C-2.421875 2.12939453125 -2.421875 2.12939453125 -4.421875 4.12939453125 Z " fill="#000000" transform="translate(16.421875,9.87060546875)"/>
<path d="M0 0 C0.37511718750000256 0.0019335937499995737 0.37511718750000256 0.0019335937499995737 2.2734375 0.01171875 C3.023671874999998 0.007851562500000853 3.773906249999996 0.003984375000001705 4.546875 0 C10.146826966546115 0.010108216546111493 10.146826966546115 0.010108216546111493 11.2734375 1.13671875 C11.373187821865471 3.648079794612933 11.412259330386462 6.125752896458636 11.3984375 8.63671875 C11.400371093749996 8.987988281249997 11.400371093749996 8.987988281249997 11.41015625 10.765625 C11.400051278957534 16.010104971042466 11.400051278957534 16.010104971042466 10.2734375 17.13671875 C7.596123702006722 17.236530887205888 4.950395754586808 17.275517503889624 2.2734375 17.26171875 C1.8983203125000045 17.263652343749996 1.8983203125000045 17.263652343749996 0 17.2734375 C-5.599951966546115 17.263329283453885 -5.599951966546115 17.263329283453885 -6.7265625 16.13671875 C-6.826312821865468 13.625357705387046 -6.8653843303864655 11.147684603541371 -6.8515625 8.63671875 C-6.855429687499999 7.934179687499999 -6.859296874999998 7.231640624999997 -6.86328125 6.5078125 C-6.850834590207974 0.04799606793827493 -6.423015015189929 0.011593889919115696 0 0 Z " fill="#000000" transform="translate(37.7265625,30.86328125)"/>
<path d="M0 0 C0.6599999999999966 0 1.3200000000000003 0 2 0 C2 0.6599999999999966 2 1.3200000000000003 2 2 C1.3400000000000034 2 0.6799999999999997 2 0 2 C0 1.3400000000000034 0 0.6799999999999997 0 0 Z " fill="#000000" transform="translate(59,59)"/>
<path d="M0 0 C0.6599999999999966 0 1.3200000000000003 0 2 0 C2 0.6599999999999966 2 1.3200000000000003 2 2 C1.3400000000000034 2 0.6799999999999997 2 0 2 C0 1.3400000000000034 0 0.6799999999999997 0 0 Z " fill="#000000" transform="translate(55,59)"/>
<path d="M0 0 C0.6599999999999966 0 1.3200000000000003 0 2 0 C2 0.6599999999999966 2 1.3200000000000003 2 2 C1.3400000000000034 2 0.6799999999999997 2 0 2 C0 1.3400000000000034 0 0.6799999999999997 0 0 Z " fill="#000000" transform="translate(51,59)"/>
<path d="M0 0 C0.6599999999999966 0 1.3200000000000003 0 2 0 C2 0.6599999999999966 2 1.3200000000000003 2 2 C1.3400000000000034 2 0.6799999999999997 2 0 2 C0 1.3400000000000034 0 0.6799999999999997 0 0 Z " fill="#000000" transform="translate(47,59)"/>
<path d="M0 0 C0.6599999999999966 0 1.3200000000000003 0 2 0 C2 0.6599999999999966 2 1.3200000000000003 2 2 C1.3400000000000034 2 0.6799999999999997 2 0 2 C0 1.3400000000000034 0 0.6799999999999997 0 0 Z " fill="#000000" transform="translate(43,59)"/>
<path d="M0 0 C0.6599999999999966 0 1.3200000000000003 0 2 0 C2 0.6599999999999966 2 1.3200000000000003 2 2 C1.3400000000000034 2 0.6799999999999997 2 0 2 C0 1.3400000000000034 0 0.6799999999999997 0 0 Z " fill="#000000" transform="translate(39,59)"/>
<path d="M0 0 C0.6599999999999966 0 1.3200000000000003 0 2 0 C2 0.6599999999999966 2 1.3200000000000003 2 2 C1.3400000000000034 2 0.6799999999999997 2 0 2 C0 1.3400000000000034 0 0.6799999999999997 0 0 Z " fill="#000000" transform="translate(35,59)"/>
<path d="M0 0 C0.6600000000000001 0 1.3200000000000003 0 2 0 C2 0.6599999999999966 2 1.3200000000000003 2 2 C1.3400000000000034 2 0.6799999999999997 2 0 2 C0 1.3400000000000034 0 0.6799999999999997 0 0 Z " fill="#000000" transform="translate(31,59)"/>
<path d="M0 0 C0.6600000000000001 0 1.3200000000000003 0 2 0 C2 0.6599999999999966 2 1.3200000000000003 2 2 C1.3399999999999999 2 0.6799999999999997 2 0 2 C0 1.3400000000000034 0 0.6799999999999997 0 0 Z " fill="#000000" transform="translate(27,59)"/>
<path d="M0 0 C0.6600000000000001 0 1.3200000000000003 0 2 0 C2 0.6599999999999966 2 1.3200000000000003 2 2 C1.3399999999999999 2 0.6799999999999997 2 0 2 C0 1.3400000000000034 0 0.6799999999999997 0 0 Z " fill="#000000" transform="translate(23,59)"/>
<path d="M0 0 C0.6600000000000001 0 1.3200000000000003 0 2 0 C2 0.6599999999999966 2 1.3200000000000003 2 2 C1.3399999999999999 2 0.6799999999999997 2 0 2 C0 1.3400000000000034 0 0.6799999999999997 0 0 Z " fill="#000000" transform="translate(19,59)"/>
<path d="M0 0 C0.6599999999999966 0 1.3200000000000003 0 2 0 C2 0.6599999999999966 2 1.3200000000000003 2 2 C1.3400000000000034 2 0.6799999999999997 2 0 2 C0 1.3400000000000034 0 0.6799999999999997 0 0 Z " fill="#000000" transform="translate(59,55)"/>
<path d="M0 0 C0.6600000000000001 0 1.3200000000000003 0 2 0 C2 0.6599999999999966 2 1.3200000000000003 2 2 C1.3399999999999999 2 0.6799999999999997 2 0 2 C0 1.3400000000000034 0 0.6799999999999997 0 0 Z " fill="#000000" transform="translate(19,55)"/>
<path d="M0 0 C0.6599999999999966 0 1.3200000000000003 0 2 0 C2 0.6599999999999966 2 1.3200000000000003 2 2 C1.3400000000000034 2 0.6799999999999997 2 0 2 C0 1.3400000000000034 0 0.6799999999999997 0 0 Z " fill="#000000" transform="translate(59,51)"/>
<path d="M0 0 C0.6600000000000001 0 1.3200000000000003 0 2 0 C2 0.6599999999999966 2 1.3200000000000003 2 2 C1.3399999999999999 2 0.6799999999999997 2 0 2 C0 1.3400000000000034 0 0.6799999999999997 0 0 Z " fill="#000000" transform="translate(19,51)"/>
<path d="M0 0 C0.6599999999999966 0 1.3200000000000003 0 2 0 C2 0.6599999999999966 2 1.3200000000000003 2 2 C1.3400000000000034 2 0.6799999999999997 2 0 2 C0 1.3400000000000034 0 0.6799999999999997 0 0 Z " fill="#000000" transform="translate(59,47)"/>
<path d="M0 0 C0.6600000000000001 0 1.3200000000000003 0 2 0 C2 0.6599999999999966 2 1.3200000000000003 2 2 C1.3399999999999999 2 0.6799999999999997 2 0 2 C0 1.3400000000000034 0 0.6799999999999997 0 0 Z " fill="#000000" transform="translate(19,47)"/>
<path d="M0 0 C0.6599999999999966 0 1.3200000000000003 0 2 0 C2 0.6599999999999966 2 1.3200000000000003 2 2 C1.3400000000000034 2 0.6799999999999997 2 0 2 C0 1.3400000000000034 0 0.6799999999999997 0 0 Z " fill="#000000" transform="translate(59,43)"/>
<path d="M0 0 C0.6600000000000001 0 1.3200000000000003 0 2 0 C2 0.6599999999999966 2 1.3200000000000003 2 2 C1.3399999999999999 2 0.6799999999999997 2 0 2 C0 1.3400000000000034 0 0.6799999999999997 0 0 Z " fill="#000000" transform="translate(19,43)"/>
<path d="M0 0 C0.6599999999999966 0 1.3200000000000003 0 2 0 C2 0.6599999999999966 2 1.3200000000000003 2 2 C1.3400000000000034 2 0.6799999999999997 2 0 2 C0 1.3400000000000034 0 0.6799999999999997 0 0 Z " fill="#000000" transform="translate(59,39)"/>
<path d="M0 0 C0.6600000000000001 0 1.3200000000000003 0 2 0 C2 0.6599999999999966 2 1.3200000000000003 2 2 C1.3399999999999999 2 0.6799999999999997 2 0 2 C0 1.3400000000000034 0 0.6799999999999997 0 0 Z " fill="#000000" transform="translate(19,39)"/>
<path d="M0 0 C0.6599999999999966 0 1.3200000000000003 0 2 0 C2 0.6599999999999966 2 1.3200000000000003 2 2 C1.3400000000000034 2 0.6799999999999997 2 0 2 C0 1.3400000000000034 0 0.6799999999999997 0 0 Z " fill="#000000" transform="translate(59,35)"/>
<path d="M0 0 C0.6600000000000001 0 1.3200000000000003 0 2 0 C2 0.6599999999999966 2 1.3200000000000003 2 2 C1.3399999999999999 2 0.6799999999999997 2 0 2 C0 1.3400000000000034 0 0.6799999999999997 0 0 Z " fill="#000000" transform="translate(19,35)"/>
<path d="M0 0 C0.6599999999999966 0 1.3200000000000003 0 2 0 C2 0.6600000000000001 2 1.3200000000000003 2 2 C1.3400000000000034 2 0.6799999999999997 2 0 2 C0 1.3400000000000034 0 0.6799999999999997 0 0 Z " fill="#000000" transform="translate(59,31)"/>
<path d="M0 0 C0.6600000000000001 0 1.3200000000000003 0 2 0 C2 0.6600000000000001 2 1.3200000000000003 2 2 C1.3399999999999999 2 0.6799999999999997 2 0 2 C0 1.3400000000000034 0 0.6799999999999997 0 0 Z " fill="#000000" transform="translate(19,31)"/>
<path d="M0 0 C0.6599999999999966 0 1.3200000000000003 0 2 0 C2 0.6600000000000001 2 1.3200000000000003 2 2 C1.3400000000000034 2 0.6799999999999997 2 0 2 C0 1.3399999999999999 0 0.6799999999999997 0 0 Z " fill="#000000" transform="translate(59,27)"/>
<path d="M0 0 C0.6600000000000001 0 1.3200000000000003 0 2 0 C2 0.6600000000000001 2 1.3200000000000003 2 2 C1.3399999999999999 2 0.6799999999999997 2 0 2 C0 1.3399999999999999 0 0.6799999999999997 0 0 Z " fill="#000000" transform="translate(19,27)"/>
<path d="M0 0 C0.6599999999999966 0 1.3200000000000003 0 2 0 C2 0.6600000000000001 2 1.3200000000000003 2 2 C1.3400000000000034 2 0.6799999999999997 2 0 2 C0 1.3399999999999999 0 0.6799999999999997 0 0 Z " fill="#000000" transform="translate(59,23)"/>
<path d="M0 0 C0.6600000000000001 0 1.3200000000000003 0 2 0 C2 0.6600000000000001 2 1.3200000000000003 2 2 C1.3399999999999999 2 0.6799999999999997 2 0 2 C0 1.3399999999999999 0 0.6799999999999997 0 0 Z " fill="#000000" transform="translate(19,23)"/>
<path d="M0 0 C0.6599999999999966 0 1.3200000000000003 0 2 0 C2 0.6600000000000001 2 1.3200000000000003 2 2 C1.3400000000000034 2 0.6799999999999997 2 0 2 C0 1.3399999999999999 0 0.6799999999999997 0 0 Z " fill="#000000" transform="translate(59,19)"/>
<path d="M0 0 C0.6599999999999966 0 1.3200000000000003 0 2 0 C2 0.6600000000000001 2 1.3200000000000003 2 2 C1.3400000000000034 2 0.6799999999999997 2 0 2 C0 1.3399999999999999 0 0.6799999999999997 0 0 Z " fill="#000000" transform="translate(55,19)"/>
<path d="M0 0 C0.6599999999999966 0 1.3200000000000003 0 2 0 C2 0.6600000000000001 2 1.3200000000000003 2 2 C1.3400000000000034 2 0.6799999999999997 2 0 2 C0 1.3399999999999999 0 0.6799999999999997 0 0 Z " fill="#000000" transform="translate(51,19)"/>
<path d="M0 0 C0.6599999999999966 0 1.3200000000000003 0 2 0 C2 0.6600000000000001 2 1.3200000000000003 2 2 C1.3400000000000034 2 0.6799999999999997 2 0 2 C0 1.3399999999999999 0 0.6799999999999997 0 0 Z " fill="#000000" transform="translate(47,19)"/>
<path d="M0 0 C0.6599999999999966 0 1.3200000000000003 0 2 0 C2 0.6600000000000001 2 1.3200000000000003 2 2 C1.3400000000000034 2 0.6799999999999997 2 0 2 C0 1.3399999999999999 0 0.6799999999999997 0 0 Z " fill="#000000" transform="translate(43,19)"/>
<path d="M0 0 C0.6599999999999966 0 1.3200000000000003 0 2 0 C2 0.6600000000000001 2 1.3200000000000003 2 2 C1.3400000000000034 2 0.6799999999999997 2 0 2 C0 1.3399999999999999 0 0.6799999999999997 0 0 Z " fill="#000000" transform="translate(39,19)"/>
<path d="M0 0 C0.6599999999999966 0 1.3200000000000003 0 2 0 C2 0.6600000000000001 2 1.3200000000000003 2 2 C1.3400000000000034 2 0.6799999999999997 2 0 2 C0 1.3399999999999999 0 0.6799999999999997 0 0 Z " fill="#000000" transform="translate(35,19)"/>
<path d="M0 0 C0.6600000000000001 0 1.3200000000000003 0 2 0 C2 0.6600000000000001 2 1.3200000000000003 2 2 C1.3400000000000034 2 0.6799999999999997 2 0 2 C0 1.3399999999999999 0 0.6799999999999997 0 0 Z " fill="#000000" transform="translate(31,19)"/>
<path d="M0 0 C0.6600000000000001 0 1.3200000000000003 0 2 0 C2 0.6600000000000001 2 1.3200000000000003 2 2 C1.3399999999999999 2 0.6799999999999997 2 0 2 C0 1.3399999999999999 0 0.6799999999999997 0 0 Z " fill="#000000" transform="translate(27,19)"/>
<path d="M0 0 C0.6600000000000001 0 1.3200000000000003 0 2 0 C2 0.6600000000000001 2 1.3200000000000003 2 2 C1.3399999999999999 2 0.6799999999999997 2 0 2 C0 1.3399999999999999 0 0.6799999999999997 0 0 Z " fill="#000000" transform="translate(23,19)"/>
<path d="M0 0 C0.6600000000000001 0 1.3200000000000003 0 2 0 C2 0.6600000000000001 2 1.3200000000000003 2 2 C1.3399999999999999 2 0.6799999999999997 2 0 2 C0 1.3399999999999999 0 0.6799999999999997 0 0 Z " fill="#000000" transform="translate(19,19)"/>
</svg>
