<?xml version="1.0" encoding="UTF-8"?>
<svg version="1.1" xmlns="http://www.w3.org/2000/svg" width="64" height="64">
<path d="M0 0 C4.55555556 0.55555556 4.55555556 0.55555556 6 2 C6.11353016 4.93365746 6.16418708 7.84288462 6.16796875 10.77734375 C6.17129715 11.65902725 6.17462555 12.54071075 6.17805481 13.44911194 C6.18312783 15.31787594 6.18546302 17.18664904 6.18530273 19.05541992 C6.18748808 21.92186344 6.20563655 24.7879216 6.22460938 27.65429688 C6.22754339 29.46614451 6.22952813 31.27799398 6.23046875 33.08984375 C6.23765427 33.9513353 6.24483978 34.81282684 6.25224304 35.70042419 C6.2288216 41.7711784 6.2288216 41.7711784 4 44 C-0.55555556 43.44444444 -0.55555556 43.44444444 -2 42 C-2.11353016 39.06634254 -2.16418708 36.15711538 -2.16796875 33.22265625 C-2.17129715 32.34097275 -2.17462555 31.45928925 -2.17805481 30.55088806 C-2.18312783 28.68212406 -2.18546302 26.81335096 -2.18530273 24.94458008 C-2.18748808 22.07813656 -2.20563655 19.2120784 -2.22460938 16.34570312 C-2.22754339 14.53385549 -2.22952813 12.72200602 -2.23046875 10.91015625 C-2.23765427 10.0486647 -2.24483978 9.18717316 -2.25224304 8.29957581 C-2.2288216 2.2288216 -2.2288216 2.2288216 0 0 Z " fill="#000000" transform="translate(39,10)"/>
<path d="M0 0 C4.55555556 0.55555556 4.55555556 0.55555556 6 2 C6.11353016 4.93365746 6.16418708 7.84288462 6.16796875 10.77734375 C6.17129715 11.65902725 6.17462555 12.54071075 6.17805481 13.44911194 C6.18312783 15.31787594 6.18546302 17.18664904 6.18530273 19.05541992 C6.18748808 21.92186344 6.20563655 24.7879216 6.22460938 27.65429688 C6.22754339 29.46614451 6.22952813 31.27799398 6.23046875 33.08984375 C6.23765427 33.9513353 6.24483978 34.81282684 6.25224304 35.70042419 C6.2288216 41.7711784 6.2288216 41.7711784 4 44 C-0.55555556 43.44444444 -0.55555556 43.44444444 -2 42 C-2.11353016 39.06634254 -2.16418708 36.15711538 -2.16796875 33.22265625 C-2.17129715 32.34097275 -2.17462555 31.45928925 -2.17805481 30.55088806 C-2.18312783 28.68212406 -2.18546302 26.81335096 -2.18530273 24.94458008 C-2.18748808 22.07813656 -2.20563655 19.2120784 -2.22460938 16.34570312 C-2.22754339 14.53385549 -2.22952813 12.72200602 -2.23046875 10.91015625 C-2.23765427 10.0486647 -2.24483978 9.18717316 -2.25224304 8.29957581 C-2.2288216 2.2288216 -2.2288216 2.2288216 0 0 Z " fill="#000000" transform="translate(21,10)"/>
</svg>
