<?xml version="1.0" encoding="UTF-8"?>
<!-- Generator: visioncortex VTracer 0.6.12 -->
<svg version="1.1" xmlns="http://www.w3.org/2000/svg" width="80" height="80">
<path d="M0 0 C1.1145556640625003 -0.006304321289062997 2.2291113281250006 -0.012608642578124218 3.37744140625 -0.01910400390625 C4.585776367187499 -0.015055541992188282 5.794111328124998 -0.011007080078124787 7.0390625 -0.0068359375 C7.65676513671875 -0.0077926635742180395 7.65676513671875 -0.0077926635742180395 10.78271484375 -0.01263427734375 C14.069976569308867 -0.014347041600151655 17.35705037294786 -0.006277928208131556 20.644287109375 0.0048828125 C22.66200779631602 0.008785088698605392 24.67955451058738 0.004897355320547803 26.697265625 -0.001953125 C30.561280784005298 -0.014270976168972993 34.425036778532345 -0.012820717132505877 38.2890625 -0.0068359375 C39.4973974609375 -0.010884399414061718 40.705732421875 -0.014932861328125213 41.95068359375 -0.01910400390625 C43.0652392578125 -0.012799682617187003 44.179794921875 -0.006495361328125782 45.328125 0 C45.82030517578125 0.0007955932617189632 45.82030517578125 0.0007955932617189632 48.31103515625 0.00482177734375 C50.6640625 0.2587890625 50.6640625 0.2587890625 52.6640625 2.2587890625 C52.91802978515625 4.611816406249995 52.91802978515625 4.611816406249995 52.9228515625 7.5947265625 C52.929155883789065 8.7092822265625 52.93546020507813 9.823837890625 52.94195556640625 10.97216796875 C52.93790710449218 12.1805029296875 52.933858642578116 13.388837890624998 52.9296875 14.6337890625 C52.93064422607422 15.25149169921875 52.93064422607422 15.25149169921875 52.93548583984375 18.37744140625 C52.93719860410016 21.664703131808867 52.929129490708135 24.951776935447867 52.91796875 28.239013671875 C52.9140664738014 30.25673435881602 52.91795420717946 32.27428107308738 52.9248046875 34.2919921875 C52.93712253866897 38.1560073465053 52.93567227963251 42.019763341032345 52.9296875 45.8837890625 C52.93373596191407 47.0921240234375 52.937784423828134 48.300458984375 52.94195556640625 49.54541015625 C52.935651245117185 50.6599658203125 52.92934692382812 51.774521484375 52.9228515625 52.9228515625 C52.92126037597657 53.9072119140625 52.91966918945312 54.891572265625 52.91802978515625 55.90576171875 C52.6640625 58.2587890625 52.6640625 58.2587890625 50.6640625 60.2587890625 C48.31103515625 60.51275634765625 48.31103515625 60.51275634765625 45.328125 60.517578125 C44.2135693359375 60.523882446289065 43.099013671875 60.53018676757813 41.95068359375 60.53668212890625 C40.7423486328125 60.53263366699218 39.534013671875 60.528585205078116 38.2890625 60.5244140625 C37.67135986328125 60.52537078857422 37.67135986328125 60.52537078857422 34.54541015625 60.53021240234375 C31.2581484306911 60.53192516660016 27.971074627052133 60.523856053208135 24.683837890625 60.5126953125 C22.666117203683996 60.5087930363014 20.64857048941262 60.51268076967946 18.630859375 60.51953125 C14.766844215994652 60.53184910116897 10.903088221467687 60.53039884213251 7.0390625 60.5244140625 C5.830727539062501 60.52846252441407 4.622392578125002 60.532510986328134 3.37744140625 60.53668212890625 C2.82016357421875 60.53352996826172 2.82016357421875 60.53352996826172 0 60.517578125 C-0.9843603515625006 60.51598693847657 -1.9687207031250011 60.51439575195312 -2.98291015625 60.51275634765625 C-5.335937499999998 60.2587890625 -5.335937499999998 60.2587890625 -7.3359375 58.2587890625 C-7.58990478515625 55.90576171875 -7.58990478515625 55.90576171875 -7.5947265625 52.9228515625 C-7.601030883789063 51.8082958984375 -7.607335205078124 50.693740234375 -7.61383056640625 49.54541015625 C-7.609782104492188 48.3370751953125 -7.605733642578125 47.128740234375 -7.6015625 45.8837890625 C-7.603475952148438 44.6483837890625 -7.605389404296876 43.412978515625 -7.60736083984375 42.14013671875 C-7.609073604100152 38.8528749931911 -7.6010044907081316 35.56580118955213 -7.58984375 32.278564453125 C-7.585941473801395 30.260843766183996 -7.589829207179452 28.24329705191262 -7.5966796875 26.2255859375 C-7.608997538668973 22.361570778494652 -7.607547279632506 18.497814783967687 -7.6015625 14.6337890625 C-7.605610961914062 13.4254541015625 -7.609659423828125 12.217119140625002 -7.61383056640625 10.97216796875 C-7.607526245117187 9.8576123046875 -7.601221923828126 8.743056640625 -7.5947265625 7.5947265625 C-7.593135375976562 6.610366210937499 -7.591544189453124 5.626005859374999 -7.58990478515625 4.61181640625 C-7.064804892392374 -0.25327637573340667 -4.161188596233991 0.006726426156131282 0 0 Z M-4.116851806640625 3.477874755859375 C-5.719894338541385 5.8196964955177375 -5.716383053930819 7.312809284298197 -5.72412109375 10.1416015625 C-5.733577575683594 11.1327294921875 -5.743034057617187 12.123857421875002 -5.752777099609375 13.14501953125 C-5.7467044067382815 14.2138134765625 -5.740631713867188 15.282607421875 -5.734375 16.3837890625 C-5.737245178222656 17.4822314453125 -5.740115356445312 18.580673828125 -5.743072509765625 19.71240234375 C-5.745114859607847 22.035812531935594 -5.739573130098023 24.359239847389958 -5.72705078125 26.6826171875 C-5.711000277857893 30.244856182766284 -5.726894476953563 33.80596047880703 -5.74609375 37.3681640625 C-5.744111349502241 39.62337490754608 -5.7402677419046455 41.87858504487365 -5.734375 44.1337890625 C-5.7404476928710935 45.2025830078125 -5.746520385742187 46.271376953125 -5.752777099609375 47.37255859375 C-5.743320617675781 48.3636865234375 -5.733864135742188 49.354814453125 -5.72412109375 50.3759765625 C-5.721734313964843 51.2485107421875 -5.719347534179688 52.121044921875 -5.716888427734375 53.02001953125 C-5.3359375 55.2587890625 -5.3359375 55.2587890625 -4.116851806640625 57.039703369140625 C-1.775030066982259 58.642745901041394 -0.28191727820180645 58.63923461643083 2.546875 58.64697265625 C3.538002929687501 58.6564291381836 4.529130859375002 58.665885620117194 5.55029296875 58.675628662109375 C6.6190869140625 58.669555969238274 7.687880859374999 58.66348327636719 8.7890625 58.6572265625 C9.33828369140625 58.658661651611325 9.33828369140625 58.658661651611325 12.11767578125 58.665924072265625 C14.441085969435594 58.66796642210784 16.764513284889958 58.66242469259802 19.087890625 58.64990234375 C22.650129620266284 58.63385184035789 26.21123391630703 58.64974603945356 29.7734375 58.6689453125 C32.02864834504608 58.66696291200225 34.28385848237365 58.663119304404646 36.5390625 58.6572265625 C37.6078564453125 58.6632992553711 38.676650390625 58.66937194824219 39.77783203125 58.675628662109375 C40.7689599609375 58.66617218017578 41.760087890625 58.65671569824218 42.78125 58.64697265625 C43.6537841796875 58.644585876464845 44.526318359375 58.64219909667969 45.42529296875 58.639739990234375 C47.6640625 58.2587890625 47.6640625 58.2587890625 49.444976806640625 57.039703369140625 C51.048019338541394 54.697881629482254 51.04450805393083 53.20476884070179 51.05224609375 50.3759765625 C51.0617025756836 49.3848486328125 51.071159057617194 48.393720703125 51.080902099609375 47.37255859375 C51.077865753173825 46.83816162109375 51.077865753173825 46.83816162109375 51.0625 44.1337890625 C51.063935089111325 43.58456787109375 51.063935089111325 43.58456787109375 51.071197509765625 40.80517578125 C51.07323985960784 38.4817655930644 51.06769813009802 36.15833827761004 51.05517578125 33.8349609375 C51.03912527785789 30.272721942233744 51.05501947695356 26.711617646192963 51.07421875 23.1494140625 C51.07223634950225 20.894203217453924 51.068392741904646 18.638993080126347 51.0625 16.3837890625 C51.0685726928711 15.3149951171875 51.07464538574219 14.246201171875 51.080902099609375 13.14501953125 C51.07144561767578 12.1538916015625 51.06198913574218 11.162763671874998 51.05224609375 10.1416015625 C51.05105270385742 9.70533447265625 51.05105270385742 9.70533447265625 51.045013427734375 7.49755859375 C50.6640625 5.258789062499998 50.6640625 5.258789062499998 49.444976806640625 3.477874755859375 C47.10315506698227 1.8748322239586166 45.61004227820178 1.8783435085691806 42.78125 1.87060546875 C42.285686035156246 1.8658772277832032 42.285686035156246 1.8658772277832032 39.77783203125 1.841949462890625 C38.7090380859375 1.8480221557617185 37.640244140625 1.854094848632812 36.5390625 1.8603515625 C35.4406201171875 1.857481384277344 34.342177734375 1.8546112060546882 33.21044921875 1.851654052734375 C30.887039030564402 1.8496117028921528 28.563611715110042 1.855153432401977 26.240234375 1.86767578125 C22.677995379733744 1.8837262846421066 19.116891083692963 1.8678320855464374 15.5546875 1.8486328125 C13.299476654953924 1.8506152129977593 11.044266517626347 1.8544588205953545 8.7890625 1.8603515625 C7.7202685546875 1.8542788696289065 6.651474609375001 1.848206176757813 5.55029296875 1.841949462890625 C4.559165039062499 1.8514059448242186 3.5680371093749983 1.8608624267578122 2.546875 1.87060546875 C1.6743408203125014 1.872992248535157 0.8018066406249993 1.875379028320312 -0.09716796875 1.877838134765625 C-2.3359375 2.2587890625 -2.3359375 2.2587890625 -4.116851806640625 3.477874755859375 Z " fill="#000000" transform="translate(17.3359375,9.7412109375)"/>
<path d="M0 0 C3.299999999999997 0 6.600000000000001 0 10 0 C8.702424632764611 4.151164349122343 7.14056506169608 7.955903175792869 5.1796875 11.8359375 C4.644726562499997 12.8994140625 4.109765625000001 13.962890625 3.55859375 15.05859375 C3.0030078125000017 16.1530078125 2.4474218750000034 17.247421875 1.875 18.375 C1.3116796875000034 19.492617187500002 0.7483593749999997 20.610234375000005 0.16796875 21.76171875 C-1.2177456697096432 24.509660904339455 -2.6071694729134265 27.25565979669888 -4 30 C-7.630000000000003 30 -11.260000000000002 30 -15 30 C-10.26183755555973 19.839273869144748 -5.519027983929021 9.76443412541289 0 0 Z M3 2 C1.3936806385907232 4.87380221236139 -0.20966215410535227 7.749254768839926 -1.8125 10.625 C-2.2643164062500034 11.4332421875 -2.7161328124999997 12.241484374999999 -3.181640625 13.07421875 C-10 25.317404197080286 -10 25.317404197080286 -10 28 C-9.009999999999998 28 -8.019999999999996 28 -7 28 C-2.710000000000001 19.75 1.5799999999999983 11.5 6 3 C5.009999999999998 2.6700000000000017 4.019999999999996 2.34 3 2 Z " fill="#000000" transform="translate(42,25)"/>
<path d="M0 0 C3 0.25 3 0.25 5 2.25 C5.25 5.25 5.25 5.25 5 8.25 C3 10.25 3 10.25 0 10.5 C-3 10.25 -3 10.25 -5 8.25 C-5.25 5.25 -5.25 5.25 -5 2.25 C-3 0.25 -3 0.25 0 0 Z M-2 3.25 C-2 4.57 -2 5.890000000000001 -2 7.25 C-0.6799999999999997 7.25 0.6400000000000006 7.25 2 7.25 C2 5.93 2 4.609999999999999 2 3.25 C0.6799999999999997 3.25 -0.6400000000000006 3.25 -2 3.25 Z " fill="#000000" transform="translate(50,43.75)"/>
<path d="M0 0 C3 0.25 3 0.25 5 2.25 C5.25 5.25 5.25 5.25 5 8.25 C3 10.25 3 10.25 0 10.5 C-3 10.25 -3 10.25 -5 8.25 C-5.25 5.25 -5.25 5.25 -5 2.25 C-3 0.25 -3 0.25 0 0 Z M-2 3.25 C-2 4.57 -2 5.890000000000001 -2 7.25 C-0.6799999999999997 7.25 0.6400000000000006 7.25 2 7.25 C2 5.93 2 4.609999999999999 2 3.25 C0.6799999999999997 3.25 -0.6400000000000006 3.25 -2 3.25 Z " fill="#000000" transform="translate(30,25.75)"/>
<path d="M0 0 C0.6599999999999966 0 1.3200000000000003 0 2 0 C2 0.6599999999999966 2 1.3200000000000003 2 2 C1.3400000000000034 2 0.6799999999999997 2 0 2 C0 1.3400000000000034 0 0.6799999999999997 0 0 Z " fill="#000000" transform="translate(61,61)"/>
<path d="M0 0 C0.6599999999999966 0 1.3200000000000003 0 2 0 C2 0.6599999999999966 2 1.3200000000000003 2 2 C1.3400000000000034 2 0.6799999999999997 2 0 2 C0 1.3400000000000034 0 0.6799999999999997 0 0 Z " fill="#000000" transform="translate(57,61)"/>
<path d="M0 0 C0.6599999999999966 0 1.3200000000000003 0 2 0 C2 0.6599999999999966 2 1.3200000000000003 2 2 C1.3400000000000034 2 0.6799999999999997 2 0 2 C0 1.3400000000000034 0 0.6799999999999997 0 0 Z " fill="#000000" transform="translate(53,61)"/>
<path d="M0 0 C0.6599999999999966 0 1.3200000000000003 0 2 0 C2 0.6599999999999966 2 1.3200000000000003 2 2 C1.3400000000000034 2 0.6799999999999997 2 0 2 C0 1.3400000000000034 0 0.6799999999999997 0 0 Z " fill="#000000" transform="translate(49,61)"/>
<path d="M0 0 C0.6599999999999966 0 1.3200000000000003 0 2 0 C2 0.6599999999999966 2 1.3200000000000003 2 2 C1.3400000000000034 2 0.6799999999999997 2 0 2 C0 1.3400000000000034 0 0.6799999999999997 0 0 Z " fill="#000000" transform="translate(45,61)"/>
<path d="M0 0 C0.6599999999999966 0 1.3200000000000003 0 2 0 C2 0.6599999999999966 2 1.3200000000000003 2 2 C1.3400000000000034 2 0.6799999999999997 2 0 2 C0 1.3400000000000034 0 0.6799999999999997 0 0 Z " fill="#000000" transform="translate(41,61)"/>
<path d="M0 0 C0.6599999999999966 0 1.3200000000000003 0 2 0 C2 0.6599999999999966 2 1.3200000000000003 2 2 C1.3400000000000034 2 0.6799999999999997 2 0 2 C0 1.3400000000000034 0 0.6799999999999997 0 0 Z " fill="#000000" transform="translate(37,61)"/>
<path d="M0 0 C0.6599999999999966 0 1.3200000000000003 0 2 0 C2 0.6599999999999966 2 1.3200000000000003 2 2 C1.3400000000000034 2 0.6799999999999997 2 0 2 C0 1.3400000000000034 0 0.6799999999999997 0 0 Z " fill="#000000" transform="translate(33,61)"/>
<path d="M0 0 C0.6600000000000001 0 1.3200000000000003 0 2 0 C2 0.6599999999999966 2 1.3200000000000003 2 2 C1.3399999999999999 2 0.6799999999999997 2 0 2 C0 1.3400000000000034 0 0.6799999999999997 0 0 Z " fill="#000000" transform="translate(29,61)"/>
<path d="M0 0 C0.6600000000000001 0 1.3200000000000003 0 2 0 C2 0.6599999999999966 2 1.3200000000000003 2 2 C1.3399999999999999 2 0.6799999999999997 2 0 2 C0 1.3400000000000034 0 0.6799999999999997 0 0 Z " fill="#000000" transform="translate(25,61)"/>
<path d="M0 0 C0.6600000000000001 0 1.3200000000000003 0 2 0 C2 0.6599999999999966 2 1.3200000000000003 2 2 C1.3399999999999999 2 0.6799999999999997 2 0 2 C0 1.3400000000000034 0 0.6799999999999997 0 0 Z " fill="#000000" transform="translate(21,61)"/>
<path d="M0 0 C0.6600000000000001 0 1.3200000000000003 0 2 0 C2 0.6599999999999966 2 1.3200000000000003 2 2 C1.3399999999999999 2 0.6799999999999997 2 0 2 C0 1.3400000000000034 0 0.6799999999999997 0 0 Z " fill="#000000" transform="translate(17,61)"/>
<path d="M0 0 C0.6599999999999966 0 1.3200000000000003 0 2 0 C2 0.6599999999999966 2 1.3200000000000003 2 2 C1.3400000000000034 2 0.6799999999999997 2 0 2 C0 1.3400000000000034 0 0.6799999999999997 0 0 Z " fill="#000000" transform="translate(61,57)"/>
<path d="M0 0 C0.6600000000000001 0 1.3200000000000003 0 2 0 C2 0.6599999999999966 2 1.3200000000000003 2 2 C1.3399999999999999 2 0.6799999999999997 2 0 2 C0 1.3400000000000034 0 0.6799999999999997 0 0 Z " fill="#000000" transform="translate(17,57)"/>
<path d="M0 0 C0.6599999999999966 0 1.3200000000000003 0 2 0 C2 0.6599999999999966 2 1.3200000000000003 2 2 C1.3400000000000034 2 0.6799999999999997 2 0 2 C0 1.3400000000000034 0 0.6799999999999997 0 0 Z " fill="#000000" transform="translate(61,53)"/>
<path d="M0 0 C0.6600000000000001 0 1.3200000000000003 0 2 0 C2 0.6599999999999966 2 1.3200000000000003 2 2 C1.3399999999999999 2 0.6799999999999997 2 0 2 C0 1.3400000000000034 0 0.6799999999999997 0 0 Z " fill="#000000" transform="translate(17,53)"/>
<path d="M0 0 C0.6599999999999966 0 1.3200000000000003 0 2 0 C2 0.6599999999999966 2 1.3200000000000003 2 2 C1.3400000000000034 2 0.6799999999999997 2 0 2 C0 1.3400000000000034 0 0.6799999999999997 0 0 Z " fill="#000000" transform="translate(61,49)"/>
<path d="M0 0 C0.6600000000000001 0 1.3200000000000003 0 2 0 C2 0.6599999999999966 2 1.3200000000000003 2 2 C1.3399999999999999 2 0.6799999999999997 2 0 2 C0 1.3400000000000034 0 0.6799999999999997 0 0 Z " fill="#000000" transform="translate(17,49)"/>
<path d="M0 0 C0.6599999999999966 0 1.3200000000000003 0 2 0 C2 0.6599999999999966 2 1.3200000000000003 2 2 C1.3400000000000034 2 0.6799999999999997 2 0 2 C0 1.3400000000000034 0 0.6799999999999997 0 0 Z " fill="#000000" transform="translate(49,48)"/>
<path d="M0 0 C0.6599999999999966 0 1.3200000000000003 0 2 0 C2 0.6599999999999966 2 1.3200000000000003 2 2 C1.3400000000000034 2 0.6799999999999997 2 0 2 C0 1.3400000000000034 0 0.6799999999999997 0 0 Z " fill="#000000" transform="translate(61,45)"/>
<path d="M0 0 C0.6600000000000001 0 1.3200000000000003 0 2 0 C2 0.6599999999999966 2 1.3200000000000003 2 2 C1.3399999999999999 2 0.6799999999999997 2 0 2 C0 1.3400000000000034 0 0.6799999999999997 0 0 Z " fill="#000000" transform="translate(17,45)"/>
<path d="M0 0 C0.6599999999999966 0 1.3200000000000003 0 2 0 C2 0.6599999999999966 2 1.3200000000000003 2 2 C1.3400000000000034 2 0.6799999999999997 2 0 2 C0 1.3400000000000034 0 0.6799999999999997 0 0 Z " fill="#000000" transform="translate(61,41)"/>
<path d="M0 0 C0.6600000000000001 0 1.3200000000000003 0 2 0 C2 0.6599999999999966 2 1.3200000000000003 2 2 C1.3399999999999999 2 0.6799999999999997 2 0 2 C0 1.3400000000000034 0 0.6799999999999997 0 0 Z " fill="#000000" transform="translate(17,41)"/>
<path d="M0 0 C0.6599999999999966 0 1.3200000000000003 0 2 0 C2 0.6599999999999966 2 1.3200000000000003 2 2 C1.3400000000000034 2 0.6799999999999997 2 0 2 C0 1.3400000000000034 0 0.6799999999999997 0 0 Z " fill="#000000" transform="translate(61,37)"/>
<path d="M0 0 C0.6600000000000001 0 1.3200000000000003 0 2 0 C2 0.6599999999999966 2 1.3200000000000003 2 2 C1.3399999999999999 2 0.6799999999999997 2 0 2 C0 1.3400000000000034 0 0.6799999999999997 0 0 Z " fill="#000000" transform="translate(17,37)"/>
<path d="M0 0 C0.6599999999999966 0 1.3200000000000003 0 2 0 C2 0.6599999999999966 2 1.3200000000000003 2 2 C1.3400000000000034 2 0.6799999999999997 2 0 2 C0 1.3400000000000034 0 0.6799999999999997 0 0 Z " fill="#000000" transform="translate(61,33)"/>
<path d="M0 0 C0.6600000000000001 0 1.3200000000000003 0 2 0 C2 0.6599999999999966 2 1.3200000000000003 2 2 C1.3399999999999999 2 0.6799999999999997 2 0 2 C0 1.3400000000000034 0 0.6799999999999997 0 0 Z " fill="#000000" transform="translate(17,33)"/>
<path d="M0 0 C0.6600000000000001 0 1.3200000000000003 0 2 0 C2 0.6600000000000001 2 1.3200000000000003 2 2 C1.3399999999999999 2 0.6799999999999997 2 0 2 C0 1.3399999999999999 0 0.6799999999999997 0 0 Z " fill="#000000" transform="translate(29,30)"/>
<path d="M0 0 C0.6599999999999966 0 1.3200000000000003 0 2 0 C2 0.6600000000000001 2 1.3200000000000003 2 2 C1.3400000000000034 2 0.6799999999999997 2 0 2 C0 1.3399999999999999 0 0.6799999999999997 0 0 Z " fill="#000000" transform="translate(61,29)"/>
<path d="M0 0 C0.6600000000000001 0 1.3200000000000003 0 2 0 C2 0.6600000000000001 2 1.3200000000000003 2 2 C1.3399999999999999 2 0.6799999999999997 2 0 2 C0 1.3399999999999999 0 0.6799999999999997 0 0 Z " fill="#000000" transform="translate(17,29)"/>
<path d="M0 0 C0.6599999999999966 0 1.3200000000000003 0 2 0 C2 0.6600000000000001 2 1.3200000000000003 2 2 C1.3400000000000034 2 0.6799999999999997 2 0 2 C0 1.3399999999999999 0 0.6799999999999997 0 0 Z " fill="#000000" transform="translate(61,25)"/>
<path d="M0 0 C0.6600000000000001 0 1.3200000000000003 0 2 0 C2 0.6600000000000001 2 1.3200000000000003 2 2 C1.3399999999999999 2 0.6799999999999997 2 0 2 C0 1.3399999999999999 0 0.6799999999999997 0 0 Z " fill="#000000" transform="translate(17,25)"/>
<path d="M0 0 C0.6599999999999966 0 1.3200000000000003 0 2 0 C2 0.6600000000000001 2 1.3200000000000003 2 2 C1.3400000000000034 2 0.6799999999999997 2 0 2 C0 1.3399999999999999 0 0.6799999999999997 0 0 Z " fill="#000000" transform="translate(61,21)"/>
<path d="M0 0 C0.6600000000000001 0 1.3200000000000003 0 2 0 C2 0.6600000000000001 2 1.3200000000000003 2 2 C1.3399999999999999 2 0.6799999999999997 2 0 2 C0 1.3399999999999999 0 0.6799999999999997 0 0 Z " fill="#000000" transform="translate(17,21)"/>
<path d="M0 0 C0.6599999999999966 0 1.3200000000000003 0 2 0 C2 0.6600000000000001 2 1.3200000000000003 2 2 C1.3400000000000034 2 0.6799999999999997 2 0 2 C0 1.3399999999999999 0 0.6799999999999997 0 0 Z " fill="#000000" transform="translate(61,17)"/>
<path d="M0 0 C0.6599999999999966 0 1.3200000000000003 0 2 0 C2 0.6600000000000001 2 1.3200000000000003 2 2 C1.3400000000000034 2 0.6799999999999997 2 0 2 C0 1.3399999999999999 0 0.6799999999999997 0 0 Z " fill="#000000" transform="translate(57,17)"/>
<path d="M0 0 C0.6599999999999966 0 1.3200000000000003 0 2 0 C2 0.6600000000000001 2 1.3200000000000003 2 2 C1.3400000000000034 2 0.6799999999999997 2 0 2 C0 1.3399999999999999 0 0.6799999999999997 0 0 Z " fill="#000000" transform="translate(53,17)"/>
<path d="M0 0 C0.6599999999999966 0 1.3200000000000003 0 2 0 C2 0.6600000000000001 2 1.3200000000000003 2 2 C1.3400000000000034 2 0.6799999999999997 2 0 2 C0 1.3399999999999999 0 0.6799999999999997 0 0 Z " fill="#000000" transform="translate(49,17)"/>
<path d="M0 0 C0.6599999999999966 0 1.3200000000000003 0 2 0 C2 0.6600000000000001 2 1.3200000000000003 2 2 C1.3400000000000034 2 0.6799999999999997 2 0 2 C0 1.3399999999999999 0 0.6799999999999997 0 0 Z " fill="#000000" transform="translate(45,17)"/>
<path d="M0 0 C0.6599999999999966 0 1.3200000000000003 0 2 0 C2 0.6600000000000001 2 1.3200000000000003 2 2 C1.3400000000000034 2 0.6799999999999997 2 0 2 C0 1.3399999999999999 0 0.6799999999999997 0 0 Z " fill="#000000" transform="translate(41,17)"/>
<path d="M0 0 C0.6599999999999966 0 1.3200000000000003 0 2 0 C2 0.6600000000000001 2 1.3200000000000003 2 2 C1.3400000000000034 2 0.6799999999999997 2 0 2 C0 1.3399999999999999 0 0.6799999999999997 0 0 Z " fill="#000000" transform="translate(37,17)"/>
<path d="M0 0 C0.6599999999999966 0 1.3200000000000003 0 2 0 C2 0.6600000000000001 2 1.3200000000000003 2 2 C1.3400000000000034 2 0.6799999999999997 2 0 2 C0 1.3399999999999999 0 0.6799999999999997 0 0 Z " fill="#000000" transform="translate(33,17)"/>
<path d="M0 0 C0.6600000000000001 0 1.3200000000000003 0 2 0 C2 0.6600000000000001 2 1.3200000000000003 2 2 C1.3399999999999999 2 0.6799999999999997 2 0 2 C0 1.3399999999999999 0 0.6799999999999997 0 0 Z " fill="#000000" transform="translate(29,17)"/>
<path d="M0 0 C0.6600000000000001 0 1.3200000000000003 0 2 0 C2 0.6600000000000001 2 1.3200000000000003 2 2 C1.3399999999999999 2 0.6799999999999997 2 0 2 C0 1.3399999999999999 0 0.6799999999999997 0 0 Z " fill="#000000" transform="translate(25,17)"/>
<path d="M0 0 C0.6600000000000001 0 1.3200000000000003 0 2 0 C2 0.6600000000000001 2 1.3200000000000003 2 2 C1.3399999999999999 2 0.6799999999999997 2 0 2 C0 1.3399999999999999 0 0.6799999999999997 0 0 Z " fill="#000000" transform="translate(21,17)"/>
<path d="M0 0 C0.6600000000000001 0 1.3200000000000003 0 2 0 C2 0.6600000000000001 2 1.3200000000000003 2 2 C1.3399999999999999 2 0.6799999999999997 2 0 2 C0 1.3399999999999999 0 0.6799999999999997 0 0 Z " fill="#000000" transform="translate(17,17)"/>
</svg>
