<?xml version="1.0" encoding="UTF-8"?>
<svg version="1.1" xmlns="http://www.w3.org/2000/svg" width="64" height="64">
<path d="M0 0 C3.28445301 1.00532327 5.7529871 2.27893736 8.65185547 4.1159668 C9.67923828 4.76243164 10.70662109 5.40889648 11.76513672 6.07495117 C12.82345703 6.75493164 13.88177734 7.43491211 14.97216797 8.13549805 C16.54804687 9.12646484 16.54804687 9.12646484 18.15576172 10.13745117 C34.64448101 20.58993718 34.64448101 20.58993718 36.09716797 24.94799805 C33.55230547 32.58258555 22.28910874 37.18792303 15.71484375 41.29150391 C14.54482466 42.02600314 13.37947995 42.7679972 12.21875 43.51708984 C10.51945172 44.61337292 8.80454419 45.68534071 7.08935547 46.7565918 C6.08243652 47.39395264 5.07551758 48.03131348 4.03808594 48.68798828 C0.50252707 50.20276658 -1.26764667 50.12025336 -4.90283203 48.94799805 C-6.93720388 45.89644027 -7.15731785 45.25430072 -7.19335938 41.81542969 C-7.20611908 40.98769547 -7.21887878 40.15996124 -7.23202515 39.30714417 C-7.23425079 38.41647751 -7.23647644 37.52581085 -7.23876953 36.6081543 C-7.24542633 35.68965195 -7.25208313 34.7711496 -7.25894165 33.82481384 C-7.26906651 31.88225304 -7.27375872 29.93965747 -7.2734375 27.99707031 C-7.27781062 25.02505213 -7.31413129 22.05451904 -7.35205078 19.08276367 C-7.35791897 17.19539896 -7.36188835 15.30802719 -7.36376953 13.4206543 C-7.37814056 12.53201187 -7.3925116 11.64336945 -7.40731812 10.72779846 C-7.37882865 6.88081207 -7.31378345 4.60761936 -5.24902344 1.29345703 C-2.90283203 -0.05200195 -2.90283203 -0.05200195 0 0 Z " fill="#000000" transform="translate(17.90283203125,7.052001953125)"/>
</svg>
