<?xml version="1.0" encoding="UTF-8"?>
<!-- Generator: visioncortex VTracer 0.6.12 -->
<svg version="1.1" xmlns="http://www.w3.org/2000/svg" width="80" height="80">
<path d="M0 0 C2.753554328298705 0.046050948415931714 5.488894579999062 -0.019845557171397132 8.241455078125 -0.096435546875 C20.884898966629983 -0.18436136168630135 20.884898966629983 -0.18436136168630135 25.641845703125 3.605712890625 C27.69924302832173 6.42630665216852 29.263021911451418 9.239280278076397 30.821533203125 12.358642578125 C31.87634553803332 13.847338247706997 32.96025969767595 15.316076826596735 34.079345703125 16.757080078125 C35.03621497312339 18.08177812664428 35.991973540852456 19.407279290492163 36.946533203125 20.733642578125 C37.199189453125 21.069443359375 37.199189453125 21.069443359375 38.477783203125 22.768798828125 C41.935923187177124 27.631211126143043 41.935923187177124 27.631211126143043 41.419189453125 30.917236328125 C39.39167368520805 34.01551836956289 37.33252354582673 37.06743611380281 35.134033203125 40.046142578125 C34.29615706448142 41.195418352547925 33.45893381067242 42.34517035269499 32.622314453125 43.495361328125 C32.39209594726563 43.79434326171875 32.39209594726563 43.79434326171875 31.22705078125 45.307373046875 C29.821533203125 47.358642578125 29.821533203125 47.358642578125 28.625 49.991943359375 C26.97965509205318 53.20673398678394 25.6632041074986 55.09833738240471 22.821533203125 57.358642578125 C17.314577803657613 59.109773652867375 11.474721692887456 58.964164425014815 5.7529296875 58.882080078125 C3.018562238632171 58.85872397214659 0.30904280917931715 58.962946916074515 -2.422607421875 59.077392578125 C-14.663712961669539 59.26380784583958 -14.663712961669539 59.26380784583958 -18.94439697265625 56.020782470703125 C-22.481206568032754 52.26049430400212 -24.784916484424603 47.898210760740994 -27.178466796875 43.358642578125 C-28.149826115382602 41.98894554059058 -29.147294370769384 40.63643112855675 -30.194091796875 39.323486328125 C-30.931435546875 38.324462890625 -31.668779296875 37.325439453125 -32.428466796875 36.296142578125 C-32.812607421875 35.785029296874995 -32.812607421875 35.785029296874995 -34.756591796875 33.198486328125 C-36.178466796875 30.358642578125 -36.178466796875 30.358642578125 -35.705810546875 27.905517578125 C-33.78777383598659 24.707154571733078 -31.703686216988118 21.66912783755646 -29.490966796875 18.671142578125 C-28.653090658231424 17.52186680370208 -27.815867404422413 16.372114803555007 -26.979248046875 15.221923828125 C-26.51864990234375 14.624201660156253 -26.0580517578125 14.026479492187498 -25.58349609375 13.41064453125 C-24.178466796875 11.358642578125 -24.178466796875 11.358642578125 -22.986328125 8.71875 C-18.005925533191657 -1.05449404204394 -9.832932113007324 -0.20626073788777255 0 0 Z M-18.401123046875 7.409423828125 C-19.362744295135236 9.038532845521573 -20.28959553155763 10.688726565458044 -21.178466796875 12.358642578125 C-22.210672344656608 13.775360720491712 -23.263646488027284 15.177222892782545 -24.338623046875 16.561767578125 C-25.30874724175888 17.908802508270846 -26.276227511463063 19.25774577684261 -27.240966796875 20.608642578125 C-27.750791015625 21.289267578125 -28.260615234375 21.969892578125 -28.785888671875 22.671142578125 C-32.29217932176621 27.621199966206717 -32.29217932176621 27.621199966206717 -31.783935546875 30.917236328125 C-29.723753739715985 34.05011620519163 -27.647776950272167 37.14931402104404 -25.428466796875 40.171142578125 C-25.010810546875 40.749287109375 -24.593154296875 41.327431640625 -24.162841796875 41.923095703125 C-23.296120138386947 43.11880164966721 -22.41183706818579 44.30194112214126 -21.511962890625 45.472900390625 C-20.178466796875004 47.35864257812499 -20.178466796875004 47.35864257812499 -19.114501953125 49.533447265625 C-17.690478326504806 52.12522850834887 -16.56918929211532 53.58848724466637 -14.178466796875 55.358642578125 C-8.474675390850969 56.835014572406294 -2.922559927276666 57.00509645550261 2.946533203125 56.983642578125 C3.3445413208007864 56.98699111938477 3.3445413208007864 56.98699111938477 5.35870361328125 57.003936767578125 C18.201746515300464 56.980303664951236 18.201746515300464 56.980303664951236 23.550048828125 53.669677734375 C27.549093007031274 49.60171707174347 29.833077185502106 44.89358015978014 31.840087890625 39.604248046875 C32.86493056202268 37.25934683008002 34.10096035490119 35.56482952886197 35.704345703125 33.581298828125 C37.821533203125 30.358642578125007 37.821533203125 30.358642578125007 37.434814453125 27.846923828125 C35.379682478304574 24.677144002554513 33.259637469706206 21.578989270204247 31.009033203125 18.546142578125 C30.145866831965137 17.374795777927726 29.28520022860519 16.201602915582757 28.427001953125 15.026611328125 C27.979697265624992 14.43920166015625 27.532392578125 13.8517919921875 27.071533203125 13.24658203125 C25.821533203125 11.358642578125004 25.821533203125 11.358642578125004 24.993408203125 9.1640625 C23.890119940303492 6.511494715753983 23.086773576696217 5.160245282889708 20.821533203125 3.358642578125 C15.807127881468695 2.264309212418315 10.992201472830516 2.1657722897521694 5.875244140625 2.2607421875 C3.4566690105808036 2.2959948406821873 1.0517851303778087 2.240847563765138 -1.365966796875 2.177001953125 C-14.224453797263095 2.085305343202183 -14.224453797263095 2.085305343202183 -18.401123046875 7.409423828125 Z " fill="#000000" transform="translate(37.178466796875,10.641357421875)"/>
<path d="M0 0 C0.9900000000000002 0.3299999999999983 1.9800000000000004 0.6599999999999966 3 1 C2.67 2.6499999999999986 2.34 4.299999999999997 2 6 C1.0099999999999998 6 0.019999999999999574 6 -1 6 C-0.6699999999999999 4.019999999999996 -0.33999999999999986 2.039999999999999 0 0 Z " fill="#000000" transform="translate(11,37)"/>
<path d="M0 0 C0.990000000000002 0 1.980000000000004 0 3 0 C3 0.990000000000002 3 1.9799999999999969 3 3 C2.010000000000005 3 1.019999999999996 3 0 3 C0 2.009999999999998 0 1.0200000000000031 0 0 Z " fill="#000000" transform="translate(63,46)"/>
<path d="M0 0 C0.9899999999999949 0 1.980000000000004 0 3 0 C3 0.990000000000002 3 1.9799999999999969 3 3 C2.010000000000005 3 1.019999999999996 3 0 3 C0 2.009999999999998 0 1.0200000000000031 0 0 Z " fill="#000000" transform="translate(65,35)"/>
<path d="M0 0 C0.990000000000002 0 1.9799999999999969 0 3 0 C3 0.9899999999999984 3 1.9800000000000004 3 3 C2.009999999999998 3 1.0200000000000031 3 0 3 C0 2.009999999999998 0 1.0199999999999996 0 0 Z " fill="#000000" transform="translate(58,25)"/>
<path d="M0 0 C0.990000000000002 0 1.9799999999999969 0 3 0 C3 0.990000000000002 3 1.9799999999999969 3 3 C2.009999999999998 2.6700000000000017 1.0200000000000031 2.3400000000000034 0 2 C0 1.3400000000000034 0 0.6799999999999997 0 0 Z " fill="#000000" transform="translate(53,59)"/>
<path d="M0 0 C0.990000000000002 0 1.9799999999999969 0 3 0 C2.6700000000000017 0.990000000000002 2.3400000000000034 1.9799999999999969 2 3 C1.3400000000000034 3 0.6799999999999997 3 0 3 C0 2.009999999999998 0 1.0200000000000031 0 0 Z " fill="#000000" transform="translate(56,56)"/>
<path d="M0 0 C0.9899999999999984 0.3299999999999983 1.9800000000000004 0.6599999999999966 3 1 C3 1.6599999999999966 3 2.3200000000000003 3 3 C2.009999999999998 3 1.0199999999999996 3 0 3 C0 2.009999999999998 0 1.0200000000000031 0 0 Z " fill="#000000" transform="translate(20,53)"/>
<path d="M0 0 C0.6599999999999966 0 1.3200000000000003 0 2 0 C2 0.990000000000002 2 1.9799999999999969 2 3 C1.009999999999998 3 0.020000000000003126 3 -1 3 C-0.6700000000000017 2.009999999999998 -0.3400000000000034 1.0200000000000031 0 0 Z " fill="#000000" transform="translate(59,52)"/>
<path d="M0 0 C0.9900000000000002 0 1.9800000000000004 0 3 0 C3 0.990000000000002 3 1.9799999999999969 3 3 C2.01 2.6700000000000017 1.0199999999999996 2.3400000000000034 0 2 C0 1.3400000000000034 0 0.6799999999999997 0 0 Z " fill="#000000" transform="translate(13,34)"/>
<path d="M0 0 C0.990000000000002 0 1.980000000000004 0 3 0 C2.6700000000000017 0.990000000000002 2.3400000000000034 1.9799999999999969 2 3 C1.3400000000000034 3 0.6799999999999997 3 0 3 C0 2.009999999999998 0 1.0200000000000031 0 0 Z " fill="#000000" transform="translate(63,32)"/>
<path d="M0 0 C0.6600000000000001 0 1.3200000000000003 0 2 0 C2 0.9899999999999984 2 1.9800000000000004 2 3 C1.009999999999998 3 0.019999999999999574 3 -1 3 C-0.6699999999999999 2.009999999999998 -0.33999999999999986 1.0199999999999996 0 0 Z " fill="#000000" transform="translate(16,30)"/>
<path d="M0 0 C0.6599999999999966 0 1.3200000000000003 0 2 0 C2 0.9899999999999984 2 1.9800000000000004 2 3 C1.009999999999998 3 0.020000000000003126 3 -1 3 C-0.6700000000000017 2.009999999999998 -0.3400000000000034 1.0199999999999996 0 0 Z " fill="#000000" transform="translate(61,28)"/>
<path d="M0 0 C0.6600000000000001 0 1.3200000000000003 0 2 0 C2 0.9899999999999984 2 1.9800000000000004 2 3 C1.009999999999998 3 0.019999999999999574 3 -1 3 C-0.6700000000000017 2.009999999999998 -0.33999999999999986 1.0199999999999996 0 0 Z " fill="#000000" transform="translate(23,20)"/>
<path d="M0 0 C0.6599999999999966 0 1.3200000000000003 0 2 0 C2 0.9899999999999984 2 1.9800000000000004 2 3 C1.009999999999998 3 0.020000000000003126 3 -1 3 C-0.6700000000000017 2.009999999999998 -0.3400000000000034 1.0199999999999996 0 0 Z " fill="#000000" transform="translate(54,18)"/>
<path d="M0 0 C0.9899999999999984 0 1.9800000000000004 0 3 0 C2.6700000000000017 0.990000000000002 2.34 1.9799999999999969 2 3 C1.3399999999999999 2.6700000000000017 0.6799999999999997 2.3400000000000034 0 2 C0 1.3400000000000034 0 0.6799999999999997 0 0 Z " fill="#000000" transform="translate(22,57)"/>
<path d="M0 0 C0.6600000000000001 0 1.3200000000000003 0 2 0 C2 0.990000000000002 2 1.9799999999999969 2 3 C1.009999999999998 2.6700000000000017 0.019999999999999574 2.3400000000000034 -1 2 C-0.6700000000000017 1.3400000000000034 -0.33999999999999986 0.6799999999999997 0 0 Z " fill="#000000" transform="translate(18,50)"/>
<path d="M0 0 C0.990000000000002 0.3299999999999983 1.9799999999999969 0.6599999999999966 3 1 C2.6700000000000017 1.6599999999999966 2.3400000000000034 2.3200000000000003 2 3 C1.3400000000000034 3 0.6799999999999997 3 0 3 C0 2.009999999999998 0 1.0200000000000031 0 0 Z " fill="#000000" transform="translate(61,49)"/>
<path d="M0 0 C0.9900000000000002 0 1.9800000000000004 0 3 0 C2.6700000000000017 0.990000000000002 2.34 1.9799999999999969 2 3 C1.3399999999999999 2.6700000000000017 0.6799999999999997 2.3400000000000034 0 2 C0 1.3400000000000034 0 0.6799999999999997 0 0 Z " fill="#000000" transform="translate(15,47)"/>
<path d="M0 0 C0.6599999999999966 0.3299999999999983 1.3199999999999932 0.6599999999999966 2 1 C2 1.6599999999999966 2 2.3200000000000003 2 3 C1.0100000000000051 3 0.01999999999999602 3 -1 3 C-0.6700000000000017 2.009999999999998 -0.3400000000000034 1.0200000000000031 0 0 Z " fill="#000000" transform="translate(68,38)"/>
<path d="M0 0 C0.9899999999999984 0.3299999999999983 1.9800000000000004 0.6600000000000001 3 1 C2.6700000000000017 1.6600000000000001 2.34 2.3200000000000003 2 3 C1.3399999999999999 3 0.6799999999999997 3 0 3 C0 2.009999999999998 0 1.0199999999999996 0 0 Z " fill="#000000" transform="translate(18,27)"/>
<path d="M0 0 C0.9899999999999984 0 1.9800000000000004 0 3 0 C2.6700000000000017 0.9899999999999984 2.34 1.9800000000000004 2 3 C1.3399999999999999 2.6700000000000017 0.6799999999999997 2.34 0 2 C0 1.3399999999999999 0 0.6799999999999997 0 0 Z " fill="#000000" transform="translate(20,24)"/>
<path d="M0 0 C0.990000000000002 0 1.9799999999999969 0 3 0 C2.6700000000000017 0.9899999999999984 2.3400000000000034 1.9800000000000004 2 3 C1.3400000000000034 2.6700000000000017 0.6799999999999997 2.34 0 2 C0 1.3399999999999999 0 0.6799999999999997 0 0 Z " fill="#000000" transform="translate(56,22)"/>
<path d="M0 0 C0.990000000000002 0 1.9799999999999969 0 3 0 C3 0.6599999999999966 3 1.3200000000000003 3 2 C2.009999999999998 2 1.0200000000000031 2 0 2 C0 1.3400000000000034 0 0.6799999999999997 0 0 Z " fill="#000000" transform="translate(49,60)"/>
<path d="M0 0 C0.990000000000002 0 1.9799999999999969 0 3 0 C3 0.6599999999999966 3 1.3200000000000003 3 2 C2.009999999999998 2 1.0200000000000031 2 0 2 C0 1.3400000000000034 0 0.6799999999999997 0 0 Z " fill="#000000" transform="translate(45,60)"/>
<path d="M0 0 C0.990000000000002 0 1.9799999999999969 0 3 0 C3 0.6599999999999966 3 1.3200000000000003 3 2 C2.009999999999998 2 1.0200000000000031 2 0 2 C0 1.3400000000000034 0 0.6799999999999997 0 0 Z " fill="#000000" transform="translate(41,60)"/>
<path d="M0 0 C0.990000000000002 0 1.9799999999999969 0 3 0 C3 0.6599999999999966 3 1.3200000000000003 3 2 C2.009999999999998 2 1.0200000000000031 2 0 2 C0 1.3400000000000034 0 0.6799999999999997 0 0 Z " fill="#000000" transform="translate(37,60)"/>
<path d="M0 0 C0.990000000000002 0 1.9799999999999969 0 3 0 C3 0.6599999999999966 3 1.3200000000000003 3 2 C2.009999999999998 2 1.0200000000000031 2 0 2 C0 1.3400000000000034 0 0.6799999999999997 0 0 Z " fill="#000000" transform="translate(33,60)"/>
<path d="M0 0 C0.9899999999999984 0 1.9800000000000004 0 3 0 C3 0.6599999999999966 3 1.3200000000000003 3 2 C2.009999999999998 2 1.0199999999999996 2 0 2 C0 1.3400000000000034 0 0.6799999999999997 0 0 Z " fill="#000000" transform="translate(29,60)"/>
<path d="M0 0 C0.9899999999999984 0 1.9800000000000004 0 3 0 C3 0.6599999999999966 3 1.3200000000000003 3 2 C2.009999999999998 2 1.0199999999999996 2 0 2 C0 1.3400000000000034 0 0.6799999999999997 0 0 Z " fill="#000000" transform="translate(25,60)"/>
<path d="M0 0 C0.6600000000000001 0 1.3200000000000003 0 2 0 C2 0.990000000000002 2 1.9799999999999969 2 3 C1.3399999999999999 3 0.6799999999999997 3 0 3 C0 2.009999999999998 0 1.0200000000000031 0 0 Z " fill="#000000" transform="translate(13,43)"/>
<path d="M0 0 C0.990000000000002 0 1.9799999999999969 0 3 0 C3 0.6600000000000001 3 1.3200000000000003 3 2 C2.009999999999998 2 1.0200000000000031 2 0 2 C0 1.3399999999999999 0 0.6799999999999997 0 0 Z " fill="#000000" transform="translate(41,18)"/>
<path d="M0 0 C0.990000000000002 0 1.9799999999999969 0 3 0 C3 0.6600000000000001 3 1.3200000000000003 3 2 C2.009999999999998 2 1.0200000000000031 2 0 2 C0 1.3399999999999999 0 0.6799999999999997 0 0 Z " fill="#000000" transform="translate(37,18)"/>
<path d="M0 0 C0.990000000000002 0 1.9799999999999969 0 3 0 C3 0.6600000000000001 3 1.3200000000000003 3 2 C2.009999999999998 2 1.0200000000000031 2 0 2 C0 1.3399999999999999 0 0.6799999999999997 0 0 Z " fill="#000000" transform="translate(33,18)"/>
<path d="M0 0 C0.9899999999999984 0 1.9800000000000004 0 3 0 C3 0.6600000000000001 3 1.3200000000000003 3 2 C2.009999999999998 2 1.0199999999999996 2 0 2 C0 1.3399999999999999 0 0.6799999999999997 0 0 Z " fill="#000000" transform="translate(29,18)"/>
<path d="M0 0 C0.9899999999999984 0 1.9800000000000004 0 3 0 C3 0.6600000000000001 3 1.3200000000000003 3 2 C2.009999999999998 2 1.0199999999999996 2 0 2 C0 1.3399999999999999 0 0.6799999999999997 0 0 Z " fill="#000000" transform="translate(25,18)"/>
<path d="M0 0 C0.6599999999999966 0 1.3199999999999932 0 2 0 C2 0.6599999999999966 2 1.3200000000000003 2 2 C1.0100000000000051 1.6700000000000017 0.01999999999999602 1.3400000000000034 -1 1 C-0.6700000000000017 0.6700000000000017 -0.3400000000000034 0.3400000000000034 0 0 Z " fill="#000000" transform="translate(66,43)"/>
<path d="M0 0 C0.990000000000002 0.3299999999999983 1.9799999999999969 0.6600000000000001 3 1 C2.009999999999998 1.3299999999999983 1.0200000000000031 1.6600000000000001 0 2 C0 1.3399999999999999 0 0.6799999999999997 0 0 Z " fill="#000000" transform="translate(50,18)"/>
<path d="M0 0 C0.6599999999999966 0 1.3200000000000003 0 2 0 C2 0.6600000000000001 2 1.3200000000000003 2 2 C1.009999999999998 1.6700000000000017 0.020000000000003126 1.3399999999999999 -1 1 C-0.6700000000000017 0.6700000000000017 -0.3400000000000034 0.33999999999999986 0 0 Z " fill="#000000" transform="translate(46,18)"/>
</svg>
