<?xml version="1.0" encoding="UTF-8"?>
<!-- Generator: visioncortex VTracer 0.6.12 -->
<svg version="1.1" xmlns="http://www.w3.org/2000/svg" width="80" height="80">
<path d="M0 0 C7.027304452300612 -0.6388458593000559 11.225296149488074 1.0021281034917404 17 5 C17.992357321484086 5.902370259586284 18.9729054875799 6.818011499267339 19.9375 7.75 C23.204587928239434 10.150309498298359 24.078720062128276 10.268968948496564 27.9375 10.4375 C32.7906555907273 10.693699767232964 35.23883952247964 11.99298342948557 38.66015625 15.40625 C42.850041285158994 20.39013657243402 42.216764745328035 25.798119786447685 42 32 C38.59805129710736 34.09350689408778 35.94727588087335 34.17942163094879 32 34 C31.777877453404145 36.749516928132486 31.571844115339587 39.49865611513985 31.375 42.25 C31.310546875 43.0273046875 31.24609375 43.804609375 31.1796875 44.60546875 C30.673076513113017 52.01465443322216 30.673076513113017 52.01465443322216 33 55 C36.06250000000003 56.687500000000014 36.06250000000003 56.687500000000014 39 58 C40 59 40 59 40.0625 61.5625 C40.041875000000005 62.36687499999999 40.02125000000001 63.17125 40 64 C35.25029304307296 64.46275899986298 30.73194314655143 64.71059897081318 26 64 C23.3613516029814 61.7243689389162 22.364051952974712 59.14873666677863 21 56 C18.687500000000014 53.500000000000014 18.687500000000014 53.500000000000014 17 52 C16.67 52.99 16.340000000000003 53.98 16 55 C16.969375 55.474375 17.93875 55.94875 18.9375 56.4375 C22 58 22 58 23 59 C23.04063832075785 60.66617115107175 23.04272100132092 62.33388094848419 23 64 C18.033776507478017 64.02465097571698 13.067588335861245 64.04283648724827 8.101318359375 64.054931640625 C6.410556844440983 64.05997189516515 4.7197997096322695 64.06680404889559 3.029052734375 64.075439453125 C0.6039929313463368 64.08751856729185 -1.8210094398858914 64.09323122976518 -4.24609375 64.09765625 C-4.626304244995119 64.1002368927002 -4.626304244995119 64.1002368927002 -6.5503997802734375 64.11329650878906 C-8.367325703929268 64.1134923756104 -10.184131274980132 64.06197276749609 -12 64 C-13 63 -13 63 -13.0625 59.9375 C-13.052187499999999 59.45281249999999 -13.052187499999999 59.45281249999999 -13 57 C-14.11375 57.04124999999999 -15.2275 57.08250000000001 -16.375 57.125 C-20 57 -20 57 -22 55 C-22.265625 53.125 -22.265625 53.125 -22.25 51 C-22.25515625 50.29875 -22.2603125 49.5975 -22.265625 48.875 C-22 47 -22 47 -20 45 C-19.009999999999998 45 -18.02 45 -17 45 C-17.0825 44.01 -17.165 43.02 -17.25 42 C-17.228588589916797 36.71138170944878 -15.137551257967623 32.20843943744104 -11.46875 28.41796875 C-5.844178793111691 23.634326081396463 -1.1956356282301215 23.73294564662598 5.87890625 23.5703125 C7.926373699872627 23.486025675305413 9.966369235604454 23.252137147618146 12 23 C12.659999999999997 22.01 13.32 21.02 14 20 C13.236874999999998 19.7525 12.473750000000003 19.505 11.6875 19.25 C8.53583833761784 18.181640114446726 5.388827946185103 17.105395387092784 2.25 16 C1.3064062499999984 15.670000000000002 0.3628125000000004 15.34 -0.609375 15 C-3 14 -3 14 -5 12 C-5.125 9.374999999999996 -5.125 9.374999999999996 -5 7 C-4.680312499999999 6.8865625 -4.680312499999999 6.8865625 -3.0625 6.3125 C-1 5 -1 5 -0.25 2.375 C-0.16750000000000043 1.5912500000000005 -0.08500000000000085 0.8075000000000001 0 0 Z M3 3 C5.484034723879198 5.794539064364098 8.22932846360898 7.407094123335533 11.5 9.1875 C12.459062500000002 9.7173046875 13.418125000000003 10.247109375 14.40625 10.79296875 C17 12 17 12 20 12 C10.155339805825243 3 10.155339805825243 3 3 3 Z M-2 9 C0.6372854054399788 12.223348828871085 3.718926305397815 13.257432915863099 7.5625 14.6875 C8.7187890625 15.1244921875 9.875078125000002 15.561484375 11.06640625 16.01171875 C14 17 14 17 16 17 C14.598226574868931 13.469607670040276 13.279783910605033 12.253882178093747 9.8125 10.75 C5.634774177564864 9.019421018538196 2.479204545026647 8.618791102550924 -2 9 Z M18 18 C16.6875 21.75000000000001 16.6875 21.75000000000001 16 25 C16.659999999999997 25 17.32 25 18 25 C17.340000000000003 25.659999999999997 16.68 26.32 16 27 C15.340000000000003 26.67 14.68 26.340000000000003 14 26 C-3.370025234931262 25.436266929495133 -3.370025234931262 25.436266929495133 -9 30.25 C-13.854937040866883 35.32970264461072 -14.42629841901854 40.72024841551144 -14.3359375 47.48828125 C-13.893141307629556 50.79895510690926 -12.458686936124469 51.84864893089109 -10 54 C-9.75 57.75 -9.75 57.75 -10 61 C-7.181758080206826 62.4091209598966 -4.827487182408678 62.11183552784868 -1.6796875 62.09765625 C-1.05126953125 62.096044921875006 -1.05126953125 62.096044921875006 2.12890625 62.087890625 C3.4476171875000006 62.07951171875 4.766328125000001 62.0711328125 6.125 62.0625 C7.464842114592628 62.057484894282496 8.804686003912622 62.05292200561014 10.14453125 62.048828125 C13.429732062205993 62.03701085589134 16.714843972426777 62.02053617443664 20 62 C18 59 18 59 14.9609375 58.26953125 C13.777578125000005 58.1187109375 12.594218749999996 57.967890624999995 11.375 57.8125 C10.780742187499996 57.73322265625001 10.780742187499996 57.73322265625001 7.7734375 57.33203125 C6.858203125000003 57.2224609375 5.942968749999999 57.112890625000006 5 57 C5 56.34 5 55.68 5 55 C5.554296874999999 54.806640625 6.108593749999997 54.61328125 6.6796875 54.4140625 C7.041914062499998 54.2838671875 7.041914062499998 54.2838671875 8.875 53.625 C9.234648437499999 53.4973828125 9.234648437499999 53.4973828125 11.0546875 52.8515625 C13 52 13 52 15 50 C15.79841584158416 43.042376237623756 15.79841584158416 43.042376237623756 12.75 39.0625 C10.249839680689725 37.18737976051729 8.971969989976571 36.53070892678153 6 36 C5.670000000000002 35.34 5.340000000000003 34.68 5 34 C11.370377541142304 34.49002904162633 11.370377541142304 34.49002904162633 14.1171875 36.71484375 C16.192379092190812 39.23348914716105 16.950463734806178 41.19989457384746 17.875 44.3125 C19.43869464030991 48.954139031117556 21.241653232868316 51.99993447057159 24.63671875 55.49609375 C26 57 26 57 27.375 59.9375 C29 62 29 62 30.95703125 62.3046875 C32.97390056879654 62.31175184087144 34.98985969359386 62.16476559888575 37 62 C35 59 35 59 32.5 58.125 C30 57 30 57 28.6875 55 C27.097012736557687 48.05969194134265 27.96698944582996 40.97282124064776 29 34 C27.68 34 26.36 34 25 34 C25 33.34 25 32.68 25 32 C25.843046875 31.9394140625 26.686093749999998 31.878828125 27.5546875 31.81640625 C28.650390625 31.732617187499997 29.74609375 31.648828125 30.875 31.5625 C31.965546875 31.481289062499997 33.05609375 31.400078125 34.1796875 31.31640625 C37 31 37 31 39 30 C39.370185918385175 23.830234693580277 38.46410775849564 19.843201259802665 34.375 15.125 C28.522572692653284 12.35279759125682 22.262936702561113 12.961983896973226 18 18 Z M-18 48 C-18.33 49.65 -18.66 51.3 -19 53 C-18.175 53.165 -18.175 53.165 -14 54 C-14.99 52.019999999999996 -15.98 50.04 -17 48 C-17.33 48 -17.66 48 -18 48 Z " fill="#000000" transform="translate(30,7)"/>
<path d="M0 0 C1.3200000000000003 0 2.6400000000000006 0 4 0 C4 1.3200000000000003 4 2.6400000000000006 4 4 C2.6799999999999997 4 1.3599999999999994 4 0 4 C0 2.6799999999999997 0 1.3599999999999994 0 0 Z " fill="#000000" transform="translate(59,29)"/>
<path d="M0 0 C0.6600000000000001 0 1.3200000000000003 0 2 0 C2 0.990000000000002 2 1.9799999999999969 2 3 C1.009999999999998 3 0.019999999999999574 3 -1 3 C-0.6700000000000017 2.009999999999998 -0.33999999999999986 1.0200000000000031 0 0 Z " fill="#000000" transform="translate(28,43)"/>
<path d="M0 0 C0.990000000000002 0.3299999999999983 1.9799999999999969 0.6599999999999966 3 1 C3 1.6599999999999966 3 2.3200000000000003 3 3 C2.009999999999998 3 1.0200000000000031 3 0 3 C0 2.009999999999998 0 1.0200000000000031 0 0 Z " fill="#000000" transform="translate(51,37)"/>
<path d="M0 0 C0.9899999999999984 0.3299999999999983 1.9800000000000004 0.6599999999999966 3 1 C2.6700000000000017 1.6599999999999966 2.34 2.3200000000000003 2 3 C1.3399999999999999 3 0.6799999999999997 3 0 3 C0 2.009999999999998 0 1.0200000000000031 0 0 Z " fill="#000000" transform="translate(25,46)"/>
<path d="M0 0 C0.9899999999999984 0.3299999999999983 1.9799999999999969 0.6599999999999966 3 1 C2.6700000000000017 1.6599999999999966 2.3400000000000034 2.3200000000000003 2 3 C1.3400000000000034 3 0.6799999999999997 3 0 3 C0 2.009999999999998 0 1.0200000000000031 0 0 Z " fill="#000000" transform="translate(31,41)"/>
<path d="M0 0 C0.6599999999999966 0 1.3200000000000003 0 2 0 C2 0.990000000000002 2 1.9799999999999969 2 3 C1.009999999999998 2.6700000000000017 0.020000000000003126 2.3400000000000034 -1 2 C-0.6700000000000017 1.3400000000000034 -0.3400000000000034 0.6799999999999997 0 0 Z " fill="#000000" transform="translate(48,35)"/>
</svg>
