<?xml version="1.0" encoding="UTF-8"?>
<!-- Generator: visioncortex VTracer 0.6.12 -->
<svg version="1.1" xmlns="http://www.w3.org/2000/svg" width="80" height="80">
<path d="M0 0 C21.12 0 42.24 0 64 0 C64 17.16 64 34.32 64 52 C42.879999999999995 52 21.759999999999998 52 0 52 C0 34.84 0 17.68 0 0 Z M2 2 C2 17.84 2 33.68 2 50 C21.8 50 41.6 50 62 50 C62 34.16 62 18.32 62 2 C42.2 2 22.4 2 2 2 Z " fill="#000000" transform="translate(8,14)"/>
<path d="M0 0 C0.6599999999999966 0 1.3199999999999932 0 2 0 C2 0.6599999999999966 2 1.3200000000000003 2 2 C1.3400000000000034 2 0.6800000000000068 2 0 2 C0 1.3400000000000034 0 0.6799999999999997 0 0 Z " fill="#000000" transform="translate(65,59)"/>
<path d="M0 0 C0.6599999999999966 0 1.3200000000000003 0 2 0 C2 0.6599999999999966 2 1.3200000000000003 2 2 C1.3400000000000034 2 0.6799999999999997 2 0 2 C0 1.3400000000000034 0 0.6799999999999997 0 0 Z " fill="#000000" transform="translate(61,59)"/>
<path d="M0 0 C0.6599999999999966 0 1.3200000000000003 0 2 0 C2 0.6599999999999966 2 1.3200000000000003 2 2 C1.3400000000000034 2 0.6799999999999997 2 0 2 C0 1.3400000000000034 0 0.6799999999999997 0 0 Z " fill="#000000" transform="translate(57,59)"/>
<path d="M0 0 C0.6599999999999966 0 1.3200000000000003 0 2 0 C2 0.6599999999999966 2 1.3200000000000003 2 2 C1.3400000000000034 2 0.6799999999999997 2 0 2 C0 1.3400000000000034 0 0.6799999999999997 0 0 Z " fill="#000000" transform="translate(53,59)"/>
<path d="M0 0 C0.6599999999999966 0 1.3200000000000003 0 2 0 C2 0.6599999999999966 2 1.3200000000000003 2 2 C1.3400000000000034 2 0.6799999999999997 2 0 2 C0 1.3400000000000034 0 0.6799999999999997 0 0 Z " fill="#000000" transform="translate(49,59)"/>
<path d="M0 0 C0.6599999999999966 0 1.3200000000000003 0 2 0 C2 0.6599999999999966 2 1.3200000000000003 2 2 C1.3400000000000034 2 0.6799999999999997 2 0 2 C0 1.3400000000000034 0 0.6799999999999997 0 0 Z " fill="#000000" transform="translate(45,59)"/>
<path d="M0 0 C0.6599999999999966 0 1.3200000000000003 0 2 0 C2 0.6599999999999966 2 1.3200000000000003 2 2 C1.3400000000000034 2 0.6799999999999997 2 0 2 C0 1.3400000000000034 0 0.6799999999999997 0 0 Z " fill="#000000" transform="translate(41,59)"/>
<path d="M0 0 C0.6599999999999966 0 1.3200000000000003 0 2 0 C2 0.6599999999999966 2 1.3200000000000003 2 2 C1.3400000000000034 2 0.6799999999999997 2 0 2 C0 1.3400000000000034 0 0.6799999999999997 0 0 Z " fill="#000000" transform="translate(37,59)"/>
<path d="M0 0 C0.6599999999999966 0 1.3200000000000003 0 2 0 C2 0.6599999999999966 2 1.3200000000000003 2 2 C1.3400000000000034 2 0.6799999999999997 2 0 2 C0 1.3400000000000034 0 0.6799999999999997 0 0 Z " fill="#000000" transform="translate(33,59)"/>
<path d="M0 0 C0.6600000000000001 0 1.3200000000000003 0 2 0 C2 0.6599999999999966 2 1.3200000000000003 2 2 C1.3399999999999999 2 0.6799999999999997 2 0 2 C0 1.3400000000000034 0 0.6799999999999997 0 0 Z " fill="#000000" transform="translate(29,59)"/>
<path d="M0 0 C0.6600000000000001 0 1.3200000000000003 0 2 0 C2 0.6599999999999966 2 1.3200000000000003 2 2 C1.3399999999999999 2 0.6799999999999997 2 0 2 C0 1.3400000000000034 0 0.6799999999999997 0 0 Z " fill="#000000" transform="translate(25,59)"/>
<path d="M0 0 C0.6600000000000001 0 1.3200000000000003 0 2 0 C2 0.6599999999999966 2 1.3200000000000003 2 2 C1.3399999999999999 2 0.6799999999999997 2 0 2 C0 1.3400000000000034 0 0.6799999999999997 0 0 Z " fill="#000000" transform="translate(21,59)"/>
<path d="M0 0 C0.6600000000000001 0 1.3200000000000003 0 2 0 C2 0.6599999999999966 2 1.3200000000000003 2 2 C1.3399999999999999 2 0.6799999999999997 2 0 2 C0 1.3400000000000034 0 0.6799999999999997 0 0 Z " fill="#000000" transform="translate(17,59)"/>
<path d="M0 0 C0.6600000000000001 0 1.3200000000000003 0 2 0 C2 0.6599999999999966 2 1.3200000000000003 2 2 C1.3399999999999999 2 0.6799999999999997 2 0 2 C0 1.3400000000000034 0 0.6799999999999997 0 0 Z " fill="#000000" transform="translate(13,59)"/>
<path d="M0 0 C0.6599999999999966 0 1.3199999999999932 0 2 0 C2 0.6599999999999966 2 1.3200000000000003 2 2 C1.3400000000000034 2 0.6800000000000068 2 0 2 C0 1.3400000000000034 0 0.6799999999999997 0 0 Z " fill="#000000" transform="translate(65,55)"/>
<path d="M0 0 C0.6600000000000001 0 1.3200000000000003 0 2 0 C2 0.6599999999999966 2 1.3200000000000003 2 2 C1.3399999999999999 2 0.6799999999999997 2 0 2 C0 1.3400000000000034 0 0.6799999999999997 0 0 Z " fill="#000000" transform="translate(13,55)"/>
<path d="M0 0 C0.6599999999999966 0 1.3199999999999932 0 2 0 C2 0.6599999999999966 2 1.3200000000000003 2 2 C1.3400000000000034 2 0.6800000000000068 2 0 2 C0 1.3400000000000034 0 0.6799999999999997 0 0 Z " fill="#000000" transform="translate(65,51)"/>
<path d="M0 0 C0.6600000000000001 0 1.3200000000000003 0 2 0 C2 0.6599999999999966 2 1.3200000000000003 2 2 C1.3399999999999999 2 0.6799999999999997 2 0 2 C0 1.3400000000000034 0 0.6799999999999997 0 0 Z " fill="#000000" transform="translate(13,51)"/>
<path d="M0 0 C0.6599999999999966 0 1.3199999999999932 0 2 0 C2 0.6599999999999966 2 1.3200000000000003 2 2 C1.3400000000000034 2 0.6800000000000068 2 0 2 C0 1.3400000000000034 0 0.6799999999999997 0 0 Z " fill="#000000" transform="translate(65,47)"/>
<path d="M0 0 C0.6600000000000001 0 1.3200000000000003 0 2 0 C2 0.6599999999999966 2 1.3200000000000003 2 2 C1.3399999999999999 2 0.6799999999999997 2 0 2 C0 1.3400000000000034 0 0.6799999999999997 0 0 Z " fill="#000000" transform="translate(13,47)"/>
<path d="M0 0 C0.6599999999999966 0 1.3199999999999932 0 2 0 C2 0.6599999999999966 2 1.3200000000000003 2 2 C1.3400000000000034 2 0.6800000000000068 2 0 2 C0 1.3400000000000034 0 0.6799999999999997 0 0 Z " fill="#000000" transform="translate(65,43)"/>
<path d="M0 0 C0.6600000000000001 0 1.3200000000000003 0 2 0 C2 0.6599999999999966 2 1.3200000000000003 2 2 C1.3399999999999999 2 0.6799999999999997 2 0 2 C0 1.3400000000000034 0 0.6799999999999997 0 0 Z " fill="#000000" transform="translate(13,43)"/>
<path d="M0 0 C0.6599999999999966 0 1.3199999999999932 0 2 0 C2 0.6599999999999966 2 1.3200000000000003 2 2 C1.3400000000000034 2 0.6800000000000068 2 0 2 C0 1.3400000000000034 0 0.6799999999999997 0 0 Z " fill="#000000" transform="translate(65,39)"/>
<path d="M0 0 C0.6600000000000001 0 1.3200000000000003 0 2 0 C2 0.6599999999999966 2 1.3200000000000003 2 2 C1.3399999999999999 2 0.6799999999999997 2 0 2 C0 1.3400000000000034 0 0.6799999999999997 0 0 Z " fill="#000000" transform="translate(13,39)"/>
<path d="M0 0 C0.6599999999999966 0 1.3199999999999932 0 2 0 C2 0.6599999999999966 2 1.3200000000000003 2 2 C1.3400000000000034 2 0.6800000000000068 2 0 2 C0 1.3400000000000034 0 0.6799999999999997 0 0 Z " fill="#000000" transform="translate(65,35)"/>
<path d="M0 0 C0.6600000000000001 0 1.3200000000000003 0 2 0 C2 0.6599999999999966 2 1.3200000000000003 2 2 C1.3399999999999999 2 0.6799999999999997 2 0 2 C0 1.3400000000000034 0 0.6799999999999997 0 0 Z " fill="#000000" transform="translate(13,35)"/>
<path d="M0 0 C0.6599999999999966 0 1.3199999999999932 0 2 0 C2 0.6600000000000001 2 1.3200000000000003 2 2 C1.3400000000000034 2 0.6800000000000068 2 0 2 C0 1.3400000000000034 0 0.6799999999999997 0 0 Z " fill="#000000" transform="translate(65,31)"/>
<path d="M0 0 C0.6600000000000001 0 1.3200000000000003 0 2 0 C2 0.6600000000000001 2 1.3200000000000003 2 2 C1.3399999999999999 2 0.6799999999999997 2 0 2 C0 1.3400000000000034 0 0.6799999999999997 0 0 Z " fill="#000000" transform="translate(13,31)"/>
<path d="M0 0 C0.6599999999999966 0 1.3199999999999932 0 2 0 C2 0.6600000000000001 2 1.3200000000000003 2 2 C1.3400000000000034 2 0.6800000000000068 2 0 2 C0 1.3399999999999999 0 0.6799999999999997 0 0 Z " fill="#000000" transform="translate(65,27)"/>
<path d="M0 0 C0.6600000000000001 0 1.3200000000000003 0 2 0 C2 0.6600000000000001 2 1.3200000000000003 2 2 C1.3399999999999999 2 0.6799999999999997 2 0 2 C0 1.3399999999999999 0 0.6799999999999997 0 0 Z " fill="#000000" transform="translate(13,27)"/>
<path d="M0 0 C0.6599999999999966 0 1.3199999999999932 0 2 0 C2 0.6600000000000001 2 1.3200000000000003 2 2 C1.3400000000000034 2 0.6800000000000068 2 0 2 C0 1.3399999999999999 0 0.6799999999999997 0 0 Z " fill="#000000" transform="translate(65,23)"/>
<path d="M0 0 C0.6600000000000001 0 1.3200000000000003 0 2 0 C2 0.6600000000000001 2 1.3200000000000003 2 2 C1.3399999999999999 2 0.6799999999999997 2 0 2 C0 1.3399999999999999 0 0.6799999999999997 0 0 Z " fill="#000000" transform="translate(13,23)"/>
<path d="M0 0 C0.6599999999999966 0 1.3199999999999932 0 2 0 C2 0.6600000000000001 2 1.3200000000000003 2 2 C1.3400000000000034 2 0.6800000000000068 2 0 2 C0 1.3399999999999999 0 0.6799999999999997 0 0 Z " fill="#000000" transform="translate(65,19)"/>
<path d="M0 0 C0.6599999999999966 0 1.3200000000000003 0 2 0 C2 0.6600000000000001 2 1.3200000000000003 2 2 C1.3400000000000034 2 0.6799999999999997 2 0 2 C0 1.3399999999999999 0 0.6799999999999997 0 0 Z " fill="#000000" transform="translate(61,19)"/>
<path d="M0 0 C0.6599999999999966 0 1.3200000000000003 0 2 0 C2 0.6600000000000001 2 1.3200000000000003 2 2 C1.3400000000000034 2 0.6799999999999997 2 0 2 C0 1.3399999999999999 0 0.6799999999999997 0 0 Z " fill="#000000" transform="translate(57,19)"/>
<path d="M0 0 C0.6599999999999966 0 1.3200000000000003 0 2 0 C2 0.6600000000000001 2 1.3200000000000003 2 2 C1.3400000000000034 2 0.6799999999999997 2 0 2 C0 1.3399999999999999 0 0.6799999999999997 0 0 Z " fill="#000000" transform="translate(53,19)"/>
<path d="M0 0 C0.6599999999999966 0 1.3200000000000003 0 2 0 C2 0.6600000000000001 2 1.3200000000000003 2 2 C1.3400000000000034 2 0.6799999999999997 2 0 2 C0 1.3399999999999999 0 0.6799999999999997 0 0 Z " fill="#000000" transform="translate(49,19)"/>
<path d="M0 0 C0.6599999999999966 0 1.3200000000000003 0 2 0 C2 0.6600000000000001 2 1.3200000000000003 2 2 C1.3400000000000034 2 0.6799999999999997 2 0 2 C0 1.3399999999999999 0 0.6799999999999997 0 0 Z " fill="#000000" transform="translate(45,19)"/>
<path d="M0 0 C0.6599999999999966 0 1.3200000000000003 0 2 0 C2 0.6600000000000001 2 1.3200000000000003 2 2 C1.3400000000000034 2 0.6799999999999997 2 0 2 C0 1.3399999999999999 0 0.6799999999999997 0 0 Z " fill="#000000" transform="translate(41,19)"/>
<path d="M0 0 C0.6599999999999966 0 1.3200000000000003 0 2 0 C2 0.6600000000000001 2 1.3200000000000003 2 2 C1.3400000000000034 2 0.6799999999999997 2 0 2 C0 1.3399999999999999 0 0.6799999999999997 0 0 Z " fill="#000000" transform="translate(37,19)"/>
<path d="M0 0 C0.6599999999999966 0 1.3200000000000003 0 2 0 C2 0.6600000000000001 2 1.3200000000000003 2 2 C1.3400000000000034 2 0.6799999999999997 2 0 2 C0 1.3399999999999999 0 0.6799999999999997 0 0 Z " fill="#000000" transform="translate(33,19)"/>
<path d="M0 0 C0.6600000000000001 0 1.3200000000000003 0 2 0 C2 0.6600000000000001 2 1.3200000000000003 2 2 C1.3399999999999999 2 0.6799999999999997 2 0 2 C0 1.3399999999999999 0 0.6799999999999997 0 0 Z " fill="#000000" transform="translate(29,19)"/>
<path d="M0 0 C0.6600000000000001 0 1.3200000000000003 0 2 0 C2 0.6600000000000001 2 1.3200000000000003 2 2 C1.3399999999999999 2 0.6799999999999997 2 0 2 C0 1.3399999999999999 0 0.6799999999999997 0 0 Z " fill="#000000" transform="translate(25,19)"/>
<path d="M0 0 C0.6600000000000001 0 1.3200000000000003 0 2 0 C2 0.6600000000000001 2 1.3200000000000003 2 2 C1.3399999999999999 2 0.6799999999999997 2 0 2 C0 1.3399999999999999 0 0.6799999999999997 0 0 Z " fill="#000000" transform="translate(21,19)"/>
<path d="M0 0 C0.6600000000000001 0 1.3200000000000003 0 2 0 C2 0.6600000000000001 2 1.3200000000000003 2 2 C1.3399999999999999 2 0.6799999999999997 2 0 2 C0 1.3399999999999999 0 0.6799999999999997 0 0 Z " fill="#000000" transform="translate(17,19)"/>
<path d="M0 0 C0.6600000000000001 0 1.3200000000000003 0 2 0 C2 0.6600000000000001 2 1.3200000000000003 2 2 C1.3399999999999999 2 0.6799999999999997 2 0 2 C0 1.3399999999999999 0 0.6799999999999997 0 0 Z " fill="#000000" transform="translate(13,19)"/>
</svg>
