<?xml version="1.0" encoding="UTF-8"?>
<!-- Generator: visioncortex VTracer 0.6.12 -->
<svg version="1.1" xmlns="http://www.w3.org/2000/svg" width="80" height="80">
<path d="M0 0 C7.273636418778722 5.180419507265235 13.385230452741979 11.950895408435247 15 21 C15.805148575427083 32.958436218638354 15.201809358094607 42.20675407497462 7.3125 51.8125 C0.8478199917232132 58.63968542930165 -6.176743439325342 62.03635159779097 -15.532958984375 62.29296875 C-26.879931944432176 62.39890384590437 -34.56969619733198 60.22382749456176 -43.01953125 52.22265625 C-50.84579927662391 43.43932980591913 -51.7010244727135 34.23967386965748 -51.17041015625 22.93994140625 C-50.41145414198198 14.300020934367893 -45.306279218993915 7.619127529050818 -39 2 C-27.904325141508874 -5.633970058633468 -11.777235003917063 -7.283830011133377 0 0 Z M-43 11 C-48.72954079690682 18.714578553315476 -48.533835193966624 26.704987210934107 -48 36 C-46.85711885522256 43.53548007545565 -41.45753228728481 49.01856907541855 -36 54 C-28.052862167197926 59.22946375526354 -20.280562737219263 59.709213309612835 -11 59 C-2.875267806623391 57.004873455472605 3.348160955762104 51.419476662306764 8.375 44.9375 C12.732480397164267 37.06051620512615 13.517730704473962 28.116363856951978 11.34765625 19.37109375 C7.867866512122191 10.78362980459341 1.3289977210909996 4.00135354435918 -7 0 C-21.541120129114333 -4.909582495206345 -33.2011672153607 0.5768168078438549 -43 11 Z " fill="#000000" transform="translate(58,11)"/>
<path d="M0 0 C8.579999999999998 0 17.159999999999997 0 26 0 C26 2.6400000000000006 26 5.280000000000001 26 8 C17.42 8 8.840000000000003 8 0 8 C0 5.359999999999999 0 2.719999999999999 0 0 Z M2 2 C2 3.3200000000000003 2 4.640000000000001 2 6 C9.260000000000005 6 16.520000000000003 6 24 6 C24 4.68 24 3.3599999999999994 24 2 C16.739999999999995 2 9.479999999999997 2 2 2 Z " fill="#000000" transform="translate(27,36)"/>
<path d="M0 0 C0.990000000000002 0 1.9799999999999969 0 3 0 C3 0.9899999999999949 3 1.980000000000004 3 3 C2.009999999999998 3 1.0200000000000031 3 0 3 C0 2.010000000000005 0 1.019999999999996 0 0 Z " fill="#000000" transform="translate(44,65)"/>
<path d="M0 0 C0.990000000000002 0 1.9799999999999969 0 3 0 C3 0.9899999999999949 3 1.980000000000004 3 3 C2.009999999999998 3 1.0200000000000031 3 0 3 C0 2.010000000000005 0 1.019999999999996 0 0 Z " fill="#000000" transform="translate(33,65)"/>
<path d="M0 0 C0.9899999999999949 0 1.980000000000004 0 3 0 C3 0.990000000000002 3 1.9799999999999969 3 3 C2.010000000000005 3 1.019999999999996 3 0 3 C0 2.009999999999998 0 1.0200000000000031 0 0 Z " fill="#000000" transform="translate(65,44)"/>
<path d="M0 0 C0.9900000000000002 0 1.9800000000000004 0 3 0 C3 0.990000000000002 3 1.9799999999999969 3 3 C2.01 3 1.0199999999999996 3 0 3 C0 2.009999999999998 0 1.0200000000000031 0 0 Z " fill="#000000" transform="translate(12,44)"/>
<path d="M0 0 C0.9899999999999949 0 1.980000000000004 0 3 0 C3 0.990000000000002 3 1.9799999999999969 3 3 C2.010000000000005 3 1.019999999999996 3 0 3 C0 2.009999999999998 0 1.0200000000000031 0 0 Z " fill="#000000" transform="translate(65,33)"/>
<path d="M0 0 C0.9900000000000002 0 1.9800000000000004 0 3 0 C3 0.990000000000002 3 1.9799999999999969 3 3 C2.01 3 1.0199999999999996 3 0 3 C0 2.009999999999998 0 1.0200000000000031 0 0 Z " fill="#000000" transform="translate(12,33)"/>
<path d="M0 0 C0.990000000000002 0 1.9799999999999969 0 3 0 C3 0.9900000000000002 3 1.9800000000000004 3 3 C2.009999999999998 3 1.0200000000000031 3 0 3 C0 2.01 0 1.0199999999999996 0 0 Z " fill="#000000" transform="translate(44,12)"/>
<path d="M0 0 C0.990000000000002 0 1.9799999999999969 0 3 0 C3 0.9900000000000002 3 1.9800000000000004 3 3 C2.009999999999998 3 1.0200000000000031 3 0 3 C0 2.01 0 1.0199999999999996 0 0 Z " fill="#000000" transform="translate(33,12)"/>
<path d="M0 0 C0.990000000000002 0 1.9799999999999969 0 3 0 C2.6700000000000017 0.990000000000002 2.3400000000000034 1.9799999999999969 2 3 C1.3400000000000034 3 0.6799999999999997 3 0 3 C0 2.009999999999998 0 1.0200000000000031 0 0 Z " fill="#000000" transform="translate(58,58)"/>
<path d="M0 0 C0.9899999999999984 0 1.9800000000000004 0 3 0 C3 0.990000000000002 3 1.9799999999999969 3 3 C2.009999999999998 2.6700000000000017 1.0199999999999996 2.3400000000000034 0 2 C0 1.3400000000000034 0 0.6799999999999997 0 0 Z " fill="#000000" transform="translate(19,58)"/>
<path d="M0 0 C0.990000000000002 0.3299999999999983 1.9799999999999969 0.6600000000000001 3 1 C3 1.6600000000000001 3 2.3200000000000003 3 3 C2.009999999999998 3 1.0200000000000031 3 0 3 C0 2.009999999999998 0 1.0199999999999996 0 0 Z " fill="#000000" transform="translate(58,19)"/>
<path d="M0 0 C0.6600000000000001 0 1.3200000000000003 0 2 0 C2 0.9899999999999984 2 1.9800000000000004 2 3 C1.009999999999998 3 0.019999999999999574 3 -1 3 C-0.6700000000000017 2.009999999999998 -0.33999999999999986 1.0199999999999996 0 0 Z " fill="#000000" transform="translate(20,19)"/>
<path d="M0 0 C0.6599999999999966 0.3299999999999983 1.3200000000000003 0.6599999999999966 2 1 C2 1.6599999999999966 2 2.319999999999993 2 3 C1.009999999999998 3 0.020000000000003126 3 -1 3 C-0.6700000000000017 2.010000000000005 -0.3400000000000034 1.019999999999996 0 0 Z " fill="#000000" transform="translate(50,63)"/>
<path d="M0 0 C0.6600000000000001 0.3299999999999983 1.3200000000000003 0.6599999999999966 2 1 C2 1.6599999999999966 2 2.319999999999993 2 3 C1.009999999999998 3 0.019999999999999574 3 -1 3 C-0.6700000000000017 2.010000000000005 -0.33999999999999986 1.019999999999996 0 0 Z " fill="#000000" transform="translate(29,63)"/>
<path d="M0 0 C0.6599999999999966 0 1.3199999999999932 0 2 0 C2 0.990000000000002 2 1.9799999999999969 2 3 C1.0100000000000051 2.6700000000000017 0.01999999999999602 2.3400000000000034 -1 2 C-0.6700000000000017 1.3400000000000034 -0.3400000000000034 0.6799999999999997 0 0 Z " fill="#000000" transform="translate(64,49)"/>
<path d="M0 0 C0.9900000000000002 0.3299999999999983 1.9800000000000004 0.6599999999999966 3 1 C2.6700000000000017 1.6599999999999966 2.34 2.3200000000000003 2 3 C1.3399999999999999 3 0.6799999999999997 3 0 3 C0 2.009999999999998 0 1.0200000000000031 0 0 Z " fill="#000000" transform="translate(14,49)"/>
<path d="M0 0 C0.6599999999999966 0 1.3199999999999932 0 2 0 C2 0.9899999999999984 2 1.9800000000000004 2 3 C1.0100000000000051 2.6700000000000017 0.01999999999999602 2.34 -1 2 C-0.6700000000000017 1.3399999999999999 -0.3400000000000034 0.6799999999999997 0 0 Z " fill="#000000" transform="translate(64,28)"/>
<path d="M0 0 C0.9900000000000002 0.3299999999999983 1.9800000000000004 0.6600000000000001 3 1 C2.6700000000000017 1.6600000000000001 2.34 2.3200000000000003 2 3 C1.3399999999999999 3 0.6799999999999997 3 0 3 C0 2.009999999999998 0 1.0199999999999996 0 0 Z " fill="#000000" transform="translate(14,28)"/>
<path d="M0 0 C0.990000000000002 0 1.9799999999999969 0 3 0 C2.6700000000000017 0.9900000000000002 2.3400000000000034 1.9800000000000004 2 3 C1.3400000000000034 2.6700000000000017 0.6799999999999997 2.34 0 2 C0 1.3399999999999999 0 0.6799999999999997 0 0 Z " fill="#000000" transform="translate(49,14)"/>
<path d="M0 0 C0.9899999999999984 0 1.9800000000000004 0 3 0 C2.6700000000000017 0.9900000000000002 2.34 1.9800000000000004 2 3 C1.3399999999999999 2.6700000000000017 0.6799999999999997 2.34 0 2 C0 1.3399999999999999 0 0.6799999999999997 0 0 Z " fill="#000000" transform="translate(28,14)"/>
<path d="M0 0 C0.6599999999999966 0 1.3200000000000003 0 2 0 C2 0.990000000000002 2 1.9799999999999969 2 3 C1.3400000000000034 3 0.6799999999999997 3 0 3 C0 2.009999999999998 0 1.0200000000000031 0 0 Z " fill="#000000" transform="translate(54,61)"/>
<path d="M0 0 C0.6600000000000001 0 1.3200000000000003 0 2 0 C2 0.990000000000002 2 1.9799999999999969 2 3 C1.3399999999999999 3 0.6799999999999997 3 0 3 C0 2.009999999999998 0 1.0200000000000031 0 0 Z " fill="#000000" transform="translate(24,61)"/>
<path d="M0 0 C0.990000000000002 0 1.9799999999999969 0 3 0 C3 0.6599999999999966 3 1.3200000000000003 3 2 C2.009999999999998 2 1.0200000000000031 2 0 2 C0 1.3400000000000034 0 0.6799999999999997 0 0 Z " fill="#000000" transform="translate(61,54)"/>
<path d="M0 0 C0.9899999999999984 0 1.9800000000000004 0 3 0 C3 0.6599999999999966 3 1.3200000000000003 3 2 C2.009999999999998 2 1.0199999999999996 2 0 2 C0 1.3400000000000034 0 0.6799999999999997 0 0 Z " fill="#000000" transform="translate(16,54)"/>
<path d="M0 0 C0.990000000000002 0 1.9799999999999969 0 3 0 C3 0.6600000000000001 3 1.3200000000000003 3 2 C2.009999999999998 2 1.0200000000000031 2 0 2 C0 1.3399999999999999 0 0.6799999999999997 0 0 Z " fill="#000000" transform="translate(61,24)"/>
<path d="M0 0 C0.9899999999999984 0 1.9800000000000004 0 3 0 C3 0.6600000000000001 3 1.3200000000000003 3 2 C2.009999999999998 2 1.0199999999999996 2 0 2 C0 1.3399999999999999 0 0.6799999999999997 0 0 Z " fill="#000000" transform="translate(16,24)"/>
<path d="M0 0 C0.6599999999999966 0 1.3200000000000003 0 2 0 C2 0.9899999999999984 2 1.9800000000000004 2 3 C1.3400000000000034 3 0.6799999999999997 3 0 3 C0 2.009999999999998 0 1.0199999999999996 0 0 Z " fill="#000000" transform="translate(54,16)"/>
<path d="M0 0 C0.6600000000000001 0 1.3200000000000003 0 2 0 C2 0.9899999999999984 2 1.9800000000000004 2 3 C1.3399999999999999 3 0.6799999999999997 3 0 3 C0 2.009999999999998 0 1.0199999999999996 0 0 Z " fill="#000000" transform="translate(24,16)"/>
<path d="M0 0 C0.6599999999999966 0 1.3200000000000003 0 2 0 C2 0.6599999999999966 2 1.3199999999999932 2 2 C1.3400000000000034 2 0.6799999999999997 2 0 2 C0 1.3400000000000034 0 0.6800000000000068 0 0 Z " fill="#000000" transform="translate(39,66)"/>
<path d="M0 0 C0.6599999999999966 0 1.3199999999999932 0 2 0 C2 0.6599999999999966 2 1.3200000000000003 2 2 C1.3400000000000034 2 0.6800000000000068 2 0 2 C0 1.3400000000000034 0 0.6799999999999997 0 0 Z " fill="#000000" transform="translate(66,39)"/>
<path d="M0 0 C0.6600000000000001 0 1.3200000000000003 0 2 0 C2 0.6599999999999966 2 1.3200000000000003 2 2 C1.3399999999999999 2 0.6799999999999997 2 0 2 C0 1.3400000000000034 0 0.6799999999999997 0 0 Z " fill="#000000" transform="translate(12,39)"/>
<path d="M0 0 C0.6599999999999966 0 1.3200000000000003 0 2 0 C2 0.6600000000000001 2 1.3200000000000003 2 2 C1.3400000000000034 2 0.6799999999999997 2 0 2 C0 1.3399999999999999 0 0.6799999999999997 0 0 Z " fill="#000000" transform="translate(39,12)"/>
</svg>
