<?xml version="1.0" encoding="UTF-8"?>
<svg version="1.1" xmlns="http://www.w3.org/2000/svg" width="64" height="64">
<path d="M0 0 C2 2 2 2 2.1953125 3.9453125 C2.13020833 5.96354167 2.06510417 7.98177083 2 10 C2.94101562 9.278125 3.88203125 8.55625 4.8515625 7.8125 C6.10881631 6.87425089 7.36666024 5.93679218 8.625 5 C9.55119141 4.28457031 9.55119141 4.28457031 10.49609375 3.5546875 C13.5881757 1.27631132 15.45724782 0.07118061 19.3359375 -0.4375 C22 0 22 0 24 2 C24.1995697 4.55750453 24.27986826 7.00438141 24.265625 9.5625 C24.26849518 10.68313843 24.26849518 10.68313843 24.27142334 11.82641602 C24.27278498 13.40674171 24.26909 14.98707858 24.26074219 16.56738281 C24.250042 18.99048922 24.26063779 21.41285423 24.2734375 23.8359375 C24.2721159 25.36979331 24.2695535 26.90364865 24.265625 28.4375 C24.26967346 29.16461182 24.27372192 29.89172363 24.27789307 30.64086914 C24.22992361 35.77007639 24.22992361 35.77007639 22 38 C17.28536617 38.71061148 14.68737495 37.54687425 10.8515625 34.80078125 C10.28179687 34.37152344 9.71203125 33.94226562 9.125 33.5 C8.53203125 33.07074219 7.9390625 32.64148437 7.328125 32.19921875 C5.87619681 31.1453999 4.43677655 30.07438484 3 29 C2.87625 30.11375 2.7525 31.2275 2.625 32.375 C2 36 2 36 0 38 C-7.03929159 38.75585183 -11.19777122 35.20995562 -16.8125 31.4375 C-17.77865234 30.82841797 -18.74480469 30.21933594 -19.74023438 29.59179688 C-26.5848021 25.04638823 -26.5848021 25.04638823 -28.44921875 20.34765625 C-27.66556544 14.50773549 -23.40521568 12.27464345 -19.00390625 8.88671875 C-17.52724115 7.81505174 -16.04668056 6.74873423 -14.5625 5.6875 C-13.82451172 5.13771484 -13.08652344 4.58792969 -12.32617188 4.02148438 C-8.18750383 1.06003747 -5.29889306 -0.98305256 0 0 Z " fill="#000000" transform="translate(34,13)"/>
</svg>
