<?xml version="1.0" encoding="UTF-8"?>
<svg version="1.1" xmlns="http://www.w3.org/2000/svg" width="100" height="100">
<path d="M0 0 C2.81729441 0.61306573 3.79222334 1.39809938 5.7265625 3.51171875 C6.24992187 4.06859375 6.77328125 4.62546875 7.3125 5.19921875 C8.4308927 6.46758748 9.54385111 7.74112857 10.63012695 9.03710938 C16.92069548 16.43754443 23.90391109 23.17233594 30.7890625 30.01171875 C32.10635309 31.3239846 33.42341236 32.6364827 34.74023438 33.94921875 C37.9413486 37.13940381 41.14558115 40.32642526 44.3515625 43.51171875 C43.18016542 46.8089846 42.16197917 49.07772169 39.53515625 51.40234375 C38.94774658 51.93537109 38.36033691 52.46839844 37.75512695 53.01757812 C37.10632568 53.59314453 36.45752441 54.16871094 35.7890625 54.76171875 C30.31938068 59.71100182 25.04181093 64.79725817 19.90625 70.08984375 C18.78201128 71.24189014 17.6577436 72.39390827 16.53344727 73.54589844 C14.84742695 75.27494703 13.16732959 77.00828685 11.50216675 78.75744629 C9.92998638 80.4076548 8.34014913 82.03892215 6.74609375 83.66796875 C6.27577728 84.17241516 5.80546082 84.67686157 5.32089233 85.19659424 C3.96020508 86.56835938 3.96020508 86.56835938 1.3515625 88.51171875 C-3.57478954 88.41564786 -6.21942934 85.60943072 -9.5234375 82.26171875 C-10.28914063 81.54435547 -10.28914063 81.54435547 -11.0703125 80.8125 C-12.515625 79.37109375 -12.515625 79.37109375 -14.6484375 76.51171875 C-14.63870328 72.15866838 -12.56020293 69.96856296 -9.57102966 66.98112488 C-9.00747269 66.43821304 -8.44391571 65.89530121 -7.86328125 65.3359375 C-7.28759903 64.76591507 -6.71191681 64.19589264 -6.11878967 63.6085968 C-4.28370259 61.79584312 -2.43518234 59.99751623 -0.5859375 58.19921875 C0.66302209 56.97032797 1.91108004 55.74052011 3.15820312 54.50976562 C6.21230819 51.49968761 9.2785343 48.50247043 12.3515625 45.51171875 C10.74676271 41.41178086 7.78170092 38.78847767 4.65234375 35.828125 C3.51440301 34.72519814 2.37705057 33.62166404 1.24023438 32.51757812 C-0.55107546 30.78833485 -2.3465217 29.06417507 -4.15258789 27.3503418 C-5.89778871 25.68965893 -7.62365374 24.01076618 -9.34765625 22.328125 C-9.89338791 21.81963516 -10.43911957 21.31114532 -11.00138855 20.7872467 C-12.4987793 19.31079102 -12.4987793 19.31079102 -14.6484375 16.51171875 C-14.6117459 12.26785244 -12.83068409 10.15859412 -9.89453125 7.16210938 C-9.15396484 6.43797852 -9.15396484 6.43797852 -8.3984375 5.69921875 C-7.92019531 5.19712891 -7.44195312 4.69503906 -6.94921875 4.17773438 C-4.71124597 1.94885905 -3.13548558 0.60582391 0 0 Z " fill="#000000" transform="translate(36.6484375,5.48828125)"/>
</svg>
