<?xml version="1.0" encoding="UTF-8"?>
<svg version="1.1" xmlns="http://www.w3.org/2000/svg" width="64" height="64">
<path d="M0 0 C3.5742949 -0.32916462 5.42735126 -0.39052823 8.44116211 1.66479492 C9.21210205 2.42896729 9.98304199 3.19313965 10.77734375 3.98046875 C11.61974609 4.81513672 12.46214844 5.64980469 13.33007812 6.50976562 C14.19052734 7.39341797 15.05097656 8.27707031 15.9375 9.1875 C16.82501953 10.05181641 17.71253906 10.91613281 18.62695312 11.80664062 C19.46033203 12.64775391 20.29371094 13.48886719 21.15234375 14.35546875 C21.91538818 15.12528076 22.67843262 15.89509277 23.46459961 16.68823242 C25 19 25 19 24.97949219 21.51367188 C23.05667503 26.39452182 18.9784516 29.67525593 15.3125 33.3125 C14.50876953 34.14845703 13.70503906 34.98441406 12.87695312 35.84570312 C11.69456055 37.0300293 11.69456055 37.0300293 10.48828125 38.23828125 C9.77196533 38.96055908 9.05564941 39.68283691 8.31762695 40.42700195 C5.38425265 42.41791427 3.47270889 42.30022611 0 42 C-0.93359375 39.4609375 -0.93359375 39.4609375 -1 36 C0.93720184 33.15302851 3.40349344 30.9391833 5.9375 28.625 C6.60974609 27.98433594 7.28199219 27.34367187 7.97460938 26.68359375 C9.63512508 25.10551499 11.30967306 23.54600366 13 22 C11.72493738 19.16795899 10.4614149 17.25651162 8.14453125 15.1953125 C7.60505859 14.69386719 7.06558594 14.19242188 6.50976562 13.67578125 C5.37571387 12.63960508 4.232353 11.6135288 3.08007812 10.59765625 C1.45703125 9.0703125 1.45703125 9.0703125 -1 6 C-0.86328125 2.6171875 -0.86328125 2.6171875 0 0 Z " fill="#000000" transform="translate(20,11)"/>
</svg>
