<?xml version="1.0" encoding="UTF-8"?>
<!-- Generator: visioncortex VTracer 0.6.12 -->
<svg version="1.1" xmlns="http://www.w3.org/2000/svg" width="80" height="80">
<path d="M0 0 C0.8249156161892728 10.56350275175701 -1.8819416023498547 19.200834741208958 -8.5859375 27.42578125 C-10.59309204809719 29.566096536725 -12.63816485779671 31.551998894454925 -14.7890625 33.54296875 C-15.468640136718747 34.183955078125 -16.1482177734375 34.82494140625 -16.848388671875 35.4853515625 C-18.216277446679868 36.76356105687182 -19.606706447478246 38.018163838876 -21.020751953125 39.2451171875 C-25.886325894243853 43.78379397195697 -25.886325894243853 43.78379397195697 -26.233642578125 47.499755859375 C-26.13102707165752 49.226821549858265 -26.015571107798017 50.95317843387392 -25.886474609375 52.678466796875 C-26.022341370311082 55.45686901137226 -26.563805500991485 56.270768604995595 -28.51953125 58.19921875 C-29.592691368333377 59.060105438333366 -30.69157751526228 59.88979622481756 -31.8125 60.6875 C-32.35970703125 61.12771484375 -32.9069140625 61.5679296875 -33.470703125 62.021484375 C-35.082031249999986 63.26171875 -35.082031249999986 63.26171875 -38 65 C-38.495 64.83500000000001 -38.495 64.83500000000001 -41 64 C-42.1875 60.43750000000003 -42.1875 60.43750000000003 -43 57 C-43.6174609375 57.2771484375 -44.234921875 57.554296875000006 -44.87109375 57.83984375 C-50.696521178203504 60.3313888144219 -55.677771763048405 61.59211430729344 -62 62 C-61.546482095567896 54.97047248130236 -59.87940913466808 49.41505570002795 -57 43 C-59.31 42.34 -61.620000000000005 41.68 -64 41 C-64 36.213934322607884 -62.984120172260646 34.9896104675243 -60.125 31.25 C-59.405703125 30.265156250000004 -58.686406250000005 29.2803125 -57.9453125 28.265625 C-54.594698451382115 25.688229577986235 -54.19801856946039 25.84414634973451 -50.2421875 26.2109375 C-46.92195698041226 26.388246305792933 -45.45768937183003 26.308257386346675 -42.66845703125 24.4296875 C-40.32568129981443 22.165363221160103 -38.14899479859107 19.823942835850247 -36 17.375 C-25.51910595888684 5.764539639968284 -15.993964651672101 -0.5792582771229329 0 0 Z M-36.736328125 23.517578125 C-40.604278895975966 27.630869678277712 -43.047963588447736 29.40435722164517 -48.78125 29.765625 C-49.233388671875 29.7574072265625 -49.233388671875 29.7574072265625 -51.521484375 29.7158203125 C-54.651704545336216 30.074722625174488 -55.63825508540461 31.11132166824426 -57.6875 33.4375 C-60 36.55774647887324 -60 36.55774647887324 -60 39 C-58.019999999999996 39.99 -56.04 40.98 -54 42 C-54.28875 43.03125 -54.5775 44.0625 -54.875 45.125 C-55.005337975697444 49.165477246620824 -55.00445896330077 49.67751450167691 -52.5 52.5 C-49.677514501676896 55.00445896330078 -49.165477246620846 55.005337975697444 -45.125 54.875 C-44.09375 54.58625 -43.0625 54.2975 -42 54 C-41.010000000000005 55.98 -40.019999999999996 57.96000000000001 -39 60 C-37.6377701724405 59.394564521084675 -36.31138904307038 58.70885894220021 -35 58 C-34.113125 57.52562499999999 -33.22625 57.05125000000001 -32.3125 56.5625 C-29.545486268391997 53.4963496487587 -29.85590060383653 52.88115147263959 -29.9296875 48.9296875 C-29.39023682915996 41.50327020391455 -25.188540721901568 38.25410030430936 -19.8125 33.5625 C-11.447981998650071 26.135111948839167 -4.4769397850595 18.301812425299914 -3.125 6.75 C-3.083750000000009 5.512499999999999 -3.0424999999999898 4.275 -3 3 C-17.38239504765467 1.4860636791942454 -28.185277980226445 13.716425217944831 -36.736328125 23.517578125 Z M-57 52 C-56 54 -56 54 -56 54 Z M-58 54 C-58.33 55.65 -58.66 57.3 -59 59 C-57.35 58.67 -55.7 58.34 -54 58 C-54.99 57.67 -55.980000000000004 57.34 -57 57 C-57.33 56.00999999999999 -57.66 55.02 -58 54 Z " fill="#000000" transform="translate(72,8)"/>
<path d="M0 0 C0.7012500000000017 0.005156249999998863 1.4025000000000034 0.010312500000001279 2.125 0.015625 C2.8262500000000017 0.010468750000001137 3.5275000000000034 0.005312499999998721 4.25 0 C6.125 0.265625 6.125 0.265625 8.125 2.265625 C8.390625 4.140625 8.390625 4.140625 8.375 6.265625 C8.380156249999999 6.966875000000002 8.385312499999998 7.668125 8.390625 8.390625 C8.125 10.265625 8.125 10.265625 6.125 12.265625 C4.25 12.53125 4.25 12.53125 2.125 12.515625 C1.4237499999999983 12.520781249999999 0.7224999999999966 12.525937499999998 0 12.53125 C-1.875 12.265625 -1.875 12.265625 -3.875 10.265625 C-4.140625 8.390625 -4.140625 8.390625 -4.125 6.265625 C-4.130156249999999 5.564374999999998 -4.135312499999998 4.863125 -4.140625 4.140625 C-3.756034807073597 1.4258706969900956 -2.7147543030099044 0.38459019292640306 0 0 Z M0.125 3.265625 C-0.2049999999999983 4.915624999999999 -0.5349999999999966 6.565625000000001 -0.875 8.265625 C-0.04999999999999716 8.430625 -0.04999999999999716 8.430625 4.125 9.265625 C4.454999999999998 7.615625000000001 4.784999999999997 5.965624999999999 5.125 4.265625 C3.4750000000000014 3.9356250000000017 1.8250000000000028 3.605625 0.125 3.265625 Z " fill="#000000" transform="translate(50.875,20.734375)"/>
<path d="M0 0 C0.6599999999999966 0 1.3200000000000003 0 2 0 C2 0.6599999999999966 2 1.3200000000000003 2 2 C1.3400000000000034 2 0.6799999999999997 2 0 2 C0 1.3400000000000034 0 0.6799999999999997 0 0 Z " fill="#000000" transform="translate(33,61)"/>
<path d="M0 0 C0.6599999999999966 0 1.3200000000000003 0 2 0 C2 0.6599999999999966 2 1.3200000000000003 2 2 C1.3400000000000034 2 0.6799999999999997 2 0 2 C0 1.3400000000000034 0 0.6799999999999997 0 0 Z " fill="#000000" transform="translate(36,58)"/>
<path d="M0 0 C0.6599999999999966 0 1.3200000000000003 0 2 0 C2 0.6599999999999966 2 1.3200000000000003 2 2 C1.3400000000000034 2 0.6799999999999997 2 0 2 C0 1.3400000000000034 0 0.6799999999999997 0 0 Z " fill="#000000" transform="translate(39,55)"/>
<path d="M0 0 C0.6600000000000001 0 1.3200000000000003 0 2 0 C2 0.6599999999999966 2 1.3200000000000003 2 2 C1.3399999999999999 2 0.6799999999999997 2 0 2 C0 1.3400000000000034 0 0.6799999999999997 0 0 Z " fill="#000000" transform="translate(17,45)"/>
<path d="M0 0 C0.6600000000000001 0 1.3200000000000003 0 2 0 C2 0.6599999999999966 2 1.3200000000000003 2 2 C1.3399999999999999 2 0.6799999999999997 2 0 2 C0 1.3400000000000034 0 0.6799999999999997 0 0 Z " fill="#000000" transform="translate(20,42)"/>
<path d="M0 0 C0.6600000000000001 0 1.3200000000000003 0 2 0 C2 0.6599999999999966 2 1.3200000000000003 2 2 C1.3399999999999999 2 0.6799999999999997 2 0 2 C0 1.3400000000000034 0 0.6799999999999997 0 0 Z " fill="#000000" transform="translate(23,39)"/>
<path d="M0 0 C0.6599999999999966 0 1.3200000000000003 0 2 0 C2 0.6599999999999966 2 1.3200000000000003 2 2 C1.3400000000000034 2 0.6799999999999997 2 0 2 C0 1.3400000000000034 0 0.6799999999999997 0 0 Z " fill="#000000" transform="translate(45,33)"/>
<path d="M0 0 C0.6599999999999966 0 1.3200000000000003 0 2 0 C2 0.6600000000000001 2 1.3200000000000003 2 2 C1.3400000000000034 2 0.6799999999999997 2 0 2 C0 1.3399999999999999 0 0.6799999999999997 0 0 Z " fill="#000000" transform="translate(59,19)"/>
</svg>
