<?xml version="1.0" encoding="UTF-8"?>
<!-- Generator: visioncortex VTracer 0.6.12 -->
<svg version="1.1" xmlns="http://www.w3.org/2000/svg" width="96" height="96">
<path d="M0 0 C0.9074999999999989 0.0025781249999999867 1.8149999999999977 0.005156250000000001 2.75 0.0078125 C3.2037499999999994 0.006523437500000007 3.2037499999999994 0.006523437500000007 5.5 0 C7.75 0.13281249999999986 7.75 0.13281249999999986 8.75 1.1328125 C8.95943609510892 3.107911230263312 9.118038218893318 5.088529323022918 9.25 7.0703125 C9.639958734525443 12.912729969050886 9.639958734525443 12.912729969050886 10.75 15.1328125 C10.804140625000002 16.3703125 10.858281249999997 17.6078125 10.9140625 18.8828125 C11.568901031204646 25.242645083217106 14.404197776630056 30.6240402399893 17.21484375 36.29248046875 C18.132949531058273 38.148886417681666 19.02457767109889 40.016457290329214 19.9140625 41.88671875 C23.20743914409823 48.644074882372685 23.20743914409823 48.644074882372685 24.75 51.1328125 C25.74000000000001 51.4628125 26.72999999999999 51.7928125 27.75 52.1328125 C27.744763183593747 51.35043212890625 27.739526367187494 50.5680517578125 27.734130859375 49.761962890625 C27.71342894067078 46.2397541652643 27.70036161705555 42.71755819935535 27.6875 39.1953125 C27.67912109375 37.96361328125 27.670742187499997 36.7319140625 27.662109375 35.462890625 C27.658886718749997 34.29306640625 27.655664062499994 33.1232421875 27.65234375 31.91796875 C27.647106933593747 30.83394775390625 27.641870117187494 29.7499267578125 27.636474609375 28.633056640625 C27.75 26.132812500000007 27.75 26.132812500000007 28.75 25.1328125 C34.486111111111114 24.85966435185185 34.486111111111114 24.85966435185185 36.75 25.1328125 C38.75 27.132812500000007 38.75 27.132812500000007 38.97705078125 29.65478515625 C38.966577148437494 30.6916748046875 38.956103515625 31.728564453125 38.9453125 32.796875 C38.938867187499994 33.918359375 38.932421875 35.03984375 38.92578125 36.1953125 C38.91740234375 36.783125 38.91740234375 36.783125 38.875 39.7578125 C38.865976562499995 40.941171875 38.856953125000004 42.12453125 38.84765625 43.34375 C38.824028123162336 46.27363772787039 38.791085141059824 49.20312590288792 38.75 52.1328125 C39.41 52.2978125 39.41 52.2978125 42.75 53.1328125 C42.75 56.1028125 42.75 59.0728125 42.75 62.1328125 C41.43000000000001 62.4628125 40.11 62.7928125 38.75 63.1328125 C38.760473632812506 63.526057128906245 38.760473632812506 63.526057128906245 38.8134765625 65.51611328125 C38.89687752973293 69.09654847581305 38.94873776055216 72.67677891571557 39 76.2578125 C39.03351562500001 77.4953125 39.06703125 78.7328125 39.1015625 80.0078125 C39.22325211864408 91.3249470338983 39.22325211864408 91.3249470338983 34.75 96.1328125 C32.17823745978288 95.77808663238385 30.97709250307709 95.36288539948193 29.131591796875 93.4931640625 C27.308507692944488 90.37855421680285 27.407999531872946 88.21284682931736 27.45703125 84.6171875 C27.461865234374997 83.9919921875 27.461865234374997 83.9919921875 27.486328125 80.828125 C27.51146484374999 79.526171875 27.53660156250001 78.22421875 27.5625 76.8828125 C27.569267578124993 76.22410156250001 27.569267578124993 76.22410156250001 27.603515625 72.890625 C27.63887449144596 69.63760928697116 27.68822966701356 66.38541649540893 27.75 63.1328125 C26.762578125000005 63.156015625 25.77515625000001 63.17921875 24.7578125 63.203125 C23.476484375 63.221171875 22.195156249999997 63.23921875 20.875 63.2578125 C19.598828124999997 63.281015625 18.32265625 63.30421875 17.0078125 63.328125 C13.75 63.1328125 13.75 63.1328125 11.75 61.1328125 C11.58984375 59.257812499999964 11.58984375 59.257812499999964 11.6875 57.1328125 C11.84830508474576 53.329422669491535 11.84830508474576 53.329422669491535 10.75 51.1328125 C5.140000000000001 50.8028125 -0.46999999999999886 50.4728125 -6.25 50.1328125 C-6.909999999999997 52.1128125 -7.57 54.0928125 -8.25 56.1328125 C-8.781818717742397 57.376758369400214 -9.338910591728876 58.61045930374192 -9.929931640625 59.827392578125 C-10.088408279418942 60.15589454650879 -10.088408279418942 60.15589454650879 -10.890396118164063 61.81831359863281 C-11.226916961669922 62.50604354858398 -11.56343780517578 63.19377349853516 -11.91015625 63.90234375 C-12.260091400146486 64.62395187377929 -12.610026550292968 65.3455599975586 -12.970565795898438 66.08903503417969 C-13.70591655633985 67.60342329764116 -14.443052700081061 69.11694579745676 -15.181884765625 70.629638671875 C-16.316463058511864 72.95342945313864 -17.444776558242843 75.28018450301222 -18.572265625 77.607421875 C-19.288697350627764 79.08090676403074 -20.005481667759952 80.55422028121785 -20.72265625 82.02734375 C-21.061201324462893 82.72519485473633 -21.39974639892578 83.42304595947266 -21.748550415039063 84.14204406738281 C-24.134166784404414 89.01697928440441 -24.134166784404414 89.01697928440441 -25.25 90.1328125 C-26.91617115107175 90.17345082075785 -28.583880948484197 90.17553350132091 -30.25 90.1328125 C-30.91 92.1128125 -31.57 94.0928125 -32.25 96.1328125 C-33.24 96.1328125 -34.230000000000004 96.1328125 -35.25 96.1328125 C-34.95703125 94.1796875 -34.6640625 92.2265625 -34.37109375 90.2734375 C-34.25 88.1328125 -34.25 88.1328125 -34.824005126953125 86.22489929199219 C-35.56945896939575 82.56393002572023 -33.46551789014207 79.41090045448166 -31.9296875 76.15234375 C-31.748972015380858 75.75804420471192 -31.748972015380858 75.75804420471192 -30.834442138671875 73.76264953613281 C-26.501313495327263 64.37566330202672 -21.941482413009247 55.09531822024076 -17.375 45.8203125 C-16.092701261789884 43.21150615600395 -14.811400275664461 40.60222275862886 -13.532196044921875 37.99189758300781 C-12.746130571904565 36.38824365176053 -11.958254883622722 34.785475281387455 -11.168243408203125 33.18376159667969 C-6.325313598811633 23.313572580582473 -4.176728776476892 14.540347009585732 -3.49609375 3.5390625 C-3.1763729071698776 0.4129031478832621 -3.13328737217725 0.18495099071879595 0 0 Z M0.75 2.1328125 C4.75 3.1328125 4.75 3.1328125 4.75 3.1328125 Z M4.75 3.1328125 C4.75 4.1228125 4.75 5.1128125 4.75 6.1328125 C3.1000000000000014 6.1328125 1.4500000000000028 6.1328125 -0.25 6.1328125 C-0.25 6.4628125 -0.25 6.7928125 -0.25 7.1328125 C1.3999999999999986 7.1328125 3.049999999999997 7.1328125 4.75 7.1328125 C4.420000000000002 8.4528125 4.090000000000003 9.7728125 3.75 11.1328125 C4.409999999999997 11.1328125 5.07 11.1328125 5.75 11.1328125 C5.75 8.4928125 5.75 5.8528125 5.75 3.1328125 C5.420000000000002 3.1328125 5.090000000000003 3.1328125 4.75 3.1328125 Z M-2.25 16.1328125 C-2.25 17.7828125 -2.25 19.4328125 -2.25 21.1328125 C-1.9200000000000017 21.1328125 -1.5900000000000034 21.1328125 -1.25 21.1328125 C-1.25 19.4828125 -1.25 17.8328125 -1.25 16.1328125 C-1.5799999999999983 16.1328125 -1.9099999999999966 16.1328125 -2.25 16.1328125 Z M6.75 17.1328125 C7.75 21.1328125 7.75 21.1328125 7.75 21.1328125 Z M-3.25 25.1328125 C-10.21466679551179 38.080143180593495 -16.7395658846162 51.189475866094895 -22.99560546875 64.4931640625 C-24.151250570307216 66.92501202630626 -25.335319947663393 69.33972345098444 -26.53515625 71.75 C-26.703258056640625 72.0930517578125 -26.703258056640625 72.0930517578125 -27.553955078125 73.8291015625 C-28.429360632167946 75.613799337194 -29.31576749653044 77.39308954579727 -30.203125 79.171875 C-31.337923037614154 82.38149034519228 -31.273262260743756 83.93214333558058 -30.25 87.1328125 C-28.378463745117188 86.84382629394531 -28.378463745117188 86.84382629394531 -26.25 86.1328125 C-24.646910324888893 83.49958680608012 -23.31795370481124 80.98689277968202 -22.01953125 78.20703125 C-21.627213134765626 77.39571746826172 -21.23489501953125 76.58440368652344 -20.8306884765625 75.74850463867188 C-19.560556801733142 73.11226196115615 -18.311244588930567 70.46674382730198 -17.0625 67.8203125 C-16.203708751356267 66.02613681111178 -15.343927794028069 64.23243451339901 -14.483154296875 62.439208984375 C-8.890877126666922 50.75375521565509 -3.3982112299269076 39.02162461956094 1.75 27.1328125 C0.10000000000000142 26.4728125 -1.5499999999999972 25.8128125 -3.25 25.1328125 Z M6.75 25.1328125 C6.090000000000003 25.7928125 5.43 26.4528125 4.75 27.1328125 C4.958380086136735 32.949334904338386 7.794824009580488 37.88763835715603 10.3125 43.0078125 C10.737246093750002 43.886953125000005 11.161992187499997 44.766093749999996 11.599609375 45.671875 C12.642965592867675 47.82892605716463 13.69321884330035 49.98231538269074 14.75 52.1328125 C16.730000000000004 52.1328125 18.71 52.1328125 20.75 52.1328125 C19.014601789558 46.208522057456626 16.30448391367014 40.79691369968785 13.625 35.2578125 C13.391035156249998 34.770546875 13.391035156249998 34.770546875 12.20703125 32.3046875 C11.057851548426164 29.912517508968754 9.905427566319432 27.521969335480346 8.75 25.1328125 C8.090000000000003 25.1328125 7.43 25.1328125 6.75 25.1328125 Z M30.75 28.1328125 C30.75 29.1228125 30.75 30.1128125 30.75 31.1328125 C32.400000000000006 31.1328125 34.05 31.1328125 35.75 31.1328125 C35.75 30.142812499999998 35.75 29.1528125 35.75 28.1328125 C34.099999999999994 28.1328125 32.45 28.1328125 30.75 28.1328125 Z M1.75 33.1328125 C0.4299999999999997 36.4328125 -0.8900000000000006 39.7328125 -2.25 43.1328125 C0.7199999999999989 43.1328125 3.6899999999999977 43.1328125 6.75 43.1328125 C6.300909387968133 41.650813480294836 5.840434357652413 40.172260139877224 5.375 38.6953125 C5.2473828125 38.28345703125 5.2473828125 38.28345703125 4.6015625 36.19921875 C3.75 34.1328125 3.75 34.1328125 1.75 33.1328125 Z M30.75 34.1328125 C30.75 35.1228125 30.75 36.1128125 30.75 37.1328125 C32.400000000000006 37.1328125 34.05 37.1328125 35.75 37.1328125 C35.75 36.1428125 35.75 35.1528125 35.75 34.1328125 C34.099999999999994 34.1328125 32.45 34.1328125 30.75 34.1328125 Z M30.75 40.1328125 C30.75 41.1228125 30.75 42.1128125 30.75 43.1328125 C32.400000000000006 43.1328125 34.05 43.1328125 35.75 43.1328125 C35.75 42.1428125 35.75 41.1528125 35.75 40.1328125 C34.099999999999994 40.1328125 32.45 40.1328125 30.75 40.1328125 Z M-3.25 45.1328125 C-3.5799999999999983 45.7928125 -3.9099999999999966 46.4528125 -4.25 47.1328125 C0.03999999999999915 47.1328125 4.329999999999998 47.1328125 8.75 47.1328125 C8.75 46.4728125 8.75 45.8128125 8.75 45.1328125 C4.789999999999999 45.1328125 0.8299999999999983 45.1328125 -3.25 45.1328125 Z M30.75 45.1328125 C30.75 47.4428125 30.75 49.7528125 30.75 52.1328125 C32.400000000000006 52.1328125 34.05 52.1328125 35.75 52.1328125 C35.75 49.8228125 35.75 47.5128125 35.75 45.1328125 C34.099999999999994 45.1328125 32.45 45.1328125 30.75 45.1328125 Z M14.75 55.1328125 C14.75 56.7828125 14.75 58.4328125 14.75 60.1328125 C17.72 60.1328125 20.689999999999998 60.1328125 23.75 60.1328125 C23.75 58.4828125 23.75 56.8328125 23.75 55.1328125 C20.78 55.1328125 17.810000000000002 55.1328125 14.75 55.1328125 Z M26.75 55.1328125 C26.75 56.7828125 26.75 58.4328125 26.75 60.1328125 C31.040000000000006 60.1328125 35.33 60.1328125 39.75 60.1328125 C39.75 58.4828125 39.75 56.8328125 39.75 55.1328125 C35.46000000000001 55.1328125 31.17 55.1328125 26.75 55.1328125 Z M30.75 63.1328125 C30.75 69.0728125 30.75 75.0128125 30.75 81.1328125 C32.400000000000006 81.1328125 34.05 81.1328125 35.75 81.1328125 C35.75 75.1928125 35.75 69.2528125 35.75 63.1328125 C34.099999999999994 63.1328125 32.45 63.1328125 30.75 63.1328125 Z M30.75 84.1328125 C30.75 85.7828125 30.75 87.4328125 30.75 89.1328125 C32.400000000000006 89.1328125 34.05 89.1328125 35.75 89.1328125 C35.75 87.4828125 35.75 85.8328125 35.75 84.1328125 C34.099999999999994 84.1328125 32.45 84.1328125 30.75 84.1328125 Z " fill="#000000" transform="translate(44.25,-0.1328125)"/>
<path d="M0 0 C3 1 3 1 4.1875 2.8125 C5 5 5 5 5 9 C4.009999999999998 8.670000000000002 3.019999999999996 8.340000000000003 2 8 C0.3125 4.4375 0.3125 4.4375 -1 1 C-0.6700000000000017 0.6700000000000017 -0.3400000000000034 0.33999999999999986 0 0 Z " fill="#000000" transform="translate(51,29)"/>
</svg>
