<?xml version="1.0" encoding="UTF-8"?>
<!-- Generator: visioncortex VTracer 0.6.12 -->
<svg version="1.1" xmlns="http://www.w3.org/2000/svg" width="100" height="100">
<path d="M0 0 C0.3950976562500017 0.004511718749999893 0.3950976562500017 0.004511718749999893 2.39453125 0.02734375 C2.6903710937500023 0.03314453125000005 2.6903710937500023 0.03314453125000005 4.1875 0.0625 C4.1875 1.3825000000000003 4.1875 2.7025000000000006 4.1875 4.0625 C3.4462890625 4.221054687500001 2.705078125 4.379609375000001 1.94140625 4.54296875 C-24.47999467707595 10.39642476933996 -24.47999467707595 10.39642476933996 -33.8125 17.0625 C-34.4725 17.0625 -35.1325 17.0625 -35.8125 17.0625 C-35.875 19.687500000000007 -35.875 19.687500000000007 -34.8125 23.0625 C-32.01072495794496 25.40964739372158 -28.98379459344092 27.255823080100324 -25.8125 29.0625 C-24.884375 28.423125 -23.956249999999997 27.78375 -23 27.125 C-17.139673338070253 23.333023924633693 -11.610276372745531 23.584037652383117 -4.8125 24.0625 C0.6399819820214105 25.779022105451183 3.9753009027698454 29.45869673361151 7.1875 34.0625 C8.972185289225607 39.4165558676768 9.232645467891473 45.85890193537616 7.46875 51.265625 C4.496826802046627 56.778063189752224 0.1238242105184355 60.26779733170373 -5.8125 62.0625 C-6.4454296874999955 62.0818359375 -7.078359375000005 62.101171875000006 -7.73046875 62.12109375 C-9.951528362114217 62.1919343004802 -11.707951934114163 62.329551488255646 -13.8125 63.0625 C-15.421506972825966 64.94907151800349 -16.503273503211297 66.88109023853265 -17.67578125 69.0625 C-20.10003745896916 73.32785800340966 -24.241401058159752 75.70656140966642 -28.69921875 77.53515625 C-32.991643077072915 78.60627877154315 -37.42418520818732 78.27675768422955 -41.8125 78.0625 C-42.078046875 78.812734375 -42.34359375 79.56296875 -42.6171875 80.3359375 C-44.99450441602162 85.75870615157874 -49.3415719825001 89.75415211732981 -54.8125 92 C-61.91891813625042 94.20025638449292 -67.16484225003697 92.86151378945812 -73.8125 90.0625 C-73.8125 88.7425 -73.8125 87.4225 -73.8125 86.0625 C-73.35359375 86.121796875 -73.35359375 86.121796875 -71.03125 86.421875 C-57.69613014806089 87.82262288360705 -57.69613014806089 87.82262288360705 -51.8125 83.0625 C-49.312500000000014 80.31250000000001 -49.312500000000014 80.31250000000001 -47.8125 78.0625 C-48.387421875 77.6383984375 -48.96234375 77.214296875 -49.5546875 76.77734375 C-51.7403181312511 75.11732325325393 -53.85017497636714 73.40676603728356 -55.9375 71.625 C-56.620703125 71.0487890625 -57.30390625 70.472578125 -58.0078125 69.87890625 C-61.41656672261599 66.44801725970468 -62.13623772605347 63.46551550575404 -62.25 58.6875 C-62.172064095527816 55.03425447786639 -61.996191159544466 52.50323711019308 -59.75 49.5625 C-54.397000103373536 45.00675540712641 -49.79268925756247 43.55484987217727 -42.8125 44.0625 C-41.822500000000005 44.2275 -41.822500000000005 44.2275 -36.8125 45.0625 C-34.8325 41.4325 -32.8525 37.8025 -30.8125 34.0625 C-31.5227734375 33.436015625 -32.233046875 32.80953125 -32.96484375 32.1640625 C-33.8839453125 31.346796874999995 -34.803046875 30.529531250000005 -35.75 29.6875 C-36.6665234375 28.875390625 -37.583046875 28.063281250000003 -38.52734375 27.2265625 C-41.15650211746578 24.73672705457087 -41.70299220555485 23.86555715926445 -42.1875 20.3125 C-41.685658272912896 15.963205031911734 -40.11587255282323 13.75258819702482 -36.8125 11.0625 C-28.417207091216042 5.739301657206386 -19.400941733069274 3.2442341166260302 -9.8125 1.0625 C-8.941093749999993 0.8639843750000002 -8.0696875 0.6654687500000005 -7.171875 0.4609375 C-4.732343560434259 0.04896364762300509 -2.471468884435282 -0.03688759529007868 0 0 Z M-19.8125 31.0625 C-21.046875 33.17578125 -21.046875 33.17578125 -21.8125 35.0625 C-21.613339843749998 35.31193359375 -21.613339843749998 35.31193359375 -20.60546875 36.57421875 C-15.85449951520863 43.01288021904816 -14.190150796829329 49.24372749518795 -12.8125 57.0625 C-6.207054992997016 57.310894171572535 -3.307330127742489 55.29471643008537 1.5625 50.9375 C3.9718689938300145 46.674770241685366 3.946614906893231 42.84722426163004 3.1875 38.0625 C0.9990269165843699 33.60449927452372 -1.2853269837995498 31.11050684066211 -5.8125 29.0625 C-10.883124745375426 27.48497230143876 -15.32707558738565 28.264160895733845 -19.8125 31.0625 Z M-26.8125 38.0625 C-27.65364170839085 39.49544498179441 -28.485156872133174 40.93404405229862 -29.3125 42.375 C-29.776562499999997 43.1755078125 -30.240625 43.976015625 -30.71875 44.80078125 C-31.8125 47.0625 -31.8125 47.0625 -31.8125 50.0625 C-30.04494473579299 50.90276396261114 -28.273327373296624 51.734487218694184 -26.5 52.5625 C-25.513867187499997 53.0265625 -24.527734375 53.490625 -23.51171875 53.96875 C-20.8125 55.0625 -20.8125 55.0625 -17.8125 55.0625 C-18.8081199927963 48.64298004644775 -20.534299961358172 43.09486991724856 -24.8125 38.0625 C-25.472499999999997 38.0625 -26.1325 38.0625 -26.8125 38.0625 Z M-55.8125 53.0625 C-57.367266896197094 56.17203379239419 -57.09894436623579 58.62516760517049 -56.8125 62.0625 C-54.170804653493995 67.45155850687226 -51.04864078211187 69.54139517898318 -45.8125 72.0625 C-45.1525 72.0625 -44.4925 72.0625 -43.8125 72.0625 C-41.522961642375606 65.07674575534138 -39.38898074961175 58.41262955754984 -38.8125 51.0625 C-45.92152012525726 47.812662228453824 -49.49623784379222 48.93263628247953 -55.8125 53.0625 Z M-33.8125 55.0625 C-35.4625 61.0025 -37.1125 66.9425 -38.8125 73.0625 C-31.599692334210687 73.0625 -28.335384464395418 72.36992340466361 -22.8125 68.0625 C-21.045975817758404 65.776409881805 -20.01154333173549 63.72124825732652 -18.8125 61.0625 C-20.935326694183388 60.05789469120335 -23.060830210071657 59.05894397966274 -25.1875 58.0625 C-26.370859375000002 57.505625 -27.554218750000004 56.94875 -28.7734375 56.375 C-31.8125 55.0625 -31.8125 55.0625 -33.8125 55.0625 Z " fill="#000000" transform="translate(79.8125,3.9375)"/>
</svg>
