<?xml version="1.0" encoding="UTF-8"?>
<!-- Generator: visioncortex VTracer 0.6.12 -->
<svg version="1.1" xmlns="http://www.w3.org/2000/svg" width="80" height="80">
<path d="M0 0 C4.347095740949218 3.7260820636707574 8.613174235336977 7.434873609921283 12.8125 11.3125 C16.5008406837444 14.710429231688913 20.201957815129397 18.091330290425354 23.9375 21.4375 C30.01821765462374 26.893282561244796 36.00690685542123 32.44840431278048 42 38 C38.54792524166124 39.965290085192855 35.115237744083466 40.774647696301635 31.25 41.625 C30.079531250000002 41.885390625 28.909062500000005 42.14578125 27.703125 42.4140625 C26.811093749999998 42.607421875 25.919062499999995 42.80078125 25 43 C25.5775 44.0480078125 26.155 45.096015625 26.75 46.17578125 C27.500328040800696 47.55450902497128 28.25031008398301 48.933425137597126 29 50.3125 C29.3815625 51.00279296875 29.763125000000002 51.6930859375 30.15625 52.404296875 C33 57.66015625 33 57.66015625 33 61 C31.73581753888888 61.69965442622065 30.46334598383396 62.38434763021438 29.1875 63.0625 C28.4798046875 63.44535156250001 27.772109375 63.828203125 27.04296875 64.22265625 C25.000000000000014 65 25.000000000000014 65 22 64 C20.640343372517393 61.69702699713332 19.454732675809566 59.46858093923143 18.3125 57.0625 C17.992167968749996 56.41603515624999 17.6718359375 55.7695703125 17.341796875 55.103515625 C15 50.29509261727078 15 50.29509261727078 15 48 C9.896421486560161 50.87076291380991 4.975744567487837 53.890159645320104 0 57 C0 38.19 0 19.379999999999995 0 0 Z M2 7 C2 21.520000000000003 2 36.040000000000006 2 51 C5.836166760221005 49.4655332959116 8.493935609796836 48.15341734252755 11.8125 45.875 C12.602695312500003 45.336171875 13.392890625 44.79734375 14.20703125 44.2421875 C14.798710937499997 43.832265625 15.390390625000002 43.42234375 16 43 C16.265546875 43.858515625 16.531093749999997 44.71703125 16.8046875 45.6015625 C18.010238014688383 49.02910808097676 19.47244385631985 52.14173797975622 21.125 55.375 C21.663828124999995 56.43460937500001 22.202656250000004 57.49421875 22.7578125 58.5859375 C23.167734374999995 59.38257812500001 23.577656250000004 60.17921874999999 24 61 C25.65 60.34 27.299999999999997 59.68000000000001 29 59 C27.515 55.864999999999995 27.515 55.864999999999995 20 40 C22.64 39.67 25.28 39.34 28 39 C29.34404872658962 38.68896169671828 30.683228603051063 38.34899106154654 32 37.9375 C32.495 37.7828125 32.495 37.7828125 35 37 C30.976685587178295 32.02379533151 26.664437427505035 27.772475277622036 21.86328125 23.546875 C19.747896103247932 21.665250012711667 17.66807473726356 19.765988290424836 15.60546875 17.828125 C15.028049316406253 17.28696044921875 14.4506298828125 16.7457958984375 13.855712890625 16.188232421875 C12.722818344766644 15.124056264325162 11.592968318749428 14.056627391550496 10.466552734375 12.985595703125 C7.694081575813776 10.391773063798954 5.4420261790229105 8.721013089511455 2 7 Z " fill="#000000" transform="translate(22,8)"/>
<path d="M0 0 C1.6500000000000057 0 3.299999999999997 0 5 0 C5 2.3100000000000005 5 4.620000000000001 5 7 C6.980000000000004 7 8.960000000000008 7 11 7 C10.670000000000002 8.32 10.340000000000003 9.64 10 11 C8.349999999999994 11 6.700000000000003 11 5 11 C5 12.98 5 14.96 5 17 C3.3499999999999943 17.33 1.7000000000000028 17.66 0 18 C0 15.689999999999998 0 13.379999999999999 0 11 C-1.980000000000004 11 -3.960000000000001 11 -6 11 C-6 9.68 -6 8.36 -6 7 C-4.020000000000003 7 -2.039999999999999 7 0 7 C0 4.6899999999999995 0 2.38 0 0 Z " fill="#010101" transform="translate(66,5)"/>
<path d="M0 0 C1.6499999999999986 0 3.299999999999997 0 5 0 C5 2.3100000000000005 5 4.620000000000001 5 7 C6.649999999999999 7 8.299999999999997 7 10 7 C10 8.32 10 9.64 10 11 C8.350000000000001 11 6.700000000000003 11 5 11 C5 12.98 5 14.96 5 17 C3.3500000000000014 17.33 1.7000000000000028 17.66 0 18 C0 15.689999999999998 0 13.379999999999999 0 11 C-1.980000000000004 11 -3.960000000000001 11 -6 11 C-6 9.68 -6 8.36 -6 7 C-4.020000000000003 7 -2.039999999999999 7 0 7 C0 4.6899999999999995 0 2.38 0 0 Z " fill="#010101" transform="translate(47,5)"/>
<path d="M0 0 C0.6600000000000001 0 1.3200000000000003 0 2 0 C2 0.6599999999999966 2 1.3200000000000003 2 2 C1.3399999999999999 2 0.6799999999999997 2 0 2 C0 1.3400000000000034 0 0.6799999999999997 0 0 Z " fill="#000000" transform="translate(27,52)"/>
<path d="M0 0 C0.6600000000000001 0 1.3200000000000003 0 2 0 C2 0.6599999999999966 2 1.3200000000000003 2 2 C1.3399999999999999 2 0.6799999999999997 2 0 2 C0 1.3400000000000034 0 0.6799999999999997 0 0 Z " fill="#000000" transform="translate(27,48)"/>
<path d="M0 0 C0.6600000000000001 0 1.3200000000000003 0 2 0 C2 0.6599999999999966 2 1.3200000000000003 2 2 C1.3399999999999999 2 0.6799999999999997 2 0 2 C0 1.3400000000000034 0 0.6799999999999997 0 0 Z " fill="#000000" transform="translate(27,44)"/>
<path d="M0 0 C0.6600000000000001 0 1.3200000000000003 0 2 0 C2 0.6599999999999966 2 1.3200000000000003 2 2 C1.3399999999999999 2 0.6799999999999997 2 0 2 C0 1.3400000000000034 0 0.6799999999999997 0 0 Z " fill="#000000" transform="translate(27,40)"/>
<path d="M0 0 C0.6600000000000001 0 1.3200000000000003 0 2 0 C2 0.6599999999999966 2 1.3200000000000003 2 2 C1.3399999999999999 2 0.6799999999999997 2 0 2 C0 1.3400000000000034 0 0.6799999999999997 0 0 Z " fill="#000000" transform="translate(27,36)"/>
<path d="M0 0 C0.6600000000000001 0 1.3200000000000003 0 2 0 C2 0.6599999999999966 2 1.3200000000000003 2 2 C1.3399999999999999 2 0.6799999999999997 2 0 2 C0 1.3400000000000034 0 0.6799999999999997 0 0 Z " fill="#000000" transform="translate(27,32)"/>
<path d="M0 0 C0.6600000000000001 0 1.3200000000000003 0 2 0 C2 0.6600000000000001 2 1.3200000000000003 2 2 C1.3399999999999999 2 0.6799999999999997 2 0 2 C0 1.3399999999999999 0 0.6799999999999997 0 0 Z " fill="#000000" transform="translate(27,28)"/>
<path d="M0 0 C0.6600000000000001 0 1.3200000000000003 0 2 0 C2 0.6600000000000001 2 1.3200000000000003 2 2 C1.3399999999999999 2 0.6799999999999997 2 0 2 C0 1.3399999999999999 0 0.6799999999999997 0 0 Z " fill="#000000" transform="translate(27,24)"/>
</svg>
