<?xml version="1.0" encoding="UTF-8"?>
<!-- Generator: visioncortex VTracer 0.6.12 -->
<svg version="1.1" xmlns="http://www.w3.org/2000/svg" width="80" height="80">
<path d="M0 0 C1.980000000000004 0 3.960000000000001 0 6 0 C6.216562499999995 0.8017968750000009 6.433125000000004 1.6035937500000017 6.65625 2.4296875 C8 5 8 5 10.53125 5.8203125 C11.021093749999999 5.870585937499996 11.021093749999999 5.870585937499996 13.5 6.125 C16.46875 6.4453125 16.46875 6.4453125 19 7 C21 10 21 10 20.6875 12.125 C20 14 20 14 19 15 C18.641025641025635 21.461538461538453 18.641025641025635 21.461538461538453 21 25 C20.45945945945946 29.540540540540547 20.45945945945946 29.540540540540547 19 31 C15.900100825212846 31.467909309401833 12.804576878412902 31.913018715847258 9.6875 32.25 C8 33 8 33 6.75 35.5625 C6.502499999999998 36.36687499999999 6.2549999999999955 37.17125 6 38 C4.019999999999996 38 2.039999999999999 38 0 38 C-0.108281250000001 37.599101562499996 -0.108281250000001 37.599101562499996 -0.65625 35.5703125 C-2.0000000000000036 33 -2.0000000000000036 33 -4.53125 32.1796875 C-5.510937500000001 32.07914062500001 -6.490625000000001 31.97859375 -7.5 31.875 C-10.46875 31.5546875 -10.46875 31.5546875 -13 31 C-15 28 -15 28 -14.6875 25.875 C-14 24 -14 24 -13 23 C-12.641025641025642 16.538461538461533 -12.641025641025642 16.538461538461533 -15 13 C-14.45945945945946 8.45945945945946 -14.45945945945946 8.45945945945946 -13 7 C-9.900100825212839 6.532090690598167 -6.804576878412899 6.086981284152742 -3.6875 5.75 C-2 5 -2 5 -0.75 2.4375 C-0.6262499999999989 2.0353125000000034 -0.6262499999999989 2.0353125000000034 0 0 Z M2 2 C1.6700000000000017 3.6499999999999986 1.3400000000000034 5.299999999999997 1 7 C0.443125000000002 7.123750000000001 -0.11374999999999957 7.247500000000002 -0.6875 7.375 C-3 8 -3 8 -5.5625 9.0625 C-8 10 -8 10 -11 10 C-10.837578125 10.556874999999998 -10.67515625 11.113749999999996 -10.5078125 11.6875 C-9.95777553345356 14.192283724580719 -9.867187442084969 16.437481003870232 -9.875 19 C-9.872421875 19.845625 -9.869843750000001 20.691249999999997 -9.8671875 21.5625 C-9.99166288630721 23.84698944281469 -10.361225425517873 25.809915744632704 -11 28 C-10.2575 27.938125 -9.515 27.87625 -8.75 27.8125 C-5.503825874536837 28.03383005400886 -4.484538438244449 29.012369249404443 -2 31 C-1.009999999999998 31 -0.019999999999999574 31 1 31 C1.3299999999999983 32.650000000000006 1.6599999999999966 34.3 2 36 C2.6599999999999966 36 3.3200000000000003 36 4 36 C4.329999999999998 34.349999999999994 4.659999999999997 32.7 5 31 C5.556875000000005 30.87625 6.113749999999996 30.752499999999998 6.6875 30.625 C9 30 9 30 11.5625 28.9375 C14 28 14 28 17 28 C16.837578125 27.443124999999995 16.67515625 26.886250000000004 16.5078125 26.3125 C15.957775533453557 23.807716275419267 15.867187442084969 21.562518996129775 15.875 19 C15.8737109375 18.5771875 15.8737109375 18.5771875 15.8671875 16.4375 C15.99166288630721 14.153010557185311 16.361225425517873 12.190084255367296 17 10 C16.2575 10.061875 15.515 10.123750000000001 14.75 10.1875 C11.503825874536822 9.966169945991147 10.484538438244442 8.987630750595557 8 7 C7.010000000000005 7 6.019999999999996 7 5 7 C4.670000000000002 5.350000000000001 4.340000000000003 3.700000000000003 4 2 C3.3400000000000034 2 2.6799999999999997 2 2 2 Z " fill="#000000" transform="translate(31,39)"/>
<path d="M0 0 C1.980000000000004 0 3.960000000000001 0 6 0 C6.216562499999995 0.8017968750000009 6.433125000000004 1.60359375 6.65625 2.4296875 C8 5 8 5 10.53125 5.8203125 C11.021093750000006 5.8705859375 11.021093750000006 5.8705859375 13.5 6.125 C16.46875 6.4453125 16.46875 6.4453125 19 7 C21 10.000000000000004 21 10.000000000000004 20.6875 12.125 C20 14 20 14 19 15 C18.641025641025635 21.461538461538453 18.641025641025635 21.461538461538453 21 25 C20.459459459459453 29.54054054054054 20.459459459459453 29.54054054054054 19 31 C15.900100825212846 31.467909309401833 12.804576878412902 31.913018715847258 9.6875 32.25 C8 33 8 33 6.75 35.5625 C6.502499999999998 36.366875 6.2549999999999955 37.17125 6 38 C4.019999999999996 38 2.039999999999999 38 0 38 C-0.10828125000000455 37.599101562499996 -0.10828125000000455 37.599101562499996 -0.65625 35.5703125 C-2 32.99999999999999 -2 32.99999999999999 -4.53125 32.1796875 C-5.510937499999997 32.079140625 -6.490625000000001 31.97859375 -7.5 31.875 C-10.46875 31.5546875 -10.46875 31.5546875 -13 31 C-15 28 -15 28 -14.6875 25.875 C-14 24 -14 24 -13 23 C-12.641025641025642 16.538461538461537 -12.641025641025642 16.538461538461537 -15 13 C-14.45945945945946 8.45945945945946 -14.45945945945946 8.45945945945946 -13 7 C-9.900100825212839 6.532090690598164 -6.804576878412902 6.0869812841527455 -3.6875 5.75 C-2 5 -2 5 -0.75 2.4375 C-0.6262499999999989 2.0353125 -0.6262499999999989 2.0353125 0 0 Z M2 2 C1.6700000000000017 3.6500000000000004 1.3400000000000034 5.300000000000001 1 7 C0.443125000000002 7.123750000000001 -0.11374999999999602 7.247499999999999 -0.6875 7.375 C-3 8 -3 8 -5.5625 9.0625 C-8 10 -8 10 -11 10 C-10.837578125 10.556874999999998 -10.67515625 11.11375 -10.5078125 11.6875 C-9.957775533453557 14.192283724580715 -9.867187442084969 16.437481003870236 -9.875 19 C-9.872421875 19.845625 -9.869843750000001 20.69125 -9.8671875 21.5625 C-9.99166288630721 23.84698944281469 -10.361225425517873 25.809915744632704 -11 28 C-10.2575 27.938125 -9.515 27.87625 -8.75 27.8125 C-5.503825874536837 28.033830054008853 -4.484538438244449 29.012369249404443 -2 31 C-1.009999999999998 31 -0.01999999999999602 31 1 31 C1.3299999999999983 32.65 1.6599999999999966 34.3 2 36 C2.6599999999999966 36 3.3200000000000003 36 4 36 C4.329999999999998 34.35 4.659999999999997 32.7 5 31 C5.556875000000005 30.87625 6.113749999999996 30.752499999999998 6.6875 30.625 C9 30 9 30 11.5625 28.9375 C14 28 14 28 17 28 C16.837578124999993 27.443124999999995 16.67515625 26.886250000000004 16.5078125 26.3125 C15.957775533453557 23.807716275419267 15.867187442084969 21.562518996129775 15.875 19 C15.873710937499993 18.5771875 15.873710937499993 18.5771875 15.8671875 16.4375 C15.99166288630721 14.153010557185311 16.361225425517873 12.190084255367296 17 10 C16.257499999999993 10.061875 15.515 10.123750000000001 14.75 10.1875 C11.50382587453683 9.966169945991147 10.484538438244442 8.987630750595557 8 7 C7.010000000000005 7 6.019999999999996 7 5 7 C4.670000000000002 5.350000000000001 4.340000000000003 3.6999999999999993 4 2 C3.3400000000000034 2 2.6799999999999997 2 2 2 Z " fill="#000000" transform="translate(56,11)"/>
<path d="M0 0 C1.9800000000000004 0 3.960000000000001 0 6 0 C6.216562499999998 0.801796875 6.433125 1.60359375 6.65625 2.4296875 C8 5 8 5 10.53125 5.8203125 C11.021093749999999 5.8705859375 11.021093749999999 5.8705859375 13.5 6.125 C16.46875 6.4453125 16.46875 6.4453125 19 7 C21 10.000000000000004 21 10.000000000000004 20.6875 12.125 C20 14 20 14 19 15 C18.641025641025635 21.461538461538453 18.641025641025635 21.461538461538453 21 25 C20.45945945945946 29.54054054054054 20.45945945945946 29.54054054054054 19 31 C15.900100825212846 31.467909309401833 12.804576878412906 31.913018715847258 9.6875 32.25 C8 33 8 33 6.75 35.5625 C6.502500000000001 36.366875 6.254999999999999 37.17125 6 38 C4.02 38 2.039999999999999 38 0 38 C-0.108281250000001 37.599101562499996 -0.108281250000001 37.599101562499996 -0.65625 35.5703125 C-2.0000000000000036 32.99999999999999 -2.0000000000000036 32.99999999999999 -4.53125 32.1796875 C-5.510937500000001 32.079140625 -6.490625 31.97859375 -7.5 31.875 C-10.46875 31.5546875 -10.46875 31.5546875 -13 31 C-15 28 -15 28 -14.6875 25.875 C-14 24 -14 24 -13 23 C-12.64102564102564 16.538461538461537 -12.64102564102564 16.538461538461537 -15 13 C-14.45945945945946 8.45945945945946 -14.45945945945946 8.45945945945946 -13 7 C-9.900100825212839 6.532090690598164 -6.804576878412899 6.0869812841527455 -3.6875 5.75 C-2 5 -2 5 -0.75 2.4375 C-0.6262499999999989 2.0353125 -0.6262499999999989 2.0353125 0 0 Z M2 2 C1.6700000000000017 3.6500000000000004 1.3399999999999999 5.300000000000001 1 7 C0.443125000000002 7.123750000000001 -0.11374999999999957 7.247499999999999 -0.6875 7.375 C-3 8 -3 8 -5.5625 9.0625 C-7.999999999999998 10 -7.999999999999998 10 -11 10 C-10.837578125 10.556875 -10.67515625 11.11375 -10.5078125 11.6875 C-9.95777553345356 14.192283724580715 -9.86718744208497 16.437481003870236 -9.875 19 C-9.872421875 19.845625 -9.869843750000001 20.69125 -9.8671875 21.5625 C-9.99166288630721 23.84698944281469 -10.36122542551787 25.8099157446327 -11 28 C-10.2575 27.938125 -9.515 27.87625 -8.75 27.8125 C-5.503825874536835 28.033830054008853 -4.484538438244449 29.012369249404443 -2 31 C-1.009999999999998 31 -0.019999999999999574 31 1 31 C1.3299999999999983 32.65 1.6600000000000001 34.3 2 36 C2.66 36 3.3200000000000003 36 4 36 C4.329999999999998 34.35 4.66 32.7 5 31 C5.556875000000002 30.87625 6.11375 30.752499999999998 6.6875 30.625 C9 30 9 30 11.5625 28.9375 C14 28 14 28 17 28 C16.837578125 27.443125 16.67515625 26.88625 16.5078125 26.3125 C15.957775533453557 23.807716275419263 15.867187442084969 21.562518996129775 15.875 19 C15.8737109375 18.5771875 15.8737109375 18.5771875 15.8671875 16.4375 C15.99166288630721 14.153010557185311 16.361225425517873 12.190084255367296 17 10 C16.2575 10.061875 15.515 10.12375 14.75 10.1875 C11.503825874536822 9.966169945991147 10.484538438244446 8.987630750595557 8 7 C7.010000000000002 7 6.02 7 5 7 C4.670000000000002 5.35 4.34 3.6999999999999993 4 2 C3.34 2 2.6799999999999997 2 2 2 Z " fill="#000000" transform="translate(19,4)"/>
<path d="M0 0 C0.7012500000000017 0.005156249999998863 1.4025000000000034 0.010312499999997726 2.125 0.015625 C2.8262500000000017 0.010468750000001137 3.5275000000000034 0.005312500000002274 4.25 0 C6.125 0.265625 6.125 0.265625 8.125 2.265625 C8.390625 4.140625 8.390625 4.140625 8.375 6.265625 C8.380156249999999 6.966875000000002 8.385312499999998 7.668125000000003 8.390625 8.390625 C8.125 10.265625 8.125 10.265625 6.125 12.265625 C4.25 12.53125 4.25 12.53125 2.125 12.515625 C1.4237499999999983 12.520781249999999 0.7224999999999966 12.525937499999998 0 12.53125 C-1.875 12.265625 -1.875 12.265625 -3.875 10.265625 C-4.140625 8.390625 -4.140625 8.390625 -4.125 6.265625 C-4.130156249999999 5.564374999999998 -4.135312500000001 4.863124999999997 -4.140625 4.140625 C-3.756034807073597 1.4258706969900956 -2.7147543030099044 0.38459019292640306 0 0 Z M0.125 3.265625 C-0.2049999999999983 4.915624999999999 -0.5350000000000001 6.565624999999997 -0.875 8.265625 C-0.05000000000000071 8.430625 -0.05000000000000071 8.430625 4.125 9.265625 C4.454999999999998 7.615625000000001 4.784999999999997 5.965625000000003 5.125 4.265625 C3.4750000000000014 3.9356250000000017 1.8250000000000028 3.6056250000000034 0.125 3.265625 Z " fill="#000000" transform="translate(31.875,51.734375)"/>
<path d="M0 0 C0.7012500000000017 0.005156249999998863 1.4025000000000034 0.010312500000001279 2.125 0.015625 C2.8262500000000017 0.010468750000001137 3.5275000000000034 0.005312499999998721 4.25 0 C6.125 0.265625 6.125 0.265625 8.125 2.265625 C8.390625 4.140625 8.390625 4.140625 8.375 6.265625 C8.380156249999999 6.966875000000002 8.385312499999998 7.668125 8.390625 8.390625 C8.125 10.265625 8.125 10.265625 6.125 12.265625 C4.25 12.53125 4.25 12.53125 2.125 12.515625 C1.4237499999999983 12.520781249999999 0.7224999999999966 12.525937499999998 0 12.53125 C-1.875 12.265625 -1.875 12.265625 -3.875 10.265625 C-4.140625 8.390625 -4.140625 8.390625 -4.125 6.265625 C-4.130156249999999 5.564374999999998 -4.135312499999998 4.863125 -4.140625 4.140625 C-3.756034807073597 1.4258706969900956 -2.7147543030099044 0.38459019292640306 0 0 Z M0.125 3.265625 C-0.2049999999999983 4.915624999999999 -0.5349999999999966 6.565625000000001 -0.875 8.265625 C-0.04999999999999716 8.430625 -0.04999999999999716 8.430625 4.125 9.265625 C4.454999999999998 7.615625000000001 4.784999999999997 5.965624999999999 5.125 4.265625 C3.4750000000000014 3.9356250000000017 1.8250000000000028 3.605625 0.125 3.265625 Z " fill="#000000" transform="translate(56.875,23.734375)"/>
<path d="M0 0 C0.7012500000000017 0.005156249999998863 1.4024999999999999 0.010312500000001279 2.125 0.015625 C2.8262500000000017 0.010468750000001137 3.5275 0.005312499999998721 4.25 0 C6.125 0.265625 6.125 0.265625 8.125 2.265625 C8.390625 4.140625 8.390625 4.140625 8.375 6.265625 C8.380156249999999 6.966875000000002 8.385312499999998 7.668125 8.390625 8.390625 C8.125 10.265625 8.125 10.265625 6.125 12.265625 C4.25 12.53125 4.25 12.53125 2.125 12.515625 C1.4237499999999983 12.520781249999999 0.7225000000000001 12.525937499999998 0 12.53125 C-1.875 12.265625 -1.875 12.265625 -3.875 10.265625 C-4.140625 8.390625 -4.140625 8.390625 -4.125 6.265625 C-4.130156250000001 5.564374999999998 -4.1353124999999995 4.863125 -4.140625 4.140625 C-3.756034807073597 1.4258706969900956 -2.7147543030099044 0.38459019292640306 0 0 Z M0.125 3.265625 C-0.2049999999999983 4.915624999999999 -0.5350000000000001 6.565625000000001 -0.875 8.265625 C-0.05000000000000071 8.430625 -0.05000000000000071 8.430625 4.125 9.265625 C4.454999999999998 7.615625000000001 4.785 5.965624999999999 5.125 4.265625 C3.4750000000000014 3.9356250000000017 1.8249999999999993 3.605625 0.125 3.265625 Z " fill="#000000" transform="translate(19.875,16.734375)"/>
<path d="M0 0 C0.6599999999999966 0 1.3200000000000003 0 2 0 C2 0.9899999999999949 2 1.980000000000004 2 3 C1.3400000000000034 3 0.6799999999999997 3 0 3 C0 2.010000000000005 0 1.019999999999996 0 0 Z " fill="#000000" transform="translate(38,65)"/>
<path d="M0 0 C0.6600000000000001 0 1.3200000000000003 0 2 0 C2 0.9899999999999949 2 1.980000000000004 2 3 C1.3399999999999999 3 0.6799999999999997 3 0 3 C0 2.010000000000005 0 1.019999999999996 0 0 Z " fill="#000000" transform="translate(28,65)"/>
<path d="M0 0 C0.990000000000002 0 1.9799999999999969 0 3 0 C3 0.6599999999999966 3 1.3200000000000003 3 2 C2.009999999999998 2 1.0200000000000031 2 0 2 C0 1.3400000000000034 0 0.6799999999999997 0 0 Z " fill="#000000" transform="translate(41,62)"/>
<path d="M0 0 C0.9899999999999984 0 1.9800000000000004 0 3 0 C3 0.6599999999999966 3 1.3200000000000003 3 2 C2.009999999999998 2 1.0199999999999996 2 0 2 C0 1.3400000000000034 0 0.6799999999999997 0 0 Z " fill="#000000" transform="translate(24,62)"/>
<path d="M0 0 C0.990000000000002 0 1.9799999999999969 0 3 0 C3 0.6599999999999966 3 1.3200000000000003 3 2 C2.009999999999998 2 1.0200000000000031 2 0 2 C0 1.3400000000000034 0 0.6799999999999997 0 0 Z " fill="#000000" transform="translate(41,52)"/>
<path d="M0 0 C0.9899999999999984 0 1.9800000000000004 0 3 0 C3 0.6599999999999966 3 1.3200000000000003 3 2 C2.009999999999998 2 1.0199999999999996 2 0 2 C0 1.3400000000000034 0 0.6799999999999997 0 0 Z " fill="#000000" transform="translate(24,52)"/>
<path d="M0 0 C0.6599999999999966 0 1.3200000000000003 0 2 0 C2 0.990000000000002 2 1.9799999999999969 2 3 C1.3400000000000034 3 0.6799999999999997 3 0 3 C0 2.009999999999998 0 1.0200000000000031 0 0 Z " fill="#000000" transform="translate(38,48)"/>
<path d="M0 0 C0.6600000000000001 0 1.3200000000000003 0 2 0 C2 0.990000000000002 2 1.9799999999999969 2 3 C1.3399999999999999 3 0.6799999999999997 3 0 3 C0 2.009999999999998 0 1.0200000000000031 0 0 Z " fill="#000000" transform="translate(28,48)"/>
<path d="M0 0 C0.6599999999999966 0 1.3199999999999932 0 2 0 C2 0.990000000000002 2 1.9799999999999969 2 3 C1.3400000000000034 3 0.6799999999999997 3 0 3 C0 2.009999999999998 0 1.0200000000000031 0 0 Z " fill="#000000" transform="translate(63,37)"/>
<path d="M0 0 C0.6599999999999966 0 1.3200000000000003 0 2 0 C2 0.990000000000002 2 1.9799999999999969 2 3 C1.3400000000000034 3 0.6799999999999997 3 0 3 C0 2.009999999999998 0 1.0200000000000031 0 0 Z " fill="#000000" transform="translate(53,37)"/>
<path d="M0 0 C0.9899999999999949 0 1.980000000000004 0 3 0 C3 0.6599999999999966 3 1.3200000000000003 3 2 C2.010000000000005 2 1.019999999999996 2 0 2 C0 1.3400000000000034 0 0.6799999999999997 0 0 Z " fill="#000000" transform="translate(66,34)"/>
<path d="M0 0 C0.990000000000002 0 1.9799999999999969 0 3 0 C3 0.6599999999999966 3 1.3200000000000003 3 2 C2.009999999999998 2 1.0200000000000031 2 0 2 C0 1.3400000000000034 0 0.6799999999999997 0 0 Z " fill="#000000" transform="translate(49,34)"/>
<path d="M0 0 C0.6600000000000001 0 1.3200000000000003 0 2 0 C2 0.9899999999999984 2 1.9800000000000004 2 3 C1.3399999999999999 3 0.6799999999999997 3 0 3 C0 2.009999999999998 0 1.0199999999999996 0 0 Z " fill="#000000" transform="translate(26,30)"/>
<path d="M0 0 C0.6600000000000001 0 1.3200000000000003 0 2 0 C2 0.9899999999999984 2 1.9800000000000004 2 3 C1.3399999999999999 3 0.6799999999999997 3 0 3 C0 2.009999999999998 0 1.0199999999999996 0 0 Z " fill="#000000" transform="translate(16,30)"/>
<path d="M0 0 C0.9899999999999984 0 1.9800000000000004 0 3 0 C3 0.6600000000000001 3 1.3200000000000003 3 2 C2.009999999999998 2 1.0199999999999996 2 0 2 C0 1.3399999999999999 0 0.6799999999999997 0 0 Z " fill="#000000" transform="translate(29,27)"/>
<path d="M0 0 C0.9900000000000002 0 1.9800000000000004 0 3 0 C3 0.6600000000000001 3 1.3200000000000003 3 2 C2.01 2 1.0199999999999996 2 0 2 C0 1.3399999999999999 0 0.6799999999999997 0 0 Z " fill="#000000" transform="translate(12,27)"/>
<path d="M0 0 C0.9899999999999949 0 1.980000000000004 0 3 0 C3 0.6600000000000001 3 1.3200000000000003 3 2 C2.010000000000005 2 1.019999999999996 2 0 2 C0 1.3399999999999999 0 0.6799999999999997 0 0 Z " fill="#000000" transform="translate(66,24)"/>
<path d="M0 0 C0.990000000000002 0 1.9799999999999969 0 3 0 C3 0.6600000000000001 3 1.3200000000000003 3 2 C2.009999999999998 2 1.0200000000000031 2 0 2 C0 1.3399999999999999 0 0.6799999999999997 0 0 Z " fill="#000000" transform="translate(49,24)"/>
<path d="M0 0 C0.6599999999999966 0 1.3199999999999932 0 2 0 C2 0.9899999999999984 2 1.9800000000000004 2 3 C1.3400000000000034 3 0.6799999999999997 3 0 3 C0 2.009999999999998 0 1.0199999999999996 0 0 Z " fill="#000000" transform="translate(63,20)"/>
<path d="M0 0 C0.6599999999999966 0 1.3200000000000003 0 2 0 C2 0.9899999999999984 2 1.9800000000000004 2 3 C1.3400000000000034 3 0.6799999999999997 3 0 3 C0 2.009999999999998 0 1.0199999999999996 0 0 Z " fill="#000000" transform="translate(53,20)"/>
<path d="M0 0 C0.9899999999999984 0 1.9800000000000004 0 3 0 C3 0.6600000000000001 3 1.3200000000000003 3 2 C2.009999999999998 2 1.0199999999999996 2 0 2 C0 1.3399999999999999 0 0.6799999999999997 0 0 Z " fill="#000000" transform="translate(29,17)"/>
<path d="M0 0 C0.9900000000000002 0 1.9800000000000004 0 3 0 C3 0.6600000000000001 3 1.3200000000000003 3 2 C2.01 2 1.0199999999999996 2 0 2 C0 1.3399999999999999 0 0.6799999999999997 0 0 Z " fill="#000000" transform="translate(12,17)"/>
<path d="M0 0 C0.6600000000000001 0 1.3200000000000003 0 2 0 C2 0.9900000000000002 2 1.9800000000000004 2 3 C1.3399999999999999 3 0.6799999999999997 3 0 3 C0 2.01 0 1.0199999999999996 0 0 Z " fill="#000000" transform="translate(26,13)"/>
<path d="M0 0 C0.6600000000000001 0 1.3200000000000003 0 2 0 C2 0.9900000000000002 2 1.9800000000000004 2 3 C1.3399999999999999 3 0.6799999999999997 3 0 3 C0 2.01 0 1.0199999999999996 0 0 Z " fill="#000000" transform="translate(16,13)"/>
<path d="M0 0 C0.6599999999999966 0 1.3200000000000003 0 2 0 C2 0.6599999999999966 2 1.3199999999999932 2 2 C1.3400000000000034 2 0.6799999999999997 2 0 2 C0 1.3400000000000034 0 0.6800000000000068 0 0 Z " fill="#000000" transform="translate(33,67)"/>
<path d="M0 0 C0.6599999999999966 0 1.3200000000000003 0 2 0 C2 0.6599999999999966 2 1.3200000000000003 2 2 C1.3400000000000034 2 0.6799999999999997 2 0 2 C0 1.3400000000000034 0 0.6799999999999997 0 0 Z " fill="#000000" transform="translate(43,57)"/>
<path d="M0 0 C0.6600000000000001 0 1.3200000000000003 0 2 0 C2 0.6599999999999966 2 1.3200000000000003 2 2 C1.3399999999999999 2 0.6799999999999997 2 0 2 C0 1.3400000000000034 0 0.6799999999999997 0 0 Z " fill="#000000" transform="translate(23,57)"/>
<path d="M0 0 C0.6599999999999966 0 1.3200000000000003 0 2 0 C2 0.6599999999999966 2 1.3200000000000003 2 2 C1.3400000000000034 2 0.6799999999999997 2 0 2 C0 1.3400000000000034 0 0.6799999999999997 0 0 Z " fill="#000000" transform="translate(33,47)"/>
<path d="M0 0 C0.6599999999999966 0 1.3200000000000003 0 2 0 C2 0.6599999999999966 2 1.3200000000000003 2 2 C1.3400000000000034 2 0.6799999999999997 2 0 2 C0 1.3400000000000034 0 0.6799999999999997 0 0 Z " fill="#000000" transform="translate(58,39)"/>
<path d="M0 0 C0.6600000000000001 0 1.3200000000000003 0 2 0 C2 0.6599999999999966 2 1.3200000000000003 2 2 C1.3399999999999999 2 0.6799999999999997 2 0 2 C0 1.3400000000000034 0 0.6799999999999997 0 0 Z " fill="#000000" transform="translate(21,32)"/>
<path d="M0 0 C0.6599999999999966 0 1.3199999999999932 0 2 0 C2 0.6600000000000001 2 1.3200000000000003 2 2 C1.3400000000000034 2 0.6800000000000068 2 0 2 C0 1.3399999999999999 0 0.6799999999999997 0 0 Z " fill="#000000" transform="translate(68,29)"/>
<path d="M0 0 C0.6599999999999966 0 1.3200000000000003 0 2 0 C2 0.6600000000000001 2 1.3200000000000003 2 2 C1.3400000000000034 2 0.6799999999999997 2 0 2 C0 1.3399999999999999 0 0.6799999999999997 0 0 Z " fill="#000000" transform="translate(48,29)"/>
<path d="M0 0 C0.6600000000000001 0 1.3200000000000003 0 2 0 C2 0.6600000000000001 2 1.3200000000000003 2 2 C1.3400000000000034 2 0.6799999999999997 2 0 2 C0 1.3399999999999999 0 0.6799999999999997 0 0 Z " fill="#000000" transform="translate(31,22)"/>
<path d="M0 0 C0.6600000000000001 0 1.3200000000000003 0 2 0 C2 0.6600000000000001 2 1.3200000000000003 2 2 C1.3399999999999999 2 0.6799999999999997 2 0 2 C0 1.3399999999999999 0 0.6799999999999997 0 0 Z " fill="#000000" transform="translate(11,22)"/>
<path d="M0 0 C0.6599999999999966 0 1.3200000000000003 0 2 0 C2 0.6600000000000001 2 1.3200000000000003 2 2 C1.3400000000000034 2 0.6799999999999997 2 0 2 C0 1.3399999999999999 0 0.6799999999999997 0 0 Z " fill="#000000" transform="translate(58,19)"/>
<path d="M0 0 C0.6600000000000001 0 1.3200000000000003 0 2 0 C2 0.6600000000000001 2 1.3200000000000003 2 2 C1.3399999999999999 2 0.6799999999999997 2 0 2 C0 1.3399999999999999 0 0.6799999999999997 0 0 Z " fill="#000000" transform="translate(21,12)"/>
</svg>
