<?xml version="1.0" encoding="UTF-8"?>
<svg version="1.1" xmlns="http://www.w3.org/2000/svg" width="90" height="90">
<path d="M0 0 C7.66276186 5.50099438 14.34570571 11.88574606 19.59375 19.7578125 C20.35381269 26.13535003 17.68712714 29.16110687 13.91796875 34.015625 C6.23996586 43.07437799 -5.20722483 51.90446071 -17.52172852 52.93481445 C-37.63754401 53.47942342 -37.63754401 53.47942342 -46.40625 48.7578125 C-47.31375 48.2834375 -48.22125 47.8090625 -49.15625 47.3203125 C-57.74915599 42.35552237 -66.05321468 34.82663608 -70.40625 25.7578125 C-70.96662276 21.95027972 -70.74503698 20.30912557 -68.71875 17.01171875 C-50.91003059 -3.71498341 -25.55464432 -17.3406515 0 0 Z M-41.78125 10.3203125 C-45.78124053 15.12244017 -45.74941637 19.68309909 -45.68359375 25.74609375 C-45.16316984 31.39745758 -42.63748149 34.85456099 -38.40625 38.5703125 C-32.16864421 43.11856672 -27.0840027 43.72245322 -19.40625 42.7578125 C-13.46255005 40.4378522 -9.58237578 36.38996426 -6.33203125 30.96484375 C-4.20896722 25.90353076 -4.37346331 19.4661072 -6.31640625 14.37109375 C-9.41784614 9.1355441 -13.53917565 4.71350395 -19.40625 2.7578125 C-29.22558738 1.88211136 -35.05038645 2.82746439 -41.78125 10.3203125 Z " fill="#000000" transform="translate(70.40625,22.2421875)"/>
<path d="M0 0 C3.55247432 0.87379409 4.94828114 2.4927342 6.9375 5.4765625 C7.63597125 8.3162489 7.63597125 10.6368761 6.9375 13.4765625 C4.94828114 16.4603908 3.55247432 18.07933091 0 18.953125 C-3.92313492 19.23547183 -5.73362371 18.69581336 -9.0625 16.4765625 C-11.28175086 13.14768621 -11.82140933 11.33719742 -11.5390625 7.4140625 C-10.07519871 1.46261629 -5.59135555 -0.40240816 0 0 Z " fill="#000000" transform="translate(47.0625,35.5234375)"/>
</svg>
