<?xml version="1.0" encoding="UTF-8"?>
<svg version="1.1" xmlns="http://www.w3.org/2000/svg" width="64" height="64">
<path d="M0 0 C2.2199707 1.19335938 2.2199707 1.19335938 4.42578125 2.84375 C5.22177734 3.43027344 6.01777344 4.01679688 6.83789062 4.62109375 C7.65451172 5.24113281 8.47113281 5.86117188 9.3125 6.5 C10.14845703 7.12003906 10.98441406 7.74007813 11.84570312 8.37890625 C13.90526705 9.90886802 15.95601355 11.44932395 18 13 C18.04898438 12.22914062 18.09796875 11.45828125 18.1484375 10.6640625 C18.22320312 9.66117188 18.29796875 8.65828125 18.375 7.625 C18.44460937 6.62726562 18.51421875 5.62953125 18.5859375 4.6015625 C19 2 19 2 21 0 C25.55555556 0.55555556 25.55555556 0.55555556 27 2 C27.11353016 4.93365746 27.16418708 7.84288462 27.16796875 10.77734375 C27.17296135 12.099869 27.17296135 12.099869 27.17805481 13.44911194 C27.18312783 15.31787594 27.18546302 17.18664904 27.18530273 19.05541992 C27.18748808 21.92186344 27.20563655 24.7879216 27.22460938 27.65429688 C27.22754339 29.46614451 27.22952813 31.27799398 27.23046875 33.08984375 C27.23765427 33.9513353 27.24483978 34.81282684 27.25224304 35.70042419 C27.2288216 41.7711784 27.2288216 41.7711784 25 44 C20.44444444 43.44444444 20.44444444 43.44444444 19 42 C18.76636119 40.15108054 18.58696365 38.29511969 18.4375 36.4375 C18.35371094 35.42558594 18.26992188 34.41367187 18.18359375 33.37109375 C18.12300781 32.58863281 18.06242187 31.80617188 18 31 C17.51644043 31.35827881 17.03288086 31.71655762 16.53466797 32.08569336 C14.3229816 33.71445259 12.09928342 35.32599203 9.875 36.9375 C9.11445312 37.50146484 8.35390625 38.06542969 7.5703125 38.64648438 C-0.03678379 44.12228214 -0.03678379 44.12228214 -5 44 C-7.13525391 43.02709961 -7.13525391 43.02709961 -9 41 C-9.40497193 38.0414126 -9.5609704 35.45961933 -9.53125 32.5 C-9.5350769 31.66791016 -9.53890381 30.83582031 -9.54284668 29.97851562 C-9.5455675 28.22003977 -9.5381943 26.46152356 -9.52148438 24.703125 C-9.50007551 22.00949995 -9.52127848 19.31854197 -9.546875 16.625 C-9.54423175 14.91666077 -9.53910683 13.20832321 -9.53125 11.5 C-9.53934692 10.69369141 -9.54744385 9.88738281 -9.55578613 9.05664062 C-9.46326702 3.54687593 -9.46326702 3.54687593 -7.27929688 0.96875 C-4.55040854 -0.191086 -2.93930314 -0.42489105 0 0 Z " fill="#000000" transform="translate(24,10)"/>
</svg>
