<?xml version="1.0" encoding="UTF-8"?>
<svg version="1.1" xmlns="http://www.w3.org/2000/svg" width="64" height="64">
<path d="M0 0 C1.875 0.75 1.875 0.75 2.875 2.75 C3.10122081 4.45363822 3.28388473 6.16328701 3.4375 7.875 C3.52128906 8.78507812 3.60507812 9.69515625 3.69140625 10.6328125 C3.75199219 11.33148438 3.81257813 12.03015625 3.875 12.75 C4.35855957 12.39172119 4.84211914 12.03344238 5.34033203 11.66430664 C7.5520184 10.03554741 9.77571658 8.42400797 12 6.8125 C12.76054688 6.24853516 13.52109375 5.68457031 14.3046875 5.10351562 C22.06170696 -0.48020097 22.06170696 -0.48020097 26.875 -0.25 C29.01245117 1.234375 29.01245117 1.234375 30.875 3.75 C31.26060954 6.67293905 31.41316888 9.21025772 31.37109375 12.12890625 C31.37254898 12.9373851 31.37400421 13.74586395 31.37550354 14.57884216 C31.3738466 16.28428764 31.36230811 17.98974838 31.34155273 19.69506836 C31.31255969 22.30712227 31.32095438 24.91715077 31.33398438 27.52929688 C31.32774782 29.18750987 31.31935752 30.84571646 31.30859375 32.50390625 C31.31152939 33.28520401 31.31446503 34.06650177 31.31748962 34.87147522 C31.2238174 40.24500314 31.2238174 40.24500314 29.50854492 42.72827148 C26.67449504 44.50087629 25.19451262 44.32467644 21.875 43.75 C18.38608424 41.85434072 15.21230251 39.57698419 12 37.25 C11.12085937 36.62996094 10.24171875 36.00992188 9.3359375 35.37109375 C7.1731001 33.84300211 5.02028733 32.3025858 2.875 30.75 C2.89820313 31.52085938 2.92140625 32.29171875 2.9453125 33.0859375 C2.97238281 34.59027344 2.97238281 34.59027344 3 36.125 C3.02320313 37.12273438 3.04640625 38.12046875 3.0703125 39.1484375 C2.875 41.75 2.875 41.75 0.875 43.75 C-1.6875 43.9375 -1.6875 43.9375 -4.125 43.75 C-6.26907053 41.60592947 -5.313851 36.72765091 -5.328125 33.75390625 C-5.33382507 32.8500267 -5.33952515 31.94614716 -5.34539795 31.01487732 C-5.35486229 29.09904151 -5.3613876 27.18318931 -5.36523438 25.26733398 C-5.37494769 22.32832632 -5.40596047 19.39001543 -5.4375 16.45117188 C-5.44402888 14.59375417 -5.44927981 12.73633145 -5.453125 10.87890625 C-5.4654718 9.99554092 -5.4778186 9.1121756 -5.49053955 8.20204163 C-5.48144531 5.72485352 -5.48144531 5.72485352 -5.125 1.75 C-2.125 -0.25 -2.125 -0.25 0 0 Z " fill="#000000" transform="translate(20.125,8.25)"/>
</svg>
