<?xml version="1.0" encoding="UTF-8"?>
<!-- Generator: visioncortex VTracer 0.6.12 -->
<svg version="1.1" xmlns="http://www.w3.org/2000/svg" width="64" height="64">
<path d="M0 0 C2.9926649166158654 1.9808236652320437 5.369905388072027 4.627636209294132 7.875 7.1875 C8.576250000000002 7.861035156250001 9.277500000000003 8.5345703125 10 9.228515625 C10.657421874999997 9.88916015625 11.314843750000001 10.5498046875 11.9921875 11.23046875 C12.594018554687501 11.83270263671875 13.195849609375003 12.4349365234375 13.81591796875 13.055419921875 C15 14.999999999999998 15 14.999999999999998 14.817108154296875 17.3450927734375 C13.823853960983804 20.57232496023353 12.48220243292954 22.031072465544028 10.1103515625 24.423095703125 C9.285693969726566 25.263589630126955 8.461036376953125 26.104083557128906 7.61138916015625 26.970046997070313 C6.7135369873046855 27.86293930053711 5.815684814453128 28.755831604003905 4.890625 29.67578125 C3.9716644287109375 30.60094039916992 3.052703857421875 31.526099548339843 2.10589599609375 32.47929382324219 C0.16215398035043904 34.43342991058412 -1.788871554326235 36.379917158381495 -3.7451171875 38.321533203125 C-6.250074005282556 40.80928396895644 -8.734082902479578 43.316833773726955 -11.21279525756836 45.83070087432861 C-13.583233560223228 48.22838426572178 -15.972157164403889 50.607303059406895 -18.359375 52.98828125 C-19.249130249023438 53.891294708251955 -20.138885498046875 54.7943081665039 -21.05560302734375 55.72468566894531 C-21.892869262695314 56.54941879272461 -22.730135498046874 57.374151916503905 -23.5927734375 58.223876953125 C-23.958776550292967 58.58939918518067 -23.958776550292967 58.58939918518067 -25.81097412109375 60.43916320800781 C-28.45431852737214 62.32394184081573 -29.819522171193377 62.42970712295219 -33 62 C-35.99266491661584 60.01917633476798 -38.36990538807203 57.37236379070587 -40.875 54.8125 C-41.57625 54.13896484375 -42.2775 53.4654296875 -43 52.771484375 C-43.657421875 52.11083984375 -44.31484375 51.4501953125 -44.9921875 50.76953125 C-45.5940185546875 50.16729736328125 -46.195849609375 49.5650634765625 -46.81591796875 48.944580078125 C-48 47 -48 47 -47.817108154296875 44.6549072265625 C-46.823853960983804 41.42767503976647 -45.48220243292954 39.96892753445597 -43.1103515625 37.576904296875 C-42.285693969726566 36.73641036987305 -41.461036376953125 35.89591644287109 -40.61138916015625 35.02995300292969 C-39.713536987304686 34.13706069946289 -38.81568481445312 33.24416839599609 -37.890625 32.32421875 C-36.97166442871094 31.39905960083008 -36.052703857421875 30.473900451660157 -35.10589599609375 29.520706176757813 C-33.16215398035044 27.56657008941588 -31.211128445673758 25.620082841618498 -29.2548828125 23.678466796875 C-26.74992599471743 21.190716031043547 -24.265917097520433 18.683166226273055 -21.78720474243164 16.169299125671387 C-19.41676643977678 13.771615734278226 -17.027842835596104 11.392696940593101 -14.640625 9.01171875 C-13.750869750976563 8.108705291748047 -12.861114501953125 7.205691833496093 -11.94439697265625 6.2753143310546875 C-11.525763854980468 5.862947769165039 -11.525763854980468 5.862947769165039 -9.4072265625 3.776123046875 C-8.675220336914066 3.045078582763672 -7.943214111328125 2.3140341186523434 -7.18902587890625 1.5608367919921875 C-4.545681472627855 -0.32394184081572797 -3.180477828806616 -0.4297071229521843 0 0 Z M-5.797027587890625 4.5565185546875 C-6.520946960449216 5.2848791503906245 -7.244866333007813 6.01323974609375 -7.99072265625 6.763671875 C-8.811422424316405 7.584522705078125 -9.632122192382809 8.40537353515625 -10.477691650390625 9.2510986328125 C-11.364194030761716 10.147923583984376 -12.250696411132814 11.04474853515625 -13.1640625 11.96875 C-14.071270446777348 12.878787841796875 -14.978478393554688 13.78882568359375 -15.913177490234375 14.7264404296875 C-18.3276823590397 17.14858995646771 -20.73612191504582 19.57668511373274 -23.14337158203125 22.00604248046875 C-25.59977719439764 24.482888625634235 -28.061838029229463 26.954098843207763 -30.5234375 29.42578125 C-35.35452670644821 34.27833502911493 -40.179235417588046 39.13718970865377 -45 44 C-44.04558237143431 45.12633231270244 -43.08933816624639 46.251117015851314 -42.13232421875 47.375244140625 C-41.60001190185547 48.001773834228516 -41.067699584960934 48.62830352783203 -40.519256591796875 49.27381896972656 C-38.84608244617827 51.17488129593627 -37.08272087884154 52.83216887934993 -35.125 54.4375 C-34.529453125 54.9312109375 -33.93390625 55.424921875 -33.3203125 55.93359375 C-33.1024609375 56.10955078125 -33.1024609375 56.10955078125 -32 57 C-32 56.34 -32 55.68 -32 55 C-30.35 55.66 -28.7 56.32 -27 57 C-27 54 -27 54 -28.4375 52.5 C-28.953125 52.005 -29.46875 51.51 -30 51 C-30.165 50.504999999999995 -30.165 50.504999999999995 -31 48 C-28.287753820624584 49.61268691746646 -25.626471882870568 51.24901874475295 -23 53 C-23.165 52.175 -23.165 52.175 -24 48 C-22.35 48.33 -20.7 48.66 -19 49 C-19.66 47.35 -20.32 45.7 -21 44 C-19.35 44.66 -17.7 45.32 -16 46 C-17.371545039266955 43.0459029923481 -18.98863723988952 40.55991624014061 -21 38 C-17.916864899238874 39.19899698362933 -14.937205078983318 40.4770047738605 -12 42 C-12.659999999999997 40.35 -13.32 38.7 -14 37 C-12.350000000000001 37.66 -10.700000000000003 38.32 -9 39 C-9.329999999999998 37.35 -9.659999999999997 35.7 -10 34 C-8.350000000000001 34.33 -6.700000000000003 34.66 -5 35 C-5.639375000000001 34.236875 -6.278750000000002 33.473749999999995 -6.9375 32.6875 C-9 29.999999999999993 -9 29.999999999999993 -10 27 C-7.28775382062458 28.612686917466466 -4.626471882870561 30.249018744752956 -2 32 C-2.3299999999999983 30.35 -2.6599999999999966 28.7 -3 27 C-1.3500000000000014 27.33 0.29999999999999716 27.66 2 28 C1.3400000000000034 26.35 0.6799999999999997 24.7 0 23 C0.8250000000000028 23.33 0.8250000000000028 23.33 5 25 C4.71125 24.443125 4.422499999999999 23.88625 4.125 23.3125 C2.9586746985650123 20.915053547050295 1.966011904329271 18.484030611132415 1 16 C2.4973958333333357 17.302083333333336 3.9947916666666643 18.604166666666664 5.4921875 19.90625 C7 21 7 21 9 21 C8.340000000000003 19.35 7.68 17.7 7 16 C7.990000000000002 15.670000000000002 8.979999999999997 15.34 10 15 C8.047611471233964 12.993876007139486 6.088621776244906 10.99507567197423 4.125 9 C3.847207031250001 8.713828125 3.847207031250001 8.713828125 2.44140625 7.265625 C0.998655964543758 5.805492180984041 -0.4974374020955423 4.398507016332124 -2 3 C-4 3 -4 3 -5.797027587890625 4.5565185546875 Z " fill="#000000" transform="translate(49,1)"/>
<path d="M0 0 C1.9799999999999969 0 3.960000000000001 0 6 0 C6 1.9800000000000004 6 3.960000000000001 6 6 C4.019999999999996 6 2.039999999999999 6 0 6 C0 4.02 0 2.039999999999999 0 0 Z " fill="#000000" transform="translate(43,7)"/>
</svg>
