<?xml version="1.0" encoding="UTF-8"?>
<!-- Generator: visioncortex VTracer 0.6.12 -->
<svg version="1.1" xmlns="http://www.w3.org/2000/svg" width="80" height="80">
<path d="M0 0 C1.69140625 0.9843749999999982 1.69140625 0.9843749999999982 3.4375 2.25 C4.256054687499997 2.841679687500001 5.074609375000001 3.433359375 5.91796875 4.04296875 C8.638519898323672 6.426087197756393 10.297329101086284 8.738881392253134 12.1875 11.8125 C12.780468749999997 12.7625390625 13.373437499999994 13.712578125 13.984375 14.69140625 C16.845711812364414 19.72951273413628 16.448290585738505 23.893910670629452 16.27734375 29.53515625 C16.4375 32.25 16.4375 32.25 18.4375 34.25 C19.207151798132557 39.14534341370359 19.048142697414832 43.835412278456516 16.6875 48.25 C14.49722988836146 51.17036014885139 13.590662824929638 51.82599098228984 10.4375 53.25 C10.231250000000003 53.632207031250005 10.231250000000003 53.632207031250005 9.1875 55.56640625 C5.392358858351663 61.38618742034019 -2.010389641079584 64.44907830123705 -8.62890625 65.94140625 C-16.952897583741873 66.46234845064696 -23.95797082022566 63.163009476177464 -30.5625 58.25 C-32.27734375000001 55.60156249999999 -32.27734375000001 55.60156249999999 -33.5625 53.25 C-34.3875 52.775625 -35.2125 52.30125 -36.0625 51.8125 C-39.46063669867415 49.68866456332866 -40.25457396618021 48.036101676846755 -41.5625 44.25 C-42.0617819557019 39.241577881865304 -42.408390666382566 35.518835999573845 -39.5625 31.25 C-39.54296875 28.90234375 -39.54296875 28.90234375 -39.75 26.1875 C-39.890812660127104 18.583616353136293 -36.732006908413844 12.91350921121846 -32.25 6.9375 C-23.884389652919907 -1.4281103470800929 -11.250795899833314 -5.496078456815123 0 0 Z M-29.3125 9 C-34.28098200457013 15.150912504513592 -37.01026088658591 20.265099078961523 -36.99609375 28.26953125 C-36.45848550246706 30.72509324548829 -35.45780528835394 31.656334810588334 -33.5625 33.25 C-33.6346875 32.551328125 -33.706875 31.852656249999995 -33.78125 31.1328125 C-33.8740625 30.222734375 -33.966875 29.312656250000003 -34.0625 28.375 C-34.1553125 27.470078125 -34.248125 26.56515625 -34.34375 25.6328125 C-34.5625 23.25 -34.5625 23.25 -34.5625 21.25 C-33.5725 21.25 -32.582499999999996 21.25 -31.5625 21.25 C-31.8925 23.23 -32.2225 25.21 -32.5625 27.25 C-31.94375 26.981875000000002 -31.325 26.713750000000005 -30.6875 26.4375 C-16.28608073236365 20.964960678298187 -4.761212032911345 21.097224785738415 9.4375 27.25 C9.2725 26.259999999999998 9.2725 26.259999999999998 8.4375 21.25 C9.427500000000002 21.25 10.417499999999997 21.25 11.4375 21.25 C11.580357142857146 29.82142857142857 11.580357142857146 29.82142857142857 10.4375 33.25 C12.252293072617384 31.701376578033162 13.314068052934246 30.709281663500477 13.94140625 28.375 C14.162174563444069 20.368469165761418 10.796918739003118 13.910653167841602 5.43359375 8.06640625 C2.133226203776232 5.054116326406769 -1.1165792899873495 2.266210448002891 -5.5625 1.25 C-6.552499999999995 1.58 -7.542500000000004 1.9100000000000001 -8.5625 2.25 C-8.046875 2.95125 -7.53125 3.6525 -7 4.375 C-5.244753316662624 7.885493366674757 -5.729856281415827 9.503103266371227 -6.5625 13.25 C-6.232500000000002 13.91 -5.902500000000003 14.57 -5.5625 15.25 C-6.552499999999995 15.25 -7.542500000000004 15.25 -8.5625 15.25 C-8.376874999999998 14.486874999999998 -8.191249999999997 13.723749999999999 -8 12.9375 C-7.5625 10.25 -7.5625 10.25 -8.5625 7.25 C-9.8825 7.25 -11.2025 7.25 -12.5625 7.25 C-13.222499999999997 7.25 -13.8825 7.25 -14.5625 7.25 C-14.892499999999998 8.899999999999999 -15.222499999999997 10.55 -15.5625 12.25 C-14.902500000000003 12.25 -14.2425 12.25 -13.5625 12.25 C-13.5625 13.240000000000002 -13.5625 14.23 -13.5625 15.25 C-14.552499999999995 15.25 -15.542500000000004 15.25 -16.5625 15.25 C-16.706874999999997 14.631250000000001 -16.85125 14.0125 -17 13.375 C-17.5625 11.24999999999999 -17.5625 11.24999999999999 -18.5625 9.25 C-17.593646284493886 7.565037016511109 -16.592632774492515 5.898212439188024 -15.5625 4.25 C-15.5625 3.59 -15.5625 2.9299999999999997 -15.5625 2.25 C-14.2425 2.91 -12.9225 3.5700000000000003 -11.5625 4.25 C-10.902500000000003 3.26 -10.2425 2.2699999999999996 -9.5625 1.25 C-18.04471575696325 0.644127445931197 -23.49152584005414 2.69497894828892 -29.3125 9 Z M-17.5625 24.25 C-17.8925 24.909999999999997 -18.222499999999997 25.57 -18.5625 26.25 C-17.572499999999998 26.909999999999997 -16.582499999999996 27.57 -15.5625 28.25 C-15.232500000000002 29.240000000000002 -14.902500000000003 30.230000000000004 -14.5625 31.25 C-15.181249999999999 30.734375 -15.799999999999997 30.21875 -16.4375 29.6875 C-20.94351042332468 27.614735205270648 -24.768772834506056 28.47741872866797 -29.5625 29.25 C-30.98880596230643 33.52891788691929 -30.86734369973039 37.641374628224035 -30.9375 42.125 C-30.9748828125 43.0234765625 -31.012265624999998 43.921953125 -31.05078125 44.84765625 C-31.110861537696245 49.367029002262015 -31.116422633103326 51.52578681647804 -28.30078125 55.20703125 C-27.84896484375 55.54412109375 -27.84896484375 55.54412109375 -25.5625 57.25 C-25.215097656250002 57.51103515625 -25.215097656250002 57.51103515625 -23.45703125 58.83203125 C-17.83665365623895 62.15364277351732 -13.058983040203984 63.630381983282575 -6.5625 62.25 C-0.9543059511827039 59.958083641022114 4.180267029253294 57.51908744004024 7.4375 52.25 C7.778076171875 49.77636718749998 7.778076171875 49.77636718749998 7.73046875 47.046875 C7.720800781249999 46.0671875 7.711132812499997 45.0875 7.701171875 44.078125 C7.676035156250002 43.06234375 7.650898437499997 42.0465625 7.625 41 C7.611464843749999 39.96875 7.597929687499999 38.9375 7.583984375 37.875 C7.5486760704868985 35.33280207505669 7.499360361273396 32.79166776678179 7.4375 30.25 C-0.39338235294117396 27.860294117647058 -0.39338235294117396 27.860294117647058 -4.5625 29.25 C-5.552499999999995 29.909999999999997 -6.542500000000004 30.57 -7.5625 31.25 C-6.989050627136052 28.382753135680282 -6.70104849613174 27.38854849613174 -4.5625 25.25 C-5.5625 24.25 -5.5625 24.25 -8.28515625 24.15234375 C-9.387304687499999 24.1639453125 -10.489453124999997 24.175546875 -11.625 24.1875 C-12.729726562500005 24.1965234375 -13.834453124999996 24.205546875 -14.97265625 24.21484375 C-15.827304687500003 24.2264453125 -16.681953125 24.238046875 -17.5625 24.25 Z M-37.5625 35.25 C-38.5625 36.25 -38.5625 36.25 -38.875 39.4375 C-38.514182501301875 43.839473484117136 -37.300882194102684 45.84776757702393 -34.5625 49.25 C-34.2325 49.25 -33.9025 49.25 -33.5625 49.25 C-33.2325 45.29 -32.9025 41.33 -32.5625 37.25 C-33.3875 36.92 -33.3875 36.92 -37.5625 35.25 Z M12.4375 35.25 C11.942500000000003 35.58 11.942500000000003 35.58 9.4375 37.25 C9.767499999999998 41.21 10.097499999999997 45.17 10.4375 49.25 C15.419956140350877 44.26754385964912 15.419956140350877 44.26754385964912 15.5 39.625 C15.479375000000005 38.51125 15.458750000000009 37.3975 15.4375 36.25 C14.447499999999991 35.92 13.457499999999996 35.59 12.4375 35.25 Z " fill="#000000" transform="translate(51.5625,7.75)"/>
<path d="M0 0 C1.3200000000000003 0 2.6400000000000006 0 4 0 C4.329999999999998 0.990000000000002 4.659999999999997 1.9799999999999969 5 3 C8.299999999999997 3 11.600000000000001 3 15 3 C15.329999999999998 2.009999999999998 15.659999999999997 1.0200000000000031 16 0 C16.825000000000003 0.16499999999999915 16.825000000000003 0.16499999999999915 21 1 C21.125 5.75 21.125 5.75 20 8 C20 9.32 20 10.64 20 12 C20.783749999999998 11.505000000000003 21.567499999999995 11.009999999999998 22.375 10.5 C25 9 25 9 27 9 C27 11.64 27 14.280000000000001 27 17 C26.009999999999998 17.33 25.020000000000003 17.659999999999997 24 18 C23.3125 20.0625 23.3125 20.0625 23 22 C13.859788840883155 25.32371314876977 4.814880707658077 25.068406480457583 -4 21 C-4 20.010000000000005 -4 19.019999999999996 -4 18 C-4.990000000000002 17.67 -5.98 17.340000000000003 -7 17 C-8.223934749123 14.042157689619415 -7.965162427620545 12.00272755259725 -7 9 C-2.249999999999993 10.875 -2.249999999999993 10.875 0 12 C0.04272100132092049 10.3338809484842 0.04063832075785001 8.666171151071751 0 7 C-0.3299999999999983 6.670000000000002 -0.6600000000000001 6.340000000000003 -1 6 C-1.125 3.5 -1.125 3.5 -1 1 C-0.6700000000000017 0.6700000000000017 -0.33999999999999986 0.3400000000000034 0 0 Z M4 7.1875 C2.632960871080101 9.665258421167316 2.5817338790727504 11.211559193818331 3 14 C4.561214355117485 16.300736944383658 5.76616050351759 16.913848606559114 8.375 17.875 C11.771394061822264 18.036733050562965 13.285604234225197 16.960396941948474 16 15 C17 14 17 14 17.25 11.625 C17 9 17 9 16 7.1875 C12.309114454152407 4.996036707152996 7.690885545847593 4.996036707152989 4 7.1875 Z " fill="#000000" transform="translate(30,41)"/>
<path d="M0 0 C0.990000000000002 0 1.9799999999999969 0 3 0 C3 0.9899999999999984 3 1.9800000000000004 3 3 C2.009999999999998 3 1.0200000000000031 3 0 3 C0 2.009999999999998 0 1.0199999999999996 0 0 Z " fill="#000000" transform="translate(47,21)"/>
<path d="M0 0 C0.990000000000002 0 1.9799999999999969 0 3 0 C3 0.9899999999999984 3 1.9800000000000004 3 3 C2.009999999999998 3 1.0200000000000031 3 0 3 C0 2.009999999999998 0 1.0199999999999996 0 0 Z " fill="#000000" transform="translate(39,20)"/>
<path d="M0 0 C0.6599999999999966 0 1.3200000000000003 0 2 0 C2 0.9899999999999984 2 1.9800000000000004 2 3 C1.009999999999998 3 0.020000000000003126 3 -1 3 C-0.6700000000000017 2.009999999999998 -0.3400000000000034 1.0199999999999996 0 0 Z " fill="#000000" transform="translate(58,26)"/>
<path d="M0 0 C0.9899999999999984 0 1.9800000000000004 0 3 0 C3 0.9899999999999984 3 1.9800000000000004 3 3 C2.009999999999998 2.6700000000000017 1.0199999999999996 2.34 0 2 C0 1.3399999999999999 0 0.6799999999999997 0 0 Z " fill="#000000" transform="translate(20,26)"/>
<path d="M0 0 C0.990000000000002 0 1.9799999999999969 0 3 0 C3 0.9899999999999984 3 1.9800000000000004 3 3 C2.009999999999998 2.6700000000000017 1.0200000000000031 2.34 0 2 C0 1.3399999999999999 0 0.6799999999999997 0 0 Z " fill="#000000" transform="translate(54,24)"/>
<path d="M0 0 C0.9899999999999984 0 1.9800000000000004 0 3 0 C3 0.9899999999999984 3 1.9800000000000004 3 3 C2.009999999999998 2.6700000000000017 1.0199999999999996 2.34 0 2 C0 1.3399999999999999 0 0.6799999999999997 0 0 Z " fill="#000000" transform="translate(27,22)"/>
<path d="M0 0 C0.990000000000002 0.3299999999999983 1.9799999999999969 0.6600000000000001 3 1 C2.6700000000000017 1.6600000000000001 2.3400000000000034 2.3200000000000003 2 3 C1.3400000000000034 3 0.6799999999999997 3 0 3 C0 2.009999999999998 0 1.0199999999999996 0 0 Z " fill="#000000" transform="translate(51,22)"/>
<path d="M0 0 C0.9899999999999984 0 1.9799999999999969 0 3 0 C2.6700000000000017 0.9899999999999984 2.3400000000000034 1.9800000000000004 2 3 C1.3400000000000034 2.6700000000000017 0.6799999999999997 2.34 0 2 C0 1.3399999999999999 0 0.6799999999999997 0 0 Z " fill="#000000" transform="translate(31,21)"/>
<path d="M0 0 C0.6600000000000001 0 1.3200000000000003 0 2 0 C2 0.9899999999999984 2 1.9800000000000004 2 3 C1.3399999999999999 3 0.6799999999999997 3 0 3 C0 2.009999999999998 0 1.0199999999999996 0 0 Z " fill="#000000" transform="translate(24,23)"/>
</svg>
