<?xml version="1.0" encoding="UTF-8"?>
<svg version="1.1" xmlns="http://www.w3.org/2000/svg" width="64" height="64">
<path d="M0 0 C1.31484375 -0.00644531 2.6296875 -0.01289063 3.984375 -0.01953125 C5.0043457 -0.0038208 5.0043457 -0.0038208 6.04492188 0.01220703 C8.12034681 0.03900242 10.19036676 0.01243363 12.265625 -0.01953125 C14.23789062 -0.00986328 14.23789062 -0.00986328 16.25 0 C17.44882812 0.00563965 18.64765625 0.0112793 19.8828125 0.01708984 C24.12646463 0.86390296 25.58540539 2.19083657 28.125 5.6640625 C28.77197266 8.90625 28.77197266 8.90625 28.7890625 12.5390625 C28.79873047 14.51132812 28.79873047 14.51132812 28.80859375 16.5234375 C28.79812012 17.20341797 28.78764648 17.88339844 28.77685547 18.58398438 C28.75006008 20.65940931 28.77662887 22.72942926 28.80859375 24.8046875 C28.80214844 26.11953125 28.79570313 27.434375 28.7890625 28.7890625 C28.78060303 30.58730469 28.78060303 30.58730469 28.77197266 32.421875 C27.92515954 36.66552713 26.59822593 38.12446789 23.125 40.6640625 C19.8828125 41.31103516 19.8828125 41.31103516 16.25 41.328125 C14.93515625 41.33457031 13.6203125 41.34101562 12.265625 41.34765625 C11.58564453 41.33718262 10.90566406 41.32670898 10.20507812 41.31591797 C8.12965319 41.28912258 6.05963324 41.31569137 3.984375 41.34765625 C2.01210938 41.33798828 2.01210938 41.33798828 0 41.328125 C-1.79824219 41.31966553 -1.79824219 41.31966553 -3.6328125 41.31103516 C-7.87646463 40.46422204 -9.33540539 39.13728843 -11.875 35.6640625 C-12.52197266 32.421875 -12.52197266 32.421875 -12.5390625 28.7890625 C-12.54550781 27.47421875 -12.55195313 26.159375 -12.55859375 24.8046875 C-12.54812012 24.12470703 -12.53764648 23.44472656 -12.52685547 22.74414062 C-12.50006008 20.66871569 -12.52662887 18.59869574 -12.55859375 16.5234375 C-12.54892578 14.55117188 -12.54892578 14.55117188 -12.5390625 12.5390625 C-12.53342285 11.34023438 -12.5277832 10.14140625 -12.52197266 8.90625 C-11.10644912 1.81260751 -6.74470243 0.03172911 0 0 Z " fill="#000000" transform="translate(23.875,11.3359375)"/>
</svg>
