<?xml version="1.0" encoding="UTF-8"?>
<!-- Generator: visioncortex VTracer 0.6.12 -->
<svg version="1.1" xmlns="http://www.w3.org/2000/svg" width="80" height="80">
<path d="M0 0 C21.78 0 43.56 0 66 0 C66 14.520000000000003 66 29.040000000000006 66 44 C57.75 44 49.5 44 41 44 C41 45.32 41 46.64 41 48 C41.969375 47.979375 42.93875 47.95875 43.9375 47.9375 C47 48 47 48 48 49 C48 50.65 48 52.3 48 54 C38.1 54 28.200000000000003 54 18 54 C18 49 18 49 19 48 C20.999583636926893 47.95919217067496 23.00045253988587 47.95745643701885 25 48 C25 46.68 25 45.36 25 44 C16.75 44 8.5 44 0 44 C0 29.479999999999997 0 14.959999999999997 0 0 Z M2 2 C2 15.200000000000003 2 28.400000000000006 2 42 C22.46 42 42.92 42 64 42 C64 28.799999999999997 64 15.599999999999998 64 2 C43.54 2 23.08 2 2 2 Z M27 44 C27 45.32 27 46.64 27 48 C30.96 48 34.92 48 39 48 C39 46.68 39 45.36 39 44 C35.04 44 31.08 44 27 44 Z M22 50 C21.67 50.66 21.34 51.31999999999999 21 52 C28.92 52 36.84 52 45 52 C44.67 51.34 44.34 50.68 44 50 C36.739999999999995 50 29.479999999999997 50 22 50 Z " fill="#000000" transform="translate(7,13)"/>
<path d="M0 0 C1.3200000000000003 0.3299999999999983 2.6400000000000006 0.6600000000000001 4 1 C5.32 5.949999999999999 6.640000000000001 10.899999999999999 8 16 C8.989999999999995 13.36 9.980000000000004 10.719999999999999 11 8 C12.32 8 13.64 8 15 8 C15.165 8.825 15.165 8.825 16 13 C21.28 13 26.560000000000002 13 32 13 C32 13.659999999999997 32 14.32 32 15 C25.729999999999997 15.329999999999998 19.46 15.659999999999997 13 16 C12.009999999999998 19.299999999999997 11.020000000000003 22.6 10 26 C8.68 25.67 7.359999999999999 25.340000000000003 6 25 C4.68 19.72 3.3599999999999994 14.439999999999998 2 9 C1.0100000000000051 12.3 0.01999999999999602 15.600000000000001 -1 19 C-2.3200000000000003 19 -3.6400000000000006 19 -5 19 C-5.329999999999998 17.68 -5.66 16.36 -6 15 C-11.280000000000001 15 -16.560000000000002 15 -22 15 C-22 14.340000000000003 -22 13.68 -22 13 C-15.73 13 -9.46 13 -3 13 C-2.010000000000005 8.71 -1.019999999999996 4.420000000000002 0 0 Z " fill="#000000" transform="translate(35,19)"/>
<path d="M0 0 C0.6599999999999966 0 1.3199999999999932 0 2 0 C2 0.6599999999999966 2 1.3200000000000003 2 2 C1.3400000000000034 2 0.6800000000000068 2 0 2 C0 1.3400000000000034 0 0.6799999999999997 0 0 Z " fill="#000000" transform="translate(67,49)"/>
<path d="M0 0 C0.6599999999999966 0 1.3199999999999932 0 2 0 C2 0.6599999999999966 2 1.3200000000000003 2 2 C1.3400000000000034 2 0.6799999999999997 2 0 2 C0 1.3400000000000034 0 0.6799999999999997 0 0 Z " fill="#000000" transform="translate(63,49)"/>
<path d="M0 0 C0.6599999999999966 0 1.3200000000000003 0 2 0 C2 0.6599999999999966 2 1.3200000000000003 2 2 C1.3400000000000034 2 0.6799999999999997 2 0 2 C0 1.3400000000000034 0 0.6799999999999997 0 0 Z " fill="#000000" transform="translate(59,49)"/>
<path d="M0 0 C0.6599999999999966 0 1.3200000000000003 0 2 0 C2 0.6599999999999966 2 1.3200000000000003 2 2 C1.3400000000000034 2 0.6799999999999997 2 0 2 C0 1.3400000000000034 0 0.6799999999999997 0 0 Z " fill="#000000" transform="translate(55,49)"/>
<path d="M0 0 C0.6599999999999966 0 1.3200000000000003 0 2 0 C2 0.6599999999999966 2 1.3200000000000003 2 2 C1.3400000000000034 2 0.6799999999999997 2 0 2 C0 1.3400000000000034 0 0.6799999999999997 0 0 Z " fill="#000000" transform="translate(51,49)"/>
<path d="M0 0 C0.6599999999999966 0 1.3200000000000003 0 2 0 C2 0.6599999999999966 2 1.3200000000000003 2 2 C1.3400000000000034 2 0.6799999999999997 2 0 2 C0 1.3400000000000034 0 0.6799999999999997 0 0 Z " fill="#000000" transform="translate(47,49)"/>
<path d="M0 0 C0.6599999999999966 0 1.3200000000000003 0 2 0 C2 0.6599999999999966 2 1.3200000000000003 2 2 C1.3400000000000034 2 0.6799999999999997 2 0 2 C0 1.3400000000000034 0 0.6799999999999997 0 0 Z " fill="#000000" transform="translate(43,49)"/>
<path d="M0 0 C0.6599999999999966 0 1.3200000000000003 0 2 0 C2 0.6599999999999966 2 1.3200000000000003 2 2 C1.3400000000000034 2 0.6799999999999997 2 0 2 C0 1.3400000000000034 0 0.6799999999999997 0 0 Z " fill="#000000" transform="translate(39,49)"/>
<path d="M0 0 C0.6599999999999966 0 1.3200000000000003 0 2 0 C2 0.6599999999999966 2 1.3200000000000003 2 2 C1.3400000000000034 2 0.6799999999999997 2 0 2 C0 1.3400000000000034 0 0.6799999999999997 0 0 Z " fill="#000000" transform="translate(35,49)"/>
<path d="M0 0 C0.6600000000000001 0 1.3200000000000003 0 2 0 C2 0.6599999999999966 2 1.3200000000000003 2 2 C1.3400000000000034 2 0.6799999999999997 2 0 2 C0 1.3400000000000034 0 0.6799999999999997 0 0 Z " fill="#000000" transform="translate(31,49)"/>
<path d="M0 0 C0.6600000000000001 0 1.3200000000000003 0 2 0 C2 0.6599999999999966 2 1.3200000000000003 2 2 C1.3399999999999999 2 0.6799999999999997 2 0 2 C0 1.3400000000000034 0 0.6799999999999997 0 0 Z " fill="#000000" transform="translate(27,49)"/>
<path d="M0 0 C0.6600000000000001 0 1.3200000000000003 0 2 0 C2 0.6599999999999966 2 1.3200000000000003 2 2 C1.3399999999999999 2 0.6799999999999997 2 0 2 C0 1.3400000000000034 0 0.6799999999999997 0 0 Z " fill="#000000" transform="translate(23,49)"/>
<path d="M0 0 C0.6600000000000001 0 1.3200000000000003 0 2 0 C2 0.6599999999999966 2 1.3200000000000003 2 2 C1.3399999999999999 2 0.6799999999999997 2 0 2 C0 1.3400000000000034 0 0.6799999999999997 0 0 Z " fill="#000000" transform="translate(19,49)"/>
<path d="M0 0 C0.6600000000000001 0 1.3200000000000003 0 2 0 C2 0.6599999999999966 2 1.3200000000000003 2 2 C1.3399999999999999 2 0.6799999999999997 2 0 2 C0 1.3400000000000034 0 0.6799999999999997 0 0 Z " fill="#000000" transform="translate(15,49)"/>
<path d="M0 0 C0.6600000000000001 0 1.3200000000000003 0 2 0 C2 0.6599999999999966 2 1.3200000000000003 2 2 C1.3399999999999999 2 0.6799999999999997 2 0 2 C0 1.3400000000000034 0 0.6799999999999997 0 0 Z " fill="#000000" transform="translate(11,49)"/>
</svg>
