<?xml version="1.0" encoding="UTF-8"?>
<!-- Generator: visioncortex VTracer 0.6.12 -->
<svg version="1.1" xmlns="http://www.w3.org/2000/svg" width="80" height="80">
<path d="M0 0 C0.6599999999999966 0 1.3200000000000003 0 2 0 C2 1.9800000000000004 2 3.96 2 6 C2.907499999999999 5.876249999999999 3.8149999999999977 5.752500000000001 4.75 5.625 C11.386144702866261 5.6385155696596065 17.98457669613221 9.482151515657112 22.96484375 13.640625 C27.55780759757613 18.642631429421325 31.22209764296258 25.156666633239286 31.25 32.0625 C31.167500000000004 33.031875 31.084999999999994 34.00125 31 35 C32.980000000000004 35 34.959999999999994 35 37 35 C37 35.66 37 36.32 37 37 C35.019999999999996 37 33.040000000000006 37 31 37 C31.12375 37.9075 31.247500000000002 38.815 31.375 39.75 C31.361484430340397 46.386144702866254 27.517848484342892 52.984576696132216 23.359375 57.96484375 C18.35736857057868 62.557807597576115 11.84333336676071 66.22209764296258 4.9375 66.25 C3.9681250000000006 66.1675 2.998750000000001 66.085 2 66 C2 67.98 2 69.96 2 72 C1.3400000000000034 72 0.6799999999999997 72 0 72 C0 70.02 0 68.04 0 66 C-0.9074999999999989 66.12375 -1.8149999999999977 66.2475 -2.75 66.375 C-9.386144702866261 66.3614844303404 -15.984576696132212 62.51784848434289 -20.96484375 58.359375 C-25.557807597576115 53.357368570578686 -29.222097642962584 46.8433333667607 -29.25 39.9375 C-29.1675 38.968125 -29.085 37.99875 -29 37 C-30.98 37 -32.96 37 -35 37 C-35 36.34 -35 35.68 -35 35 C-33.019999999999996 35 -31.04 35 -29 35 C-29.12375 34.0925 -29.2475 33.185 -29.375 32.25 C-29.361484430340393 25.613855297133732 -25.517848484342892 19.015423303867795 -21.359375 14.03515625 C-16.35736857057868 9.442192402423881 -9.843333366760714 5.777902357037416 -2.9375 5.75 C-1.9681250000000006 5.8325 -0.9987500000000011 5.914999999999999 0 6 C0 4.02 0 2.04 0 0 Z M-19.9375 17.875 C-24.199687400032158 23.22283890758752 -26.51413160278552 27.973534761931234 -26 35 C-23.36 35 -20.72 35 -18 35 C-18 35.66 -18 36.32 -18 37 C-20.64 37 -23.28 37 -26 37 C-25.801470375286932 44.796799806913135 -23.751515388198793 50.051976662895555 -18.359375 55.7265625 C-13.667301784614484 60.017061881636295 -9.052419509985747 62.83350439036441 -2.5625 63.1875 C-1.7168750000000017 63.125625 -0.8712500000000034 63.06375 0 63 C0 60.36 0 57.72 0 55 C0.6599999999999966 55 1.3200000000000003 55 2 55 C2 57.64 2 60.28 2 63 C9.796799806913128 62.801470375286925 15.051976662895562 60.75151538819878 20.7265625 55.359375 C25.01706188163631 50.66730178461448 27.83350439036441 46.05241950998574 28.1875 39.5625 C28.125625 38.716875 28.06375 37.87125 28 37 C25.36 37 22.72 37 20 37 C20 36.34 20 35.68 20 35 C22.64 35 25.28 35 28 35 C27.801470375286925 27.20320019308685 25.751515388198783 21.948023337104438 20.359375 16.2734375 C15.66730178461448 11.982938118363688 11.052419509985747 9.166495609635586 4.5625 8.8125 C3.7168750000000017 8.874375 2.8712500000000034 8.93625 2 9 C2 11.64 2 14.280000000000001 2 17 C1.3400000000000034 17 0.6799999999999997 17 0 17 C0 14.36 0 11.719999999999999 0 9 C-7.851820906400221 7.966865670210497 -14.782315431111698 12.261091380490281 -19.9375 17.875 Z " fill="#000000" transform="translate(39,4)"/>
<path d="M0 0 C0.990000000000002 0 1.9799999999999969 0 3 0 C3 0.990000000000002 3 1.9799999999999969 3 3 C2.009999999999998 3 1.0200000000000031 3 0 3 C0 2.010000000000005 0 1.0200000000000031 0 0 Z " fill="#000000" transform="translate(43,62)"/>
<path d="M0 0 C0.990000000000002 0 1.9799999999999969 0 3 0 C3 0.990000000000002 3 1.9799999999999969 3 3 C2.009999999999998 3 1.0200000000000031 3 0 3 C0 2.010000000000005 0 1.0200000000000031 0 0 Z " fill="#000000" transform="translate(34,62)"/>
<path d="M0 0 C0.990000000000002 0 1.9799999999999969 0 3 0 C3 0.990000000000002 3 1.9799999999999969 3 3 C2.010000000000005 3 1.0200000000000031 3 0 3 C0 2.009999999999998 0 1.0200000000000031 0 0 Z " fill="#000000" transform="translate(62,43)"/>
<path d="M0 0 C0.9900000000000002 0 1.9800000000000004 0 3 0 C3 0.990000000000002 3 1.9799999999999969 3 3 C2.009999999999998 3 1.0199999999999996 3 0 3 C0 2.009999999999998 0 1.0200000000000031 0 0 Z " fill="#000000" transform="translate(15,43)"/>
<path d="M0 0 C0.990000000000002 0 1.9799999999999969 0 3 0 C3 0.990000000000002 3 1.9799999999999969 3 3 C2.010000000000005 3 1.0200000000000031 3 0 3 C0 2.009999999999998 0 1.0200000000000031 0 0 Z " fill="#000000" transform="translate(62,34)"/>
<path d="M0 0 C0.9900000000000002 0 1.9800000000000004 0 3 0 C3 0.990000000000002 3 1.9799999999999969 3 3 C2.009999999999998 3 1.0199999999999996 3 0 3 C0 2.009999999999998 0 1.0200000000000031 0 0 Z " fill="#000000" transform="translate(15,34)"/>
<path d="M0 0 C0.990000000000002 0 1.9799999999999969 0 3 0 C3 0.9900000000000002 3 1.9800000000000004 3 3 C2.009999999999998 3 1.0200000000000031 3 0 3 C0 2.009999999999998 0 1.0199999999999996 0 0 Z " fill="#000000" transform="translate(43,15)"/>
<path d="M0 0 C0.990000000000002 0 1.9799999999999969 0 3 0 C3 0.9900000000000002 3 1.9800000000000004 3 3 C2.009999999999998 3 1.0200000000000031 3 0 3 C0 2.009999999999998 0 1.0199999999999996 0 0 Z " fill="#000000" transform="translate(34,15)"/>
<path d="M0 0 C0.990000000000002 0 1.9799999999999969 0 3 0 C2.6700000000000017 0.990000000000002 2.3400000000000034 1.9799999999999969 2 3 C1.3400000000000034 3 0.6799999999999997 3 0 3 C0 2.009999999999998 0 1.0200000000000031 0 0 Z " fill="#000000" transform="translate(48,61)"/>
<path d="M0 0 C0.9899999999999984 0 1.9800000000000004 0 3 0 C3 0.990000000000002 3 1.9799999999999969 3 3 C2.009999999999998 2.6700000000000017 1.0199999999999996 2.3400000000000034 0 2 C0 1.3400000000000034 0 0.6799999999999997 0 0 Z " fill="#000000" transform="translate(29,61)"/>
<path d="M0 0 C0.990000000000002 0 1.9799999999999969 0 3 0 C2.6700000000000017 0.990000000000002 2.3400000000000034 1.9799999999999969 2 3 C1.3400000000000034 3 0.6799999999999997 3 0 3 C0 2.009999999999998 0 1.0200000000000031 0 0 Z " fill="#000000" transform="translate(61,48)"/>
<path d="M0 0 C0.9899999999999984 0 1.9800000000000004 0 3 0 C3 0.990000000000002 3 1.9799999999999969 3 3 C2.009999999999998 2.6700000000000017 1.0199999999999996 2.3400000000000034 0 2 C0 1.3400000000000034 0 0.6799999999999997 0 0 Z " fill="#000000" transform="translate(16,48)"/>
<path d="M0 0 C0.990000000000002 0.3299999999999983 1.9799999999999969 0.6600000000000001 3 1 C3 1.6600000000000001 3 2.3200000000000003 3 3 C2.009999999999998 3 1.0200000000000031 3 0 3 C0 2.009999999999998 0 1.0199999999999996 0 0 Z " fill="#000000" transform="translate(61,29)"/>
<path d="M0 0 C0.6600000000000001 0 1.3200000000000003 0 2 0 C2 0.9899999999999984 2 1.9800000000000004 2 3 C1.009999999999998 3 0.019999999999999574 3 -1 3 C-0.6700000000000017 2.009999999999998 -0.33999999999999986 1.0199999999999996 0 0 Z " fill="#000000" transform="translate(17,29)"/>
<path d="M0 0 C0.990000000000002 0.3299999999999983 1.9799999999999969 0.6600000000000001 3 1 C3 1.6600000000000001 3 2.3200000000000003 3 3 C2.009999999999998 3 1.0200000000000031 3 0 3 C0 2.009999999999998 0 1.0199999999999996 0 0 Z " fill="#000000" transform="translate(48,16)"/>
<path d="M0 0 C0.6600000000000001 0 1.3200000000000003 0 2 0 C2 0.9899999999999984 2 1.9800000000000004 2 3 C1.009999999999998 3 0.019999999999999574 3 -1 3 C-0.6700000000000017 2.009999999999998 -0.33999999999999986 1.0199999999999996 0 0 Z " fill="#000000" transform="translate(30,16)"/>
<path d="M0 0 C0.6599999999999966 0.3299999999999983 1.3200000000000003 0.6599999999999966 2 1 C2 1.6599999999999966 2 2.3200000000000003 2 3 C1.009999999999998 3 0.020000000000003126 3 -1 3 C-0.6700000000000017 2.009999999999998 -0.3400000000000034 1.0200000000000031 0 0 Z " fill="#000000" transform="translate(53,58)"/>
<path d="M0 0 C0.6600000000000001 0.3299999999999983 1.3200000000000003 0.6599999999999966 2 1 C2 1.6599999999999966 2 2.3200000000000003 2 3 C1.009999999999998 3 0.019999999999999574 3 -1 3 C-0.6700000000000017 2.009999999999998 -0.33999999999999986 1.0200000000000031 0 0 Z " fill="#000000" transform="translate(26,58)"/>
<path d="M0 0 C0.6599999999999966 0 1.3200000000000003 0 2 0 C2 0.990000000000002 2 1.9799999999999969 2 3 C1.009999999999998 2.6700000000000017 0.020000000000003126 2.3400000000000034 -1 2 C-0.6700000000000017 1.3400000000000034 -0.3400000000000034 0.6799999999999997 0 0 Z " fill="#000000" transform="translate(59,52)"/>
<path d="M0 0 C0.9899999999999984 0.3299999999999983 1.9800000000000004 0.6599999999999966 3 1 C2.6700000000000017 1.6599999999999966 2.34 2.3200000000000003 2 3 C1.3399999999999999 3 0.6799999999999997 3 0 3 C0 2.009999999999998 0 1.0200000000000031 0 0 Z " fill="#000000" transform="translate(19,52)"/>
<path d="M0 0 C0.6599999999999966 0 1.3200000000000003 0 2 0 C2 0.9899999999999984 2 1.9800000000000004 2 3 C1.009999999999998 2.6700000000000017 0.020000000000003126 2.34 -1 2 C-0.6700000000000017 1.3399999999999999 -0.3400000000000034 0.6799999999999997 0 0 Z " fill="#000000" transform="translate(59,25)"/>
<path d="M0 0 C0.9899999999999984 0.3299999999999983 1.9800000000000004 0.6600000000000001 3 1 C2.6700000000000017 1.6600000000000001 2.34 2.3200000000000003 2 3 C1.3399999999999999 3 0.6799999999999997 3 0 3 C0 2.009999999999998 0 1.0199999999999996 0 0 Z " fill="#000000" transform="translate(19,25)"/>
<path d="M0 0 C0.990000000000002 0 1.9799999999999969 0 3 0 C3 0.6600000000000001 3 1.3200000000000003 3 2 C2.009999999999998 2 1.0200000000000031 2 0 2 C0 1.3399999999999999 0 0.6799999999999997 0 0 Z " fill="#000000" transform="translate(52,19)"/>
<path d="M0 0 C0.9899999999999984 0 1.9800000000000004 0 3 0 C3 0.6600000000000001 3 1.3200000000000003 3 2 C2.009999999999998 2 1.0199999999999996 2 0 2 C0 1.3399999999999999 0 0.6799999999999997 0 0 Z " fill="#000000" transform="translate(25,19)"/>
<path d="M0 0 C0.990000000000002 0 1.9799999999999969 0 3 0 C3 0.6599999999999966 3 1.3200000000000003 3 2 C2.009999999999998 1.6700000000000017 1.0200000000000031 1.3400000000000034 0 1 C0 0.6700000000000017 0 0.3400000000000034 0 0 Z " fill="#000000" transform="translate(55,56)"/>
<path d="M0 0 C0.9899999999999984 0.3299999999999983 1.9800000000000004 0.6599999999999966 3 1 C2.009999999999998 1.3299999999999983 1.0199999999999996 1.6599999999999966 0 2 C0 1.3400000000000034 0 0.6799999999999997 0 0 Z " fill="#000000" transform="translate(22,56)"/>
<path d="M0 0 C0.6599999999999966 0 1.3200000000000003 0 2 0 C2 0.6600000000000001 2 1.3200000000000003 2 2 C1.009999999999998 1.6700000000000017 0.020000000000003126 1.3399999999999999 -1 1 C-0.6700000000000017 0.6700000000000017 -0.3400000000000034 0.33999999999999986 0 0 Z " fill="#000000" transform="translate(56,22)"/>
<path d="M0 0 C0.9899999999999984 0.3299999999999983 1.9800000000000004 0.6600000000000001 3 1 C2.009999999999998 1.3299999999999983 1.0199999999999996 1.6600000000000001 0 2 C0 1.3399999999999999 0 0.6799999999999997 0 0 Z " fill="#000000" transform="translate(22,22)"/>
</svg>
