<?xml version="1.0" encoding="UTF-8"?>
<svg version="1.1" xmlns="http://www.w3.org/2000/svg" width="80" height="80">
<path d="M0 0 C0.99 0 1.98 0 3 0 C2.6938444 9.49082361 -0.85251108 16.32728232 -7.75 22.875 C-13.3747588 27.44174275 -19.69522556 30.32436831 -27 30 C-27 29.01 -27 28.02 -27 27 C-26.3709375 26.85304688 -25.741875 26.70609375 -25.09375 26.5546875 C-15.99802415 24.17116898 -9.7235187 19.92462029 -4.25390625 12.234375 C-2.09418855 8.38590608 -0.99905938 4.27667526 0 0 Z " fill="#000000" transform="translate(70,43)"/>
<path d="M0 0 C0.99 0 1.98 0 3 0 C3.14695312 0.6290625 3.29390625 1.258125 3.4453125 1.90625 C5.82883102 11.00197585 10.07537971 17.2764813 17.765625 22.74609375 C21.61409392 24.90581145 25.72332474 26.00094062 30 27 C30 27.99 30 28.98 30 30 C20.50917639 29.6938444 13.67271768 26.14748892 7.125 19.25 C2.55825725 13.6252412 -0.32436831 7.30477444 0 0 Z " fill="#000000" transform="translate(7,43)"/>
<path d="M0 0 C9.49082361 0.3061556 16.32728232 3.85251108 22.875 10.75 C27.44174275 16.3747588 30.32436831 22.69522556 30 30 C29.01 30 28.02 30 27 30 C26.77957031 29.05640625 26.77957031 29.05640625 26.5546875 28.09375 C24.17116898 18.99802415 19.92462029 12.7235187 12.234375 7.25390625 C8.38590608 5.09418855 4.27667526 3.99905938 0 3 C0 2.01 0 1.02 0 0 Z " fill="#000000" transform="translate(43,7)"/>
<path d="M0 0 C0 0.99 0 1.98 0 3 C-0.6290625 3.14695312 -1.258125 3.29390625 -1.90625 3.4453125 C-11.00197585 5.82883102 -17.2764813 10.07537971 -22.74609375 17.765625 C-24.90581145 21.61409392 -26.00094062 25.72332474 -27 30 C-27.99 30 -28.98 30 -30 30 C-29.6938444 20.50917639 -26.14748892 13.67271768 -19.25 7.125 C-13.6252412 2.55825725 -7.30477444 -0.32436831 0 0 Z " fill="#000000" transform="translate(37,7)"/>
<path d="M0 0 C0.99 0 1.98 0 3 0 C2.39061932 6.39849715 -0.18369577 10.59212723 -5 14.75 C-9.12373475 17.84280106 -10.79712704 19 -16 19 C-16 18.01 -16 17.02 -16 16 C-15.33613281 15.731875 -14.67226563 15.46375 -13.98828125 15.1875 C-7.48880862 12.30306251 -3.93688523 9.52944715 -1 3 C-0.67 2.01 -0.34 1.02 0 0 Z " fill="#000000" transform="translate(59,43)"/>
<path d="M0 0 C0.99 0 1.98 0 3 0 C3.268125 0.66386719 3.53625 1.32773437 3.8125 2.01171875 C6.69693749 8.51119138 9.47055285 12.06311477 16 15 C16.99 15.33 17.98 15.66 19 16 C19 16.99 19 17.98 19 19 C12.60150285 18.39061932 8.40787277 15.81630423 4.25 11 C1.15719894 6.87626525 0 5.20287296 0 0 Z " fill="#000000" transform="translate(18,43)"/>
<path d="M0 0 C6.39849715 0.60938068 10.59212723 3.18369577 14.75 8 C17.84280106 12.12373475 19 13.79712704 19 19 C18.01 19 17.02 19 16 19 C15.5978125 18.00419922 15.5978125 18.00419922 15.1875 16.98828125 C12.30306251 10.48880862 9.52944715 6.93688523 3 4 C2.01 3.67 1.02 3.34 0 3 C0 2.01 0 1.02 0 0 Z " fill="#000000" transform="translate(43,18)"/>
<path d="M0 0 C0 0.99 0 1.98 0 3 C-0.66386719 3.268125 -1.32773437 3.53625 -2.01171875 3.8125 C-8.51119138 6.69693749 -12.06311477 9.47055285 -15 16 C-15.33 16.99 -15.66 17.98 -16 19 C-16.99 19 -17.98 19 -19 19 C-18.39061932 12.60150285 -15.81630423 8.40787277 -11 4.25 C-6.87626525 1.15719894 -5.20287296 0 0 0 Z " fill="#000000" transform="translate(37,18)"/>
<path d="M0 0 C0.66 0 1.32 0 2 0 C2 1.98 2 3.96 2 6 C3.98 6 5.96 6 8 6 C8 6.66 8 7.32 8 8 C6.02 8 4.04 8 2 8 C2 9.98 2 11.96 2 14 C1.34 14 0.68 14 0 14 C0 12.02 0 10.04 0 8 C-1.98 8 -3.96 8 -6 8 C-6 7.34 -6 6.68 -6 6 C-4.02 6 -2.04 6 0 6 C0 4.02 0 2.04 0 0 Z " fill="#000000" transform="translate(39,33)"/>
<path d="M0 0 C0.66 0 1.32 0 2 0 C2 0.66 2 1.32 2 2 C1.34 2 0.68 2 0 2 C0 1.34 0 0.68 0 0 Z " fill="#000000" transform="translate(39,76)"/>
<path d="M0 0 C0.66 0 1.32 0 2 0 C2 0.66 2 1.32 2 2 C1.34 2 0.68 2 0 2 C0 1.34 0 0.68 0 0 Z " fill="#000000" transform="translate(39,72)"/>
<path d="M0 0 C0.66 0 1.32 0 2 0 C2 0.66 2 1.32 2 2 C1.34 2 0.68 2 0 2 C0 1.34 0 0.68 0 0 Z " fill="#000000" transform="translate(39,68)"/>
<path d="M0 0 C0.66 0 1.32 0 2 0 C2 0.66 2 1.32 2 2 C1.34 2 0.68 2 0 2 C0 1.34 0 0.68 0 0 Z " fill="#000000" transform="translate(39,64)"/>
<path d="M0 0 C0.66 0 1.32 0 2 0 C2 0.66 2 1.32 2 2 C1.34 2 0.68 2 0 2 C0 1.34 0 0.68 0 0 Z " fill="#000000" transform="translate(39,60)"/>
<path d="M0 0 C0.66 0 1.32 0 2 0 C2 0.66 2 1.32 2 2 C1.34 2 0.68 2 0 2 C0 1.34 0 0.68 0 0 Z " fill="#000000" transform="translate(39,56)"/>
<path d="M0 0 C0.66 0 1.32 0 2 0 C2 0.66 2 1.32 2 2 C1.34 2 0.68 2 0 2 C0 1.34 0 0.68 0 0 Z " fill="#000000" transform="translate(39,52)"/>
<path d="M0 0 C0.66 0 1.32 0 2 0 C2 0.66 2 1.32 2 2 C1.34 2 0.68 2 0 2 C0 1.34 0 0.68 0 0 Z " fill="#000000" transform="translate(75,39)"/>
<path d="M0 0 C0.66 0 1.32 0 2 0 C2 0.66 2 1.32 2 2 C1.34 2 0.68 2 0 2 C0 1.34 0 0.68 0 0 Z " fill="#000000" transform="translate(71,39)"/>
<path d="M0 0 C0.66 0 1.32 0 2 0 C2 0.66 2 1.32 2 2 C1.34 2 0.68 2 0 2 C0 1.34 0 0.68 0 0 Z " fill="#000000" transform="translate(67,39)"/>
<path d="M0 0 C0.66 0 1.32 0 2 0 C2 0.66 2 1.32 2 2 C1.34 2 0.68 2 0 2 C0 1.34 0 0.68 0 0 Z " fill="#000000" transform="translate(63,39)"/>
<path d="M0 0 C0.66 0 1.32 0 2 0 C2 0.66 2 1.32 2 2 C1.34 2 0.68 2 0 2 C0 1.34 0 0.68 0 0 Z " fill="#000000" transform="translate(59,39)"/>
<path d="M0 0 C0.66 0 1.32 0 2 0 C2 0.66 2 1.32 2 2 C1.34 2 0.68 2 0 2 C0 1.34 0 0.68 0 0 Z " fill="#000000" transform="translate(55,39)"/>
<path d="M0 0 C0.66 0 1.32 0 2 0 C2 0.66 2 1.32 2 2 C1.34 2 0.68 2 0 2 C0 1.34 0 0.68 0 0 Z " fill="#000000" transform="translate(51,39)"/>
<path d="M0 0 C0.66 0 1.32 0 2 0 C2 0.66 2 1.32 2 2 C1.34 2 0.68 2 0 2 C0 1.34 0 0.68 0 0 Z " fill="#000000" transform="translate(26,39)"/>
<path d="M0 0 C0.66 0 1.32 0 2 0 C2 0.66 2 1.32 2 2 C1.34 2 0.68 2 0 2 C0 1.34 0 0.68 0 0 Z " fill="#000000" transform="translate(22,39)"/>
<path d="M0 0 C0.66 0 1.32 0 2 0 C2 0.66 2 1.32 2 2 C1.34 2 0.68 2 0 2 C0 1.34 0 0.68 0 0 Z " fill="#000000" transform="translate(18,39)"/>
<path d="M0 0 C0.66 0 1.32 0 2 0 C2 0.66 2 1.32 2 2 C1.34 2 0.68 2 0 2 C0 1.34 0 0.68 0 0 Z " fill="#000000" transform="translate(14,39)"/>
<path d="M0 0 C0.66 0 1.32 0 2 0 C2 0.66 2 1.32 2 2 C1.34 2 0.68 2 0 2 C0 1.34 0 0.68 0 0 Z " fill="#000000" transform="translate(10,39)"/>
<path d="M0 0 C0.66 0 1.32 0 2 0 C2 0.66 2 1.32 2 2 C1.34 2 0.68 2 0 2 C0 1.34 0 0.68 0 0 Z " fill="#000000" transform="translate(6,39)"/>
<path d="M0 0 C0.66 0 1.32 0 2 0 C2 0.66 2 1.32 2 2 C1.34 2 0.68 2 0 2 C0 1.34 0 0.68 0 0 Z " fill="#000000" transform="translate(2,39)"/>
<path d="M0 0 C0.66 0 1.32 0 2 0 C2 0.66 2 1.32 2 2 C1.34 2 0.68 2 0 2 C0 1.34 0 0.68 0 0 Z " fill="#000000" transform="translate(39,28)"/>
<path d="M0 0 C0.66 0 1.32 0 2 0 C2 0.66 2 1.32 2 2 C1.34 2 0.68 2 0 2 C0 1.34 0 0.68 0 0 Z " fill="#000000" transform="translate(39,24)"/>
<path d="M0 0 C0.66 0 1.32 0 2 0 C2 0.66 2 1.32 2 2 C1.34 2 0.68 2 0 2 C0 1.34 0 0.68 0 0 Z " fill="#000000" transform="translate(39,20)"/>
<path d="M0 0 C0.66 0 1.32 0 2 0 C2 0.66 2 1.32 2 2 C1.34 2 0.68 2 0 2 C0 1.34 0 0.68 0 0 Z " fill="#000000" transform="translate(39,16)"/>
<path d="M0 0 C0.66 0 1.32 0 2 0 C2 0.66 2 1.32 2 2 C1.34 2 0.68 2 0 2 C0 1.34 0 0.68 0 0 Z " fill="#000000" transform="translate(39,12)"/>
<path d="M0 0 C0.66 0 1.32 0 2 0 C2 0.66 2 1.32 2 2 C1.34 2 0.68 2 0 2 C0 1.34 0 0.68 0 0 Z " fill="#000000" transform="translate(39,8)"/>
<path d="M0 0 C0.66 0 1.32 0 2 0 C2 0.66 2 1.32 2 2 C1.34 2 0.68 2 0 2 C0 1.34 0 0.68 0 0 Z " fill="#000000" transform="translate(39,4)"/>
</svg>
