<?xml version="1.0" encoding="UTF-8"?>
<svg version="1.1" xmlns="http://www.w3.org/2000/svg" width="100" height="100">
<path d="M0 0 C5.19586617 3.17525155 7.16746236 6.40057944 9 12 C9 13.32 9 14.64 9 16 C7.35 16.33 5.7 16.66 4 17 C3.72285156 16.28972656 3.44570312 15.57945313 3.16015625 14.84765625 C2.61681641 13.46900391 2.61681641 13.46900391 2.0625 12.0625 C1.52302734 10.68771484 1.52302734 10.68771484 0.97265625 9.28515625 C0.2003782 7.07581467 0.2003782 7.07581467 -1 6 C-2.99958364 5.95919217 -5.00045254 5.95745644 -7 6 C-10.3910925 12.45750593 -13.40521611 18.87984631 -16 25.6875 C-19.21689777 33.97840874 -22.65622097 41.90991224 -31 46 C-32.47808958 46.17596305 -33.95738741 46.34195408 -35.4375 46.5 C-38.97558126 47.12155482 -39.84129219 47.79079425 -42.0625 50.71875 C-43.29009586 52.86704276 -44.46848325 55.04439259 -45.58984375 57.25 C-47 60 -47 60 -49 62 C-53.50822951 62.51733781 -55.82840491 62.73565273 -59.6875 60.3125 C-65.38059649 53.56156464 -67.1635411 43.26406504 -69 35 C-76.26 34.67 -83.52 34.34 -91 34 C-91 32.68 -91 31.36 -91 30 C-84.07 30 -77.14 30 -70 30 C-70.763125 27.298125 -71.52625 24.59625 -72.3125 21.8125 C-72.54622314 20.97050049 -72.77994629 20.12850098 -73.02075195 19.26098633 C-74.21804122 15.11067952 -75.5348971 11.60729134 -78 8 C-79.939509 8.19188156 -79.939509 8.19188156 -82 9 C-83.34231442 10.83983424 -83.34231442 10.83983424 -84.25 13.0625 C-84.58515625 13.79597656 -84.9203125 14.52945313 -85.265625 15.28515625 C-85.50796875 15.85105469 -85.7503125 16.41695312 -86 17 C-87.65 16.67 -89.3 16.34 -91 16 C-90.52353853 10.99715458 -89.06711438 7.96920685 -86 4 C-82.32154045 1.54769363 -79.27310733 1.19391687 -75 2 C-66.34638009 9.21134993 -64.92735883 24.8541199 -62.5 35.34936523 C-62.00934294 37.45789687 -61.50529438 39.56290449 -61 41.66796875 C-60.71125 42.90828857 -60.4225 44.1486084 -60.125 45.42651367 C-58.85236923 49.46893916 -57.30673087 52.45189253 -55 56 C-52.88658874 57.03525132 -52.88658874 57.03525132 -51 57 C-50.773125 56.175 -50.54625 55.35 -50.3125 54.5 C-47.1301536 46.01374293 -47.1301536 46.01374293 -44 43 C-40.71456061 41.65747274 -37.51824249 40.76829541 -34.05859375 39.984375 C-30.48119333 39.08982494 -30.48119333 39.08982494 -27 35 C-38.22 34.67 -49.44 34.34 -61 34 C-61.33 32.68 -61.66 31.36 -62 30 C-49.46 29.67 -36.92 29.34 -24 29 C-22.02 24.05 -20.04 19.1 -18 14 C-10.57268722 -2.09251101 -10.57268722 -2.09251101 0 0 Z " fill="#000000" transform="translate(91,18)"/>
<path d="M0 0 C8.25 0 16.5 0 25 0 C25 1.32 25 2.64 25 4 C16.42 4 7.84 4 -1 4 C-0.67 2.68 -0.34 1.36 0 0 Z " fill="#000000" transform="translate(75,48)"/>
<path d="M0 0 C2.64 0 5.28 0 8 0 C8 1.32 8 2.64 8 4 C5.36 4 2.72 4 0 4 C0 2.68 0 1.36 0 0 Z " fill="#000000" transform="translate(82,88)"/>
<path d="M0 0 C2.64 0 5.28 0 8 0 C8 1.32 8 2.64 8 4 C5.36 4 2.72 4 0 4 C0 2.68 0 1.36 0 0 Z " fill="#000000" transform="translate(70,88)"/>
<path d="M0 0 C2.64 0 5.28 0 8 0 C8 1.32 8 2.64 8 4 C5.36 4 2.72 4 0 4 C0 2.68 0 1.36 0 0 Z " fill="#000000" transform="translate(58,88)"/>
<path d="M0 0 C2.64 0 5.28 0 8 0 C8 1.32 8 2.64 8 4 C5.36 4 2.72 4 0 4 C0 2.68 0 1.36 0 0 Z " fill="#000000" transform="translate(46,88)"/>
<path d="M0 0 C2.64 0 5.28 0 8 0 C8 1.32 8 2.64 8 4 C5.36 4 2.72 4 0 4 C0 2.68 0 1.36 0 0 Z " fill="#000000" transform="translate(34,88)"/>
<path d="M0 0 C2.64 0 5.28 0 8 0 C8 1.32 8 2.64 8 4 C5.36 4 2.72 4 0 4 C0 2.68 0 1.36 0 0 Z " fill="#000000" transform="translate(22,88)"/>
<path d="M0 0 C2.64 0 5.28 0 8 0 C8 1.32 8 2.64 8 4 C5.36 4 2.72 4 0 4 C0 2.68 0 1.36 0 0 Z " fill="#000000" transform="translate(10,88)"/>
<path d="M0 0 C2.64 0 5.28 0 8 0 C8 1.32 8 2.64 8 4 C5.36 4 2.72 4 0 4 C0 2.68 0 1.36 0 0 Z " fill="#000000" transform="translate(82,8)"/>
<path d="M0 0 C2.64 0 5.28 0 8 0 C8 1.32 8 2.64 8 4 C5.36 4 2.72 4 0 4 C0 2.68 0 1.36 0 0 Z " fill="#000000" transform="translate(70,8)"/>
<path d="M0 0 C2.64 0 5.28 0 8 0 C8 1.32 8 2.64 8 4 C5.36 4 2.72 4 0 4 C0 2.68 0 1.36 0 0 Z " fill="#000000" transform="translate(58,8)"/>
<path d="M0 0 C2.64 0 5.28 0 8 0 C8 1.32 8 2.64 8 4 C5.36 4 2.72 4 0 4 C0 2.68 0 1.36 0 0 Z " fill="#000000" transform="translate(46,8)"/>
<path d="M0 0 C2.64 0 5.28 0 8 0 C8 1.32 8 2.64 8 4 C5.36 4 2.72 4 0 4 C0 2.68 0 1.36 0 0 Z " fill="#000000" transform="translate(34,8)"/>
<path d="M0 0 C2.64 0 5.28 0 8 0 C8 1.32 8 2.64 8 4 C5.36 4 2.72 4 0 4 C0 2.68 0 1.36 0 0 Z " fill="#000000" transform="translate(22,8)"/>
<path d="M0 0 C2.64 0 5.28 0 8 0 C8 1.32 8 2.64 8 4 C5.36 4 2.72 4 0 4 C0 2.68 0 1.36 0 0 Z " fill="#000000" transform="translate(10,8)"/>
<path d="M0 0 C1.98 0 3.96 0 6 0 C6 1.32 6 2.64 6 4 C4.02 4 2.04 4 0 4 C0 2.68 0 1.36 0 0 Z " fill="#000000" transform="translate(94,88)"/>
<path d="M0 0 C1.98 0 3.96 0 6 0 C6 1.32 6 2.64 6 4 C4.02 4 2.04 4 0 4 C0 2.68 0 1.36 0 0 Z " fill="#000000" transform="translate(0,88)"/>
<path d="M0 0 C1.98 0 3.96 0 6 0 C6 1.32 6 2.64 6 4 C4.02 4 2.04 4 0 4 C0 2.68 0 1.36 0 0 Z " fill="#000000" transform="translate(94,8)"/>
<path d="M0 0 C1.98 0 3.96 0 6 0 C6 1.32 6 2.64 6 4 C4.02 4 2.04 4 0 4 C0 2.68 0 1.36 0 0 Z " fill="#000000" transform="translate(0,8)"/>
</svg>
