<?xml version="1.0" encoding="UTF-8"?>
<!-- Generator: visioncortex VTracer 0.6.12 -->
<svg version="1.1" xmlns="http://www.w3.org/2000/svg" width="50" height="50">
<path d="M0 0 C4.884652503623023 2.2678743766821174 7.732125623317877 5.115347496376973 10 10 C10.753815353990817 15.599771201074638 10.7730357539958 20.33499991447058 8.375 25.5 C5.760663990150299 28.25193264194705 3.3397585034606294 30.190964143958823 0 32 C-1.3200000000000003 32 -2.6400000000000006 32 -4 32 C-4.0309375 32.433125000000004 -4.0309375 32.433125000000004 -4.1875 34.625 C-5.309199653011454 39.284367789432196 -7.724577127380531 42.54886263655071 -11.80078125 45.1484375 C-16.332335174252066 46.90310669269441 -21.23590163483503 46.51089526704182 -26 46 C-30.884652503623023 43.732125623317884 -33.732125623317884 40.88465250362302 -36 36 C-36.75381535399082 30.40022879892534 -36.773035753995806 25.665000085529428 -34.375 20.5 C-31.760663990150285 17.74806735805293 -29.33975850346065 15.809035856041184 -26 14 C-24.68 14 -23.36 14 -22 14 C-21.938125 13.13375 -21.87625 12.2675 -21.8125 11.375 C-20.690800346988546 6.715632210567815 -18.275422872619465 3.4511373634492895 -14.19921875 0.8515625 C-9.667664825747938 -0.9031066926944038 -4.764098365164976 -0.5108952670418203 0 0 Z M-18 9 C-18.165 9.61875 -18.165 9.61875 -19 12.75 C-19.33 13.8225 -19.66 14.895 -20 16 C-22.319392071121133 16.713659098806502 -24.655234486946867 17.374729196519162 -27 18 C-30.448769070316892 20.524589123369232 -32.58297746553862 23.253543211383203 -33.58203125 27.4375 C-33.89984703212389 32.286038443564436 -33.26321068326213 35.29819309667818 -30.125 39.0625 C-26.98123548742803 42.28979448754369 -24.81630798340849 43.20989561492729 -20.3125 43.4375 C-15.380421255407356 43.38039923305826 -12.819065848192615 42.2102470418729 -9.3125 38.79296875 C-8 37 -8 37 -7 33.25 C-6.670000000000002 32.177499999999995 -6.34 31.105000000000004 -6 30 C-3.680607928878871 29.286340901193498 -1.344765513053133 28.625270803480834 1 28 C4.448769070316885 25.475410876630775 6.582977465538619 22.746456788616793 7.58203125 18.5625 C7.899847032123887 13.71396155643555 7.263210683262145 10.701806903321833 4.125 6.9375 C0.9812354874280373 3.7102055124563202 -1.1836920165915217 2.79010438507271 -5.6875 2.5625 C-11.33333686391816 2.627864247339139 -14.661171966329732 4.438922418289724 -18 9 Z " fill="#000000" transform="translate(38,2)"/>
<path d="M0 0 C0.9899999999999984 0 1.9800000000000004 0 3 0 C3 0.9899999999999984 3 1.9800000000000004 3 3 C2.009999999999998 3 1.0199999999999996 3 0 3 C0 2.009999999999998 0 1.0199999999999996 0 0 Z " fill="#000000" transform="translate(20,27)"/>
<path d="M0 0 C0.9899999999999984 0 1.9800000000000004 0 3 0 C3 0.9899999999999984 3 1.9800000000000004 3 3 C2.009999999999998 3 1.0199999999999996 3 0 3 C0 2.009999999999998 0 1.0199999999999996 0 0 Z " fill="#000000" transform="translate(27,20)"/>
<path d="M0 0 C0.6600000000000001 0 1.3200000000000003 0 2 0 C2 0.9899999999999984 2 1.9799999999999969 2 3 C1.009999999999998 3 0.019999999999999574 3 -1 3 C-0.6700000000000017 2.009999999999998 -0.33999999999999986 1.0200000000000031 0 0 Z " fill="#000000" transform="translate(28,31)"/>
<path d="M0 0 C0.9899999999999984 0 1.9800000000000004 0 3 0 C3 0.9899999999999984 3 1.9800000000000004 3 3 C2.009999999999998 2.6700000000000017 1.0199999999999996 2.3400000000000034 0 2 C0 1.3399999999999999 0 0.6799999999999997 0 0 Z " fill="#000000" transform="translate(23,30)"/>
<path d="M0 0 C0.6599999999999966 0 1.3200000000000003 0 2 0 C2 0.9899999999999984 2 1.9800000000000004 2 3 C1.009999999999998 3 0.020000000000003126 3 -1 3 C-0.6700000000000017 2.009999999999998 -0.33999999999999986 1.0199999999999996 0 0 Z " fill="#000000" transform="translate(32,27)"/>
<path d="M0 0 C0.9899999999999984 0 1.9800000000000004 0 3 0 C3 0.9899999999999984 3 1.9800000000000004 3 3 C2.009999999999998 2.6700000000000017 1.0199999999999996 2.34 0 2 C0 1.3399999999999999 0 0.6799999999999997 0 0 Z " fill="#000000" transform="translate(17,24)"/>
<path d="M0 0 C0.9899999999999984 0.3299999999999983 1.9800000000000004 0.6600000000000001 3 1 C3 1.6600000000000001 3 2.3200000000000003 3 3 C2.009999999999998 3 1.0199999999999996 3 0 3 C0 2.009999999999998 0 1.0199999999999996 0 0 Z " fill="#000000" transform="translate(30,23)"/>
<path d="M0 0 C0.9899999999999984 0 1.9800000000000004 0 3 0 C2.6700000000000017 0.9899999999999984 2.34 1.9800000000000004 2 3 C1.3399999999999999 3 0.6799999999999997 3 0 3 C0 2.009999999999998 0 1.0199999999999996 0 0 Z " fill="#000000" transform="translate(16,20)"/>
<path d="M0 0 C0.9899999999999984 0.3299999999999983 1.9800000000000004 0.6600000000000001 3 1 C3 1.6600000000000001 3 2.3200000000000003 3 3 C2.009999999999998 3 1.0199999999999996 3 0 3 C0 2.009999999999998 0 1.0199999999999996 0 0 Z " fill="#000000" transform="translate(24,17)"/>
<path d="M0 0 C0.9899999999999984 0 1.9800000000000004 0 3 0 C2.6700000000000017 0.9899999999999984 2.34 1.9800000000000004 2 3 C1.3399999999999999 3 0.6799999999999997 3 0 3 C0 2.009999999999998 0 1.0199999999999996 0 0 Z " fill="#000000" transform="translate(20,16)"/>
</svg>
