<?xml version="1.0" encoding="UTF-8"?>
<!-- Generator: visioncortex VTracer 0.6.12 -->
<svg version="1.1" xmlns="http://www.w3.org/2000/svg" width="80" height="80">
<path d="M0 0 C3.281753180789508 2.529684743525241 4.692437771540327 4.077313314620966 6 8 C6.469185719168692 12.607249930853222 6.860722370129224 16.60960232517587 4.375 20.625 C1.3507757158137963 22.375866690844646 -0.5536993707733728 22.36662772651347 -4 22 C-4.990000000000009 21.67 -5.97999999999999 21.340000000000003 -7 21 C-7.804375 21.948750000000004 -8.60875 22.8975 -9.4375 23.875 C-9.663730468750003 24.141835937499998 -9.663730468750003 24.141835937499998 -10.80859375 25.4921875 C-15.040837194029848 30.84840379310007 -13.213991313175647 39.83427805732171 -12.5 46.25 C-12.417500000000004 46.86875 -12.417500000000004 46.86875 -12 50 C-13.936277688191389 50.10807131282928 -15.87427755854226 50.18562250491007 -17.8125 50.25 C-18.891445312499997 50.29640624999999 -19.970390625 50.34281250000001 -21.08203125 50.390625 C-24 50 -24 50 -25.88671875 48.109375 C-27 46 -27 46 -27 44 C-27.33 44.165 -27.33 44.165 -29 45 C-30.44848581789406 45.08342158847173 -31.90070869222329 45.10732860871851 -33.3515625 45.09765625 C-33.776953125 45.096044921875 -33.776953125 45.096044921875 -35.9296875 45.087890625 C-36.819140625 45.07951171875 -37.70859375 45.0711328125 -38.625 45.0625 C-39.07359375 45.060244140625 -39.07359375 45.060244140625 -41.34375 45.048828125 C-43.562566483351695 45.03702590966302 -45.781250184396384 45.020561553751676 -48 45 C-48.33 45.825 -48.33 45.825 -50 50 C-53.63 50 -57.260000000000005 50 -61 50 C-62 46 -62 46 -61.0625 43.75 C-60.711875 43.1725 -60.36125 42.595 -60 42 C-61.32 41.835 -61.32 41.835 -68 41 C-67.75 39.1875 -67.75 39.1875 -67 37 C-66.34 36.566875 -65.68 36.13375 -65 35.6875 C-63 34 -63 34 -62.3125 30.875 C-62.14805348822178 28.835863253950038 -61.98794307420505 26.79609610787945 -61.8671875 24.75390625 C-61.39944888572125 18.724145418102196 -60.11765531938389 14.785002270417372 -55.42578125 10.59375 C-49.01240115346435 5.63599100402638 -41.9915581543242 4.1167974945310135 -34 5 C-27.757630256007523 6.861759397331088 -23.6346173969739 10.60614194832344 -19 15 C-16.872742243921643 12.872742243921643 -16.23388919422615 11.383476425306384 -15.125 8.625 C-11.824630739396866 1.1721661424198295 -8.364366762953203 -1.7593498717085172 0 0 Z M-9.3984375 4.5390625 C-11.479770015402877 7.806123842359664 -13.11508478266915 11.162589165647738 -14.5625 14.75 C-16.006217052667793 18.01405594516197 -17.25153185407944 19.76686963143954 -20 22 C-20.990000000000002 22.33 -21.979999999999997 22.659999999999997 -23 23 C-22.67 21.019999999999996 -22.340000000000003 19.04 -22 17 C-24.3125 15.4375 -24.3125 15.4375 -27 14 C-27.990000000000002 14.329999999999998 -28.979999999999997 14.66 -30 15 C-30 14.009999999999998 -30 13.02 -30 12 C-29.340000000000003 11.670000000000002 -28.68 11.34 -28 11 C-28.990000000000002 10.670000000000002 -29.980000000000004 10.34 -31 10 C-31 10.66 -31 11.32 -31 12 C-31.989999999999995 12 -32.980000000000004 12 -34 12 C-34 10.68 -34 9.36 -34 8 C-35.27875 7.979375000000001 -36.557500000000005 7.958750000000002 -37.875 7.9375 C-38.594296875 7.925898437499999 -39.313593749999995 7.914296874999998 -40.0546875 7.90234375 C-42 8 -42 8 -44 9 C-44 9.990000000000002 -44 10.98 -44 12 C-44.989999999999995 12 -45.980000000000004 12 -47 12 C-47.33 11.34 -47.66 10.68 -48 10 C-52.16000970229536 12.55273322640852 -55.385023011170844 14.835407017790605 -58 19 C-59.245091288969874 24.602910800364413 -59.83268429770007 30.5019471068998 -58 36 C-58.99 36.66 -59.980000000000004 37.32 -61 38 C-59.35 38.33 -57.7 38.66 -56 39 C-57.875 45.75 -57.875 45.75 -59 48 C-56.1875 48.25 -56.1875 48.25 -53 48 C-51.125 46.12499999999999 -51.125 46.12499999999999 -50 44 C-50 43.34 -50 42.68 -50 42 C-49.4255615234375 42.00523681640625 -48.851123046875 42.0104736328125 -48.25927734375 42.015869140625 C-45.63119623032603 42.03678576443726 -43.00313270710343 42.04970658626584 -40.375 42.0625 C-39.4713671875 42.07087890625 -38.567734375 42.0792578125 -37.63671875 42.087890625 C-32.970957114782415 42.10491895213583 -28.589867147531663 41.96829423212047 -24 41 C-23.948437499999997 41.391875 -23.948437499999997 41.391875 -23.6875 43.375 C-23.000000000000007 45.99999999999999 -23.000000000000007 45.99999999999999 -20 48 C-17.31250000000002 47.625 -17.31250000000002 47.625 -15 47 C-15.179179687500003 46.0937890625 -15.358359375 45.187578125 -15.54296875 44.25390625 C-16.839538642527373 36.82809686552506 -17.870512673075524 30.730169802667405 -14 24 C-12.15844214458403 21.49175157920559 -10.192305682085056 19.206495362875245 -8 17 C-7.278125000000003 17.350625 -6.556250000000006 17.70125 -5.8125 18.0625 C-2.670174275996189 19.109941908001268 -1.126817313813234 18.955416401442932 2 18 C3 17 3 17 3.25 13.25 C3.208565753553515 9.403520788218128 2.4265446246042472 7.079845100459227 0 4 C-3.358616124214848 2.320691937892569 -6.6344498168654695 1.4971319213547396 -9.3984375 4.5390625 Z " fill="#000000" transform="translate(71,17)"/>
<path d="M0 0 C1.6500000000000057 0.3299999999999983 3.299999999999997 0.6600000000000001 5 1 C4.670000000000002 2.3200000000000003 4.340000000000003 3.6400000000000006 4 5 C2.3499999999999943 4.670000000000002 0.7000000000000028 4.34 -1 4 C-0.6700000000000017 2.6799999999999997 -0.3400000000000034 1.3599999999999994 0 0 Z " fill="#000000" transform="translate(68,25)"/>
<path d="M0 0 C0.9899999999999984 0.3299999999999983 1.9800000000000004 0.6600000000000001 3 1 C3 1.6600000000000001 3 2.3200000000000003 3 3 C1.6799999999999997 3 0.35999999999999943 3 -1 3 C-0.6700000000000017 2.009999999999998 -0.33999999999999986 1.0199999999999996 0 0 Z " fill="#000000" transform="translate(21,29)"/>
<path d="M0 0 C0.9899999999999984 0 1.9800000000000004 0 3 0 C3 0.990000000000002 3 1.9799999999999969 3 3 C2.009999999999998 3 1.0199999999999996 3 0 3 C0 2.009999999999998 0 1.0200000000000031 0 0 Z " fill="#000000" transform="translate(26,48)"/>
<path d="M0 0 C0.9899999999999984 0 1.9800000000000004 0 3 0 C3 0.990000000000002 3 1.9799999999999969 3 3 C2.009999999999998 3 1.0199999999999996 3 0 3 C0 2.009999999999998 0 1.0200000000000031 0 0 Z " fill="#000000" transform="translate(30,47)"/>
<path d="M0 0 C0.990000000000002 0 1.9799999999999969 0 3 0 C3 0.990000000000002 3 1.9799999999999969 3 3 C2.009999999999998 3 1.0200000000000031 3 0 3 C0 2.009999999999998 0 1.0200000000000031 0 0 Z " fill="#000000" transform="translate(41,42)"/>
<path d="M0 0 C0.9899999999999984 0.3299999999999983 1.9800000000000004 0.6599999999999966 3 1 C2.6700000000000017 1.990000000000002 2.34 2.979999999999997 2 4 C1.3399999999999999 3.6700000000000017 0.6799999999999997 3.3400000000000034 0 3 C0 2.009999999999998 0 1.0200000000000031 0 0 Z " fill="#000000" transform="translate(24,39)"/>
<path d="M0 0 C0.6600000000000001 0 1.3200000000000003 0 2 0 C1.6700000000000017 1.3200000000000003 1.3399999999999999 2.6400000000000006 1 4 C0.33999999999999986 3.6700000000000017 -0.3200000000000003 3.3400000000000034 -1 3 C-0.6700000000000017 2.009999999999998 -0.33999999999999986 1.0200000000000031 0 0 Z " fill="#000000" transform="translate(18,39)"/>
<path d="M0 0 C0.990000000000002 0 1.9799999999999969 0 3 0 C3 0.990000000000002 3 1.9799999999999969 3 3 C2.009999999999998 3 1.0200000000000031 3 0 3 C0 2.009999999999998 0 1.0200000000000031 0 0 Z " fill="#000000" transform="translate(34,36)"/>
<path d="M0 0 C0.9899999999999984 0 1.9800000000000004 0 3 0 C3 0.990000000000002 3 1.9799999999999969 3 3 C2.009999999999998 3 1.0199999999999996 3 0 3 C0 2.009999999999998 0 1.0200000000000031 0 0 Z " fill="#000000" transform="translate(27,36)"/>
<path d="M0 0 C0.9900000000000002 0 1.9800000000000004 0 3 0 C3 0.990000000000002 3 1.9799999999999969 3 3 C2.009999999999998 3 1.0199999999999996 3 0 3 C0 2.009999999999998 0 1.0200000000000031 0 0 Z " fill="#000000" transform="translate(14,36)"/>
<path d="M0 0 C0.9899999999999984 0 1.9800000000000004 0 3 0 C3 0.990000000000002 3 1.9799999999999969 3 3 C2.009999999999998 3 1.0199999999999996 3 0 3 C0 2.009999999999998 0 1.0200000000000031 0 0 Z " fill="#000000" transform="translate(24,33)"/>
<path d="M0 0 C0.9899999999999984 0 1.9800000000000004 0 3 0 C3 0.990000000000002 3 1.9799999999999969 3 3 C2.009999999999998 3 1.0199999999999996 3 0 3 C0 2.009999999999998 0 1.0200000000000031 0 0 Z " fill="#000000" transform="translate(17,33)"/>
<path d="M0 0 C0.990000000000002 0 1.9799999999999969 0 3 0 C3 0.9899999999999984 3 1.9800000000000004 3 3 C2.009999999999998 3 1.0200000000000031 3 0 3 C0 2.009999999999998 0 1.0199999999999996 0 0 Z " fill="#000000" transform="translate(34,29)"/>
<path d="M0 0 C0.9899999999999984 0 1.9799999999999969 0 3 0 C3 0.9899999999999984 3 1.9800000000000004 3 3 C2.009999999999998 3 1.0200000000000031 3 0 3 C0 2.009999999999998 0 1.0199999999999996 0 0 Z " fill="#000000" transform="translate(31,26)"/>
<path d="M0 0 C0.9899999999999984 0.3299999999999983 1.9800000000000004 0.6599999999999966 3 1 C2.6700000000000017 1.6599999999999966 2.34 2.3200000000000003 2 3 C1.009999999999998 2.6700000000000017 0.019999999999999574 2.3400000000000034 -1 2 C-0.6700000000000017 1.3400000000000034 -0.33999999999999986 0.6799999999999997 0 0 Z " fill="#000000" transform="translate(21,36)"/>
<path d="M0 0 C0.990000000000002 0 1.9799999999999969 0 3 0 C3 0.990000000000002 3 1.9799999999999969 3 3 C2.009999999999998 2.6700000000000017 1.0200000000000031 2.3400000000000034 0 2 C0 1.3400000000000034 0 0.6799999999999997 0 0 Z " fill="#000000" transform="translate(37,33)"/>
<path d="M0 0 C0.9899999999999984 0 1.9799999999999969 0 3 0 C2.6700000000000017 0.990000000000002 2.3400000000000034 1.9799999999999969 2 3 C1.3400000000000034 3 0.6799999999999997 3 0 3 C0 2.009999999999998 0 1.0200000000000031 0 0 Z " fill="#000000" transform="translate(31,33)"/>
<path d="M0 0 C0.6600000000000001 0 1.3200000000000003 0 2 0 C2 0.9899999999999984 2 1.9800000000000004 2 3 C1.009999999999998 3 0.019999999999999574 3 -1 3 C-0.6700000000000017 2.009999999999998 -0.33999999999999986 1.0199999999999996 0 0 Z " fill="#000000" transform="translate(28,29)"/>
<path d="M0 0 C0.6600000000000001 0 1.3200000000000003 0 2 0 C2 0.990000000000002 2 1.9799999999999969 2 3 C1.009999999999998 2.6700000000000017 0.019999999999999574 2.3400000000000034 -1 2 C-0.6700000000000017 1.3400000000000034 -0.33999999999999986 0.6799999999999997 0 0 Z " fill="#000000" transform="translate(23,49)"/>
<path d="M0 0 C0.6599999999999966 0.3299999999999983 1.3200000000000003 0.6599999999999966 2 1 C2 1.6599999999999966 2 2.3200000000000003 2 3 C1.009999999999998 3 0.020000000000003126 3 -1 3 C-0.6700000000000017 2.009999999999998 -0.3400000000000034 1.0200000000000031 0 0 Z " fill="#000000" transform="translate(35,45)"/>
<path d="M0 0 C0.6599999999999966 0 1.3200000000000003 0 2 0 C2 0.990000000000002 2 1.9799999999999969 2 3 C1.009999999999998 2.6700000000000017 0.020000000000003126 2.3400000000000034 -1 2 C-0.6700000000000017 1.3400000000000034 -0.3400000000000034 0.6799999999999997 0 0 Z " fill="#000000" transform="translate(38,44)"/>
<path d="M0 0 C0.6599999999999966 0 1.3200000000000003 0 2 0 C2 0.990000000000002 2 1.9799999999999969 2 3 C1.009999999999998 2.6700000000000017 0.020000000000003126 2.3400000000000034 -1 2 C-0.6700000000000017 1.3400000000000034 -0.3400000000000034 0.6799999999999997 0 0 Z " fill="#000000" transform="translate(45,40)"/>
<path d="M0 0 C0.6600000000000001 0 1.3200000000000003 0 2 0 C2 0.990000000000002 2 1.9799999999999969 2 3 C1.3399999999999999 3 0.6799999999999997 3 0 3 C0 2.009999999999998 0 1.0200000000000031 0 0 Z " fill="#000000" transform="translate(19,50)"/>
<path d="M0 0 C0.6600000000000001 0 1.3200000000000003 0 2 0 C2 0.990000000000002 2 1.9799999999999969 2 3 C1.3399999999999999 3 0.6799999999999997 3 0 3 C0 2.009999999999998 0 1.0200000000000031 0 0 Z " fill="#000000" transform="translate(15,50)"/>
</svg>
