<?xml version="1.0" encoding="UTF-8"?>
<!-- Generator: visioncortex VTracer 0.6.12 -->
<svg version="1.1" xmlns="http://www.w3.org/2000/svg" width="80" height="80">
<path d="M0 0 C3.9865531875197817 1.9583068289570864 6.756969479633732 4.13700299270254 9 8 C9 8.990000000000002 9 9.98 9 11 C8.009999999999998 11 7.020000000000003 11 6 11 C4.2885953059403334 9.038145838516964 2.6212667468232738 7.036976169085651 1 5 C-2.743713582066121 3.128143208966941 -6.922922480818833 3.4739254813959786 -11 4 C-15.94731114717397 6.698533353003983 -17.231959073261443 8.974509892393161 -18.875 14.3125 C-19.27060503863057 15.869910640585875 -19.652711306212552 17.431108093854963 -20 19 C-19.13375 18.505 -18.2675 18.01 -17.375 17.5 C-11.007414228831479 14.789561250154335 -3.1971665163033762 14.930529685749619 3.4375 16.62109375 C9.484995706156255 19.27868463649445 14.22815382170517 24.479932259120936 17.171875 30.328125 C19.178444044426953 36.80214965277377 19.276132699940334 45.17277576562138 16.5 51.4375 C12.980032177003956 57.26235778538492 7.510370659245162 61.98216581906436 1 64 C-6.83608208003951 64.80514105003991 -14.619225765290121 65.12460391557237 -21 60 C-26.045212219870297 55.19551361169409 -29.605629949102227 50.838229448853895 -30.3359375 43.73046875 C-30.41790669804342 36.29586248746176 -30.133373427175215 31.259108332579615 -26 25 C-25.46890625 24.5565625 -24.9378125 24.113124999999997 -24.390625 23.65625 C-22.369695876345027 21.249300706658122 -22.628755187076713 19.285904336822846 -22.5625 16.1875 C-22.140214039993115 9.45528729142869 -20.390297758215546 6.270782870304767 -15.5 1.625 C-10.341846248059397 -0.7698570991152813 -5.593084887762927 -0.7672270079235837 0 0 Z M-21.78515625 24.94140625 C-27.0785658072731 31.736492277421497 -27.74737123457012 37.475635339033545 -27 46 C-25.253310731773524 52.70862183911187 -20.822681015172186 56.544651307218146 -15 60 C-8.924564336326029 62.02514522122465 -1.5476446949613418 62.100464885408556 4.375 59.5 C9.51838336556817 56.504167100222304 13.135384450375973 51.59384664887209 15 46 C15.661069527378089 38.68488637737359 15.768397073591473 31.93077641563039 11 26 C4.657976793779049 20.16840119669422 -0.3556157375308331 18.616751234153003 -8.92578125 18.73046875 C-14.392704348051318 19.209779669651258 -18.065698297373174 20.896393990797524 -21.78515625 24.94140625 Z " fill="#000000" transform="translate(46,8)"/>
<path d="M0 0 C3 0.25 3 0.25 5 2.25 C5.1875 5.3125 5.1875 5.3125 5 8.25 C4.670000000000002 8.579999999999998 4.340000000000003 8.909999999999997 4 9.25 C3.6323926889530966 11.578179636630395 3.297584191037494 13.911838498991116 3 16.25 C1.019999999999996 16.25 -0.9600000000000009 16.25 -3 16.25 C-3.1443749999999966 15.115625000000001 -3.2887500000000003 13.981250000000003 -3.4375 12.8125 C-4 9.25 -4 9.25 -5 8.25 C-5.1875 5.3125 -5.1875 5.3125 -5 2.25 C-3 0.25 -3 0.25 0 0 Z M-2 3.25 C-1.6700000000000017 6.549999999999997 -1.3400000000000034 9.850000000000001 -1 13.25 C-0.3400000000000034 13.25 0.3200000000000003 13.25 1 13.25 C1.3299999999999983 9.950000000000003 1.6599999999999966 6.649999999999999 2 3.25 C0.6799999999999997 3.25 -0.6400000000000006 3.25 -2 3.25 Z " fill="#000000" transform="translate(40,40.75)"/>
<path d="M0 0 C0.990000000000002 0 1.9799999999999969 0 3 0 C3 0.9899999999999949 3 1.980000000000004 3 3 C2.009999999999998 3 1.0200000000000031 3 0 3 C0 2.010000000000005 0 1.019999999999996 0 0 Z " fill="#000000" transform="translate(43,64)"/>
<path d="M0 0 C0.990000000000002 0 1.9799999999999969 0 3 0 C3 0.9899999999999949 3 1.980000000000004 3 3 C2.009999999999998 3 1.0200000000000031 3 0 3 C0 2.010000000000005 0 1.019999999999996 0 0 Z " fill="#000000" transform="translate(34,64)"/>
<path d="M0 0 C0.990000000000002 0 1.9799999999999969 0 3 0 C3 0.990000000000002 3 1.9799999999999969 3 3 C2.009999999999998 3 1.0200000000000031 3 0 3 C0 2.009999999999998 0 1.0200000000000031 0 0 Z " fill="#000000" transform="translate(56,51)"/>
<path d="M0 0 C0.9899999999999984 0 1.9800000000000004 0 3 0 C3 0.990000000000002 3 1.9799999999999969 3 3 C2.009999999999998 3 1.0199999999999996 3 0 3 C0 2.009999999999998 0 1.0200000000000031 0 0 Z " fill="#000000" transform="translate(21,51)"/>
<path d="M0 0 C0.990000000000002 0 1.9799999999999969 0 3 0 C3 0.990000000000002 3 1.9799999999999969 3 3 C2.009999999999998 3 1.0200000000000031 3 0 3 C0 2.009999999999998 0 1.0200000000000031 0 0 Z " fill="#000000" transform="translate(56,42)"/>
<path d="M0 0 C0.9899999999999984 0 1.9800000000000004 0 3 0 C3 0.990000000000002 3 1.9799999999999969 3 3 C2.009999999999998 3 1.0199999999999996 3 0 3 C0 2.009999999999998 0 1.0200000000000031 0 0 Z " fill="#000000" transform="translate(21,42)"/>
<path d="M0 0 C0.990000000000002 0 1.9799999999999969 0 3 0 C3 0.9899999999999984 3 1.9800000000000004 3 3 C2.009999999999998 3 1.0200000000000031 3 0 3 C0 2.009999999999998 0 1.0199999999999996 0 0 Z " fill="#000000" transform="translate(43,29)"/>
<path d="M0 0 C0.990000000000002 0 1.9799999999999969 0 3 0 C3 0.9899999999999984 3 1.9800000000000004 3 3 C2.009999999999998 3 1.0200000000000031 3 0 3 C0 2.009999999999998 0 1.0199999999999996 0 0 Z " fill="#000000" transform="translate(34,29)"/>
<path d="M0 0 C0.6599999999999966 0 1.3200000000000003 0 2 0 C2 0.990000000000002 2 1.9799999999999969 2 3 C1.009999999999998 3 0.020000000000003126 3 -1 3 C-0.6700000000000017 2.009999999999998 -0.3400000000000034 1.0200000000000031 0 0 Z " fill="#000000" transform="translate(52,59)"/>
<path d="M0 0 C0.9899999999999984 0.3299999999999983 1.9800000000000004 0.6599999999999966 3 1 C3 1.6599999999999966 3 2.3200000000000003 3 3 C2.009999999999998 3 1.0199999999999996 3 0 3 C0 2.009999999999998 0 1.0200000000000031 0 0 Z " fill="#000000" transform="translate(26,59)"/>
<path d="M0 0 C0.990000000000002 0 1.9799999999999969 0 3 0 C3 0.990000000000002 3 1.9799999999999969 3 3 C2.009999999999998 2.6700000000000017 1.0200000000000031 2.3400000000000034 0 2 C0 1.3400000000000034 0 0.6799999999999997 0 0 Z " fill="#000000" transform="translate(51,34)"/>
<path d="M0 0 C0.9899999999999984 0 1.9800000000000004 0 3 0 C2.6700000000000017 0.990000000000002 2.34 1.9799999999999969 2 3 C1.3399999999999999 3 0.6799999999999997 3 0 3 C0 2.009999999999998 0 1.0200000000000031 0 0 Z " fill="#000000" transform="translate(26,34)"/>
<path d="M0 0 C0.6599999999999966 0 1.3200000000000003 0 2 0 C2 0.990000000000002 2 1.9799999999999969 2 3 C1.3400000000000034 3 0.6799999999999997 3 0 3 C0 2.010000000000005 0 1.0200000000000031 0 0 Z " fill="#000000" transform="translate(48,62)"/>
<path d="M0 0 C0.6600000000000001 0 1.3200000000000003 0 2 0 C2 0.990000000000002 2 1.9799999999999969 2 3 C1.3399999999999999 3 0.6799999999999997 3 0 3 C0 2.010000000000005 0 1.0200000000000031 0 0 Z " fill="#000000" transform="translate(30,62)"/>
<path d="M0 0 C0.990000000000002 0 1.9799999999999969 0 3 0 C3 0.6599999999999966 3 1.3200000000000003 3 2 C2.009999999999998 2 1.0200000000000031 2 0 2 C0 1.3400000000000034 0 0.6799999999999997 0 0 Z " fill="#000000" transform="translate(54,56)"/>
<path d="M0 0 C0.9899999999999984 0 1.9800000000000004 0 3 0 C3 0.6599999999999966 3 1.3200000000000003 3 2 C2.009999999999998 2 1.0199999999999996 2 0 2 C0 1.3400000000000034 0 0.6799999999999997 0 0 Z " fill="#000000" transform="translate(23,56)"/>
<path d="M0 0 C0.990000000000002 0 1.9799999999999969 0 3 0 C3 0.6599999999999966 3 1.3200000000000003 3 2 C2.009999999999998 2 1.0200000000000031 2 0 2 C0 1.3400000000000034 0 0.6799999999999997 0 0 Z " fill="#000000" transform="translate(54,38)"/>
<path d="M0 0 C0.9899999999999984 0 1.9800000000000004 0 3 0 C3 0.6599999999999966 3 1.3200000000000003 3 2 C2.009999999999998 2 1.0199999999999996 2 0 2 C0 1.3400000000000034 0 0.6799999999999997 0 0 Z " fill="#000000" transform="translate(23,38)"/>
<path d="M0 0 C0.6599999999999966 0 1.3200000000000003 0 2 0 C2 0.9899999999999984 2 1.9799999999999969 2 3 C1.3400000000000034 3 0.6799999999999997 3 0 3 C0 2.009999999999998 0 1.0200000000000031 0 0 Z " fill="#000000" transform="translate(48,31)"/>
<path d="M0 0 C0.6600000000000001 0 1.3200000000000003 0 2 0 C2 0.9899999999999984 2 1.9799999999999969 2 3 C1.3399999999999999 3 0.6799999999999997 3 0 3 C0 2.009999999999998 0 1.0200000000000031 0 0 Z " fill="#000000" transform="translate(30,31)"/>
<path d="M0 0 C0.6599999999999966 0 1.3200000000000003 0 2 0 C2 0.6599999999999966 2 1.3199999999999932 2 2 C1.3400000000000034 2 0.6799999999999997 2 0 2 C0 1.3400000000000034 0 0.6800000000000068 0 0 Z " fill="#000000" transform="translate(39,65)"/>
<path d="M0 0 C0.6599999999999966 0 1.3200000000000003 0 2 0 C2 0.6599999999999966 2 1.3200000000000003 2 2 C1.3400000000000034 2 0.6799999999999997 2 0 2 C0 1.3400000000000034 0 0.6799999999999997 0 0 Z " fill="#000000" transform="translate(57,47)"/>
<path d="M0 0 C0.6600000000000001 0 1.3200000000000003 0 2 0 C2 0.6599999999999966 2 1.3200000000000003 2 2 C1.3399999999999999 2 0.6799999999999997 2 0 2 C0 1.3400000000000034 0 0.6799999999999997 0 0 Z " fill="#000000" transform="translate(21,47)"/>
<path d="M0 0 C0.6599999999999966 0 1.3200000000000003 0 2 0 C2 0.6600000000000001 2 1.3200000000000003 2 2 C1.3400000000000034 2 0.6799999999999997 2 0 2 C0 1.3399999999999999 0 0.6799999999999997 0 0 Z " fill="#000000" transform="translate(39,29)"/>
</svg>
