<?xml version="1.0" encoding="UTF-8"?>
<svg version="1.1" xmlns="http://www.w3.org/2000/svg" width="100" height="100">
<path d="M0 0 C2.97846505 1.14419469 4.58055697 2.51883352 6.85014343 4.75938416 C7.6738443 5.564021 8.49754517 6.36865784 9.34620667 7.19767761 C10.22036224 8.07365601 11.09451782 8.9496344 11.99516296 9.85215759 C12.90049774 10.74892212 13.80583252 11.64568665 14.73860168 12.56962585 C16.64843747 14.4679776 18.55342708 16.37009058 20.45219421 18.27940369 C22.88682027 20.72564504 25.34347756 23.14834359 27.80695915 25.56547928 C30.15436182 27.87636012 32.47975246 30.2091671 34.80766296 32.53965759 C35.69396393 33.40753906 36.58026489 34.27542053 37.49342346 35.16960144 C38.29821136 35.98684692 39.10299927 36.80409241 39.93217468 37.64610291 C40.64767487 38.36034424 41.36317505 39.07458557 42.10035706 39.81047058 C43.50297546 41.96153259 43.50297546 41.96153259 43.30209351 44.62692261 C42.45240845 47.10926328 41.65864692 48.27557362 39.78031921 50.07481384 C39.24213562 50.60010681 38.70395203 51.12539978 38.14945984 51.66661072 C37.585495 52.19705994 37.02153015 52.72750916 36.44047546 53.27403259 C35.87264343 53.82381775 35.3048114 54.37360291 34.71977234 54.94004822 C33.32306621 56.28980624 31.91418709 57.62694784 30.50297546 58.96153259 C26.30671637 57.32375215 23.51620761 54.22830077 20.42485046 51.07872009 C19.85341309 50.50445282 19.28197571 49.93018555 18.69322205 49.33851624 C16.87504602 47.50917449 15.06396055 45.67299066 13.25297546 43.83653259 C12.01906217 42.59258485 10.78469225 41.34908989 9.54985046 40.10606384 C6.52890804 37.06310893 3.51430454 34.01400005 0.50297546 30.96153259 C-3.59696242 32.56633239 -6.22026561 35.53139417 -9.18061829 38.66075134 C-10.28354514 39.79869208 -11.38707924 40.93604452 -12.49116516 42.07286072 C-14.22040843 43.86417055 -15.94456822 45.65961679 -17.65840149 47.46568298 C-19.31908435 49.2108838 -20.99797711 50.93674884 -22.68061829 52.66075134 C-23.18910812 53.206483 -23.69759796 53.75221466 -24.22149658 54.31448364 C-25.69795227 55.81187439 -25.69795227 55.81187439 -28.49702454 57.96153259 C-31.44296169 57.96314946 -32.80524845 57.46511159 -35.16621399 55.7464447 C-35.64276428 55.24894714 -36.11931458 54.75144958 -36.61030579 54.23887634 C-37.39824524 53.43160095 -37.39824524 53.43160095 -38.20210266 52.60801697 C-38.73255188 52.04405212 -39.2630011 51.48008728 -39.80952454 50.89903259 C-40.63420227 50.04728455 -40.63420227 50.04728455 -41.47554016 49.17832947 C-42.82529818 47.78162334 -44.16243978 46.37274422 -45.49702454 44.96153259 C-44.03009101 41.59213308 -42.15176732 39.3434469 -39.58564758 36.72789001 C-38.78108627 35.90411362 -37.97652496 35.08033722 -37.14758301 34.2315979 C-36.2767659 33.35228104 -35.40594879 32.47296417 -34.50874329 31.56700134 C-33.61339371 30.66025162 -32.71804413 29.75350189 -31.79556274 28.8192749 C-29.90105846 26.90588629 -28.00417096 24.99519561 -26.10371399 23.0877533 C-23.66883335 20.64186892 -21.25307805 18.17796553 -18.84126568 15.70936108 C-16.53523913 13.35717713 -14.20809965 11.02605224 -11.88374329 8.69200134 C-11.01899887 7.80256332 -10.15425446 6.91312531 -9.26330566 5.99673462 C-8.44928787 5.18871902 -7.63527008 4.38070343 -6.79658508 3.54820251 C-5.72974739 2.47042793 -5.72974739 2.47042793 -4.64135742 1.37088013 C-2.49702454 -0.03846741 -2.49702454 -0.03846741 0 0 Z " fill="#000000" transform="translate(50.49702453613281,22.038467407226563)"/>
</svg>
