<?xml version="1.0" encoding="UTF-8"?>
<!-- Generator: visioncortex VTracer 0.6.12 -->
<svg version="1.1" xmlns="http://www.w3.org/2000/svg" width="80" height="80">
<path d="M0 0 C3.9463628635796866 2.1289589132469366 7.176963251356611 4.7505934278014745 9.90625 8.2734375 C10.51410114539462 11.732629414614635 10.379451670695119 15.087585745636993 10.21875 18.5859375 C10.196191406250001 19.51728515625 10.173632812500003 20.4486328125 10.150390625 21.408203125 C10.091670779384692 23.698277103996887 10.00961857626747 25.985016250017125 9.90625 28.2734375 C8.916249999999998 28.6034375 7.926250000000003 28.933437499999997 6.90625 29.2734375 C6.823749999999997 30.1190625 6.741250000000001 30.964687499999997 6.65625 31.8359375 C5.748911474759311 35.994572407353175 4.140837267459105 38.66926448796918 1.90625 42.2734375 C2.6255468749999977 42.389453125 3.3448437500000026 42.50546875 4.0859375 42.625 C7.019054622685381 43.29937318887226 9.348781773598567 44.29489848667817 12.03125 45.6484375 C12.879453124999998 46.068671875 13.727656250000003 46.48890625 14.6015625 46.921875 C16.906250000000007 48.27343750000001 16.906250000000007 48.27343750000001 19.90625 51.2734375 C19.90625 54.5734375 19.90625 57.873437499999994 19.90625 61.2734375 C2.7462500000000034 61.2734375 -14.41375 61.2734375 -32.09375 61.2734375 C-32.09375 57.9734375 -32.09375 54.673437500000006 -32.09375 51.2734375 C-27.267082406499547 46.61612666416623 -21.046962354371075 42.2734375 -14.09375 42.2734375 C-14.454687499999999 41.67015625 -14.815625 41.066875 -15.1875 40.4453125 C-15.6515625 39.64609375 -16.115625 38.846875 -16.59375 38.0234375 C-17.0578125 37.23453125 -17.521875 36.445625 -18 35.6328125 C-19.09375 33.2734375 -19.09375 33.2734375 -19.09375 29.2734375 C-20.083750000000002 28.9434375 -21.07375 28.613437500000003 -22.09375 28.2734375 C-22.210732581532284 25.06541516798005 -22.281256068797425 21.857947252475128 -22.34375 18.6484375 C-22.377265625 17.7448046875 -22.41078125 16.841171875 -22.4453125 15.91015625 C-22.531740275227246 9.989853646933607 -21.97600611572949 6.808716363476961 -18.09375 2.2734375 C-13.345019396014067 -2.043590321805393 -5.8832004059290455 -2.0415583498186605 0 0 Z M-17.53125 6.4609375 C-19.677622658759105 10.324408285766395 -19.390472037466157 12.896787447374187 -19.09375 17.2734375 C-18.4041015625 16.649531250000003 -17.714453125 16.025624999999998 -17.00390625 15.3828125 C-13.784015200060097 13.048931738969735 -11.401629872296787 12.33070097278496 -7.53125 11.5234375 C-6.416210937499997 11.28109375 -5.301171875000001 11.03875 -4.15234375 10.7890625 C2.0989105504587116 9.735211200305809 2.0989105504587116 9.735211200305809 5.15625 11.7734375 C5.733750000000001 12.268437499999997 6.311250000000001 12.763437500000002 6.90625 13.2734375 C6.71875 10.960937500000007 6.71875 10.960937500000007 5.90625 8.2734375 C3.59375 6.6484375 3.59375 6.6484375 0.90625 5.2734375 C0.2462500000000034 4.737187500000001 -0.4137500000000003 4.2009375 -1.09375 3.6484375 C-7.070423297608883 -0.46052539210610277 -12.439186590123668 1.8911370039571338 -17.53125 6.4609375 Z M-6.09375 13.4609375 C-7.125 13.7226171875 -8.15625 13.984296874999998 -9.21875 14.25390625 C-12.0639221864229 15.262859973717902 -13.88646487853871 16.23321753681445 -16.09375 18.2734375 C-17.66812468366453 22.05193674079487 -18.899253115046474 25.245368743334765 -17.32421875 29.2109375 C-16.980039062499998 29.8915625 -16.635859375 30.5721875 -16.28125 31.2734375 C-15.9448046875 31.9540625 -15.608359375 32.6346875 -15.26171875 33.3359375 C-13.13079414017487 36.87084922733533 -11.779758569889779 38.09558342632487 -7.71875 39.1484375 C-3.6265238337610697 39.28954874711169 -2.240353787057728 38.8082016617965 0.90625 36.2734375 C4.0939607552269734 32.731536660858914 5.90625 29.069382465816275 5.90625 24.2734375 C5.697696894196454 22.58031557525279 5.443526041262032 20.892492948421733 5.15625 19.2109375 C5.017031250000002 18.3330859375 4.8778125000000045 17.455234375 4.734375 16.55078125 C3.90625 14.2734375 3.90625 14.2734375 2.203125 12.890625 C-0.9256478228166358 12.049900329923421 -2.9768242419282984 12.631056016913409 -6.09375 13.4609375 Z M-12.09375 41.2734375 C-11.09375 46.2734375 -11.09375 46.2734375 -9.03125 48.0859375 C-8.391874999999999 48.4778125 -7.752499999999998 48.8696875 -7.09375 49.2734375 C-4.231678477861188 47.99043992111019 -2.0692411991779522 46.74280149897244 -0.09375 44.2734375 C-0.09375 43.2834375 -0.09375 42.2934375 -0.09375 41.2734375 C-4.053750000000001 41.2734375 -8.013750000000002 41.2734375 -12.09375 41.2734375 Z M-28.71875 52.8359375 C-30.09375 55.2734375 -30.09375 55.2734375 -30.09375 59.2734375 C-14.25375 59.2734375 1.5862499999999997 59.2734375 17.90625 59.2734375 C16.90625 53.2734375 16.90625 53.2734375 15.3046875 51.4453125 C10.89332897730641 48.34543894351261 7.2013687733936536 46.37658724445701 1.90625 45.2734375 C1.3493749999999949 46.0571875 0.792500000000004 46.8409375 0.21875 47.6484375 C-2.2216118225227675 50.418577947188005 -3.48497798611713 51.569286863144804 -7.09375 52.2734375 C-10.17044486840284 50.98551871787788 -11.685142426099915 49.95445012316681 -13.40625 47.0859375 C-13.633125 46.4878125 -13.86 45.8896875 -14.09375 45.2734375 C-19.380068002740806 45.2734375 -25.082222802381217 49.2859942832769 -28.71875 52.8359375 Z " fill="#000000" transform="translate(46.09375,9.7265625)"/>
<path d="M0 0 C0.990000000000002 0 1.9799999999999969 0 3 0 C3 0.990000000000002 3 1.9799999999999969 3 3 C2.009999999999998 3 1.0200000000000031 3 0 3 C0 2.009999999999998 0 1.0200000000000031 0 0 Z " fill="#000000" transform="translate(44,33)"/>
<path d="M0 0 C0.990000000000002 0 1.9799999999999969 0 3 0 C3 0.990000000000002 3 1.9799999999999969 3 3 C2.009999999999998 3 1.0200000000000031 3 0 3 C0 2.009999999999998 0 1.0200000000000031 0 0 Z " fill="#000000" transform="translate(33,33)"/>
<path d="M0 0 C0.6599999999999966 0 1.3200000000000003 0 2 0 C2 0.6599999999999966 2 1.3199999999999932 2 2 C1.3400000000000034 2 0.6799999999999997 2 0 2 C0 1.3400000000000034 0 0.6800000000000068 0 0 Z " fill="#000000" transform="translate(59,65)"/>
<path d="M0 0 C0.6599999999999966 0 1.3200000000000003 0 2 0 C2 0.6599999999999966 2 1.3199999999999932 2 2 C1.3400000000000034 2 0.6799999999999997 2 0 2 C0 1.3400000000000034 0 0.6800000000000068 0 0 Z " fill="#000000" transform="translate(55,65)"/>
<path d="M0 0 C0.6599999999999966 0 1.3200000000000003 0 2 0 C2 0.6599999999999966 2 1.3199999999999932 2 2 C1.3400000000000034 2 0.6799999999999997 2 0 2 C0 1.3400000000000034 0 0.6800000000000068 0 0 Z " fill="#000000" transform="translate(51,65)"/>
<path d="M0 0 C0.6599999999999966 0 1.3200000000000003 0 2 0 C2 0.6599999999999966 2 1.3199999999999932 2 2 C1.3400000000000034 2 0.6799999999999997 2 0 2 C0 1.3400000000000034 0 0.6800000000000068 0 0 Z " fill="#000000" transform="translate(47,65)"/>
<path d="M0 0 C0.6599999999999966 0 1.3200000000000003 0 2 0 C2 0.6599999999999966 2 1.3199999999999932 2 2 C1.3400000000000034 2 0.6799999999999997 2 0 2 C0 1.3400000000000034 0 0.6800000000000068 0 0 Z " fill="#000000" transform="translate(43,65)"/>
<path d="M0 0 C0.6599999999999966 0 1.3200000000000003 0 2 0 C2 0.6599999999999966 2 1.3199999999999932 2 2 C1.3400000000000034 2 0.6799999999999997 2 0 2 C0 1.3400000000000034 0 0.6800000000000068 0 0 Z " fill="#000000" transform="translate(39,65)"/>
<path d="M0 0 C0.6599999999999966 0 1.3200000000000003 0 2 0 C2 0.6599999999999966 2 1.3199999999999932 2 2 C1.3400000000000034 2 0.6799999999999997 2 0 2 C0 1.3400000000000034 0 0.6800000000000068 0 0 Z " fill="#000000" transform="translate(35,65)"/>
<path d="M0 0 C0.6600000000000001 0 1.3200000000000003 0 2 0 C2 0.6599999999999966 2 1.3199999999999932 2 2 C1.3400000000000034 2 0.6799999999999997 2 0 2 C0 1.3400000000000034 0 0.6800000000000068 0 0 Z " fill="#000000" transform="translate(31,65)"/>
<path d="M0 0 C0.6600000000000001 0 1.3200000000000003 0 2 0 C2 0.6599999999999966 2 1.3199999999999932 2 2 C1.3399999999999999 2 0.6799999999999997 2 0 2 C0 1.3400000000000034 0 0.6800000000000068 0 0 Z " fill="#000000" transform="translate(27,65)"/>
<path d="M0 0 C0.6600000000000001 0 1.3200000000000003 0 2 0 C2 0.6599999999999966 2 1.3199999999999932 2 2 C1.3399999999999999 2 0.6799999999999997 2 0 2 C0 1.3400000000000034 0 0.6800000000000068 0 0 Z " fill="#000000" transform="translate(23,65)"/>
<path d="M0 0 C0.6600000000000001 0 1.3200000000000003 0 2 0 C2 0.6599999999999966 2 1.3199999999999932 2 2 C1.3399999999999999 2 0.6799999999999997 2 0 2 C0 1.3400000000000034 0 0.6800000000000068 0 0 Z " fill="#000000" transform="translate(19,65)"/>
</svg>
