<?xml version="1.0" encoding="UTF-8"?>
<!-- Generator: visioncortex VTracer 0.6.12 -->
<svg version="1.1" xmlns="http://www.w3.org/2000/svg" width="80" height="80">
<path d="M0 0 C3.630067403133822 3.2030006498239594 5.007736247551684 7.037867878309672 5.3125 11.8125 C5.250624999999999 12.493125 5.188749999999999 13.173749999999998 5.125 13.875 C3.8049999999999997 14.204999999999998 2.4849999999999994 14.535 1.125 14.875 C0.6918750000000031 14.215 0.25874999999999915 13.555 -0.1875 12.875 C-0.744374999999998 12.215 -1.3012500000000031 11.555 -1.875 10.875 C-2.865000000000002 10.875 -3.854999999999997 10.875 -4.875 10.875 C-5.563758306735359 16.974004716163805 -3.1363924209623093 21.344179144699943 -0.5625 26.6875 C7.125 42.88397129186603 7.125 42.88397129186603 7.125 49.875 C8.011875000000003 49.978125 8.898750000000007 50.08125 9.8125 50.1875 C13.303395416292233 50.912025463758766 15.409502639175258 51.558840486355365 18.125 53.875 C18.4375 57.06250000000001 18.4375 57.06250000000001 18.125 59.875 C7.84576284584756 65.58568730786247 -1.9603416045977298 66.22729158715454 -13.587158203125 66.190673828125 C-15.673875565803904 66.18752058789312 -17.75916052295721 66.21102925648789 -19.845703125 66.236328125 C-29.98378869813912 66.28534638559671 -41.41118070771283 66.13353213769237 -49.875 59.875 C-50.1875 56.6875 -50.1875 56.6875 -49.875 53.875 C-49.5300146484375 53.75761474609375 -49.5300146484375 53.75761474609375 -47.7841796875 53.16357421875 C-40.57988740646205 50.24510333572517 -40.57988740646205 50.24510333572517 -38.677734375 46.5478515625 C-37.97060619064316 43.701608472367525 -37.50972477775878 40.90730588473825 -37.125 38 C-36.7593289880151 35.92411630050104 -36.38429899604341 33.84985978238469 -36 31.77734375 C-35.8182421875 30.7678466796875 -35.636484375 29.758349609375003 -35.44921875 28.71826171875 C-33.24608893964533 17.809397020029547 -28.557346257590545 8.09053349393617 -19.875 0.875 C-13.54229429445855 -3.1890927420620425 -6.82101751295113 -2.669093809415658 0 0 Z M-22.6796875 7.7890625 C-24.28676907378677 10.07894557145783 -25.601033312567715 12.384625361013399 -26.875 14.875 C-27.30296875 15.6806640625 -27.7309375 16.486328125 -28.171875 17.31640625 C-33.36437916378465 28.326438226913744 -37.195655314163616 42.68327560828975 -36.875 54.875 C-36.215 55.205 -35.555 55.535 -34.875 55.875 C-35.205 56.535 -35.535 57.195 -35.875 57.875 C-37.195 57.875 -38.515 57.875 -39.875 57.875 C-39.875 56.225 -39.875 54.575 -39.875 52.875 C-42.185 53.865 -44.495000000000005 54.855 -46.875 55.875 C-45.875 58.875 -45.875 58.875 -44.144775390625 59.7802734375 C-38.54653400446668 61.54421183558594 -33.155303756730795 62.597192177173596 -27.3125 63.125 C-26.44552490234375 63.20580810546875 -25.5785498046875 63.286616210937495 -24.685302734375 63.369873046875 C-12.132606723923402 64.40720030592452 4.3313533382153935 65.07076444118974 15.125 57.875 C14.795000000000002 56.885 14.465000000000003 55.895 14.125 54.875 C11.062500000000014 53.68750000000001 11.062500000000014 53.68750000000001 8.125 52.875 C8.125 54.525 8.125 56.175 8.125 57.875 C6.475000000000001 57.875 4.825000000000003 57.875 3.125 57.875 C3.125 56.885 3.125 55.895 3.125 54.875 C3.7849999999999966 54.875 4.445 54.875 5.125 54.875 C3.8769723425222224 43.08241213444469 -1.1506224983601783 32.42077123990931 -6.3125 21.875 C-8.334961946817423 17.4772210433034 -8.178978518047778 13.662661659252553 -7.875 8.875 C-5.625000000000007 7.750000000000002 -5.625000000000007 7.750000000000002 -2.875 6.875 C-0.5625 7.750000000000002 -0.5625 7.750000000000002 1.125 8.875 C0.17822041574682146 5.6903777620574925 -0.539418445043637 4.138023380911742 -3.1875 2.0625 C-10.2062943371401 -1.0388277303642308 -17.6589133128101 2.4639989681319268 -22.6796875 7.7890625 Z " fill="#000000" transform="translate(55.875,6.125)"/>
<path d="M0 0 C4.565891472868216 1.441860465116278 4.565891472868216 1.441860465116278 6.3125 3.6875 C7.304900085092484 7.0255730134929095 7.425786008991132 9.53288535535792 7 13 C5.0625 15.9375 5.0625 15.9375 2 18 C-2.7291520368030078 18.79509386257984 -5.974174180741123 18.683883879505913 -10 16 C-9.670000000000002 15.009999999999998 -9.340000000000003 14.019999999999996 -9 13 C-8.030625 12.525624999999998 -7.061250000000001 12.051249999999996 -6.0625 11.5625 C-3 10 -3 10 -1.6875 8.1875 C-0.8376150895070964 5.483320739340755 -0.38259890647273664 2.805725314133433 0 0 Z M2 7 C0.9422826148549674 8.630647635431927 -0.0527304567184359 10.302808734953857 -1 12 C-1.6599999999999966 12.990000000000002 -2.3200000000000003 13.980000000000004 -3 15 C-0.625 14.6875 -0.625 14.6875 2 14 C4 11 4 11 4 7 C3.3400000000000034 7 2.6799999999999997 7 2 7 Z " fill="#000000" transform="translate(44,35)"/>
<path d="M0 0 C0.6599999999999966 0.3299999999999983 1.3200000000000003 0.6600000000000001 2 1 C2.1443749999999966 1.6393750000000011 2.2887500000000003 2.2787499999999987 2.4375 2.9375 C3 5 3 5 6 7 C4.68 7.329999999999998 3.3599999999999994 7.66 2 8 C1.6700000000000017 9.649999999999999 1.3400000000000034 11.3 1 13 C0.8762499999999989 12.700937500000002 0.8762499999999989 12.700937500000002 0.25 11.1875 C-1.1637001204587705 8.713524789197152 -2.6505538318825614 7.566297445411628 -5 6 C-3.6799999999999997 6 -2.3599999999999994 6 -1 6 C-0.6700000000000017 4.02 -0.3400000000000034 2.039999999999999 0 0 Z " fill="#000000" transform="translate(37,17)"/>
<path d="M0 0 C0.6599999999999966 0.990000000000002 1.3200000000000003 1.9799999999999969 2 3 C2.990000000000002 3.6599999999999966 3.980000000000004 4.32 5 5 C4.009999999999998 5.329999999999998 3.019999999999996 5.659999999999997 2 6 C1.6700000000000017 6.494999999999997 1.6700000000000017 6.494999999999997 0 9 C-0.10312499999999858 8.360624999999999 -0.20624999999999716 7.721249999999998 -0.3125 7.0625 C-0.5393749999999997 6.381875000000001 -0.7662499999999994 5.701250000000002 -1 5 C-1.990000000000002 4.670000000000002 -2.979999999999997 4.340000000000003 -4 4 C-2.6799999999999997 2.6799999999999997 -1.3599999999999994 1.3599999999999994 0 0 Z " fill="#000000" transform="translate(54,50)"/>
<path d="M0 0 C0.6600000000000001 0.990000000000002 1.3200000000000003 1.9799999999999969 2 3 C2.990000000000002 3.6599999999999966 3.980000000000004 4.32 5 5 C4.009999999999998 5.329999999999998 3.019999999999996 5.659999999999997 2 6 C1.6700000000000017 6.494999999999997 1.6700000000000017 6.494999999999997 0 9 C-0.10312499999999858 8.360624999999999 -0.2062500000000007 7.721249999999998 -0.3125 7.0625 C-0.5393749999999997 6.381875000000001 -0.7662499999999994 5.701250000000002 -1 5 C-1.990000000000002 4.670000000000002 -2.9800000000000004 4.340000000000003 -4 4 C-2.6799999999999997 2.6799999999999997 -1.3599999999999994 1.3599999999999994 0 0 Z " fill="#000000" transform="translate(31,35)"/>
<path d="M0 0 C0.990000000000002 0.3299999999999983 1.9799999999999969 0.6599999999999966 3 1 C3 1.6599999999999966 3 2.319999999999993 3 3 C2.009999999999998 3 1.0200000000000031 3 0 3 C0 2.010000000000005 0 1.019999999999996 0 0 Z " fill="#000000" transform="translate(47,64)"/>
<path d="M0 0 C0.9899999999999984 0.3299999999999983 1.9799999999999969 0.6599999999999966 3 1 C3 1.6599999999999966 3 2.319999999999993 3 3 C2.009999999999998 3 1.0200000000000031 3 0 3 C0 2.010000000000005 0 1.019999999999996 0 0 Z " fill="#000000" transform="translate(31,64)"/>
<path d="M0 0 C0.6599999999999966 0.3299999999999983 1.3200000000000003 0.6599999999999966 2 1 C2 1.6599999999999966 2 2.319999999999993 2 3 C1.009999999999998 3 0.020000000000003126 3 -1 3 C-0.6700000000000017 2.010000000000005 -0.3400000000000034 1.019999999999996 0 0 Z " fill="#000000" transform="translate(44,64)"/>
<path d="M0 0 C0.6599999999999966 0.3299999999999983 1.3200000000000003 0.6599999999999966 2 1 C2 1.6599999999999966 2 2.319999999999993 2 3 C1.009999999999998 3 0.020000000000003126 3 -1 3 C-0.6700000000000017 2.010000000000005 -0.3400000000000034 1.019999999999996 0 0 Z " fill="#000000" transform="translate(36,64)"/>
<path d="M0 0 C0.6599999999999966 0.3299999999999983 1.3200000000000003 0.6599999999999966 2 1 C2 1.6599999999999966 2 2.319999999999993 2 3 C1.009999999999998 3 0.020000000000003126 3 -1 3 C-0.6700000000000017 2.010000000000005 -0.3400000000000034 1.019999999999996 0 0 Z " fill="#000000" transform="translate(52,63)"/>
<path d="M0 0 C0.990000000000002 0 1.9799999999999969 0 3 0 C2.6700000000000017 0.990000000000002 2.3400000000000034 1.980000000000004 2 3 C1.3400000000000034 2.6700000000000017 0.6799999999999997 2.3400000000000034 0 2 C0 1.3400000000000034 0 0.6799999999999997 0 0 Z " fill="#000000" transform="translate(55,63)"/>
<path d="M0 0 C0.9899999999999984 0 1.9800000000000004 0 3 0 C2.6700000000000017 0.990000000000002 2.34 1.980000000000004 2 3 C1.3399999999999999 2.6700000000000017 0.6799999999999997 2.3400000000000034 0 2 C0 1.3400000000000034 0 0.6799999999999997 0 0 Z " fill="#000000" transform="translate(23,63)"/>
<path d="M0 0 C0.990000000000002 0 1.9799999999999969 0 3 0 C3 0.6599999999999966 3 1.3199999999999932 3 2 C2.009999999999998 2 1.0200000000000031 2 0 2 C0 1.3400000000000034 0 0.6800000000000068 0 0 Z " fill="#000000" transform="translate(39,65)"/>
<path d="M0 0 C0.9899999999999984 0 1.9800000000000004 0 3 0 C3 0.6599999999999966 3 1.3199999999999932 3 2 C2.009999999999998 2 1.0199999999999996 2 0 2 C0 1.3400000000000034 0 0.6800000000000068 0 0 Z " fill="#000000" transform="translate(27,64)"/>
</svg>
