<?xml version="1.0" encoding="UTF-8"?>
<!-- Generator: visioncortex VTracer 0.6.12 -->
<svg version="1.1" xmlns="http://www.w3.org/2000/svg" width="80" height="80">
<path d="M0 0 C5.746373350614391 4.198222051716698 10.017075373216699 8.515381246123265 13 15 C13 15.66 13 16.32 13 17 C13.989999999999995 17 14.980000000000004 17 16 17 C16 24.92 16 32.84 16 41 C15.010000000000005 41 14.019999999999996 41 13 41 C12.834999999999994 41.804375 12.670000000000002 42.60875 12.5 43.4375 C8.980611153897215 51.79604850949412 2.2661625376796906 57.51951051045066 -6 61 C-14.242539773972332 63.78950581870242 -25.961109948594128 63.113521727736696 -33.75390625 59.39453125 C-40.50442437778076 55.20333999501264 -45.670014285491604 50.239099379366074 -49 43 C-49 42.34 -49 41.68 -49 41 C-49.99 41 -50.980000000000004 41 -52 41 C-52 33.08 -52 25.159999999999997 -52 17 C-51.01 17 -50.019999999999996 17 -49 17 C-48.835 16.195625 -48.67 15.39125 -48.5 14.5625 C-44.980611153897215 6.20395149050589 -38.26616253767968 0.4804894895493401 -30 -3 C-20.84010965947183 -6.099962888170015 -8.158894279413708 -5.065609143914251 0 0 Z M-24 -1 C-24 -0.33999999999999986 -24 0.3200000000000003 -24 1 C-24.659999999999997 0.7318750000000005 -25.32 0.463750000000001 -26 0.1875 C-30.05355295107034 -0.0658470594418965 -32.06565132808046 1.4663982468527887 -35.42578125 3.578125 C-35.9452734375 4.04734375 -36.464765625 4.516562499999999 -37 5 C-37 5.990000000000002 -37 6.98 -37 8 C-37.60328125 8.0928125 -38.206562500000004 8.185625000000002 -38.828125 8.28125 C-41.51550060167803 9.170597321418626 -42.20293962421407 10.169859680915017 -43.75 12.5 C-44.17796875 13.1290625 -44.605937499999996 13.758125 -45.046875 14.40625 C-46 16 -46 16 -46 17 C-27.52 17 -9.04 17 10 17 C6 10 6 10 4 8 C3.009999999999998 8 2.020000000000003 8 1 8 C0.9793749999999974 7.422499999999999 0.958750000000002 6.844999999999999 0.9375 6.25 C-0.3171808873214559 3.238765870428498 -2.325192623880156 2.177552568376907 -5.14453125 0.68359375 C-7.705338401416981 -0.25986151631152055 -9.471456872413583 0.08052977178675924 -12 1 C-12 0.33999999999999986 -12 -0.3200000000000003 -12 -1 C-15.96 -1 -19.92 -1 -24 -1 Z M-50 20 C-50.09837209993321 21.330436249662696 -50.1307859231996 22.66593344339637 -50.1328125 24 C-50.1341015625 24.804375 -50.135390625 25.60875 -50.13671875 26.4375 C-50.1328515625 27.283125 -50.128984375 28.128749999999997 -50.125 29 C-50.1288671875 29.845625 -50.132734375 30.691249999999997 -50.13671875 31.5625 C-50.1354296875 32.366875 -50.134140625 33.17125 -50.1328125 34 C-50.1316845703125 34.7425 -50.130556640625 35.485 -50.12939453125 36.25 C-50 38 -50 38 -49 39 C-47.07238182649628 39.099208628784254 -45.141106459540325 39.12799364792827 -43.2109375 39.12939453125 C-41.9729541015625 39.13254669189453 -40.734970703125 39.135698852539065 -39.45947265625 39.138946533203125 C-38.09798141189362 39.13715675092165 -36.736490489340525 39.13510579784361 -35.375 39.1328125 C-33.98876935780936 39.13348559148912 -32.60253883034143 39.13445566033333 -31.21630859375 39.135711669921875 C-28.307605783528558 39.13718839884893 -25.39893362977469 39.13503489693197 -22.490234375 39.13037109375 C-18.754034016241874 39.1246738053258 -15.01790548448492 39.12795294499709 -11.281707763671875 39.13394355773926 C-8.418207343604202 39.13754985033485 -5.554724069321367 39.13641027278909 -2.69122314453125 39.13381576538086 C-1.3132526814889047 39.13314668466464 0.06471931759395488 39.13397426487175 1.44268798828125 39.136295318603516 C3.3654375401102357 39.13882291699524 5.288192519538903 39.13429023588104 7.2109375 39.12939453125 C8.307124023437495 39.128598937988286 9.403310546874991 39.12780334472656 10.53271484375 39.126983642578125 C13 39 13 39 14 38 C14.0983720999332 36.6695637503373 14.13078592319961 35.33406655660363 14.1328125 34 C14.134101562500007 33.195625 14.135390625 32.39125 14.13671875 31.5625 C14.132851562499994 30.716875 14.128984375000002 29.871250000000003 14.125 29 C14.128867187500006 28.154375 14.132734374999998 27.308750000000003 14.13671875 26.4375 C14.135429687499993 25.633125 14.134140625 24.82875 14.1328125 24 C14.13224853515625 23.628749999999997 14.13224853515625 23.628749999999997 14.12939453125 21.75 C14 19.999999999999996 14 19.999999999999996 13 19 C11.072381826496269 18.90079137121575 9.141106459540325 18.87200635207173 7.2109375 18.87060546875 C5.9729541015625 18.867453308105468 4.734970703125001 18.86430114746094 3.45947265625 18.861053466796875 C2.0979814118936204 18.86284324907835 0.7364904893405253 18.86489420215639 -0.625 18.8671875 C-2.0112306421906396 18.866514408510884 -3.3974611696585697 18.86554433966667 -4.78369140625 18.864288330078125 C-7.69239421647147 18.862811601151073 -10.60106637022529 18.864965103068034 -13.509765625 18.86962890625 C-17.245965983758133 18.875326194674205 -20.982094515515072 18.872047055002906 -24.718292236328125 18.866056442260742 C-27.581792656395816 18.86245014966515 -30.445275930678623 18.86358972721091 -33.30877685546875 18.86618423461914 C-34.686747318511095 18.866853315335362 -36.064719317593955 18.86602573512825 -37.44268798828125 18.863704681396484 C-39.365437540110236 18.861177083004765 -41.288192519538896 18.86570976411896 -43.2109375 18.87060546875 C-44.307124023437495 18.871401062011717 -45.403310546875 18.872196655273438 -46.53271484375 18.873016357421875 C-49 19 -49 19 -50 20 Z M-46 41 C-42 48 -42 48 -40 50 C-39.01 50 -38.019999999999996 50 -37 50 C-36.979375 50.5775 -36.95875 51.155 -36.9375 51.75 C-35.682819112678544 54.76123412957148 -33.67480737611984 55.82244743162309 -30.85546875 57.31640625 C-28.29466159858302 58.25986151631152 -26.528543127586403 57.91947022821324 -24 57 C-24 57.66 -24 58.31999999999999 -24 59 C-20.04 59 -16.08 59 -12 59 C-12 58.34 -12 57.68000000000001 -12 57 C-11.340000000000003 57.268125 -10.68 57.536249999999995 -10 57.8125 C-5.946447048929663 58.06584705944189 -3.934348671919537 56.533601753147224 -0.57421875 54.421875 C-0.05472656250000085 53.952656250000004 0.4647656249999983 53.48343750000001 1 53 C1 52.01 1 51.019999999999996 1 50 C1.603281250000002 49.9071875 2.206562499999997 49.814375 2.828125 49.71875 C5.515500601678063 48.82940267858136 6.2029396242140535 47.830140319085 7.75 45.5 C8.177968749999991 44.8709375 8.60593750000001 44.241875 9.046875 43.59375 C10 42 10 42 10 41 C-8.480000000000004 41 -26.96 41 -46 41 Z " fill="#000000" transform="translate(58,11)"/>
<path d="M0 0 C1.3200000000000003 0 2.6400000000000006 0 4 0 C4.329999999999998 0.990000000000002 4.659999999999997 1.9799999999999969 5 3 C5.329999999999998 2.009999999999998 5.659999999999997 1.0200000000000031 6 0 C7.32 0 8.64 0 10 0 C10.329999999999998 0.990000000000002 10.659999999999997 1.9799999999999969 11 3 C11.329999999999998 2.009999999999998 11.659999999999997 1.0200000000000031 12 0 C13.32 0.3299999999999983 14.64 0.6599999999999966 16 1 C15.009999999999998 3.969999999999999 14.019999999999996 6.939999999999998 13 10 C11.68 9.670000000000002 10.36 9.340000000000003 9 9 C9 8.009999999999998 9 7.019999999999996 9 6 C8.340000000000003 6 7.68 6 7 6 C6.670000000000002 7.32 6.340000000000003 8.64 6 10 C5.009999999999998 10 4.019999999999996 10 3 10 C2.009999999999998 6.700000000000003 1.0200000000000031 3.3999999999999986 0 0 Z " fill="#000000" transform="translate(32,35)"/>
<path d="M0 0 C1.3200000000000003 0.3299999999999983 2.6400000000000006 0.6599999999999966 4 1 C4.329999999999998 1.6599999999999966 4.659999999999997 2.3200000000000003 5 3 C5.329999999999998 2.009999999999998 5.659999999999997 1.0200000000000031 6 0 C7.9375 0.375 7.9375 0.375 10 1 C10.329999999999998 1.6599999999999966 10.659999999999997 2.3200000000000003 11 3 C11.329999999999998 2.009999999999998 11.659999999999997 1.0200000000000031 12 0 C12.990000000000002 0 13.980000000000004 0 15 0 C14.541775316182537 3.469415463189364 14.108683171198479 6.673950486404564 13 10 C11.68 10 10.36 10 9 10 C8.670000000000002 9.009999999999998 8.340000000000003 8.019999999999996 8 7 C7.670000000000002 7.494999999999997 7.670000000000002 7.494999999999997 6 10 C5.009999999999998 10 4.019999999999996 10 3 10 C2.009999999999998 6.700000000000003 1.0200000000000031 3.3999999999999986 0 0 Z " fill="#000000" transform="translate(50,35)"/>
<path d="M0 0 C0.9900000000000002 0 1.9800000000000004 0 3 0 C3.3299999999999983 0.990000000000002 3.66 1.9799999999999969 4 3 C4.66 2.009999999999998 5.32 1.0200000000000031 6 0 C6.990000000000002 0 7.98 0 9 0 C9.329999999999998 0.990000000000002 9.66 1.9799999999999969 10 3 C10.66 2.009999999999998 11.32 1.0200000000000031 12 0 C12.990000000000002 0 13.98 0 15 0 C14.009999999999998 3.299999999999997 13.02 6.600000000000001 12 10 C10.68 9.670000000000002 9.36 9.340000000000003 8 9 C7.670000000000002 8.340000000000003 7.34 7.68 7 7 C6.670000000000002 7.990000000000002 6.34 8.980000000000004 6 10 C4.68 10 3.3599999999999994 10 2 10 C0.6837330834096953 6.380265979376659 0 3.9043286903494376 0 0 Z " fill="#000000" transform="translate(15,35)"/>
<path d="M0 0 C0.6599999999999966 0 1.3200000000000003 0 2 0 C2 0.6599999999999966 2 1.3199999999999932 2 2 C1.3400000000000034 2 0.6799999999999997 2 0 2 C0 1.3400000000000034 0 0.6800000000000068 0 0 Z " fill="#000000" transform="translate(49,65)"/>
<path d="M0 0 C0.6599999999999966 0 1.3200000000000003 0 2 0 C2 0.6599999999999966 2 1.3199999999999932 2 2 C1.3400000000000034 2 0.6799999999999997 2 0 2 C0 1.3400000000000034 0 0.6800000000000068 0 0 Z " fill="#000000" transform="translate(39,65)"/>
<path d="M0 0 C0.6600000000000001 0 1.3200000000000003 0 2 0 C2 0.6599999999999966 2 1.3199999999999932 2 2 C1.3399999999999999 2 0.6799999999999997 2 0 2 C0 1.3400000000000034 0 0.6800000000000068 0 0 Z " fill="#000000" transform="translate(29,65)"/>
<path d="M0 0 C0.6599999999999966 0 1.3200000000000003 0 2 0 C2 0.6599999999999966 2 1.3200000000000003 2 2 C1.3400000000000034 2 0.6799999999999997 2 0 2 C0 1.3400000000000034 0 0.6799999999999997 0 0 Z " fill="#000000" transform="translate(55,61)"/>
<path d="M0 0 C0.6599999999999966 0 1.3200000000000003 0 2 0 C2 0.6599999999999966 2 1.3200000000000003 2 2 C1.3400000000000034 2 0.6799999999999997 2 0 2 C0 1.3400000000000034 0 0.6799999999999997 0 0 Z " fill="#000000" transform="translate(51,61)"/>
<path d="M0 0 C0.6599999999999966 0 1.3200000000000003 0 2 0 C2 0.6599999999999966 2 1.3200000000000003 2 2 C1.3400000000000034 2 0.6799999999999997 2 0 2 C0 1.3400000000000034 0 0.6799999999999997 0 0 Z " fill="#000000" transform="translate(47,61)"/>
<path d="M0 0 C0.6599999999999966 0 1.3200000000000003 0 2 0 C2 0.6599999999999966 2 1.3200000000000003 2 2 C1.3400000000000034 2 0.6799999999999997 2 0 2 C0 1.3400000000000034 0 0.6799999999999997 0 0 Z " fill="#000000" transform="translate(43,61)"/>
<path d="M0 0 C0.6599999999999966 0 1.3200000000000003 0 2 0 C2 0.6599999999999966 2 1.3200000000000003 2 2 C1.3400000000000034 2 0.6799999999999997 2 0 2 C0 1.3400000000000034 0 0.6799999999999997 0 0 Z " fill="#000000" transform="translate(39,61)"/>
<path d="M0 0 C0.6599999999999966 0 1.3200000000000003 0 2 0 C2 0.6599999999999966 2 1.3200000000000003 2 2 C1.3400000000000034 2 0.6799999999999997 2 0 2 C0 1.3400000000000034 0 0.6799999999999997 0 0 Z " fill="#000000" transform="translate(35,61)"/>
<path d="M0 0 C0.6600000000000001 0 1.3200000000000003 0 2 0 C2 0.6599999999999966 2 1.3200000000000003 2 2 C1.3400000000000034 2 0.6799999999999997 2 0 2 C0 1.3400000000000034 0 0.6799999999999997 0 0 Z " fill="#000000" transform="translate(31,61)"/>
<path d="M0 0 C0.6600000000000001 0 1.3200000000000003 0 2 0 C2 0.6599999999999966 2 1.3200000000000003 2 2 C1.3399999999999999 2 0.6799999999999997 2 0 2 C0 1.3400000000000034 0 0.6799999999999997 0 0 Z " fill="#000000" transform="translate(27,61)"/>
<path d="M0 0 C0.6600000000000001 0 1.3200000000000003 0 2 0 C2 0.6599999999999966 2 1.3200000000000003 2 2 C1.3399999999999999 2 0.6799999999999997 2 0 2 C0 1.3400000000000034 0 0.6799999999999997 0 0 Z " fill="#000000" transform="translate(23,61)"/>
<path d="M0 0 C0.6599999999999966 0 1.3200000000000003 0 2 0 C2 0.6599999999999966 2 1.3200000000000003 2 2 C1.3400000000000034 2 0.6799999999999997 2 0 2 C0 1.3400000000000034 0 0.6799999999999997 0 0 Z " fill="#000000" transform="translate(53,57)"/>
<path d="M0 0 C0.6599999999999966 0 1.3200000000000003 0 2 0 C2 0.6599999999999966 2 1.3200000000000003 2 2 C1.3400000000000034 2 0.6799999999999997 2 0 2 C0 1.3400000000000034 0 0.6799999999999997 0 0 Z " fill="#000000" transform="translate(39,57)"/>
<path d="M0 0 C0.6600000000000001 0 1.3200000000000003 0 2 0 C2 0.6599999999999966 2 1.3200000000000003 2 2 C1.3399999999999999 2 0.6799999999999997 2 0 2 C0 1.3400000000000034 0 0.6799999999999997 0 0 Z " fill="#000000" transform="translate(25,57)"/>
<path d="M0 0 C0.6599999999999966 0 1.3200000000000003 0 2 0 C2 0.6599999999999966 2 1.3200000000000003 2 2 C1.3400000000000034 2 0.6799999999999997 2 0 2 C0 1.3400000000000034 0 0.6799999999999997 0 0 Z " fill="#000000" transform="translate(54,53)"/>
<path d="M0 0 C0.6599999999999966 0 1.3200000000000003 0 2 0 C2 0.6599999999999966 2 1.3200000000000003 2 2 C1.3400000000000034 2 0.6799999999999997 2 0 2 C0 1.3400000000000034 0 0.6799999999999997 0 0 Z " fill="#000000" transform="translate(39,53)"/>
<path d="M0 0 C0.6600000000000001 0 1.3200000000000003 0 2 0 C2 0.6599999999999966 2 1.3200000000000003 2 2 C1.3399999999999999 2 0.6799999999999997 2 0 2 C0 1.3400000000000034 0 0.6799999999999997 0 0 Z " fill="#000000" transform="translate(24,53)"/>
<path d="M0 0 C0.6599999999999966 0 1.3200000000000003 0 2 0 C2 0.6599999999999966 2 1.3200000000000003 2 2 C1.3400000000000034 2 0.6799999999999997 2 0 2 C0 1.3400000000000034 0 0.6799999999999997 0 0 Z " fill="#000000" transform="translate(48,43)"/>
<path d="M0 0 C0.6600000000000001 0 1.3200000000000003 0 2 0 C2 0.6599999999999966 2 1.3200000000000003 2 2 C1.3399999999999999 2 0.6799999999999997 2 0 2 C0 1.3400000000000034 0 0.6799999999999997 0 0 Z " fill="#000000" transform="translate(30,43)"/>
<path d="M0 0 C0.6599999999999966 0 1.3200000000000003 0 2 0 C2 0.6600000000000001 2 1.3200000000000003 2 2 C1.3400000000000034 2 0.6799999999999997 2 0 2 C0 1.3399999999999999 0 0.6799999999999997 0 0 Z " fill="#000000" transform="translate(54,25)"/>
<path d="M0 0 C0.6599999999999966 0 1.3200000000000003 0 2 0 C2 0.6600000000000001 2 1.3200000000000003 2 2 C1.3400000000000034 2 0.6799999999999997 2 0 2 C0 1.3399999999999999 0 0.6799999999999997 0 0 Z " fill="#000000" transform="translate(39,25)"/>
<path d="M0 0 C0.6600000000000001 0 1.3200000000000003 0 2 0 C2 0.6600000000000001 2 1.3200000000000003 2 2 C1.3399999999999999 2 0.6799999999999997 2 0 2 C0 1.3399999999999999 0 0.6799999999999997 0 0 Z " fill="#000000" transform="translate(24,25)"/>
<path d="M0 0 C0.6599999999999966 0 1.3200000000000003 0 2 0 C2 0.6600000000000001 2 1.3200000000000003 2 2 C1.3400000000000034 2 0.6799999999999997 2 0 2 C0 1.3399999999999999 0 0.6799999999999997 0 0 Z " fill="#000000" transform="translate(53,21)"/>
<path d="M0 0 C0.6599999999999966 0 1.3200000000000003 0 2 0 C2 0.6600000000000001 2 1.3200000000000003 2 2 C1.3400000000000034 2 0.6799999999999997 2 0 2 C0 1.3399999999999999 0 0.6799999999999997 0 0 Z " fill="#000000" transform="translate(39,21)"/>
<path d="M0 0 C0.6600000000000001 0 1.3200000000000003 0 2 0 C2 0.6600000000000001 2 1.3200000000000003 2 2 C1.3399999999999999 2 0.6799999999999997 2 0 2 C0 1.3399999999999999 0 0.6799999999999997 0 0 Z " fill="#000000" transform="translate(25,21)"/>
<path d="M0 0 C0.6599999999999966 0 1.3200000000000003 0 2 0 C2 0.6600000000000001 2 1.3200000000000003 2 2 C1.3400000000000034 2 0.6799999999999997 2 0 2 C0 1.3399999999999999 0 0.6799999999999997 0 0 Z " fill="#000000" transform="translate(55,17)"/>
<path d="M0 0 C0.6599999999999966 0 1.3200000000000003 0 2 0 C2 0.6600000000000001 2 1.3200000000000003 2 2 C1.3400000000000034 2 0.6799999999999997 2 0 2 C0 1.3399999999999999 0 0.6799999999999997 0 0 Z " fill="#000000" transform="translate(51,17)"/>
<path d="M0 0 C0.6599999999999966 0 1.3200000000000003 0 2 0 C2 0.6600000000000001 2 1.3200000000000003 2 2 C1.3400000000000034 2 0.6799999999999997 2 0 2 C0 1.3399999999999999 0 0.6799999999999997 0 0 Z " fill="#000000" transform="translate(47,17)"/>
<path d="M0 0 C0.6599999999999966 0 1.3200000000000003 0 2 0 C2 0.6600000000000001 2 1.3200000000000003 2 2 C1.3400000000000034 2 0.6799999999999997 2 0 2 C0 1.3399999999999999 0 0.6799999999999997 0 0 Z " fill="#000000" transform="translate(43,17)"/>
<path d="M0 0 C0.6599999999999966 0 1.3200000000000003 0 2 0 C2 0.6600000000000001 2 1.3200000000000003 2 2 C1.3400000000000034 2 0.6799999999999997 2 0 2 C0 1.3399999999999999 0 0.6799999999999997 0 0 Z " fill="#000000" transform="translate(39,17)"/>
<path d="M0 0 C0.6599999999999966 0 1.3200000000000003 0 2 0 C2 0.6600000000000001 2 1.3200000000000003 2 2 C1.3400000000000034 2 0.6799999999999997 2 0 2 C0 1.3399999999999999 0 0.6799999999999997 0 0 Z " fill="#000000" transform="translate(35,17)"/>
<path d="M0 0 C0.6600000000000001 0 1.3200000000000003 0 2 0 C2 0.6600000000000001 2 1.3200000000000003 2 2 C1.3400000000000034 2 0.6799999999999997 2 0 2 C0 1.3399999999999999 0 0.6799999999999997 0 0 Z " fill="#000000" transform="translate(31,17)"/>
<path d="M0 0 C0.6600000000000001 0 1.3200000000000003 0 2 0 C2 0.6600000000000001 2 1.3200000000000003 2 2 C1.3399999999999999 2 0.6799999999999997 2 0 2 C0 1.3399999999999999 0 0.6799999999999997 0 0 Z " fill="#000000" transform="translate(27,17)"/>
<path d="M0 0 C0.6600000000000001 0 1.3200000000000003 0 2 0 C2 0.6600000000000001 2 1.3200000000000003 2 2 C1.3399999999999999 2 0.6799999999999997 2 0 2 C0 1.3399999999999999 0 0.6799999999999997 0 0 Z " fill="#000000" transform="translate(23,17)"/>
<path d="M0 0 C0.6599999999999966 0 1.3200000000000003 0 2 0 C2 0.6600000000000001 2 1.3200000000000003 2 2 C1.3400000000000034 2 0.6799999999999997 2 0 2 C0 1.3399999999999999 0 0.6799999999999997 0 0 Z " fill="#000000" transform="translate(49,13)"/>
<path d="M0 0 C0.6599999999999966 0 1.3200000000000003 0 2 0 C2 0.6600000000000001 2 1.3200000000000003 2 2 C1.3400000000000034 2 0.6799999999999997 2 0 2 C0 1.3399999999999999 0 0.6799999999999997 0 0 Z " fill="#000000" transform="translate(39,13)"/>
<path d="M0 0 C0.6600000000000001 0 1.3200000000000003 0 2 0 C2 0.6600000000000001 2 1.3200000000000003 2 2 C1.3399999999999999 2 0.6799999999999997 2 0 2 C0 1.3399999999999999 0 0.6799999999999997 0 0 Z " fill="#000000" transform="translate(29,13)"/>
</svg>
