<?xml version="1.0" encoding="UTF-8"?>
<!-- Generator: visioncortex VTracer 0.6.12 -->
<svg version="1.1" xmlns="http://www.w3.org/2000/svg" width="96" height="96">
<path d="M0 0 C2.886659315323641 0.3803720758458944 4.341853578419567 0.9875884793116292 6.1640625 3.28515625 C6.4140625 5.97265625 6.4140625 5.97265625 6.1640625 8.28515625 C3.8540624999999977 8.615156249999998 1.544062499999999 8.94515625 -0.8359375 9.28515625 C-1.0060937500000016 9.818828125 -1.1762499999999996 10.3525 -1.3515625 10.90234375 C-1.4727343750000017 11.2748828125 -1.4727343750000017 11.2748828125 -2.0859375 13.16015625 C-2.3179687499999986 13.879453124999998 -2.5500000000000007 14.598750000000003 -2.7890625 15.33984375 C-4.340182676110196 19.70381618577271 -6.115864156699253 23.98497289174813 -7.8359375 28.28515625 C9.324062499999997 28.28515625 26.4840625 28.28515625 44.1640625 28.28515625 C41.8540625 22.67515625 39.544062499999995 17.06515625 37.1640625 11.28515625 C37.1640625 10.62515625 37.1640625 9.96515625 37.1640625 9.28515625 C34.8540625 8.955156250000002 32.5440625 8.62515625 30.1640625 8.28515625 C29.84507748105858 5.334544824791877 29.720704396193945 3.844172989581544 31.6015625 1.47265625 C35.545830761083934 -0.35517538318523556 38.92048075932411 -0.8046070881667688 43.1640625 0.28515625 C46.14684519058741 2.4846451667987033 48.07533911289521 5.250419131515912 50.1640625 8.28515625 C50.800859375 9.20296875 51.43765625 10.12078125 52.09375 11.06640625 C53.46268040484445 13.09050568128751 54.79617193095973 15.138919181388072 56.09765625 17.20703125 C58.164062500000014 20.28515625000002 58.164062500000014 20.28515625000002 60.44921875 22.73828125 C66.91941467078726 30.178435994891174 66.88980325210062 37.188197781004106 66.9140625 46.78515625 C66.91728515625 48.0394140625 66.9205078125 49.293671875 66.923828125 50.5859375 C66.70707229578312 59.47774329409714 66.70707229578312 59.47774329409714 64.586669921875 62.630615234375 C61.348183911057305 64.8423676978751 58.52325149185047 64.87900464284671 54.73046875 64.8515625 C54.37299308776855 64.85466178894043 54.37299308776855 64.85466178894043 52.56394958496094 64.87034606933594 C51.055260804196195 64.87743404158337 49.546493641931534 64.87428788450471 48.037841796875 64.861572265625 C45.736644190667576 64.84771695100011 43.4395253461131 64.88176714214212 41.138671875 64.919921875 C39.66926984330492 64.92087329431293 38.19986275037286 64.91901301680097 36.73046875 64.9140625 C36.04698867797852 64.92732070922851 35.36350860595704 64.94057891845704 34.65931701660156 64.95423889160156 C30.82373905838719 64.87998496150958 29.271549763029732 64.3739595586174 26.2763671875 61.8994140625 C24.29570860526362 59.448085803301296 23.023428933139975 57.3806211026066 21.8515625 54.47265625 C21.5254296875 53.6824609375 21.199296875 52.89226562499999 20.86328125 52.078125 C20.6325390625 51.486445312499995 20.401796875000002 50.89476562499999 20.1640625 50.28515625 C18.8440625 50.28515625 17.5240625 50.28515625 16.1640625 50.28515625 C15.765742187500003 51.128203125 15.367421874999998 51.97125 14.95703125 52.83984375 C14.427226562500003 53.935546875 13.897421875 55.03125 13.3515625 56.16015625 C12.829492187500001 57.250703125 12.307421875000003 58.34125 11.76953125 59.46484375 C10.1640625 62.28515625 10.1640625 62.28515625 7.1640625 64.28515625 C4.669486421941862 64.50435033793393 2.2889798807195874 64.61308680497856 -0.20703125 64.62109375 C-0.9257691955566401 64.6277505493164 -1.6445071411132801 64.6344073486328 -2.3850250244140625 64.64126586914063 C-3.9038741441119313 64.6513819838426 -5.4227676167324965 64.6560832094419 -6.941650390625 64.65576171875 C-9.261977164459967 64.66013465162918 -11.580400435956026 64.6964594222527 -13.900390625 64.734375 C-15.377597674253934 64.74024356941028 -16.854813741268295 64.7442126947299 -18.33203125 64.74609375 C-19.023809661865236 64.76046478271485 -19.71558807373047 64.77483581542968 -20.428329467773438 64.78964233398438 C-23.65877656889455 64.75909401626281 -25.56757474974161 64.46737620415392 -28.262939453125 62.63720703125 C-33.23030376833093 55.20967516524132 -30.88309628496475 40.80248401720705 -29.8359375 32.28515625 C-28.4643300555479 27.30538595287463 -25.26764282997621 24.03548262278983 -21.8359375 20.28515625 C-19.663994541750064 17.310951422095428 -17.60209278842275 14.262515650035155 -15.5234375 11.22265625 C-14.511877874467732 9.769685912325684 -13.495257485882256 8.320220533531298 -12.47265625 6.875 C-12.036550292968752 6.254880371093748 -11.6004443359375 5.634760742187499 -11.151123046875 4.995849609375 C-7.6400120042440065 0.42886333209351335 -5.703252702596231 -0.21363975921777367 0 0 Z M-21.8359375 38.28515625 C-22.034458517713137 40.9943842564381 -22.114332271404503 43.578188042770634 -22.0859375 46.28515625 C-22.093671875 47.0225 -22.10140625 47.75984375 -22.109375 48.51953125 C-22.0892570970696 54.03183665293041 -22.0892570970696 54.03183665293041 -19.8359375 56.28515625 C-16.59129550633344 56.86420005194665 -13.313548083569373 56.84059788671101 -10.0234375 56.91015625 C-9.12044921875 56.968164062499994 -8.2174609375 57.026171875 -7.287109375 57.0859375 C-4.584258934596072 57.137571674467665 -2.4279327051752944 57.06500872042665 0.1640625 56.28515625 C2.5230129198331923 53.91515688206455 3.808812292089982 51.31539789451091 5.1640625 48.28515625 C5.625546874999998 47.49625 6.0870312499999955 46.70734375 6.5625 45.89453125 C6.884765625 45.2809375 7.20703125 44.66734375 7.5390625 44.03515625 C7.876796874999997 43.41125 8.21453125 42.78734375 8.5625 42.14453125 C9.3104184817457 39.832783215513295 8.819431936878317 38.581627900750725 8.1640625 36.28515625 C4.2130927222016865 36.23575962842722 0.26224220488279926 36.19943869747545 -3.68896484375 36.17529296875 C-5.695051100955144 36.16027517740169 -7.70105074368432 36.13486644338427 -9.70703125 36.109375 C-10.33544921875 36.10615234375 -10.33544921875 36.10615234375 -13.515625 36.08984375 C-14.6781982421875 36.0793701171875 -15.840771484375 36.068896484375 -17.03857421875 36.05810546875 C-19.8359375 36.28515625 -19.8359375 36.28515625 -21.8359375 38.28515625 Z M28.1640625 36.28515625 C26.97191258980427 39.80107846686888 27.13939295935235 40.229679577674 28.78125 43.921875 C29.52147799070928 45.27895964963368 30.27459129652359 46.62907893419112 31.0390625 47.97265625 C31.416757812500002 48.66166015625001 31.794453125000004 49.3506640625 32.18359375 50.060546875 C34.95547733516483 55.07657108516483 34.95547733516483 55.07657108516483 36.1640625 56.28515625 C39.46923183807259 56.53551598980309 42.78802290924101 56.47037576851977 46.1015625 56.47265625 C47.034199218750004 56.48490234375001 47.96683593750001 56.4971484375 48.927734375 56.509765625 C49.81912109375 56.511699218749996 50.7105078125 56.51363281249999 51.62890625 56.515625 C52.03943237304688 56.517679443359384 52.03943237304688 56.517679443359384 54.116943359375 56.528076171875 C56.1640625 56.28515625 56.1640625 56.28515625 58.1640625 54.28515625 C58.362583517713134 51.57592824356189 58.44245727140451 48.992124457229366 58.4140625 46.28515625 C58.421796875 45.5478125 58.42953125 44.81046875 58.4375 44.05078125 C58.41738209706959 38.5384758470696 58.41738209706959 38.5384758470696 56.1640625 36.28515625 C53.36669921875 36.05810546875 53.36669921875 36.05810546875 49.84375 36.08984375 C48.5869140625 36.0962890625 47.330078125 36.102734375 46.03515625 36.109375 C45.37580078125001 36.11775390625 45.37580078125001 36.11775390625 42.0390625 36.16015625 C40.69922529136653 36.17018642470844 39.35938098417189 36.17931221135314 38.01953125 36.1875 C34.734196774346586 36.21113549982484 31.44921784914351 36.244083909608705 28.1640625 36.28515625 Z " fill="#000000" transform="translate(29.8359375,15.71484375)"/>
</svg>
